solid Created by Gmsh
facet normal -0.169235 0.959777 0.224027
  outer loop
    vertex 2.604722665003924 14.77211629518313 8
    vertex -2.604722665003991 14.77211629518312 4.064678766483206
    vertex -7.500000000000044 12.99038105676655 8
  endloop
endfacet
facet normal 0.915347 0.333159 0.226153
  outer loop
    vertex 15 -3.67394039744206e-15 8
    vertex 14.09538931178862 5.130302149885037 4.103632524674586
    vertex 11.49066664678466 9.641814145298103 8
  endloop
endfacet
facet normal -0.974583 -4.04937e-15 -0.224027
  outer loop
    vertex -14.0953893117886 -5.130302149885092 0
    vertex -15 -5.811507313103743e-14 3.935321233516797
    vertex -14.09538931178865 5.130302149884977 0
  endloop
endfacet
facet normal -0.746574 -0.62645 -0.224027
  outer loop
    vertex -7.499999999999937 -12.99038105676662 0
    vertex -11.49066664678462 -9.641814145298145 3.935321233516796
    vertex -14.0953893117886 -5.130302149885092 0
  endloop
endfacet
facet normal 0.915347 -0.333159 -0.226153
  outer loop
    vertex 15 -3.67394039744206e-15 0
    vertex 14.09538931178863 -5.130302149885029 3.896367475325423
    vertex 11.49066664678468 -9.641814145298083 0
  endloop
endfacet
facet normal 0.487291 -0.844014 0.224027
  outer loop
    vertex 2.604722665003989 -14.77211629518312 8
    vertex 7.500000000000002 -12.99038105676658 4.064678766483205
    vertex 11.49066664678468 -9.641814145298083 8
  endloop
endfacet
facet normal -0.169235 -0.959777 0.224027
  outer loop
    vertex -7.499999999999937 -12.99038105676662 8
    vertex -2.604722665003902 -14.77211629518313 4.064678766483199
    vertex 2.604722665003989 -14.77211629518312 8
  endloop
endfacet
facet normal 0.487684 0.844694 0.220582
  outer loop
    vertex 11.49066664678466 9.641814145298103 8
    vertex 7.50373299721047 12.98822509454524 4
    vertex 2.604722665003924 14.77211629518313 8
  endloop
endfacet
facet normal 0.487684 0.844694 -0.220582
  outer loop
    vertex 2.604722665003924 14.77211629518313 0
    vertex 7.50373299721047 12.98822509454524 4
    vertex 11.49066664678466 9.641814145298103 0
  endloop
endfacet
facet normal -0.747176 0.626955 0.220582
  outer loop
    vertex -7.500000000000044 12.99038105676655 8
    vertex -11.48789521031108 9.645116050982054 4
    vertex -14.09538931178865 5.130302149884977 8
  endloop
endfacet
facet normal -0.747176 0.626955 -0.220582
  outer loop
    vertex -14.09538931178865 5.130302149884977 0
    vertex -11.48789521031108 9.645116050982054 4
    vertex -7.500000000000044 12.99038105676655 0
  endloop
endfacet
facet normal -0.169501 0.961289 -0.217239
  outer loop
    vertex -7.500000000000044 12.99038105676655 0
    vertex -2.604722665003991 14.77211629518312 4.064678766483206
    vertex 2.604722665003924 14.77211629518313 0
  endloop
endfacet
facet normal 0.917661 0.334001 -0.215273
  outer loop
    vertex 11.49066664678466 9.641814145298103 0
    vertex 14.09538931178862 5.130302149885037 4.103632524674586
    vertex 15 -3.67394039744206e-15 0
  endloop
endfacet
facet normal -0.976118 -4.05575e-15 0.217239
  outer loop
    vertex -14.09538931178865 5.130302149884977 8
    vertex -15 -5.811507313103743e-14 3.935321233516797
    vertex -14.0953893117886 -5.130302149885092 8
  endloop
endfacet
facet normal -0.74775 -0.627437 0.217239
  outer loop
    vertex -14.0953893117886 -5.130302149885092 8
    vertex -11.49066664678462 -9.641814145298145 3.935321233516796
    vertex -7.499999999999937 -12.99038105676662 8
  endloop
endfacet
facet normal 0.917661 -0.334001 0.215273
  outer loop
    vertex 11.49066664678468 -9.641814145298083 8
    vertex 14.09538931178863 -5.130302149885029 3.896367475325423
    vertex 15 -3.67394039744206e-15 8
  endloop
endfacet
facet normal 0.488059 -0.845343 -0.217239
  outer loop
    vertex 11.49066664678468 -9.641814145298083 0
    vertex 7.500000000000002 -12.99038105676658 4.064678766483205
    vertex 2.604722665003989 -14.77211629518312 0
  endloop
endfacet
facet normal -0.169501 -0.961289 -0.217239
  outer loop
    vertex 2.604722665003989 -14.77211629518312 0
    vertex -2.604722665003902 -14.77211629518313 4.064678766483199
    vertex -7.499999999999937 -12.99038105676662 0
  endloop
endfacet
facet normal 0.642898 0.765952 -0
  outer loop
    vertex 11.49066664678466 9.641814145298103 0
    vertex 7.50373299721047 12.98822509454524 4
    vertex 11.49066664678466 9.641814145298103 8
  endloop
endfacet
facet normal -0.642678 0.766137 0
  outer loop
    vertex -7.500000000000044 12.99038105676655 0
    vertex -11.48789521031108 9.645116050982054 4
    vertex -7.500000000000044 12.99038105676655 8
  endloop
endfacet
facet normal 0.984808 0.173648 -0
  outer loop
    vertex 15 -3.67394039744206e-15 0
    vertex 14.09538931178862 5.130302149885037 4.103632524674586
    vertex 15 -3.67394039744206e-15 8
  endloop
endfacet
facet normal 0.866025 0.5 0
  outer loop
    vertex 11.49066664678466 9.641814145298103 8
    vertex 14.09538931178862 5.130302149885037 4.103632524674586
    vertex 11.49066664678466 9.641814145298103 0
  endloop
endfacet
facet normal -2.04593e-15 1 0
  outer loop
    vertex 2.604722665003924 14.77211629518313 0
    vertex -2.604722665003991 14.77211629518312 4.064678766483206
    vertex 2.604722665003924 14.77211629518313 8
  endloop
endfacet
facet normal -0.34202 0.939693 0
  outer loop
    vertex -7.500000000000044 12.99038105676655 8
    vertex -2.604722665003991 14.77211629518312 4.064678766483206
    vertex -7.500000000000044 12.99038105676655 0
  endloop
endfacet
facet normal -0.984808 0.173648 0
  outer loop
    vertex -14.09538931178865 5.130302149884977 0
    vertex -15 -5.811507313103743e-14 3.935321233516797
    vertex -14.09538931178865 5.130302149884977 8
  endloop
endfacet
facet normal -0.642788 -0.766044 -0
  outer loop
    vertex -7.499999999999937 -12.99038105676662 8
    vertex -11.49066664678462 -9.641814145298145 3.935321233516796
    vertex -7.499999999999937 -12.99038105676662 0
  endloop
endfacet
facet normal -0.984808 -0.173648 -0
  outer loop
    vertex -14.0953893117886 -5.130302149885092 8
    vertex -15 -5.811507313103743e-14 3.935321233516797
    vertex -14.0953893117886 -5.130302149885092 0
  endloop
endfacet
facet normal -0.866025 -0.5 0
  outer loop
    vertex -14.0953893117886 -5.130302149885092 0
    vertex -11.49066664678462 -9.641814145298145 3.935321233516796
    vertex -14.0953893117886 -5.130302149885092 8
  endloop
endfacet
facet normal 0.984808 -0.173648 0
  outer loop
    vertex 15 -3.67394039744206e-15 8
    vertex 14.09538931178863 -5.130302149885029 3.896367475325423
    vertex 15 -3.67394039744206e-15 0
  endloop
endfacet
facet normal 0.34202 -0.939693 0
  outer loop
    vertex 2.604722665003989 -14.77211629518312 0
    vertex 7.500000000000002 -12.99038105676658 4.064678766483205
    vertex 2.604722665003989 -14.77211629518312 8
  endloop
endfacet
facet normal 0.866025 -0.5 0
  outer loop
    vertex 11.49066664678468 -9.641814145298083 0
    vertex 14.09538931178863 -5.130302149885029 3.896367475325423
    vertex 11.49066664678468 -9.641814145298083 8
  endloop
endfacet
facet normal -0.34202 -0.939693 0
  outer loop
    vertex -7.499999999999937 -12.99038105676662 0
    vertex -2.604722665003902 -14.77211629518313 4.064678766483199
    vertex -7.499999999999937 -12.99038105676662 8
  endloop
endfacet
facet normal 2.7279e-15 -1 0
  outer loop
    vertex 2.604722665003989 -14.77211629518312 8
    vertex -2.604722665003902 -14.77211629518313 4.064678766483199
    vertex 2.604722665003989 -14.77211629518312 0
  endloop
endfacet
facet normal 0.642788 -0.766044 0
  outer loop
    vertex 11.49066664678468 -9.641814145298083 8
    vertex 7.500000000000002 -12.99038105676658 4.064678766483205
    vertex 11.49066664678468 -9.641814145298083 0
  endloop
endfacet
facet normal -0.865954 0.500124 0
  outer loop
    vertex -14.09538931178865 5.130302149884977 8
    vertex -11.48789521031108 9.645116050982054 4
    vertex -14.09538931178865 5.130302149884977 0
  endloop
endfacet
facet normal 0.342155 0.939643 0
  outer loop
    vertex 2.604722665003924 14.77211629518313 8
    vertex 7.50373299721047 12.98822509454524 4
    vertex 2.604722665003924 14.77211629518313 0
  endloop
endfacet
facet normal -0.458071 -0.884037 0.0929996
  outer loop
    vertex -23.06721288459472 -32.67879572041765 8
    vertex -18.40260150924614 -35.51540873609498 4.011300315027032
    vertex -13.39518448683945 -37.69043688475281 8
  endloop
endfacet
facet normal 0.333428 -0.938177 -0.0929996
  outer loop
    vertex 18.4026015092461 -35.515408736095 0
    vertex 13.39518448683944 -37.69043688475282 3.988699684972975
    vertex 8.138240522105333 -39.16336350729292 0
  endloop
endfacet
facet normal 0.0679467 0.993345 -0.0929996
  outer loop
    vertex -2.729696534586799 39.90675076762157 0
    vertex 2.729696534586885 39.90675076762157 3.988699684972983
    vertex 8.138240522105393 39.16336350729291 0
  endloop
endfacet
facet normal -0.958744 -0.268628 0.0929996
  outer loop
    vertex -39.62743784145324 -5.446665963849838 8
    vertex -38.51669149391198 -10.79187084628094 4.011300315027018
    vertex -36.68845206021813 -15.93604359384963 8
  endloop
endfacet
facet normal -0.679595 0.727669 -0.0929996
  outer loop
    vertex -31.02845162817676 25.24351777304215 0
    vertex -27.30212572874613 29.23343857112499 3.988699684972974
    vertex -23.06721288459465 32.6787957204177 0
  endloop
endfacet
facet normal -0.458071 0.884037 0.0929996
  outer loop
    vertex -13.3951844868394 37.69043688475283 8
    vertex -18.40260150924605 35.51540873609503 4.011300315027017
    vertex -23.06721288459465 32.6787957204177 8
  endloop
endfacet
facet normal 0.986379 -0.135575 -0.0931405
  outer loop
    vertex 40 -9.797174393178826e-15 0
    vertex 39.62743784145323 -5.446665963849888 3.982611886440744
    vertex 38.51669149391197 -10.79187084628098 0
  endloop
endfacet
facet normal 0.0679467 -0.993345 0.0929996
  outer loop
    vertex -2.729696534586854 -39.90675076762157 8
    vertex 2.729696534586839 -39.90675076762157 4.011300315027018
    vertex 8.138240522105333 -39.16336350729292 8
  endloop
endfacet
facet normal 0.333428 0.938177 -0.0929996
  outer loop
    vertex 8.138240522105393 39.16336350729291 0
    vertex 13.39518448683948 37.69043688475281 3.988699684972979
    vertex 18.40260150924612 35.51540873609499 0
  endloop
endfacet
facet normal -0.958744 0.268628 -0.0929996
  outer loop
    vertex -39.62743784145323 5.446665963849902 0
    vertex -38.51669149391196 10.79187084628102 3.988699684973001
    vertex -36.6884520602181 15.93604359384971 0
  endloop
endfacet
facet normal 0.772349 0.628353 0.0929996
  outer loop
    vertex 34.17677618185955 20.78335800141733 8
    vertex 31.0284516281768 25.2435177730421 4.011300315027016
    vertex 27.30212572874618 29.23343857112495 8
  endloop
endfacet
facet normal -0.850716 -0.517332 0.0929996
  outer loop
    vertex -36.68845206021813 -15.93604359384963 8
    vertex -34.17677618185957 -20.7833580014173 4.011300315027018
    vertex -31.02845162817681 -25.24351777304208 8
  endloop
endfacet
facet normal -0.679595 -0.727669 0.0929996
  outer loop
    vertex -31.02845162817681 -25.24351777304208 8
    vertex -27.30212572874617 -29.23343857112496 4.011300315027018
    vertex -23.06721288459472 -32.67879572041765 8
  endloop
endfacet
facet normal -0.850716 0.517332 -0.0929996
  outer loop
    vertex -36.6884520602181 15.93604359384971 0
    vertex -34.17677618185952 20.78335800141737 3.988699684972984
    vertex -31.02845162817676 25.24351777304215 0
  endloop
endfacet
facet normal 0.772349 -0.628353 -0.0929996
  outer loop
    vertex 34.17677618185956 -20.78335800141731 0
    vertex 31.02845162817678 -25.24351777304212 3.988699684973019
    vertex 27.30212572874617 -29.23343857112496 0
  endloop
endfacet
facet normal 0.574181 0.813429 0.0929996
  outer loop
    vertex 27.30212572874618 29.23343857112495 8
    vertex 23.06721288459471 32.67879572041767 4.011300315027015
    vertex 18.40260150924612 35.51540873609499 8
  endloop
endfacet
facet normal 0.913236 -0.396674 -0.0929996
  outer loop
    vertex 38.51669149391197 -10.79187084628098 0
    vertex 36.68845206021813 -15.93604359384964 3.988699684972994
    vertex 34.17677618185956 -20.78335800141731 0
  endloop
endfacet
facet normal -0.99569 6.49462e-16 0.0927391
  outer loop
    vertex -39.62743784145323 5.446665963849902 8
    vertex -39.99999999433096 -0.0006734410517227692 4
    vertex -39.62743784145324 -5.446665963849838 8
  endloop
endfacet
facet normal -0.99569 6.49462e-16 -0.0927391
  outer loop
    vertex -39.62743784145324 -5.446665963849838 0
    vertex -39.99999999433096 -0.0006734410517227692 4
    vertex -39.62743784145323 5.446665963849902 0
  endloop
endfacet
facet normal 0.986417 0.13558 0.0927391
  outer loop
    vertex 40 -9.797174393178826e-15 8
    vertex 39.62685805667051 5.450882548403255 4
    vertex 38.51669149391198 10.79187084628096 8
  endloop
endfacet
facet normal 0.986417 0.13558 -0.0927391
  outer loop
    vertex 38.51669149391198 10.79187084628096 0
    vertex 39.62685805667051 5.450882548403255 4
    vertex 40 -9.797174393178826e-15 0
  endloop
endfacet
facet normal -0.202579 0.974865 0.0927391
  outer loop
    vertex -2.729696534586799 39.90675076762157 8
    vertex -8.13889987636979 39.16322648611102 4
    vertex -13.3951844868394 37.69043688475283 8
  endloop
endfacet
facet normal -0.202579 -0.974865 -0.0927391
  outer loop
    vertex -2.729696534586854 -39.90675076762157 0
    vertex -8.137581165534208 -39.16350051737386 4
    vertex -13.39518448683945 -37.69043688475281 0
  endloop
endfacet
facet normal 0.574195 -0.813449 0.0927391
  outer loop
    vertex 18.4026015092461 -35.515408736095 8
    vertex 23.0677630623895 -32.67840735558358 4
    vertex 27.30212572874617 -29.23343857112496 8
  endloop
endfacet
facet normal -0.202579 0.974865 -0.0927391
  outer loop
    vertex -13.3951844868394 37.69043688475283 0
    vertex -8.13889987636979 39.16322648611102 4
    vertex -2.729696534586799 39.90675076762157 0
  endloop
endfacet
facet normal -0.202579 -0.974865 0.0927391
  outer loop
    vertex -13.39518448683945 -37.69043688475281 8
    vertex -8.137581165534208 -39.16350051737386 4
    vertex -2.729696534586854 -39.90675076762157 8
  endloop
endfacet
facet normal 0.913259 0.396684 -0.0927391
  outer loop
    vertex 34.17677618185955 20.78335800141733 0
    vertex 36.68818375536932 15.93666127933498 4
    vertex 38.51669149391198 10.79187084628096 0
  endloop
endfacet
facet normal 0.574195 -0.813449 -0.0927391
  outer loop
    vertex 27.30212572874617 -29.23343857112496 0
    vertex 23.0677630623895 -32.67840735558358 4
    vertex 18.4026015092461 -35.515408736095 0
  endloop
endfacet
facet normal 0.913259 0.396684 0.0927391
  outer loop
    vertex 38.51669149391198 10.79187084628096 8
    vertex 36.68818375536932 15.93666127933498 4
    vertex 34.17677618185955 20.78335800141733 8
  endloop
endfacet
facet normal 0.772387 -0.628383 0.0924801
  outer loop
    vertex 27.30212572874617 -29.23343857112496 8
    vertex 31.02845162817678 -25.24351777304212 3.988699684973019
    vertex 34.17677618185956 -20.78335800141731 8
  endloop
endfacet
facet normal -0.958791 0.268641 0.0924801
  outer loop
    vertex -36.6884520602181 15.93604359384971 8
    vertex -38.51669149391196 10.79187084628102 3.988699684973001
    vertex -39.62743784145323 5.446665963849902 8
  endloop
endfacet
facet normal 0.333444 -0.938223 0.0924801
  outer loop
    vertex 8.138240522105333 -39.16336350729292 8
    vertex 13.39518448683944 -37.69043688475282 3.988699684972975
    vertex 18.4026015092461 -35.515408736095 8
  endloop
endfacet
facet normal -0.458093 -0.88408 -0.0924801
  outer loop
    vertex -13.39518448683945 -37.69043688475281 0
    vertex -18.40260150924614 -35.51540873609498 4.011300315027032
    vertex -23.06721288459472 -32.67879572041765 0
  endloop
endfacet
facet normal 0.06795 0.993393 0.0924801
  outer loop
    vertex 8.138240522105393 39.16336350729291 8
    vertex 2.729696534586885 39.90675076762157 3.988699684972983
    vertex -2.729696534586799 39.90675076762157 8
  endloop
endfacet
facet normal -0.458093 0.88408 -0.0924801
  outer loop
    vertex -23.06721288459465 32.6787957204177 0
    vertex -18.40260150924605 35.51540873609503 4.011300315027017
    vertex -13.3951844868394 37.69043688475283 0
  endloop
endfacet
facet normal -0.679628 -0.727704 -0.0924801
  outer loop
    vertex -23.06721288459472 -32.67879572041765 0
    vertex -27.30212572874617 -29.23343857112496 4.011300315027018
    vertex -31.02845162817681 -25.24351777304208 0
  endloop
endfacet
facet normal -0.958791 -0.268641 -0.0924801
  outer loop
    vertex -36.68845206021813 -15.93604359384963 0
    vertex -38.51669149391198 -10.79187084628094 4.011300315027018
    vertex -39.62743784145324 -5.446665963849838 0
  endloop
endfacet
facet normal 0.986453 -0.135585 0.0923412
  outer loop
    vertex 38.51669149391197 -10.79187084628098 8
    vertex 39.62743784145323 -5.446665963849888 3.982611886440744
    vertex 40 -9.797174393178826e-15 8
  endloop
endfacet
facet normal 0.772387 0.628383 -0.0924801
  outer loop
    vertex 27.30212572874618 29.23343857112495 0
    vertex 31.0284516281768 25.2435177730421 4.011300315027016
    vertex 34.17677618185955 20.78335800141733 0
  endloop
endfacet
facet normal 0.574209 0.813469 -0.0924801
  outer loop
    vertex 18.40260150924612 35.51540873609499 0
    vertex 23.06721288459471 32.67879572041767 4.011300315027015
    vertex 27.30212572874618 29.23343857112495 0
  endloop
endfacet
facet normal 0.06795 -0.993393 -0.0924801
  outer loop
    vertex 8.138240522105333 -39.16336350729292 0
    vertex 2.729696534586839 -39.90675076762157 4.011300315027018
    vertex -2.729696534586854 -39.90675076762157 0
  endloop
endfacet
facet normal 0.333444 0.938223 0.0924801
  outer loop
    vertex 18.40260150924612 35.51540873609499 8
    vertex 13.39518448683948 37.69043688475281 3.988699684972979
    vertex 8.138240522105393 39.16336350729291 8
  endloop
endfacet
facet normal -0.850758 0.517357 0.0924801
  outer loop
    vertex -31.02845162817676 25.24351777304215 8
    vertex -34.17677618185952 20.78335800141737 3.988699684972984
    vertex -36.6884520602181 15.93604359384971 8
  endloop
endfacet
facet normal -0.679628 0.727704 0.0924801
  outer loop
    vertex -23.06721288459465 32.6787957204177 8
    vertex -27.30212572874613 29.23343857112499 3.988699684972974
    vertex -31.02845162817676 25.24351777304215 8
  endloop
endfacet
facet normal -0.850758 -0.517357 -0.0924801
  outer loop
    vertex -31.02845162817681 -25.24351777304208 0
    vertex -34.17677618185957 -20.7833580014173 4.011300315027018
    vertex -36.68845206021813 -15.93604359384963 0
  endloop
endfacet
facet normal 0.913281 -0.396694 0.0924801
  outer loop
    vertex 34.17677618185956 -20.78335800141731 8
    vertex 36.68845206021813 -15.93604359384964 3.988699684972994
    vertex 38.51669149391197 -10.79187084628098 8
  endloop
endfacet
facet normal 0.997665 0.0682955 -0
  outer loop
    vertex 40 -9.797174393178826e-15 0
    vertex 39.62685805667051 5.450882548403255 4
    vertex 40 -9.797174393178826e-15 8
  endloop
endfacet
facet normal 0.942258 0.334888 -0
  outer loop
    vertex 38.51669149391198 10.79187084628096 0
    vertex 36.68818375536932 15.93666127933498 4
    vertex 38.51669149391198 10.79187084628096 8
  endloop
endfacet
facet normal -0.136175 0.990685 0
  outer loop
    vertex -2.729696534586799 39.90675076762157 0
    vertex -8.13889987636979 39.16322648611102 4
    vertex -2.729696534586799 39.90675076762157 8
  endloop
endfacet
facet normal 0.519591 -0.854415 0
  outer loop
    vertex 18.4026015092461 -35.515408736095 0
    vertex 23.0677630623895 -32.67840735558358 4
    vertex 18.4026015092461 -35.515408736095 8
  endloop
endfacet
facet normal -0.997669 0.068234 0
  outer loop
    vertex -39.62743784145323 5.446665963849902 0
    vertex -39.99999999433096 -0.0006734410517227692 4
    vertex -39.62743784145323 5.446665963849902 8
  endloop
endfacet
facet normal -0.269789 -0.96292 0
  outer loop
    vertex -13.39518448683945 -37.69043688475281 0
    vertex -8.137581165534208 -39.16350051737386 4
    vertex -13.39518448683945 -37.69043688475281 8
  endloop
endfacet
facet normal -0.942261 0.33488 0
  outer loop
    vertex -36.6884520602181 15.93604359384971 0
    vertex -38.51669149391196 10.79187084628102 3.988699684973001
    vertex -36.6884520602181 15.93604359384971 8
  endloop
endfacet
facet normal 0.398401 -0.917211 0
  outer loop
    vertex 18.4026015092461 -35.515408736095 8
    vertex 13.39518448683944 -37.69043688475282 3.988699684972975
    vertex 18.4026015092461 -35.515408736095 0
  endloop
endfacet
facet normal 0.81697 -0.57668 0
  outer loop
    vertex 34.17677618185956 -20.78335800141731 8
    vertex 31.02845162817678 -25.24351777304212 3.988699684973019
    vertex 34.17677618185956 -20.78335800141731 0
  endloop
endfacet
facet normal 0.997669 -0.0682424 0
  outer loop
    vertex 40 -9.797174393178826e-15 8
    vertex 39.62743784145323 -5.446665963849888 3.982611886440744
    vertex 40 -9.797174393178826e-15 0
  endloop
endfacet
facet normal -0.519584 -0.854419 0
  outer loop
    vertex -23.06721288459472 -32.67879572041765 0
    vertex -18.40260150924614 -35.51540873609498 4.011300315027032
    vertex -23.06721288459472 -32.67879572041765 8
  endloop
endfacet
facet normal -0.398401 -0.917211 -0
  outer loop
    vertex -13.39518448683945 -37.69043688475281 8
    vertex -18.40260150924614 -35.51540873609498 4.011300315027032
    vertex -13.39518448683945 -37.69043688475281 0
  endloop
endfacet
facet normal 0 -1 0
  outer loop
    vertex -2.729696534586854 -39.90675076762157 0
    vertex 2.729696534586839 -39.90675076762157 4.011300315027018
    vertex -2.729696534586854 -39.90675076762157 8
  endloop
endfacet
facet normal 0.269797 -0.962917 0
  outer loop
    vertex 8.138240522105333 -39.16336350729292 0
    vertex 13.39518448683944 -37.69043688475282 3.988699684972975
    vertex 8.138240522105333 -39.16336350729292 8
  endloop
endfacet
facet normal 0.730836 -0.682553 0
  outer loop
    vertex 27.30212572874617 -29.23343857112496 0
    vertex 31.02845162817678 -25.24351777304212 3.988699684973019
    vertex 27.30212572874617 -29.23343857112496 8
  endloop
endfacet
facet normal -0.398401 0.917211 0
  outer loop
    vertex -13.3951844868394 37.69043688475283 0
    vertex -18.40260150924605 35.51540873609503 4.011300315027017
    vertex -13.3951844868394 37.69043688475283 8
  endloop
endfacet
facet normal 0.730836 0.682553 0
  outer loop
    vertex 27.30212572874618 29.23343857112495 8
    vertex 31.0284516281768 25.2435177730421 4.011300315027016
    vertex 27.30212572874618 29.23343857112495 0
  endloop
endfacet
facet normal 0.136167 0.990686 -0
  outer loop
    vertex 8.138240522105393 39.16336350729291 0
    vertex 2.729696534586885 39.90675076762157 3.988699684972983
    vertex 8.138240522105393 39.16336350729291 8
  endloop
endfacet
facet normal 0.269797 0.962917 0
  outer loop
    vertex 8.138240522105393 39.16336350729291 8
    vertex 13.39518448683948 37.69043688475281 3.988699684972979
    vertex 8.138240522105393 39.16336350729291 0
  endloop
endfacet
facet normal -0.519584 0.854419 0
  outer loop
    vertex -23.06721288459465 32.6787957204177 8
    vertex -18.40260150924605 35.51540873609503 4.011300315027017
    vertex -23.06721288459465 32.6787957204177 0
  endloop
endfacet
facet normal -0.942261 -0.33488 -0
  outer loop
    vertex -36.68845206021813 -15.93604359384963 8
    vertex -38.51669149391198 -10.79187084628094 4.011300315027018
    vertex -36.68845206021813 -15.93604359384963 0
  endloop
endfacet
facet normal -0.887885 -0.460065 0
  outer loop
    vertex -36.68845206021813 -15.93604359384963 0
    vertex -34.17677618185957 -20.7833580014173 4.011300315027018
    vertex -36.68845206021813 -15.93604359384963 8
  endloop
endfacet
facet normal -0.730836 -0.682553 0
  outer loop
    vertex -31.02845162817681 -25.24351777304208 0
    vertex -27.30212572874617 -29.23343857112496 4.011300315027018
    vertex -31.02845162817681 -25.24351777304208 8
  endloop
endfacet
facet normal 0.398401 0.917211 -0
  outer loop
    vertex 18.40260150924612 35.51540873609499 0
    vertex 13.39518448683948 37.69043688475281 3.988699684972979
    vertex 18.40260150924612 35.51540873609499 8
  endloop
endfacet
facet normal 1.3015e-15 1 0
  outer loop
    vertex -2.729696534586799 39.90675076762157 8
    vertex 2.729696534586885 39.90675076762157 3.988699684972983
    vertex -2.729696534586799 39.90675076762157 0
  endloop
endfacet
facet normal -0.631088 0.775711 0
  outer loop
    vertex -23.06721288459465 32.6787957204177 0
    vertex -27.30212572874613 29.23343857112499 3.988699684972974
    vertex -23.06721288459465 32.6787957204177 8
  endloop
endfacet
facet normal -0.730836 0.682553 0
  outer loop
    vertex -31.02845162817676 25.24351777304215 8
    vertex -27.30212572874613 29.23343857112499 3.988699684972974
    vertex -31.02845162817676 25.24351777304215 0
  endloop
endfacet
facet normal -0.887885 0.460065 0
  outer loop
    vertex -36.6884520602181 15.93604359384971 8
    vertex -34.17677618185952 20.78335800141737 3.988699684972984
    vertex -36.6884520602181 15.93604359384971 0
  endloop
endfacet
facet normal -0.979084 0.203456 0
  outer loop
    vertex -39.62743784145323 5.446665963849902 8
    vertex -38.51669149391196 10.79187084628102 3.988699684973001
    vertex -39.62743784145323 5.446665963849902 0
  endloop
endfacet
facet normal -0.979084 -0.203456 0
  outer loop
    vertex -39.62743784145324 -5.446665963849838 0
    vertex -38.51669149391198 -10.79187084628094 4.011300315027018
    vertex -39.62743784145324 -5.446665963849838 8
  endloop
endfacet
facet normal 0.81697 0.57668 -0
  outer loop
    vertex 34.17677618185955 20.78335800141733 0
    vertex 31.0284516281768 25.2435177730421 4.011300315027016
    vertex 34.17677618185955 20.78335800141733 8
  endloop
endfacet
facet normal 0.631088 0.775711 -0
  outer loop
    vertex 27.30212572874618 29.23343857112495 0
    vertex 23.06721288459471 32.67879572041767 4.011300315027015
    vertex 27.30212572874618 29.23343857112495 8
  endloop
endfacet
facet normal 0.519584 0.854419 0
  outer loop
    vertex 18.40260150924612 35.51540873609499 8
    vertex 23.06721288459471 32.67879572041767 4.011300315027015
    vertex 18.40260150924612 35.51540873609499 0
  endloop
endfacet
facet normal -0.81697 0.57668 0
  outer loop
    vertex -31.02845162817676 25.24351777304215 0
    vertex -34.17677618185952 20.78335800141737 3.988699684972984
    vertex -31.02845162817676 25.24351777304215 8
  endloop
endfacet
facet normal -0.81697 -0.57668 -0
  outer loop
    vertex -31.02845162817681 -25.24351777304208 8
    vertex -34.17677618185957 -20.7833580014173 4.011300315027018
    vertex -31.02845162817681 -25.24351777304208 0
  endloop
endfacet
facet normal -0.631088 -0.775711 -0
  outer loop
    vertex -23.06721288459472 -32.67879572041765 8
    vertex -27.30212572874617 -29.23343857112496 4.011300315027018
    vertex -23.06721288459472 -32.67879572041765 0
  endloop
endfacet
facet normal 0.136167 -0.990686 0
  outer loop
    vertex 8.138240522105333 -39.16336350729292 8
    vertex 2.729696534586839 -39.90675076762157 4.011300315027018
    vertex 8.138240522105333 -39.16336350729292 0
  endloop
endfacet
facet normal 0.979084 -0.203456 0
  outer loop
    vertex 38.51669149391197 -10.79187084628098 0
    vertex 39.62743784145323 -5.446665963849888 3.982611886440744
    vertex 38.51669149391197 -10.79187084628098 8
  endloop
endfacet
facet normal 0.942261 -0.33488 0
  outer loop
    vertex 38.51669149391197 -10.79187084628098 8
    vertex 36.68845206021813 -15.93604359384964 3.988699684972994
    vertex 38.51669149391197 -10.79187084628098 0
  endloop
endfacet
facet normal 0.887885 -0.460065 0
  outer loop
    vertex 34.17677618185956 -20.78335800141731 0
    vertex 36.68845206021813 -15.93604359384964 3.988699684972994
    vertex 34.17677618185956 -20.78335800141731 8
  endloop
endfacet
facet normal -0.997668 -0.0682508 -0
  outer loop
    vertex -39.62743784145324 -5.446665963849838 8
    vertex -39.99999999433096 -0.0006734410517227692 4
    vertex -39.62743784145324 -5.446665963849838 0
  endloop
endfacet
facet normal -0.136158 -0.990687 -0
  outer loop
    vertex -2.729696534586854 -39.90675076762157 8
    vertex -8.137581165534208 -39.16350051737386 4
    vertex -2.729696534586854 -39.90675076762157 0
  endloop
endfacet
facet normal 0.631094 -0.775706 0
  outer loop
    vertex 27.30212572874617 -29.23343857112496 8
    vertex 23.0677630623895 -32.67840735558358 4
    vertex 27.30212572874617 -29.23343857112496 0
  endloop
endfacet
facet normal -0.269805 0.962915 0
  outer loop
    vertex -13.3951844868394 37.69043688475283 8
    vertex -8.13889987636979 39.16322648611102 4
    vertex -13.3951844868394 37.69043688475283 0
  endloop
endfacet
facet normal 0.887881 0.460073 0
  outer loop
    vertex 34.17677618185955 20.78335800141733 8
    vertex 36.68818375536932 15.93666127933498 4
    vertex 34.17677618185955 20.78335800141733 0
  endloop
endfacet
facet normal 0.979073 0.203508 0
  outer loop
    vertex 38.51669149391198 10.79187084628096 8
    vertex 39.62685805667051 5.450882548403255 4
    vertex 38.51669149391198 10.79187084628096 0
  endloop
endfacet
facet normal 0 0 1
  outer loop
    vertex 34.17677618185956 -20.78335800141731 8
    vertex 24.8330406237594 -18.85821722489349 8
    vertex 27.30212572874617 -29.23343857112496 8
  endloop
endfacet
facet normal 0 0 1
  outer loop
    vertex 27.30212572874618 29.23343857112495 8
    vertex 24.86736352640981 18.85520097312232 8
    vertex 34.17677618185955 20.78335800141733 8
  endloop
endfacet
facet normal 0 0 1
  outer loop
    vertex -13.39518448683945 -37.69043688475281 8
    vertex -13.66800579828274 -27.74348224805916 8
    vertex -23.06721288459472 -32.67879572041765 8
  endloop
endfacet
facet normal -0 0 1
  outer loop
    vertex -23.06721288459465 32.6787957204177 8
    vertex -13.66800579828275 27.74348224805922 8
    vertex -13.3951844868394 37.69043688475283 8
  endloop
endfacet
facet normal 0 0 1
  outer loop
    vertex -14.0953893117886 -5.130302149885092 8
    vertex -17.47115536413318 -14.39347173680036 8
    vertex -7.499999999999937 -12.99038105676662 8
  endloop
endfacet
facet normal 0 0 1
  outer loop
    vertex -7.500000000000044 12.99038105676655 8
    vertex -17.47115536413321 14.39347173680033 8
    vertex -14.09538931178865 5.130302149884977 8
  endloop
endfacet
facet normal 0 0 1
  outer loop
    vertex 11.49066664678466 9.641814145298103 8
    vertex 11.01800385358042 19.87597889247225 8
    vertex 2.604722665003924 14.77211629518313 8
  endloop
endfacet
facet normal -0 0 1
  outer loop
    vertex 2.604722665003989 -14.77211629518312 8
    vertex 11.01800385358045 -19.87597889247221 8
    vertex 11.49066664678468 -9.641814145298083 8
  endloop
endfacet
facet normal 0 -0 1
  outer loop
    vertex 15 -3.67394039744206e-15 8
    vertex 21.88444567109731 8.706327633105722 8
    vertex 11.49066664678466 9.641814145298103 8
  endloop
endfacet
facet normal 0 0 1
  outer loop
    vertex 11.49066664678468 -9.641814145298083 8
    vertex 21.68569194144104 -8.679727937719514 8
    vertex 15 -3.67394039744206e-15 8
  endloop
endfacet
facet normal 0 0 1
  outer loop
    vertex 2.604722665003924 14.77211629518313 8
    vertex -4.421208650482996 22.80685017660299 8
    vertex -7.500000000000044 12.99038105676655 8
  endloop
endfacet
facet normal 0 0 1
  outer loop
    vertex -7.499999999999937 -12.99038105676662 8
    vertex -4.421208650482949 -22.80685017660298 8
    vertex 2.604722665003989 -14.77211629518312 8
  endloop
endfacet
facet normal 0 0 1
  outer loop
    vertex -14.09538931178865 5.130302149884977 8
    vertex -23.13199828100886 -5.668517080952331e-14 8
    vertex -14.0953893117886 -5.130302149885092 8
  endloop
endfacet
facet normal 0 0 1
  outer loop
    vertex 18.27275223415258 -24.83102020719602 8
    vertex 17.24499046235288 -15.35711461381749 8
    vertex 11.01800385358045 -19.87597889247221 8
  endloop
endfacet
facet normal -0 0 1
  outer loop
    vertex 11.01800385358042 19.87597889247225 8
    vertex 17.22219317637839 15.19117385800334 8
    vertex 18.27847271792764 24.8305174985675 8
  endloop
endfacet
facet normal 0 0 1
  outer loop
    vertex -39.62743784145323 5.446665963849902 8
    vertex -30.03517775969799 7.864316914940949 8
    vertex -36.6884520602181 15.93604359384971 8
  endloop
endfacet
facet normal 0 -0 1
  outer loop
    vertex -36.68845206021813 -15.93604359384963 8
    vertex -30.03517775969804 -7.864316914940945 8
    vertex -39.62743784145324 -5.446665963849838 8
  endloop
endfacet
facet normal 0 0 1
  outer loop
    vertex 24.8330406237594 -18.85821722489349 8
    vertex 17.24499046235288 -15.35711461381749 8
    vertex 18.27275223415258 -24.83102020719602 8
  endloop
endfacet
facet normal 0 0 1
  outer loop
    vertex 18.27847271792764 24.8305174985675 8
    vertex 17.22219317637839 15.19117385800334 8
    vertex 24.86736352640981 18.85520097312232 8
  endloop
endfacet
facet normal 0 0 1
  outer loop
    vertex -2.729696534586799 39.90675076762157 8
    vertex 1.822219026018609 31.03684503353625 8
    vertex 8.138240522105393 39.16336350729291 8
  endloop
endfacet
facet normal 0 0 1
  outer loop
    vertex 8.138240522105333 -39.16336350729292 8
    vertex 1.822219026018584 -31.03684503353628 8
    vertex -2.729696534586854 -39.90675076762157 8
  endloop
endfacet
facet normal 0 0 1
  outer loop
    vertex -20.77435832379492 -22.76377010295901 8
    vertex -11.86850584576743 -19.70547049611101 8
    vertex -17.47115536413318 -14.39347173680036 8
  endloop
endfacet
facet normal 0 -0 1
  outer loop
    vertex -17.47115536413321 14.39347173680033 8
    vertex -11.86850584576755 19.705470496111 8
    vertex -20.77435832379491 22.76377010295904 8
  endloop
endfacet
facet normal 0 0 1
  outer loop
    vertex 21.88444567109731 8.706327633105722 8
    vertex 30.22702311264581 12.8007277805549 8
    vertex 24.86736352640981 18.85520097312232 8
  endloop
endfacet
facet normal 0 -0 1
  outer loop
    vertex 24.8330406237594 -18.85821722489349 8
    vertex 30.0471282860372 -12.73289358683012 8
    vertex 21.68569194144104 -8.679727937719514 8
  endloop
endfacet
facet normal 0 0 1
  outer loop
    vertex 40 -9.797174393178826e-15 8
    vertex 31.02344118921404 -4.55129392383931 8
    vertex 38.51669149391197 -10.79187084628098 8
  endloop
endfacet
facet normal 0 0 1
  outer loop
    vertex -17.47115536413318 -14.39347173680036 8
    vertex -21.72157564200331 -8.067408838594078 8
    vertex -26.25855829593218 -15.67939213497899 8
  endloop
endfacet
facet normal 0 0 1
  outer loop
    vertex -26.25855829593215 15.67939213497899 8
    vertex -21.72157564200329 8.067408838593959 8
    vertex -17.47115536413321 14.39347173680033 8
  endloop
endfacet
facet normal -0 0 1
  outer loop
    vertex 21.88444567109731 8.706327633105722 8
    vertex 30.92955452615414 4.624605389350382 8
    vertex 30.22702311264581 12.8007277805549 8
  endloop
endfacet
facet normal 0 0 1
  outer loop
    vertex 11.01800385358045 -19.87597889247221 8
    vertex 4.060662705311262 -22.84946316249332 8
    vertex 10.2740806319813 -28.84246859644284 8
  endloop
endfacet
facet normal 0 0 1
  outer loop
    vertex 10.2750340459438 28.84238481167143 8
    vertex 4.060712341606608 22.84945880052068 8
    vertex 11.01800385358042 19.87597889247225 8
  endloop
endfacet
facet normal 0 -0 1
  outer loop
    vertex -13.66800579828274 -27.74348224805916 8
    vertex -11.86850584576743 -19.70547049611101 8
    vertex -20.77435832379492 -22.76377010295901 8
  endloop
endfacet
facet normal -0 0 1
  outer loop
    vertex -20.77435832379491 22.76377010295904 8
    vertex -11.86850584576755 19.705470496111 8
    vertex -13.66800579828275 27.74348224805922 8
  endloop
endfacet
facet normal 0 0 1
  outer loop
    vertex 21.88444567109731 8.706327633105722 8
    vertex 23.92572569005572 1.4210854715202e-14 8
    vertex 30.92955452615414 4.624605389350382 8
  endloop
endfacet
facet normal 0 0 1
  outer loop
    vertex 11.01800385358045 -19.87597889247221 8
    vertex 10.2740806319813 -28.84246859644284 8
    vertex 18.27275223415258 -24.83102020719602 8
  endloop
endfacet
facet normal 0 0 1
  outer loop
    vertex 18.27847271792764 24.8305174985675 8
    vertex 10.2750340459438 28.84238481167143 8
    vertex 11.01800385358042 19.87597889247225 8
  endloop
endfacet
facet normal 0 0 1
  outer loop
    vertex 21.68569194144104 -8.679727937719514 8
    vertex 17.24499046235288 -15.35711461381749 8
    vertex 24.8330406237594 -18.85821722489349 8
  endloop
endfacet
facet normal 0 0 1
  outer loop
    vertex 24.86736352640981 18.85520097312232 8
    vertex 17.22219317637839 15.19117385800334 8
    vertex 21.88444567109731 8.706327633105722 8
  endloop
endfacet
facet normal 0 0 1
  outer loop
    vertex -17.47115536413318 -14.39347173680036 8
    vertex -26.25855829593218 -15.67939213497899 8
    vertex -20.77435832379492 -22.76377010295901 8
  endloop
endfacet
facet normal 0 0 1
  outer loop
    vertex -20.77435832379491 22.76377010295904 8
    vertex -26.25855829593215 15.67939213497899 8
    vertex -17.47115536413321 14.39347173680033 8
  endloop
endfacet
facet normal -0 0 1
  outer loop
    vertex -13.66800579828274 -27.74348224805916 8
    vertex -6.478375288834683 -31.83687302211456 8
    vertex -4.421208650482949 -22.80685017660298 8
  endloop
endfacet
facet normal 0 0 1
  outer loop
    vertex -4.421208650482996 22.80685017660299 8
    vertex -6.478375288834669 31.83687302211458 8
    vertex -13.66800579828275 27.74348224805922 8
  endloop
endfacet
facet normal 0 0 1
  outer loop
    vertex -30.03517775969799 7.864316914940949 8
    vertex -32.49144589666227 2.131628207280301e-15 8
    vertex -23.13199828100886 -5.668517080952331e-14 8
  endloop
endfacet
facet normal 0 0 1
  outer loop
    vertex -23.13199828100886 -5.668517080952331e-14 8
    vertex -32.49144589666227 2.131628207280301e-15 8
    vertex -30.03517775969804 -7.864316914940945 8
  endloop
endfacet
facet normal 0 0 1
  outer loop
    vertex -30.03517775969799 7.864316914940949 8
    vertex -21.72157564200329 8.067408838593959 8
    vertex -26.25855829593215 15.67939213497899 8
  endloop
endfacet
facet normal 0 -0 1
  outer loop
    vertex -26.25855829593218 -15.67939213497899 8
    vertex -21.72157564200331 -8.067408838594078 8
    vertex -30.03517775969804 -7.864316914940945 8
  endloop
endfacet
facet normal 0 0 1
  outer loop
    vertex -4.421208650482949 -22.80685017660298 8
    vertex -6.478375288834683 -31.83687302211456 8
    vertex 1.822219026018584 -31.03684503353628 8
  endloop
endfacet
facet normal 0 0 1
  outer loop
    vertex 1.822219026018609 31.03684503353625 8
    vertex -6.478375288834669 31.83687302211458 8
    vertex -4.421208650482996 22.80685017660299 8
  endloop
endfacet
facet normal -0 0 1
  outer loop
    vertex 24.86736352640981 18.85520097312232 8
    vertex 30.22702311264581 12.8007277805549 8
    vertex 34.17677618185955 20.78335800141733 8
  endloop
endfacet
facet normal 0 0 1
  outer loop
    vertex 24.8330406237594 -18.85821722489349 8
    vertex 18.27275223415258 -24.83102020719602 8
    vertex 27.30212572874617 -29.23343857112496 8
  endloop
endfacet
facet normal 0 0 1
  outer loop
    vertex 27.30212572874618 29.23343857112495 8
    vertex 18.27847271792764 24.8305174985675 8
    vertex 24.86736352640981 18.85520097312232 8
  endloop
endfacet
facet normal 0 0 1
  outer loop
    vertex 34.17677618185956 -20.78335800141731 8
    vertex 30.0471282860372 -12.73289358683012 8
    vertex 24.8330406237594 -18.85821722489349 8
  endloop
endfacet
facet normal -0 0 1
  outer loop
    vertex 21.68569194144104 -8.679727937719514 8
    vertex 30.0471282860372 -12.73289358683012 8
    vertex 31.02344118921404 -4.55129392383931 8
  endloop
endfacet
facet normal 0 0 1
  outer loop
    vertex -13.66800579828274 -27.74348224805916 8
    vertex -20.77435832379492 -22.76377010295901 8
    vertex -23.06721288459472 -32.67879572041765 8
  endloop
endfacet
facet normal 0 0 1
  outer loop
    vertex -23.06721288459465 32.6787957204177 8
    vertex -20.77435832379491 22.76377010295904 8
    vertex -13.66800579828275 27.74348224805922 8
  endloop
endfacet
facet normal 0 -0 1
  outer loop
    vertex -13.39518448683945 -37.69043688475281 8
    vertex -6.478375288834683 -31.83687302211456 8
    vertex -13.66800579828274 -27.74348224805916 8
  endloop
endfacet
facet normal 0 0 1
  outer loop
    vertex -13.66800579828275 27.74348224805922 8
    vertex -6.478375288834669 31.83687302211458 8
    vertex -13.3951844868394 37.69043688475283 8
  endloop
endfacet
facet normal 0 0 1
  outer loop
    vertex 34.17677618185955 20.78335800141733 8
    vertex 30.22702311264581 12.8007277805549 8
    vertex 38.51669149391198 10.79187084628096 8
  endloop
endfacet
facet normal 0 0 1
  outer loop
    vertex 27.30212572874617 -29.23343857112496 8
    vertex 18.27275223415258 -24.83102020719602 8
    vertex 18.4026015092461 -35.515408736095 8
  endloop
endfacet
facet normal 0 0 1
  outer loop
    vertex 18.40260150924612 35.51540873609499 8
    vertex 18.27847271792764 24.8305174985675 8
    vertex 27.30212572874618 29.23343857112495 8
  endloop
endfacet
facet normal 0 -0 1
  outer loop
    vertex -23.06721288459472 -32.67879572041765 8
    vertex -20.77435832379492 -22.76377010295901 8
    vertex -31.02845162817681 -25.24351777304208 8
  endloop
endfacet
facet normal -0 0 1
  outer loop
    vertex -31.02845162817676 25.24351777304215 8
    vertex -20.77435832379491 22.76377010295904 8
    vertex -23.06721288459465 32.6787957204177 8
  endloop
endfacet
facet normal 0 0 1
  outer loop
    vertex 38.51669149391197 -10.79187084628098 8
    vertex 30.0471282860372 -12.73289358683012 8
    vertex 34.17677618185956 -20.78335800141731 8
  endloop
endfacet
facet normal -0 0 1
  outer loop
    vertex -36.6884520602181 15.93604359384971 8
    vertex -26.25855829593215 15.67939213497899 8
    vertex -31.02845162817676 25.24351777304215 8
  endloop
endfacet
facet normal 0 -0 1
  outer loop
    vertex -31.02845162817681 -25.24351777304208 8
    vertex -26.25855829593218 -15.67939213497899 8
    vertex -36.68845206021813 -15.93604359384963 8
  endloop
endfacet
facet normal 0 0 1
  outer loop
    vertex 18.4026015092461 -35.515408736095 8
    vertex 10.2740806319813 -28.84246859644284 8
    vertex 8.138240522105333 -39.16336350729292 8
  endloop
endfacet
facet normal 0 0 1
  outer loop
    vertex 8.138240522105393 39.16336350729291 8
    vertex 10.2750340459438 28.84238481167143 8
    vertex 18.40260150924612 35.51540873609499 8
  endloop
endfacet
facet normal 0 0 1
  outer loop
    vertex -2.729696534586854 -39.90675076762157 8
    vertex -6.478375288834683 -31.83687302211456 8
    vertex -13.39518448683945 -37.69043688475281 8
  endloop
endfacet
facet normal -0 0 1
  outer loop
    vertex -13.3951844868394 37.69043688475283 8
    vertex -6.478375288834669 31.83687302211458 8
    vertex -2.729696534586799 39.90675076762157 8
  endloop
endfacet
facet normal 0 0 1
  outer loop
    vertex 38.51669149391198 10.79187084628096 8
    vertex 30.92955452615414 4.624605389350382 8
    vertex 40 -9.797174393178826e-15 8
  endloop
endfacet
facet normal 0 0 1
  outer loop
    vertex -39.62743784145324 -5.446665963849838 8
    vertex -32.49144589666227 2.131628207280301e-15 8
    vertex -39.62743784145323 5.446665963849902 8
  endloop
endfacet
facet normal 0 0 1
  outer loop
    vertex 10.2740806319813 -28.84246859644284 8
    vertex 4.060662705311262 -22.84946316249332 8
    vertex 1.822219026018584 -31.03684503353628 8
  endloop
endfacet
facet normal 0 0 1
  outer loop
    vertex 1.822219026018609 31.03684503353625 8
    vertex 4.060712341606608 22.84945880052068 8
    vertex 10.2750340459438 28.84238481167143 8
  endloop
endfacet
facet normal 0 0 1
  outer loop
    vertex -4.421208650482949 -22.80685017660298 8
    vertex -11.86850584576743 -19.70547049611101 8
    vertex -13.66800579828274 -27.74348224805916 8
  endloop
endfacet
facet normal 0 0 1
  outer loop
    vertex -13.66800579828275 27.74348224805922 8
    vertex -11.86850584576755 19.705470496111 8
    vertex -4.421208650482996 22.80685017660299 8
  endloop
endfacet
facet normal 0 0 1
  outer loop
    vertex 15 -3.67394039744206e-15 8
    vertex 23.92572569005572 1.4210854715202e-14 8
    vertex 21.88444567109731 8.706327633105722 8
  endloop
endfacet
facet normal 0 -0 1
  outer loop
    vertex 21.68569194144104 -8.679727937719514 8
    vertex 23.92572569005572 1.4210854715202e-14 8
    vertex 15 -3.67394039744206e-15 8
  endloop
endfacet
facet normal 0 -0 1
  outer loop
    vertex -30.03517775969799 7.864316914940949 8
    vertex -26.25855829593215 15.67939213497899 8
    vertex -36.6884520602181 15.93604359384971 8
  endloop
endfacet
facet normal 0 0 1
  outer loop
    vertex -36.68845206021813 -15.93604359384963 8
    vertex -26.25855829593218 -15.67939213497899 8
    vertex -30.03517775969804 -7.864316914940945 8
  endloop
endfacet
facet normal -0 0 1
  outer loop
    vertex -39.62743784145323 5.446665963849902 8
    vertex -32.49144589666227 2.131628207280301e-15 8
    vertex -30.03517775969799 7.864316914940949 8
  endloop
endfacet
facet normal 0 0 1
  outer loop
    vertex -30.03517775969804 -7.864316914940945 8
    vertex -32.49144589666227 2.131628207280301e-15 8
    vertex -39.62743784145324 -5.446665963849838 8
  endloop
endfacet
facet normal -0 0 1
  outer loop
    vertex 1.822219026018609 31.03684503353625 8
    vertex 10.2750340459438 28.84238481167143 8
    vertex 8.138240522105393 39.16336350729291 8
  endloop
endfacet
facet normal 0 -0 1
  outer loop
    vertex 8.138240522105333 -39.16336350729292 8
    vertex 10.2740806319813 -28.84246859644284 8
    vertex 1.822219026018584 -31.03684503353628 8
  endloop
endfacet
facet normal 0 0 1
  outer loop
    vertex -2.729696534586799 39.90675076762157 8
    vertex -6.478375288834669 31.83687302211458 8
    vertex 1.822219026018609 31.03684503353625 8
  endloop
endfacet
facet normal 0 0 1
  outer loop
    vertex 1.822219026018584 -31.03684503353628 8
    vertex -6.478375288834683 -31.83687302211456 8
    vertex -2.729696534586854 -39.90675076762157 8
  endloop
endfacet
facet normal 0 -0 1
  outer loop
    vertex -23.13199828100886 -5.668517080952331e-14 8
    vertex -21.72157564200329 8.067408838593959 8
    vertex -30.03517775969799 7.864316914940949 8
  endloop
endfacet
facet normal -0 0 1
  outer loop
    vertex -30.03517775969804 -7.864316914940945 8
    vertex -21.72157564200331 -8.067408838594078 8
    vertex -23.13199828100886 -5.668517080952331e-14 8
  endloop
endfacet
facet normal 0 0 1
  outer loop
    vertex -23.13199828100886 -5.668517080952331e-14 8
    vertex -21.72157564200331 -8.067408838594078 8
    vertex -14.0953893117886 -5.130302149885092 8
  endloop
endfacet
facet normal 0 0 1
  outer loop
    vertex -14.09538931178865 5.130302149884977 8
    vertex -21.72157564200329 8.067408838593959 8
    vertex -23.13199828100886 -5.668517080952331e-14 8
  endloop
endfacet
facet normal 0 0 1
  outer loop
    vertex 11.01800385358042 19.87597889247225 8
    vertex 4.060712341606608 22.84945880052068 8
    vertex 2.604722665003924 14.77211629518313 8
  endloop
endfacet
facet normal 0 0 1
  outer loop
    vertex 2.604722665003989 -14.77211629518312 8
    vertex 4.060662705311262 -22.84946316249332 8
    vertex 11.01800385358045 -19.87597889247221 8
  endloop
endfacet
facet normal 0 -0 1
  outer loop
    vertex 2.604722665003924 14.77211629518313 8
    vertex 4.060712341606608 22.84945880052068 8
    vertex -4.421208650482996 22.80685017660299 8
  endloop
endfacet
facet normal -0 0 1
  outer loop
    vertex -4.421208650482949 -22.80685017660298 8
    vertex 4.060662705311262 -22.84946316249332 8
    vertex 2.604722665003989 -14.77211629518312 8
  endloop
endfacet
facet normal 0 0 1
  outer loop
    vertex -4.421208650482996 22.80685017660299 8
    vertex -11.86850584576755 19.705470496111 8
    vertex -7.500000000000044 12.99038105676655 8
  endloop
endfacet
facet normal 0 0 1
  outer loop
    vertex -7.499999999999937 -12.99038105676662 8
    vertex -11.86850584576743 -19.70547049611101 8
    vertex -4.421208650482949 -22.80685017660298 8
  endloop
endfacet
facet normal 0 0 1
  outer loop
    vertex -14.0953893117886 -5.130302149885092 8
    vertex -21.72157564200331 -8.067408838594078 8
    vertex -17.47115536413318 -14.39347173680036 8
  endloop
endfacet
facet normal 0 0 1
  outer loop
    vertex -17.47115536413321 14.39347173680033 8
    vertex -21.72157564200329 8.067408838593959 8
    vertex -14.09538931178865 5.130302149884977 8
  endloop
endfacet
facet normal -0 0 1
  outer loop
    vertex 11.49066664678468 -9.641814145298083 8
    vertex 17.24499046235288 -15.35711461381749 8
    vertex 21.68569194144104 -8.679727937719514 8
  endloop
endfacet
facet normal 0 0 1
  outer loop
    vertex 21.88444567109731 8.706327633105722 8
    vertex 17.22219317637839 15.19117385800334 8
    vertex 11.49066664678466 9.641814145298103 8
  endloop
endfacet
facet normal 0 0 1
  outer loop
    vertex 31.02344118921404 -4.55129392383931 8
    vertex 30.0471282860372 -12.73289358683012 8
    vertex 38.51669149391197 -10.79187084628098 8
  endloop
endfacet
facet normal 0 0 1
  outer loop
    vertex 40 -9.797174393178826e-15 8
    vertex 30.92955452615414 4.624605389350382 8
    vertex 31.02344118921404 -4.55129392383931 8
  endloop
endfacet
facet normal 0 -0 1
  outer loop
    vertex 1.822219026018584 -31.03684503353628 8
    vertex 4.060662705311262 -22.84946316249332 8
    vertex -4.421208650482949 -22.80685017660298 8
  endloop
endfacet
facet normal 0 0 1
  outer loop
    vertex -4.421208650482996 22.80685017660299 8
    vertex 4.060712341606608 22.84945880052068 8
    vertex 1.822219026018609 31.03684503353625 8
  endloop
endfacet
facet normal 0 0 1
  outer loop
    vertex -7.500000000000044 12.99038105676655 8
    vertex -11.86850584576755 19.705470496111 8
    vertex -17.47115536413321 14.39347173680033 8
  endloop
endfacet
facet normal -0 0 1
  outer loop
    vertex -17.47115536413318 -14.39347173680036 8
    vertex -11.86850584576743 -19.70547049611101 8
    vertex -7.499999999999937 -12.99038105676662 8
  endloop
endfacet
facet normal 0 -0 1
  outer loop
    vertex 11.49066664678466 9.641814145298103 8
    vertex 17.22219317637839 15.19117385800334 8
    vertex 11.01800385358042 19.87597889247225 8
  endloop
endfacet
facet normal 0 0 1
  outer loop
    vertex 11.01800385358045 -19.87597889247221 8
    vertex 17.24499046235288 -15.35711461381749 8
    vertex 11.49066664678468 -9.641814145298083 8
  endloop
endfacet
facet normal 0 0 1
  outer loop
    vertex 31.02344118921404 -4.55129392383931 8
    vertex 23.92572569005572 1.4210854715202e-14 8
    vertex 21.68569194144104 -8.679727937719514 8
  endloop
endfacet
facet normal 0 0 1
  outer loop
    vertex 30.92955452615414 4.624605389350382 8
    vertex 23.92572569005572 1.4210854715202e-14 8
    vertex 31.02344118921404 -4.55129392383931 8
  endloop
endfacet
facet normal 0 0 1
  outer loop
    vertex -20.77435832379492 -22.76377010295901 8
    vertex -26.25855829593218 -15.67939213497899 8
    vertex -31.02845162817681 -25.24351777304208 8
  endloop
endfacet
facet normal 0 0 1
  outer loop
    vertex -31.02845162817676 25.24351777304215 8
    vertex -26.25855829593215 15.67939213497899 8
    vertex -20.77435832379491 22.76377010295904 8
  endloop
endfacet
facet normal 0 0 1
  outer loop
    vertex 18.27275223415258 -24.83102020719602 8
    vertex 10.2740806319813 -28.84246859644284 8
    vertex 18.4026015092461 -35.515408736095 8
  endloop
endfacet
facet normal 0 0 1
  outer loop
    vertex 18.40260150924612 35.51540873609499 8
    vertex 10.2750340459438 28.84238481167143 8
    vertex 18.27847271792764 24.8305174985675 8
  endloop
endfacet
facet normal 0 0 1
  outer loop
    vertex 30.22702311264581 12.8007277805549 8
    vertex 30.92955452615414 4.624605389350382 8
    vertex 38.51669149391198 10.79187084628096 8
  endloop
endfacet
facet normal -0 0 -1
  outer loop
    vertex 34.17677618185956 -20.78335800141731 0
    vertex 27.30212572874617 -29.23343857112496 0
    vertex 24.8330406237594 -18.85821722489349 0
  endloop
endfacet
facet normal 0 -0 -1
  outer loop
    vertex 27.30212572874618 29.23343857112495 0
    vertex 34.17677618185955 20.78335800141733 0
    vertex 24.86736352640981 18.85520097312232 0
  endloop
endfacet
facet normal 0 0 -1
  outer loop
    vertex -13.39518448683945 -37.69043688475281 0
    vertex -23.06721288459472 -32.67879572041765 0
    vertex -13.66800579828274 -27.74348224805916 0
  endloop
endfacet
facet normal 0 0 -1
  outer loop
    vertex -23.06721288459465 32.6787957204177 0
    vertex -13.3951844868394 37.69043688475283 0
    vertex -13.66800579828275 27.74348224805922 0
  endloop
endfacet
facet normal 0 -0 -1
  outer loop
    vertex -14.0953893117886 -5.130302149885092 0
    vertex -7.499999999999937 -12.99038105676662 0
    vertex -17.47115536413318 -14.39347173680036 0
  endloop
endfacet
facet normal -0 0 -1
  outer loop
    vertex -7.500000000000044 12.99038105676655 0
    vertex -14.09538931178865 5.130302149884977 0
    vertex -17.47115536413321 14.39347173680033 0
  endloop
endfacet
facet normal 0 0 -1
  outer loop
    vertex 11.49066664678466 9.641814145298103 0
    vertex 2.604722665003924 14.77211629518313 0
    vertex 11.01800385358042 19.87597889247225 0
  endloop
endfacet
facet normal 0 0 -1
  outer loop
    vertex 2.604722665003989 -14.77211629518312 0
    vertex 11.49066664678468 -9.641814145298083 0
    vertex 11.01800385358045 -19.87597889247221 0
  endloop
endfacet
facet normal 0 0 -1
  outer loop
    vertex 15 -3.67394039744206e-15 0
    vertex 11.49066664678466 9.641814145298103 0
    vertex 21.88444567109731 8.706327633105724 0
  endloop
endfacet
facet normal 0 0 -1
  outer loop
    vertex 11.49066664678468 -9.641814145298083 0
    vertex 15 -3.67394039744206e-15 0
    vertex 21.68569194144104 -8.679727937719514 0
  endloop
endfacet
facet normal -0 0 -1
  outer loop
    vertex 2.604722665003924 14.77211629518313 0
    vertex -7.500000000000044 12.99038105676655 0
    vertex -4.421208650482996 22.80685017660299 0
  endloop
endfacet
facet normal 0 0 -1
  outer loop
    vertex -7.499999999999937 -12.99038105676662 0
    vertex 2.604722665003989 -14.77211629518312 0
    vertex -4.421208650482949 -22.80685017660298 0
  endloop
endfacet
facet normal 0 -0 -1
  outer loop
    vertex -14.09538931178865 5.130302149884977 0
    vertex -14.0953893117886 -5.130302149885092 0
    vertex -23.13199828100886 -6.062181246819602e-14 0
  endloop
endfacet
facet normal 0 0 -1
  outer loop
    vertex 18.27275223415258 -24.83102020719602 0
    vertex 11.01800385358045 -19.87597889247221 0
    vertex 17.24499046235288 -15.35711461381749 0
  endloop
endfacet
facet normal 0 0 -1
  outer loop
    vertex 11.01800385358042 19.87597889247225 0
    vertex 18.27847271792764 24.8305174985675 0
    vertex 17.22219317637839 15.19117385800334 0
  endloop
endfacet
facet normal 0 0 -1
  outer loop
    vertex -39.62743784145323 5.446665963849902 0
    vertex -36.6884520602181 15.93604359384971 0
    vertex -30.03517775969799 7.864316914940948 0
  endloop
endfacet
facet normal 0 0 -1
  outer loop
    vertex -36.68845206021813 -15.93604359384963 0
    vertex -39.62743784145324 -5.446665963849838 0
    vertex -30.03517775969804 -7.864316914940945 0
  endloop
endfacet
facet normal -0 0 -1
  outer loop
    vertex 24.8330406237594 -18.85821722489349 0
    vertex 18.27275223415258 -24.83102020719602 0
    vertex 17.24499046235288 -15.35711461381749 0
  endloop
endfacet
facet normal 0 -0 -1
  outer loop
    vertex 18.27847271792764 24.8305174985675 0
    vertex 24.86736352640981 18.85520097312232 0
    vertex 17.22219317637839 15.19117385800334 0
  endloop
endfacet
facet normal 0 0 -1
  outer loop
    vertex -2.729696534586799 39.90675076762157 0
    vertex 8.138240522105393 39.16336350729291 0
    vertex 1.822219026018608 31.03684503353625 0
  endloop
endfacet
facet normal -0 0 -1
  outer loop
    vertex 8.138240522105333 -39.16336350729292 0
    vertex -2.729696534586854 -39.90675076762157 0
    vertex 1.822219026018584 -31.03684503353628 0
  endloop
endfacet
facet normal 0 0 -1
  outer loop
    vertex -20.77435832379492 -22.76377010295901 0
    vertex -17.47115536413318 -14.39347173680036 0
    vertex -11.86850584576743 -19.70547049611101 0
  endloop
endfacet
facet normal 0 0 -1
  outer loop
    vertex -17.47115536413321 14.39347173680033 0
    vertex -20.77435832379491 22.76377010295904 0
    vertex -11.86850584576754 19.705470496111 0
  endloop
endfacet
facet normal 0 0 -1
  outer loop
    vertex 21.88444567109731 8.706327633105724 0
    vertex 24.86736352640981 18.85520097312232 0
    vertex 30.22702311264581 12.80072778055491 0
  endloop
endfacet
facet normal 0 0 -1
  outer loop
    vertex 24.8330406237594 -18.85821722489349 0
    vertex 21.68569194144104 -8.679727937719514 0
    vertex 30.0471282860372 -12.73289358683012 0
  endloop
endfacet
facet normal 0 0 -1
  outer loop
    vertex 40 -9.797174393178826e-15 0
    vertex 38.51669149391197 -10.79187084628098 0
    vertex 31.02344118921404 -4.55129392383931 0
  endloop
endfacet
facet normal -0 0 -1
  outer loop
    vertex -17.47115536413318 -14.39347173680036 0
    vertex -26.25855829593218 -15.67939213497899 0
    vertex -21.72157564200331 -8.067408838594076 0
  endloop
endfacet
facet normal 0 0 -1
  outer loop
    vertex -26.25855829593215 15.67939213497899 0
    vertex -17.47115536413321 14.39347173680033 0
    vertex -21.72157564200328 8.067408838593961 0
  endloop
endfacet
facet normal 0 0 -1
  outer loop
    vertex 21.88444567109731 8.706327633105724 0
    vertex 30.22702311264581 12.80072778055491 0
    vertex 30.92955452615414 4.624605389350383 0
  endloop
endfacet
facet normal 0 0 -1
  outer loop
    vertex 11.01800385358045 -19.87597889247221 0
    vertex 10.2740806319813 -28.84246859644284 0
    vertex 4.060662705311262 -22.84946316249332 0
  endloop
endfacet
facet normal 0 -0 -1
  outer loop
    vertex 10.2750340459438 28.84238481167144 0
    vertex 11.01800385358042 19.87597889247225 0
    vertex 4.060712341606607 22.84945880052068 0
  endloop
endfacet
facet normal 0 0 -1
  outer loop
    vertex -13.66800579828274 -27.74348224805916 0
    vertex -20.77435832379492 -22.76377010295901 0
    vertex -11.86850584576743 -19.70547049611101 0
  endloop
endfacet
facet normal 0 0 -1
  outer loop
    vertex -20.77435832379491 22.76377010295904 0
    vertex -13.66800579828275 27.74348224805922 0
    vertex -11.86850584576754 19.705470496111 0
  endloop
endfacet
facet normal 0 0 -1
  outer loop
    vertex 21.88444567109731 8.706327633105724 0
    vertex 30.92955452615414 4.624605389350383 0
    vertex 23.92572569005572 1.4210854715202e-14 0
  endloop
endfacet
facet normal 0 -0 -1
  outer loop
    vertex 11.01800385358045 -19.87597889247221 0
    vertex 18.27275223415258 -24.83102020719602 0
    vertex 10.2740806319813 -28.84246859644284 0
  endloop
endfacet
facet normal -0 0 -1
  outer loop
    vertex 18.27847271792764 24.8305174985675 0
    vertex 11.01800385358042 19.87597889247225 0
    vertex 10.2750340459438 28.84238481167144 0
  endloop
endfacet
facet normal 0 -0 -1
  outer loop
    vertex 21.68569194144104 -8.679727937719514 0
    vertex 24.8330406237594 -18.85821722489349 0
    vertex 17.24499046235288 -15.35711461381749 0
  endloop
endfacet
facet normal 0 0 -1
  outer loop
    vertex 24.86736352640981 18.85520097312232 0
    vertex 21.88444567109731 8.706327633105724 0
    vertex 17.22219317637839 15.19117385800334 0
  endloop
endfacet
facet normal 0 0 -1
  outer loop
    vertex -17.47115536413318 -14.39347173680036 0
    vertex -20.77435832379492 -22.76377010295901 0
    vertex -26.25855829593218 -15.67939213497899 0
  endloop
endfacet
facet normal 0 -0 -1
  outer loop
    vertex -20.77435832379491 22.76377010295904 0
    vertex -17.47115536413321 14.39347173680033 0
    vertex -26.25855829593215 15.67939213497899 0
  endloop
endfacet
facet normal 0 0 -1
  outer loop
    vertex -13.66800579828274 -27.74348224805916 0
    vertex -4.421208650482949 -22.80685017660298 0
    vertex -6.478375288834683 -31.83687302211456 0
  endloop
endfacet
facet normal 0 0 -1
  outer loop
    vertex -4.421208650482996 22.80685017660299 0
    vertex -13.66800579828275 27.74348224805922 0
    vertex -6.478375288834669 31.83687302211458 0
  endloop
endfacet
facet normal 0 -0 -1
  outer loop
    vertex -30.03517775969799 7.864316914940948 0
    vertex -23.13199828100886 -6.062181246819602e-14 0
    vertex -32.49144589666227 1.06581410364015e-15 0
  endloop
endfacet
facet normal -0 0 -1
  outer loop
    vertex -23.13199828100886 -6.062181246819602e-14 0
    vertex -30.03517775969804 -7.864316914940945 0
    vertex -32.49144589666227 1.06581410364015e-15 0
  endloop
endfacet
facet normal 0 0 -1
  outer loop
    vertex -30.03517775969799 7.864316914940948 0
    vertex -26.25855829593215 15.67939213497899 0
    vertex -21.72157564200328 8.067408838593961 0
  endloop
endfacet
facet normal 0 0 -1
  outer loop
    vertex -26.25855829593218 -15.67939213497899 0
    vertex -30.03517775969804 -7.864316914940945 0
    vertex -21.72157564200331 -8.067408838594076 0
  endloop
endfacet
facet normal 0 -0 -1
  outer loop
    vertex -4.421208650482949 -22.80685017660298 0
    vertex 1.822219026018584 -31.03684503353628 0
    vertex -6.478375288834683 -31.83687302211456 0
  endloop
endfacet
facet normal -0 0 -1
  outer loop
    vertex 1.822219026018608 31.03684503353625 0
    vertex -4.421208650482996 22.80685017660299 0
    vertex -6.478375288834669 31.83687302211458 0
  endloop
endfacet
facet normal 0 0 -1
  outer loop
    vertex 24.86736352640981 18.85520097312232 0
    vertex 34.17677618185955 20.78335800141733 0
    vertex 30.22702311264581 12.80072778055491 0
  endloop
endfacet
facet normal 0 -0 -1
  outer loop
    vertex 24.8330406237594 -18.85821722489349 0
    vertex 27.30212572874617 -29.23343857112496 0
    vertex 18.27275223415258 -24.83102020719602 0
  endloop
endfacet
facet normal 0 0 -1
  outer loop
    vertex 27.30212572874618 29.23343857112495 0
    vertex 24.86736352640981 18.85520097312232 0
    vertex 18.27847271792764 24.8305174985675 0
  endloop
endfacet
facet normal 0 0 -1
  outer loop
    vertex 34.17677618185956 -20.78335800141731 0
    vertex 24.8330406237594 -18.85821722489349 0
    vertex 30.0471282860372 -12.73289358683012 0
  endloop
endfacet
facet normal 0 0 -1
  outer loop
    vertex 21.68569194144104 -8.679727937719514 0
    vertex 31.02344118921404 -4.55129392383931 0
    vertex 30.0471282860372 -12.73289358683012 0
  endloop
endfacet
facet normal -0 0 -1
  outer loop
    vertex -13.66800579828274 -27.74348224805916 0
    vertex -23.06721288459472 -32.67879572041765 0
    vertex -20.77435832379492 -22.76377010295901 0
  endloop
endfacet
facet normal 0 0 -1
  outer loop
    vertex -23.06721288459465 32.6787957204177 0
    vertex -13.66800579828275 27.74348224805922 0
    vertex -20.77435832379491 22.76377010295904 0
  endloop
endfacet
facet normal 0 0 -1
  outer loop
    vertex -13.39518448683945 -37.69043688475281 0
    vertex -13.66800579828274 -27.74348224805916 0
    vertex -6.478375288834683 -31.83687302211456 0
  endloop
endfacet
facet normal 0 0 -1
  outer loop
    vertex -13.66800579828275 27.74348224805922 0
    vertex -13.3951844868394 37.69043688475283 0
    vertex -6.478375288834669 31.83687302211458 0
  endloop
endfacet
facet normal 0 -0 -1
  outer loop
    vertex 34.17677618185955 20.78335800141733 0
    vertex 38.51669149391198 10.79187084628096 0
    vertex 30.22702311264581 12.80072778055491 0
  endloop
endfacet
facet normal -0 0 -1
  outer loop
    vertex 27.30212572874617 -29.23343857112496 0
    vertex 18.4026015092461 -35.515408736095 0
    vertex 18.27275223415258 -24.83102020719602 0
  endloop
endfacet
facet normal 0 -0 -1
  outer loop
    vertex 18.40260150924612 35.51540873609499 0
    vertex 27.30212572874618 29.23343857112495 0
    vertex 18.27847271792764 24.8305174985675 0
  endloop
endfacet
facet normal 0 0 -1
  outer loop
    vertex -23.06721288459472 -32.67879572041765 0
    vertex -31.02845162817681 -25.24351777304208 0
    vertex -20.77435832379492 -22.76377010295901 0
  endloop
endfacet
facet normal 0 0 -1
  outer loop
    vertex -31.02845162817676 25.24351777304215 0
    vertex -23.06721288459465 32.6787957204177 0
    vertex -20.77435832379491 22.76377010295904 0
  endloop
endfacet
facet normal 0 0 -1
  outer loop
    vertex 38.51669149391197 -10.79187084628098 0
    vertex 34.17677618185956 -20.78335800141731 0
    vertex 30.0471282860372 -12.73289358683012 0
  endloop
endfacet
facet normal 0 0 -1
  outer loop
    vertex -36.6884520602181 15.93604359384971 0
    vertex -31.02845162817676 25.24351777304215 0
    vertex -26.25855829593215 15.67939213497899 0
  endloop
endfacet
facet normal 0 0 -1
  outer loop
    vertex -31.02845162817681 -25.24351777304208 0
    vertex -36.68845206021813 -15.93604359384963 0
    vertex -26.25855829593218 -15.67939213497899 0
  endloop
endfacet
facet normal -0 0 -1
  outer loop
    vertex 18.4026015092461 -35.515408736095 0
    vertex 8.138240522105333 -39.16336350729292 0
    vertex 10.2740806319813 -28.84246859644284 0
  endloop
endfacet
facet normal 0 0 -1
  outer loop
    vertex 8.138240522105393 39.16336350729291 0
    vertex 18.40260150924612 35.51540873609499 0
    vertex 10.2750340459438 28.84238481167144 0
  endloop
endfacet
facet normal 0 0 -1
  outer loop
    vertex -2.729696534586854 -39.90675076762157 0
    vertex -13.39518448683945 -37.69043688475281 0
    vertex -6.478375288834683 -31.83687302211456 0
  endloop
endfacet
facet normal 0 0 -1
  outer loop
    vertex -13.3951844868394 37.69043688475283 0
    vertex -2.729696534586799 39.90675076762157 0
    vertex -6.478375288834669 31.83687302211458 0
  endloop
endfacet
facet normal 0 -0 -1
  outer loop
    vertex 38.51669149391198 10.79187084628096 0
    vertex 40 -9.797174393178826e-15 0
    vertex 30.92955452615414 4.624605389350383 0
  endloop
endfacet
facet normal 0 0 -1
  outer loop
    vertex -39.62743784145324 -5.446665963849838 0
    vertex -39.62743784145323 5.446665963849902 0
    vertex -32.49144589666227 1.06581410364015e-15 0
  endloop
endfacet
facet normal -0 0 -1
  outer loop
    vertex 10.2740806319813 -28.84246859644284 0
    vertex 1.822219026018584 -31.03684503353628 0
    vertex 4.060662705311262 -22.84946316249332 0
  endloop
endfacet
facet normal 0 0 -1
  outer loop
    vertex 1.822219026018608 31.03684503353625 0
    vertex 10.2750340459438 28.84238481167144 0
    vertex 4.060712341606607 22.84945880052068 0
  endloop
endfacet
facet normal -0 0 -1
  outer loop
    vertex -4.421208650482949 -22.80685017660298 0
    vertex -13.66800579828274 -27.74348224805916 0
    vertex -11.86850584576743 -19.70547049611101 0
  endloop
endfacet
facet normal 0 0 -1
  outer loop
    vertex -13.66800579828275 27.74348224805922 0
    vertex -4.421208650482996 22.80685017660299 0
    vertex -11.86850584576754 19.705470496111 0
  endloop
endfacet
facet normal 0 0 -1
  outer loop
    vertex 15 -3.67394039744206e-15 0
    vertex 21.88444567109731 8.706327633105724 0
    vertex 23.92572569005572 1.4210854715202e-14 0
  endloop
endfacet
facet normal 0 0 -1
  outer loop
    vertex 21.68569194144104 -8.679727937719514 0
    vertex 15 -3.67394039744206e-15 0
    vertex 23.92572569005572 1.4210854715202e-14 0
  endloop
endfacet
facet normal 0 0 -1
  outer loop
    vertex -30.03517775969799 7.864316914940948 0
    vertex -36.6884520602181 15.93604359384971 0
    vertex -26.25855829593215 15.67939213497899 0
  endloop
endfacet
facet normal 0 0 -1
  outer loop
    vertex -36.68845206021813 -15.93604359384963 0
    vertex -30.03517775969804 -7.864316914940945 0
    vertex -26.25855829593218 -15.67939213497899 0
  endloop
endfacet
facet normal 0 0 -1
  outer loop
    vertex -39.62743784145323 5.446665963849902 0
    vertex -30.03517775969799 7.864316914940948 0
    vertex -32.49144589666227 1.06581410364015e-15 0
  endloop
endfacet
facet normal 0 0 -1
  outer loop
    vertex -30.03517775969804 -7.864316914940945 0
    vertex -39.62743784145324 -5.446665963849838 0
    vertex -32.49144589666227 1.06581410364015e-15 0
  endloop
endfacet
facet normal 0 0 -1
  outer loop
    vertex 1.822219026018608 31.03684503353625 0
    vertex 8.138240522105393 39.16336350729291 0
    vertex 10.2750340459438 28.84238481167144 0
  endloop
endfacet
facet normal 0 0 -1
  outer loop
    vertex 8.138240522105333 -39.16336350729292 0
    vertex 1.822219026018584 -31.03684503353628 0
    vertex 10.2740806319813 -28.84246859644284 0
  endloop
endfacet
facet normal 0 -0 -1
  outer loop
    vertex -2.729696534586799 39.90675076762157 0
    vertex 1.822219026018608 31.03684503353625 0
    vertex -6.478375288834669 31.83687302211458 0
  endloop
endfacet
facet normal 0 0 -1
  outer loop
    vertex 1.822219026018584 -31.03684503353628 0
    vertex -2.729696534586854 -39.90675076762157 0
    vertex -6.478375288834683 -31.83687302211456 0
  endloop
endfacet
facet normal 0 0 -1
  outer loop
    vertex -23.13199828100886 -6.062181246819602e-14 0
    vertex -30.03517775969799 7.864316914940948 0
    vertex -21.72157564200328 8.067408838593961 0
  endloop
endfacet
facet normal 0 0 -1
  outer loop
    vertex -30.03517775969804 -7.864316914940945 0
    vertex -23.13199828100886 -6.062181246819602e-14 0
    vertex -21.72157564200331 -8.067408838594076 0
  endloop
endfacet
facet normal 0 0 -1
  outer loop
    vertex -23.13199828100886 -6.062181246819602e-14 0
    vertex -14.0953893117886 -5.130302149885092 0
    vertex -21.72157564200331 -8.067408838594076 0
  endloop
endfacet
facet normal -0 0 -1
  outer loop
    vertex -14.09538931178865 5.130302149884977 0
    vertex -23.13199828100886 -6.062181246819602e-14 0
    vertex -21.72157564200328 8.067408838593961 0
  endloop
endfacet
facet normal -0 0 -1
  outer loop
    vertex 11.01800385358042 19.87597889247225 0
    vertex 2.604722665003924 14.77211629518313 0
    vertex 4.060712341606607 22.84945880052068 0
  endloop
endfacet
facet normal 0 0 -1
  outer loop
    vertex 2.604722665003989 -14.77211629518312 0
    vertex 11.01800385358045 -19.87597889247221 0
    vertex 4.060662705311262 -22.84946316249332 0
  endloop
endfacet
facet normal 0 0 -1
  outer loop
    vertex 2.604722665003924 14.77211629518313 0
    vertex -4.421208650482996 22.80685017660299 0
    vertex 4.060712341606607 22.84945880052068 0
  endloop
endfacet
facet normal 0 0 -1
  outer loop
    vertex -4.421208650482949 -22.80685017660298 0
    vertex 2.604722665003989 -14.77211629518312 0
    vertex 4.060662705311262 -22.84946316249332 0
  endloop
endfacet
facet normal 0 0 -1
  outer loop
    vertex -4.421208650482996 22.80685017660299 0
    vertex -7.500000000000044 12.99038105676655 0
    vertex -11.86850584576754 19.705470496111 0
  endloop
endfacet
facet normal 0 -0 -1
  outer loop
    vertex -7.499999999999937 -12.99038105676662 0
    vertex -4.421208650482949 -22.80685017660298 0
    vertex -11.86850584576743 -19.70547049611101 0
  endloop
endfacet
facet normal 0 0 -1
  outer loop
    vertex -14.0953893117886 -5.130302149885092 0
    vertex -17.47115536413318 -14.39347173680036 0
    vertex -21.72157564200331 -8.067408838594076 0
  endloop
endfacet
facet normal 0 -0 -1
  outer loop
    vertex -17.47115536413321 14.39347173680033 0
    vertex -14.09538931178865 5.130302149884977 0
    vertex -21.72157564200328 8.067408838593961 0
  endloop
endfacet
facet normal 0 0 -1
  outer loop
    vertex 11.49066664678468 -9.641814145298083 0
    vertex 21.68569194144104 -8.679727937719514 0
    vertex 17.24499046235288 -15.35711461381749 0
  endloop
endfacet
facet normal 0 0 -1
  outer loop
    vertex 21.88444567109731 8.706327633105724 0
    vertex 11.49066664678466 9.641814145298103 0
    vertex 17.22219317637839 15.19117385800334 0
  endloop
endfacet
facet normal 0 -0 -1
  outer loop
    vertex 31.02344118921404 -4.55129392383931 0
    vertex 38.51669149391197 -10.79187084628098 0
    vertex 30.0471282860372 -12.73289358683012 0
  endloop
endfacet
facet normal -0 0 -1
  outer loop
    vertex 40 -9.797174393178826e-15 0
    vertex 31.02344118921404 -4.55129392383931 0
    vertex 30.92955452615414 4.624605389350383 0
  endloop
endfacet
facet normal 0 0 -1
  outer loop
    vertex 1.822219026018584 -31.03684503353628 0
    vertex -4.421208650482949 -22.80685017660298 0
    vertex 4.060662705311262 -22.84946316249332 0
  endloop
endfacet
facet normal 0 0 -1
  outer loop
    vertex -4.421208650482996 22.80685017660299 0
    vertex 1.822219026018608 31.03684503353625 0
    vertex 4.060712341606607 22.84945880052068 0
  endloop
endfacet
facet normal 0 0 -1
  outer loop
    vertex -7.500000000000044 12.99038105676655 0
    vertex -17.47115536413321 14.39347173680033 0
    vertex -11.86850584576754 19.705470496111 0
  endloop
endfacet
facet normal 0 0 -1
  outer loop
    vertex -17.47115536413318 -14.39347173680036 0
    vertex -7.499999999999937 -12.99038105676662 0
    vertex -11.86850584576743 -19.70547049611101 0
  endloop
endfacet
facet normal 0 0 -1
  outer loop
    vertex 11.49066664678466 9.641814145298103 0
    vertex 11.01800385358042 19.87597889247225 0
    vertex 17.22219317637839 15.19117385800334 0
  endloop
endfacet
facet normal 0 0 -1
  outer loop
    vertex 11.01800385358045 -19.87597889247221 0
    vertex 11.49066664678468 -9.641814145298083 0
    vertex 17.24499046235288 -15.35711461381749 0
  endloop
endfacet
facet normal -0 0 -1
  outer loop
    vertex 31.02344118921404 -4.55129392383931 0
    vertex 21.68569194144104 -8.679727937719514 0
    vertex 23.92572569005572 1.4210854715202e-14 0
  endloop
endfacet
facet normal 0 -0 -1
  outer loop
    vertex 30.92955452615414 4.624605389350383 0
    vertex 31.02344118921404 -4.55129392383931 0
    vertex 23.92572569005572 1.4210854715202e-14 0
  endloop
endfacet
facet normal -0 0 -1
  outer loop
    vertex -20.77435832379492 -22.76377010295901 0
    vertex -31.02845162817681 -25.24351777304208 0
    vertex -26.25855829593218 -15.67939213497899 0
  endloop
endfacet
facet normal 0 0 -1
  outer loop
    vertex -31.02845162817676 25.24351777304215 0
    vertex -20.77435832379491 22.76377010295904 0
    vertex -26.25855829593215 15.67939213497899 0
  endloop
endfacet
facet normal 0 -0 -1
  outer loop
    vertex 18.27275223415258 -24.83102020719602 0
    vertex 18.4026015092461 -35.515408736095 0
    vertex 10.2740806319813 -28.84246859644284 0
  endloop
endfacet
facet normal 0 0 -1
  outer loop
    vertex 18.40260150924612 35.51540873609499 0
    vertex 18.27847271792764 24.8305174985675 0
    vertex 10.2750340459438 28.84238481167144 0
  endloop
endfacet
facet normal 0 0 -1
  outer loop
    vertex 30.22702311264581 12.80072778055491 0
    vertex 38.51669149391198 10.79187084628096 0
    vertex 30.92955452615414 4.624605389350383 0
  endloop
endfacet
endsolid Created by Gmsh
