solid Created by Gmsh
facet normal -0.736882 -0.675952 0.00964078
  outer loop
    vertex 24.45548182655558 36.2836848727794 -5.001087073611976
    vertex 32.69102977814705 27.33333037725703 -3.069686477761056
    vertex 28.77956591679891 31.69114850043126 3.505205587315601
  endloop
endfacet
facet normal -0.0652355 -0.122556 -0.990315
  outer loop
    vertex 14.8437345350742 49.36352992317315 -7.84899681563665
    vertex 5.777562565924516 45.34694105804721 -6.754704378124823
    vertex 8.365903656799603 51.52955939390324 -7.690336597722598
  endloop
endfacet
facet normal 0.298516 0.617775 0.72749
  outer loop
    vertex 25.16525686881839 52.25619433834031 -1.959434878635765e-15
    vertex 16.46113818917455 47.04323017840409 7.998401640802992
    vertex 26.50876923770714 42.18846456089179 7.998096838366253
  endloop
endfacet
facet normal -0.370398 -0.242237 -0.896731
  outer loop
    vertex 49.49492020736789 14.57351963052875 -7.839207498735114
    vertex 40.79486398685753 13.96749543721576 -4.081911684231376
    vertex 42.1024511983433 26.45472345995984 -7.995235018361122
  endloop
endfacet
facet normal 0.470317 0.573151 0.671044
  outer loop
    vertex 35.16012507270852 35.16012507270851 7.995235018362921
    vertex 43.85699606573618 28.39498552668852 7.678060454057477
    vertex 45.34622598314574 36.16240850780653 -1.959434878635765e-15
  endloop
endfacet
facet normal 0.699503 0.397378 0.593958
  outer loop
    vertex 36.16240850780655 45.34622598314573 -1.959434878635765e-15
    vertex 32.14637110623855 40.82266782882045 7.756092741303925
    vertex 35.16012507270852 35.16012507270851 7.995235018362921
  endloop
endfacet
facet normal -0.789467 -0.106754 -0.604438
  outer loop
    vertex 40.79486398685753 13.96749543721576 -4.081911684231376
    vertex 36.72394207873358 20.38153803152603 0.102364104487014
    vertex 42.1024511983433 26.45472345995984 -7.995235018361122
  endloop
endfacet
facet normal 0.233935 0.745345 -0.624288
  outer loop
    vertex 14.8437345350742 49.36352992317315 -7.84899681563665
    vertex 8.365903656799603 51.52955939390324 -7.690336597722598
    vertex 12.90621416946625 56.54581890654576 -1.959434878635765e-15
  endloop
endfacet
facet normal 0.502629 0.502629 0.703369
  outer loop
    vertex 36.16240850780655 45.34622598314573 -1.959434878635765e-15
    vertex 35.16012507270852 35.16012507270851 7.995235018362921
    vertex 45.34622598314574 36.16240850780653 -1.959434878635765e-15
  endloop
endfacet
facet normal 0.535612 0.422988 -0.73089
  outer loop
    vertex 42.1024511983433 26.45472345995984 -7.995235018361122
    vertex 34.23209259277327 36.41245522274391 -7.99996701015222
    vertex 45.34622598314574 36.16240850780653 -1.959434878635765e-15
  endloop
endfacet
facet normal -0.400124 0.0891056 -0.912119
  outer loop
    vertex 44.67257377038663 7.235176769786496 -6.440651961101794
    vertex 40.79486398685753 13.96749543721576 -4.081911684231376
    vertex 49.49492020736789 14.57351963052875 -7.839207498735114
  endloop
endfacet
facet normal 0.421685 0.671107 0.609752
  outer loop
    vertex 25.16525686881839 52.25619433834031 -1.959434878635765e-15
    vertex 32.14637110623855 40.82266782882045 7.756092741303925
    vertex 36.16240850780655 45.34622598314573 -1.959434878635765e-15
  endloop
endfacet
facet normal -0.260134 -0.426312 -0.866365
  outer loop
    vertex 24.45548182655558 36.2836848727794 -5.001087073611976
    vertex 34.23209259277327 36.41245522274391 -7.99996701015222
    vertex 32.69102977814705 27.33333037725703 -3.069686477761056
  endloop
endfacet
facet normal -0.190462 -0.288835 0.938243
  outer loop
    vertex 35.16012507270852 35.16012507270851 7.995235018362921
    vertex 35.22623442099937 26.39094613121078 5.309095256618633
    vertex 43.85699606573618 28.39498552668852 7.678060454057477
  endloop
endfacet
facet normal -0.187926 -0.0633029 -0.980141
  outer loop
    vertex 51.76161857651736 5.970130020334267 -7.718155277902189
    vertex 44.67257377038663 7.235176769786496 -6.440651961101794
    vertex 49.49492020736789 14.57351963052875 -7.839207498735114
  endloop
endfacet
facet normal -0.458469 -0.362749 -0.811307
  outer loop
    vertex 32.69102977814705 27.33333037725703 -3.069686477761056
    vertex 34.23209259277327 36.41245522274391 -7.99996701015222
    vertex 42.1024511983433 26.45472345995984 -7.995235018361122
  endloop
endfacet
facet normal 0.100767 -0.466817 -0.878594
  outer loop
    vertex 14.8437345350742 49.36352992317315 -7.84899681563665
    vertex 11.55501778130741 41.53252698552999 -4.065395663504265
    vertex 5.777562565924516 45.34694105804721 -6.754704378124823
  endloop
endfacet
facet normal -0.83225 -0.320992 -0.452021
  outer loop
    vertex 41.47028117462587 6.65655660094936 -0.1337792519232655
    vertex 40.79486398685753 13.96749543721576 -4.081911684231376
    vertex 44.67257377038663 7.235176769786496 -6.440651961101794
  endloop
endfacet
facet normal -0.0347103 -0.200866 -0.979004
  outer loop
    vertex 25.76255053772731 45.95432838660373 -7.536641163330366
    vertex 19.09170544009395 40.72481370149946 -6.227169367911983
    vertex 14.8437345350742 49.36352992317315 -7.84899681563665
  endloop
endfacet
facet normal 0.603896 0.366448 -0.707832
  outer loop
    vertex 52.25619433834031 25.16525686881836 -1.959434878635765e-15
    vertex 49.49492020736789 14.57351963052875 -7.839207498735114
    vertex 42.1024511983433 26.45472345995984 -7.995235018361122
  endloop
endfacet
facet normal 0.236527 0.675957 0.697952
  outer loop
    vertex 12.90621416946625 56.54581890654576 -1.959434878635765e-15
    vertex 16.46113818917455 47.04323017840409 7.998401640802992
    vertex 25.16525686881839 52.25619433834031 -1.959434878635765e-15
  endloop
endfacet
facet normal 0.112356 0.664147 0.739111
  outer loop
    vertex 12.90621416946625 56.54581890654576 -1.959434878635765e-15
    vertex 10.46679719166366 48.09759043548044 7.962205596322879
    vertex 16.46113818917455 47.04323017840409 7.998401640802992
  endloop
endfacet
facet normal 0.260151 0.743468 -0.616098
  outer loop
    vertex 25.16525686881839 52.25619433834031 -1.959434878635765e-15
    vertex 14.8437345350742 49.36352992317315 -7.84899681563665
    vertex 12.90621416946625 56.54581890654576 -1.959434878635765e-15
  endloop
endfacet
facet normal 0.252245 0.75209 -0.608879
  outer loop
    vertex 25.16525686881839 52.25619433834031 -1.959434878635765e-15
    vertex 25.76255053772731 45.95432838660373 -7.536641163330366
    vertex 14.8437345350742 49.36352992317315 -7.84899681563665
  endloop
endfacet
facet normal 0.687595 0.0265953 0.725607
  outer loop
    vertex 56.54581890654577 12.90621416946622 -1.959434878635765e-15
    vertex 48.56279845047715 22.31846809132452 7.219839587336288
    vertex 48.09326316618944 13.20045940485853 7.998975566468993
  endloop
endfacet
facet normal -0.185821 -0.384641 0.904169
  outer loop
    vertex 16.46113818917455 47.04323017840409 7.998401640802992
    vertex 17.62904963357465 40.45712515849743 5.43664668704698
    vertex 26.50876923770714 42.18846456089179 7.998096838366253
  endloop
endfacet
facet normal -0.422734 -0.567603 -0.706486
  outer loop
    vertex 42.1024511983433 26.45472345995984 -7.995235018361122
    vertex 36.72394207873358 20.38153803152603 0.102364104487014
    vertex 32.69102977814705 27.33333037725703 -3.069686477761056
  endloop
endfacet
facet normal -0.996687 -0.0678714 0.0448252
  outer loop
    vertex 41.47028117462587 6.65655660094936 -0.1337792519232655
    vertex 41.26158963510972 12.49759685543046 4.07009908656713
    vertex 40.79486398685753 13.96749543721576 -4.081911684231376
  endloop
endfacet
facet normal 0.415289 0.55754 0.718807
  outer loop
    vertex 5.970130020370346 51.76161857651117 7.718155277902737
    vertex 10.46679719166366 48.09759043548044 7.962205596322879
    vertex 12.90621416946625 56.54581890654576 -1.959434878635765e-15
  endloop
endfacet
facet normal 0.601872 0.378181 -0.703369
  outer loop
    vertex 52.25619433834031 25.16525686881836 -1.959434878635765e-15
    vertex 42.1024511983433 26.45472345995984 -7.995235018361122
    vertex 45.34622598314574 36.16240850780653 -1.959434878635765e-15
  endloop
endfacet
facet normal -0.818413 -0.199915 0.538733
  outer loop
    vertex 41.26670630538985 19.83078106300804 6.799100164828817
    vertex 36.72394207873358 20.38153803152603 0.102364104487014
    vertex 41.26158963510972 12.49759685543046 4.07009908656713
  endloop
endfacet
facet normal -0.573465 -0.806492 -0.143909
  outer loop
    vertex 28.77956591679891 31.69114850043126 3.505205587315601
    vertex 22.80154489922851 36.01404986036966 3.100781254343505
    vertex 24.45548182655558 36.2836848727794 -5.001087073611976
  endloop
endfacet
facet normal 0.510031 0.510031 -0.69263
  outer loop
    vertex 45.34622598314574 36.16240850780653 -1.959434878635765e-15
    vertex 34.23209259277327 36.41245522274391 -7.99996701015222
    vertex 36.16240850780655 45.34622598314573 -1.959434878635765e-15
  endloop
endfacet
facet normal 0.749765 0.188613 -0.634253
  outer loop
    vertex 51.76161857651736 5.970130020334267 -7.718155277902189
    vertex 49.49492020736789 14.57351963052875 -7.839207498735114
    vertex 56.54581890654577 12.90621416946622 -1.959434878635765e-15
  endloop
endfacet
facet normal -0.856175 -0.514825 -0.0438102
  outer loop
    vertex 41.26158963510972 12.49759685543046 4.07009908656713
    vertex 36.72394207873358 20.38153803152603 0.102364104487014
    vertex 40.79486398685753 13.96749543721576 -4.081911684231376
  endloop
endfacet
facet normal -0.335776 -0.936649 -0.0997183
  outer loop
    vertex 24.45548182655558 36.2836848727794 -5.001087073611976
    vertex 22.80154489922851 36.01404986036966 3.100781254343505
    vertex 16.33885605151392 38.78654980549374 -1.179737679543954
  endloop
endfacet
facet normal -0.454986 -0.263946 0.850482
  outer loop
    vertex 35.16012507270852 35.16012507270851 7.995235018362921
    vertex 28.77956591679891 31.69114850043126 3.505205587315601
    vertex 35.22623442099937 26.39094613121078 5.309095256618633
  endloop
endfacet
facet normal 0.659569 0.308007 0.685639
  outer loop
    vertex 56.54581890654577 12.90621416946622 -1.959434878635765e-15
    vertex 48.09326316618944 13.20045940485853 7.998975566468993
    vertex 51.7616185765158 5.9701300202547 7.718155277905094
  endloop
endfacet
facet normal -0.260235 -0.0203643 0.965331
  outer loop
    vertex 35.22623442099937 26.39094613121078 5.309095256618633
    vertex 41.26670630538985 19.83078106300804 6.799100164828817
    vertex 43.85699606573618 28.39498552668852 7.678060454057477
  endloop
endfacet
facet normal 0.692864 0.435355 0.574809
  outer loop
    vertex 45.34622598314574 36.16240850780653 -1.959434878635765e-15
    vertex 43.85699606573618 28.39498552668852 7.678060454057477
    vertex 52.25619433834031 25.16525686881836 -1.959434878635765e-15
  endloop
endfacet
facet normal 0.744716 0.260587 -0.614404
  outer loop
    vertex 56.54581890654577 12.90621416946622 -1.959434878635765e-15
    vertex 49.49492020736789 14.57351963052875 -7.839207498735114
    vertex 52.25619433834031 25.16525686881836 -1.959434878635765e-15
  endloop
endfacet
facet normal -0.449498 -0.311279 0.837291
  outer loop
    vertex 41.26670630538985 19.83078106300804 6.799100164828817
    vertex 41.26158963510972 12.49759685543046 4.07009908656713
    vertex 48.09326316618944 13.20045940485853 7.998975566468993
  endloop
endfacet
facet normal 0.804691 0.281574 0.522674
  outer loop
    vertex 52.25619433834031 25.16525686881836 -1.959434878635765e-15
    vertex 48.56279845047715 22.31846809132452 7.219839587336288
    vertex 56.54581890654577 12.90621416946622 -1.959434878635765e-15
  endloop
endfacet
facet normal -0.467121 -0.709744 -0.527315
  outer loop
    vertex 16.33885605151392 38.78654980549374 -1.179737679543954
    vertex 19.09170544009395 40.72481370149946 -6.227169367911983
    vertex 24.45548182655558 36.2836848727794 -5.001087073611976
  endloop
endfacet
facet normal -0.980845 -0.194792 -0
  outer loop
    vertex 42.79224905678065 -1.048107816714055e-14 3.471069912940459
    vertex 41.47028117462587 6.65655660094936 -0.1337792519232655
    vertex 42.79224905678065 -1.048107816714055e-14 -3.47106991294047
  endloop
endfacet
facet normal -0.209759 -0.977753 -2.0015e-15
  outer loop
    vertex 0 42.79224905678065 -3.471069912940476
    vertex 5.197861955227008 41.67714335516168 0.01974672284836145
    vertex 0 42.79224905678064 3.471069912940448
  endloop
endfacet
facet normal -0.189518 -0.61219 0.767663
  outer loop
    vertex 0 42.79224905678064 3.471069912940448
    vertex 4.995595338064576 44.83459758057801 6.33308385064429
    vertex 0 48.21983252834946 7.799423297454583
  endloop
endfacet
facet normal -0.123089 -0.570282 0.812175
  outer loop
    vertex 26.50876923770714 42.18846456089179 7.998096838366253
    vertex 17.62904963357465 40.45712515849743 5.43664668704698
    vertex 22.80154489922851 36.01404986036966 3.100781254343505
  endloop
endfacet
facet normal 0.123787 -0.876911 -0.46444
  outer loop
    vertex 0 42.79224905678065 -3.471069912940476
    vertex 5.777562565924516 45.34694105804721 -6.754704378124823
    vertex 5.197861955227008 41.67714335516168 0.01974672284836145
  endloop
endfacet
facet normal -0.28441 -0.206994 -0.93609
  outer loop
    vertex 24.45548182655558 36.2836848727794 -5.001087073611976
    vertex 25.76255053772731 45.95432838660373 -7.536641163330366
    vertex 34.23209259277327 36.41245522274391 -7.99996701015222
  endloop
endfacet
facet normal 0.00999652 -0.25487 -0.966924
  outer loop
    vertex 24.45548182655558 36.2836848727794 -5.001087073611976
    vertex 19.09170544009395 40.72481370149946 -6.227169367911983
    vertex 25.76255053772731 45.95432838660373 -7.536641163330366
  endloop
endfacet
facet normal 0.106639 -0.887912 0.447483
  outer loop
    vertex 5.197861955227008 41.67714335516168 0.01974672284836145
    vertex 4.995595338064576 44.83459758057801 6.33308385064429
    vertex 0 42.79224905678064 3.471069912940448
  endloop
endfacet
facet normal -0.166308 -0.614807 -0.770944
  outer loop
    vertex 0 48.21983252834949 -7.799423297454588
    vertex 5.777562565924516 45.34694105804721 -6.754704378124823
    vertex 0 42.79224905678065 -3.471069912940476
  endloop
endfacet
facet normal -0.844966 -0.331976 0.419315
  outer loop
    vertex 44.91215740400937 6.287638405278347 6.50990882091306
    vertex 41.26158963510972 12.49759685543046 4.07009908656713
    vertex 41.47028117462587 6.65655660094936 -0.1337792519232655
  endloop
endfacet
facet normal 0.139521 -0.21299 0.967041
  outer loop
    vertex 0 48.21983252834946 7.799423297454583
    vertex 4.995595338064576 44.83459758057801 6.33308385064429
    vertex 5.970130020370346 51.76161857651117 7.718155277902737
  endloop
endfacet
facet normal -0.117911 0.220969 0.968127
  outer loop
    vertex 0 48.21983252834946 7.799423297454583
    vertex 5.970130020370346 51.76161857651117 7.718155277902737
    vertex 0 54.98791841486987 6.254651859744242
  endloop
endfacet
facet normal -0.883739 0.0746789 0.461983
  outer loop
    vertex 42.79224905678065 -1.048107816714055e-14 3.471069912940459
    vertex 44.91215740400937 6.287638405278347 6.50990882091306
    vertex 41.47028117462587 6.65655660094936 -0.1337792519232655
  endloop
endfacet
facet normal 0.683582 0.488488 0.542306
  outer loop
    vertex 43.85699606573618 28.39498552668852 7.678060454057477
    vertex 48.56279845047715 22.31846809132452 7.219839587336288
    vertex 52.25619433834031 25.16525686881836 -1.959434878635765e-15
  endloop
endfacet
facet normal -0.649591 -0.751993 0.111971
  outer loop
    vertex 28.77956591679891 31.69114850043126 3.505205587315601
    vertex 32.69102977814705 27.33333037725703 -3.069686477761056
    vertex 35.22623442099937 26.39094613121078 5.309095256618633
  endloop
endfacet
facet normal -0.615769 -0.156889 -0.77215
  outer loop
    vertex 42.79224905678065 -1.048107816714055e-14 -3.47106991294047
    vertex 44.67257377038663 7.235176769786496 -6.440651961101794
    vertex 48.2198325283495 -1.181045271225293e-14 -7.799423297454592
  endloop
endfacet
facet normal -0.709318 -0.554191 0.435592
  outer loop
    vertex 35.22623442099937 26.39094613121078 5.309095256618633
    vertex 36.72394207873358 20.38153803152603 0.102364104487014
    vertex 41.26670630538985 19.83078106300804 6.799100164828817
  endloop
endfacet
facet normal -0.0751087 0.221892 -0.972174
  outer loop
    vertex 0 54.98791841486987 -6.25465185974424
    vertex 8.365903656799603 51.52955939390324 -7.690336597722598
    vertex 0 48.21983252834949 -7.799423297454588
  endloop
endfacet
facet normal -0.614908 -0.165342 0.771071
  outer loop
    vertex 48.21983252834948 -1.181045271225292e-14 7.799423297454587
    vertex 44.91215740400937 6.287638405278347 6.50990882091306
    vertex 42.79224905678065 -1.048107816714055e-14 3.471069912940459
  endloop
endfacet
facet normal -0.292709 -0.313528 -0.903339
  outer loop
    vertex 14.8437345350742 49.36352992317315 -7.84899681563665
    vertex 19.09170544009395 40.72481370149946 -6.227169367911983
    vertex 11.55501778130741 41.53252698552999 -4.065395663504265
  endloop
endfacet
facet normal -0.222426 -0.863391 -0.452861
  outer loop
    vertex 11.55501778130741 41.53252698552999 -4.065395663504265
    vertex 19.09170544009395 40.72481370149946 -6.227169367911983
    vertex 16.33885605151392 38.78654980549374 -1.179737679543954
  endloop
endfacet
facet normal -0.501486 0.0446571 0.864013
  outer loop
    vertex 48.09326316618944 13.20045940485853 7.998975566468993
    vertex 41.26158963510972 12.49759685543046 4.07009908656713
    vertex 44.91215740400937 6.287638405278347 6.50990882091306
  endloop
endfacet
facet normal -0.0251586 -0.0945303 0.995204
  outer loop
    vertex 41.26670630538985 19.83078106300804 6.799100164828817
    vertex 48.56279845047715 22.31846809132452 7.219839587336288
    vertex 43.85699606573618 28.39498552668852 7.678060454057477
  endloop
endfacet
facet normal -0.892392 0.047746 -0.448728
  outer loop
    vertex 41.47028117462587 6.65655660094936 -0.1337792519232655
    vertex 44.67257377038663 7.235176769786496 -6.440651961101794
    vertex 42.79224905678065 -1.048107816714055e-14 -3.47106991294047
  endloop
endfacet
facet normal 0.526864 0.500994 -0.6866
  outer loop
    vertex 34.23209259277327 36.41245522274391 -7.99996701015222
    vertex 25.76255053772731 45.95432838660373 -7.536641163330366
    vertex 36.16240850780655 45.34622598314573 -1.959434878635765e-15
  endloop
endfacet
facet normal 0.0855646 -0.184005 -0.979194
  outer loop
    vertex 8.365903656799603 51.52955939390324 -7.690336597722598
    vertex 5.777562565924516 45.34694105804721 -6.754704378124823
    vertex 0 48.21983252834949 -7.799423297454588
  endloop
endfacet
facet normal -0.0876585 0.0892926 0.992141
  outer loop
    vertex 48.09326316618944 13.20045940485853 7.998975566468993
    vertex 48.56279845047715 22.31846809132452 7.219839587336288
    vertex 41.26670630538985 19.83078106300804 6.799100164828817
  endloop
endfacet
facet normal -0.883981 -0.411915 0.221141
  outer loop
    vertex 32.69102977814705 27.33333037725703 -3.069686477761056
    vertex 36.72394207873358 20.38153803152603 0.102364104487014
    vertex 35.22623442099937 26.39094613121078 5.309095256618633
  endloop
endfacet
facet normal 0.442847 0.704787 -0.554221
  outer loop
    vertex 36.16240850780655 45.34622598314573 -1.959434878635765e-15
    vertex 25.76255053772731 45.95432838660373 -7.536641163330366
    vertex 25.16525686881839 52.25619433834031 -1.959434878635765e-15
  endloop
endfacet
facet normal -0.536477 -0.302709 0.787756
  outer loop
    vertex 22.80154489922851 36.01404986036966 3.100781254343505
    vertex 28.30405838981259 36.5286376929267 7.045839472649437
    vertex 26.50876923770714 42.18846456089179 7.998096838366253
  endloop
endfacet
facet normal 0.220969 -0.117911 0.968127
  outer loop
    vertex 54.98791841486986 -1.346815565570924e-14 6.254651859744243
    vertex 51.7616185765158 5.9701300202547 7.718155277905094
    vertex 48.21983252834948 -1.181045271225292e-14 7.799423297454587
  endloop
endfacet
facet normal -0.538296 -0.786217 0.30348
  outer loop
    vertex 22.80154489922851 36.01404986036966 3.100781254343505
    vertex 17.62904963357465 40.45712515849743 5.43664668704698
    vertex 16.33885605151392 38.78654980549374 -1.179737679543954
  endloop
endfacet
facet normal -0.0930034 -0.499176 0.861495
  outer loop
    vertex 16.46113818917455 47.04323017840409 7.998401640802992
    vertex 10.46679719166366 48.09759043548044 7.962205596322879
    vertex 11.36942953884899 41.8121487672713 4.417673933799422
  endloop
endfacet
facet normal -0.178046 -0.128225 0.975632
  outer loop
    vertex 51.7616185765158 5.9701300202547 7.718155277905094
    vertex 48.09326316618944 13.20045940485853 7.998975566468993
    vertex 44.91215740400937 6.287638405278347 6.50990882091306
  endloop
endfacet
facet normal -0.225118 -0.589772 0.775559
  outer loop
    vertex 35.16012507270852 35.16012507270851 7.995235018362921
    vertex 28.30405838981259 36.5286376929267 7.045839472649437
    vertex 28.77956591679891 31.69114850043126 3.505205587315601
  endloop
endfacet
facet normal 0.220969 -0.117911 -0.968127
  outer loop
    vertex 48.2198325283495 -1.181045271225293e-14 -7.799423297454592
    vertex 51.76161857651736 5.970130020334267 -7.718155277902189
    vertex 54.98791841486987 -1.346815565570924e-14 -6.254651859744235
  endloop
endfacet
facet normal -0.0015883 -0.999457 0.0329097
  outer loop
    vertex 5.197861955227008 41.67714335516168 0.01974672284836145
    vertex 11.55501778130741 41.53252698552999 -4.065395663504265
    vertex 11.36942953884899 41.8121487672713 4.417673933799422
  endloop
endfacet
facet normal -0.229291 -0.387898 0.892726
  outer loop
    vertex 11.36942953884899 41.8121487672713 4.417673933799422
    vertex 17.62904963357465 40.45712515849743 5.43664668704698
    vertex 16.46113818917455 47.04323017840409 7.998401640802992
  endloop
endfacet
facet normal -0.281824 -0.861712 0.421934
  outer loop
    vertex 5.197861955227008 41.67714335516168 0.01974672284836145
    vertex 11.36942953884899 41.8121487672713 4.417673933799422
    vertex 4.995595338064576 44.83459758057801 6.33308385064429
  endloop
endfacet
facet normal -0.167541 0.112726 0.979399
  outer loop
    vertex 51.7616185765158 5.9701300202547 7.718155277905094
    vertex 44.91215740400937 6.287638405278347 6.50990882091306
    vertex 48.21983252834948 -1.181045271225292e-14 7.799423297454587
  endloop
endfacet
facet normal -0.157811 0.106984 -0.981657
  outer loop
    vertex 48.2198325283495 -1.181045271225293e-14 -7.799423297454592
    vertex 44.67257377038663 7.235176769786496 -6.440651961101794
    vertex 51.76161857651736 5.970130020334267 -7.718155277902189
  endloop
endfacet
facet normal 0.0309902 -0.487589 0.872523
  outer loop
    vertex 11.36942953884899 41.8121487672713 4.417673933799422
    vertex 10.46679719166366 48.09759043548044 7.962205596322879
    vertex 4.995595338064576 44.83459758057801 6.33308385064429
  endloop
endfacet
facet normal -0.505613 -0.862586 0.0173713
  outer loop
    vertex 11.36942953884899 41.8121487672713 4.417673933799422
    vertex 11.55501778130741 41.53252698552999 -4.065395663504265
    vertex 16.33885605151392 38.78654980549374 -1.179737679543954
  endloop
endfacet
facet normal -0.44935 -0.555975 0.699268
  outer loop
    vertex 28.77956591679891 31.69114850043126 3.505205587315601
    vertex 28.30405838981259 36.5286376929267 7.045839472649437
    vertex 22.80154489922851 36.01404986036966 3.100781254343505
  endloop
endfacet
facet normal -0.322039 -0.820619 -0.472096
  outer loop
    vertex 5.777562565924516 45.34694105804721 -6.754704378124823
    vertex 11.55501778130741 41.53252698552999 -4.065395663504265
    vertex 5.197861955227008 41.67714335516168 0.01974672284836145
  endloop
endfacet
facet normal -0.246629 -0.927118 0.282181
  outer loop
    vertex 16.33885605151392 38.78654980549374 -1.179737679543954
    vertex 17.62904963357465 40.45712515849743 5.43664668704698
    vertex 11.36942953884899 41.8121487672713 4.417673933799422
  endloop
endfacet
facet normal -0.18858 -0.166975 0.967759
  outer loop
    vertex 4.995595338064576 44.83459758057801 6.33308385064429
    vertex 10.46679719166366 48.09759043548044 7.962205596322879
    vertex 5.970130020370346 51.76161857651117 7.718155277902737
  endloop
endfacet
facet normal -0.1439 -0.0348202 0.98898
  outer loop
    vertex 35.16012507270852 35.16012507270851 7.995235018362921
    vertex 32.14637110623855 40.82266782882045 7.756092741303925
    vertex 28.30405838981259 36.5286376929267 7.045839472649437
  endloop
endfacet
facet normal 0.00231402 -0.165202 0.986257
  outer loop
    vertex 28.30405838981259 36.5286376929267 7.045839472649437
    vertex 32.14637110623855 40.82266782882045 7.756092741303925
    vertex 26.50876923770714 42.18846456089179 7.998096838366253
  endloop
endfacet
facet normal 0.842063 0.355649 0.405516
  outer loop
    vertex 58 -1.42059028701093e-14 -1.959434878635765e-15
    vertex 51.7616185765158 5.9701300202547 7.718155277905094
    vertex 54.98791841486986 -1.346815565570924e-14 6.254651859744243
  endloop
endfacet
facet normal 0.807738 0.0910102 0.582475
  outer loop
    vertex 56.54581890654577 12.90621416946622 -1.959434878635765e-15
    vertex 51.7616185765158 5.9701300202547 7.718155277905094
    vertex 58 -1.42059028701093e-14 -1.959434878635765e-15
  endloop
endfacet
facet normal 0.100996 0.896362 -0.431665
  outer loop
    vertex 12.90621416946625 56.54581890654576 -1.959434878635765e-15
    vertex 0 54.98791841486987 -6.25465185974424
    vertex 3.551475717527324e-15 58 -1.959434878635765e-15
  endloop
endfacet
facet normal 0.842063 0.355649 -0.405516
  outer loop
    vertex 54.98791841486987 -1.346815565570924e-14 -6.254651859744235
    vertex 51.76161857651736 5.970130020334267 -7.718155277902189
    vertex 58 -1.42059028701093e-14 -1.959434878635765e-15
  endloop
endfacet
facet normal 0.807738 0.0910102 -0.582475
  outer loop
    vertex 58 -1.42059028701093e-14 -1.959434878635765e-15
    vertex 51.76161857651736 5.970130020334267 -7.718155277902189
    vertex 56.54581890654577 12.90621416946622 -1.959434878635765e-15
  endloop
endfacet
facet normal 0.207664 0.758682 -0.617477
  outer loop
    vertex 12.90621416946625 56.54581890654576 -1.959434878635765e-15
    vertex 8.365903656799603 51.52955939390324 -7.690336597722598
    vertex 0 54.98791841486987 -6.25465185974424
  endloop
endfacet
facet normal 0.100996 0.896362 0.431665
  outer loop
    vertex 12.90621416946625 56.54581890654576 -1.959434878635765e-15
    vertex 3.551475717527324e-15 58 -1.959434878635765e-15
    vertex 0 54.98791841486987 6.254651859744242
  endloop
endfacet
facet normal 0.229611 0.721303 0.653454
  outer loop
    vertex 0 54.98791841486987 6.254651859744242
    vertex 5.970130020370346 51.76161857651117 7.718155277902737
    vertex 12.90621416946625 56.54581890654576 -1.959434878635765e-15
  endloop
endfacet
facet normal 0.184256 0.626339 0.757463
  outer loop
    vertex 26.50876923770714 42.18846456089179 7.998096838366253
    vertex 32.14637110623855 40.82266782882045 7.756092741303925
    vertex 25.16525686881839 52.25619433834031 -1.959434878635765e-15
  endloop
endfacet
facet normal 0.682525 -0.0509751 0.729082
  outer loop
    vertex 48.00359956612147 -12.93214241741397 7.994923494103995
    vertex 47.68091015900536 -20.60540341987823 7.760517151540269
    vertex 56.54581890654576 -12.90621416946625 -1.959434878635765e-15
  endloop
endfacet
facet normal -0.112951 0.188552 -0.975546
  outer loop
    vertex 5.970130020370368 -51.76161857651097 -7.718155277902789
    vertex 6.217830447535342 -44.76222691808191 -6.394004743842057
    vertex 16.42277154764912 -46.93358461637126 -7.995235018359915
  endloop
endfacet
facet normal -0.16318 0.111248 -0.980304
  outer loop
    vertex 44.92021424459764 -6.750649701265298 -6.562467535167078
    vertex 50.92755118690351 -8.973214459045343 -7.814662708603882
    vertex 46.93358461645451 -16.42277154767827 -7.995235018362961
  endloop
endfacet
facet normal 0.292602 -0.672493 -0.679807
  outer loop
    vertex 12.90621416946622 -56.54581890654577 -1.959434878635765e-15
    vertex 5.970130020370368 -51.76161857651097 -7.718155277902789
    vertex 16.42277154764912 -46.93358461637126 -7.995235018359915
  endloop
endfacet
facet normal -0.789414 0.613288 0.026529
  outer loop
    vertex 32.90551109637279 -27.10607890839887 3.117186783693349
    vertex 40.04219483489136 -18.00919459934113 5.182588640628866
    vertex 37.17049295346622 -21.32587476060108 -3.595859986284724
  endloop
endfacet
facet normal 0.671633 -0.344183 -0.656085
  outer loop
    vertex 46.93358461645451 -16.42277154767827 -7.995235018362961
    vertex 50.92755118690351 -8.973214459045343 -7.814662708603882
    vertex 56.54581890654576 -12.90621416946625 -1.959434878635765e-15
  endloop
endfacet
facet normal -0.421194 0.126525 0.898102
  outer loop
    vertex 42.88299048036577 -27.93222466680597 7.912834641288446
    vertex 40.04219483489136 -18.00919459934113 5.182588640628866
    vertex 32.90551109637279 -27.10607890839887 3.117186783693349
  endloop
endfacet
facet normal -0.669107 -0.0292804 -0.742589
  outer loop
    vertex 46.93358461645451 -16.42277154767827 -7.995235018362961
    vertex 40.23236377732788 -12.99329172385091 -2.092347857653849
    vertex 44.92021424459764 -6.750649701265298 -6.562467535167078
  endloop
endfacet
facet normal 0.754912 -0.264155 0.600275
  outer loop
    vertex 56.54581890654576 -12.90621416946625 -1.959434878635765e-15
    vertex 47.68091015900536 -20.60540341987823 7.760517151540269
    vertex 52.25619433834031 -25.16525686881839 -1.959434878635765e-15
  endloop
endfacet
facet normal 0.652215 -0.255571 -0.713652
  outer loop
    vertex 52.25619433834031 -25.16525686881839 -1.959434878635765e-15
    vertex 42.6934597485188 -27.31153737407386 -7.970888171941558
    vertex 46.93358461645451 -16.42277154767827 -7.995235018362961
  endloop
endfacet
facet normal -0.059915 0.158779 0.985494
  outer loop
    vertex 16.05725402135386 -48.88111130888475 7.867324515931524
    vertex 6.116850229521377 -45.16081194737329 6.663577885814228
    vertex 5.970130020264334 -51.76161857673185 7.718155277846264
  endloop
endfacet
facet normal 0.670935 -0.23477 -0.703369
  outer loop
    vertex 52.25619433834031 -25.16525686881839 -1.959434878635765e-15
    vertex 46.93358461645451 -16.42277154767827 -7.995235018362961
    vertex 56.54581890654576 -12.90621416946625 -1.959434878635765e-15
  endloop
endfacet
facet normal 0.0816639 0.497612 0.863547
  outer loop
    vertex 16.05725402135386 -48.88111130888475 7.867324515931524
    vertex 11.73736789632849 -41.43159677968344 3.983128375577379
    vertex 6.116850229521377 -45.16081194737329 6.663577885814228
  endloop
endfacet
facet normal 0.232324 -0.673086 -0.702126
  outer loop
    vertex 16.42277154764912 -46.93358461637126 -7.995235018359915
    vertex 27.141442730255 -43.30988804833326 -7.922383293842878
    vertex 25.16525686881836 -52.25619433834031 -1.959434878635765e-15
  endloop
endfacet
facet normal -0.174932 0.41562 0.892557
  outer loop
    vertex 27.10276181980187 -44.09635436708448 7.80410665379226
    vertex 19.1661406178632 -38.30397574957599 3.551378857635516
    vertex 16.05725402135386 -48.88111130888475 7.867324515931524
  endloop
endfacet
facet normal 0.23477 -0.670935 -0.703369
  outer loop
    vertex 12.90621416946622 -56.54581890654577 -1.959434878635765e-15
    vertex 16.42277154764912 -46.93358461637126 -7.995235018359915
    vertex 25.16525686881836 -52.25619433834031 -1.959434878635765e-15
  endloop
endfacet
facet normal -0.479383 0.184755 -0.857938
  outer loop
    vertex 42.6934597485188 -27.31153737407386 -7.970888171941558
    vertex 37.17049295346622 -21.32587476060108 -3.595859986284724
    vertex 46.93358461645451 -16.42277154767827 -7.995235018362961
  endloop
endfacet
facet normal 0.502629 -0.502629 -0.703369
  outer loop
    vertex 36.16240850780653 -45.34622598314574 -1.959434878635765e-15
    vertex 35.16012507273192 -35.16012507273193 -7.995235018364064
    vertex 45.34622598314572 -36.16240850780655 -1.959434878635765e-15
  endloop
endfacet
facet normal 0.30483 -0.695091 0.651096
  outer loop
    vertex 27.10276181980187 -44.09635436708448 7.80410665379226
    vertex 16.05725402135386 -48.88111130888475 7.867324515931524
    vertex 25.16525686881836 -52.25619433834031 -1.959434878635765e-15
  endloop
endfacet
facet normal 0.509271 -0.486613 -0.709824
  outer loop
    vertex 35.16012507273192 -35.16012507273193 -7.995235018364064
    vertex 42.6934597485188 -27.31153737407386 -7.970888171941558
    vertex 45.34622598314572 -36.16240850780655 -1.959434878635765e-15
  endloop
endfacet
facet normal 0.655724 -0.412018 0.632667
  outer loop
    vertex 52.25619433834031 -25.16525686881839 -1.959434878635765e-15
    vertex 42.88299048036577 -27.93222466680597 7.912834641288446
    vertex 45.34622598314572 -36.16240850780655 -1.959434878635765e-15
  endloop
endfacet
facet normal 0.424965 -0.676328 0.601652
  outer loop
    vertex 36.16240850780653 -45.34622598314574 -1.959434878635765e-15
    vertex 27.10276181980187 -44.09635436708448 7.80410665379226
    vertex 25.16525686881836 -52.25619433834031 -1.959434878635765e-15
  endloop
endfacet
facet normal 0.503909 -0.502087 -0.70284
  outer loop
    vertex 36.16240850780653 -45.34622598314574 -1.959434878635765e-15
    vertex 27.141442730255 -43.30988804833326 -7.922383293842878
    vertex 35.16012507273192 -35.16012507273193 -7.995235018364064
  endloop
endfacet
facet normal 0.605407 -0.449991 0.656499
  outer loop
    vertex 42.88299048036577 -27.93222466680597 7.912834641288446
    vertex 36.34025022900204 -36.90457715839581 7.796379434251994
    vertex 45.34622598314572 -36.16240850780655 -1.959434878635765e-15
  endloop
endfacet
facet normal -0.397267 0.278341 0.874474
  outer loop
    vertex 42.88299048036577 -27.93222466680597 7.912834641288446
    vertex 32.90551109637279 -27.10607890839887 3.117186783693349
    vertex 36.34025022900204 -36.90457715839581 7.796379434251994
  endloop
endfacet
facet normal 0.202046 -0.740716 0.640716
  outer loop
    vertex 12.90621416946622 -56.54581890654577 -1.959434878635765e-15
    vertex 16.05725402135386 -48.88111130888475 7.867324515931524
    vertex 5.970130020264334 -51.76161857673185 7.718155277846264
  endloop
endfacet
facet normal -0.332423 0.33709 -0.880832
  outer loop
    vertex 42.6934597485188 -27.31153737407386 -7.970888171941558
    vertex 32.89521874511487 -28.56010003050217 -4.750884756768232
    vertex 37.17049295346622 -21.32587476060108 -3.595859986284724
  endloop
endfacet
facet normal 0.644828 -0.333175 0.687889
  outer loop
    vertex 51.32705716215299 -6.908128094755811 7.797205962047856
    vertex 48.00359956612147 -12.93214241741397 7.994923494103995
    vertex 56.54581890654576 -12.90621416946625 -1.959434878635765e-15
  endloop
endfacet
facet normal -0.52137 0.333322 -0.785538
  outer loop
    vertex 37.17049295346622 -21.32587476060108 -3.595859986284724
    vertex 40.23236377732788 -12.99329172385091 -2.092347857653849
    vertex 46.93358461645451 -16.42277154767827 -7.995235018362961
  endloop
endfacet
facet normal -0.388624 0.374849 -0.8417
  outer loop
    vertex 27.141442730255 -43.30988804833326 -7.922383293842878
    vertex 25.51586628011611 -34.1374764413841 -3.086920289045391
    vertex 35.16012507273192 -35.16012507273193 -7.995235018364064
  endloop
endfacet
facet normal -0.457206 0.881751 0.116096
  outer loop
    vertex 19.1661406178632 -38.30397574957599 3.551378857635516
    vertex 27.46895568664976 -34.20831547372383 5.142724434799144
    vertex 25.51586628011611 -34.1374764413841 -3.086920289045391
  endloop
endfacet
facet normal 0.470726 -0.603934 0.643181
  outer loop
    vertex 36.16240850780653 -45.34622598314574 -1.959434878635765e-15
    vertex 36.34025022900204 -36.90457715839581 7.796379434251994
    vertex 27.10276181980187 -44.09635436708448 7.80410665379226
  endloop
endfacet
facet normal -0.000907008 0.590742 -0.80686
  outer loop
    vertex 6.217830447535342 -44.76222691808191 -6.394004743842057
    vertex 12.64610448456443 -40.95454981673558 -3.613441595812554
    vertex 16.42277154764912 -46.93358461637126 -7.995235018359915
  endloop
endfacet
facet normal 0.259506 -0.741625 0.618587
  outer loop
    vertex 25.16525686881836 -52.25619433834031 -1.959434878635765e-15
    vertex 16.05725402135386 -48.88111130888475 7.867324515931524
    vertex 12.90621416946622 -56.54581890654577 -1.959434878635765e-15
  endloop
endfacet
facet normal -0.117648 0.404628 0.906882
  outer loop
    vertex 19.1661406178632 -38.30397574957599 3.551378857635516
    vertex 11.73736789632849 -41.43159677968344 3.983128375577379
    vertex 16.05725402135386 -48.88111130888475 7.867324515931524
  endloop
endfacet
facet normal 0.637995 -0.400879 -0.657464
  outer loop
    vertex 45.34622598314572 -36.16240850780655 -1.959434878635765e-15
    vertex 42.6934597485188 -27.31153737407386 -7.970888171941558
    vertex 52.25619433834031 -25.16525686881839 -1.959434878635765e-15
  endloop
endfacet
facet normal 0.410708 -0.653639 -0.635669
  outer loop
    vertex 25.16525686881836 -52.25619433834031 -1.959434878635765e-15
    vertex 27.141442730255 -43.30988804833326 -7.922383293842878
    vertex 36.16240850780653 -45.34622598314574 -1.959434878635765e-15
  endloop
endfacet
facet normal -0.303146 0.258125 0.917319
  outer loop
    vertex 27.10276181980187 -44.09635436708448 7.80410665379226
    vertex 27.46895568664976 -34.20831547372383 5.142724434799144
    vertex 19.1661406178632 -38.30397574957599 3.551378857635516
  endloop
endfacet
facet normal -0.332356 0.321756 -0.886573
  outer loop
    vertex 35.16012507273192 -35.16012507273193 -7.995235018364064
    vertex 32.89521874511487 -28.56010003050217 -4.750884756768232
    vertex 42.6934597485188 -27.31153737407386 -7.970888171941558
  endloop
endfacet
facet normal -0.106327 0.333342 -0.936791
  outer loop
    vertex 16.42277154764912 -46.93358461637126 -7.995235018359915
    vertex 19.9932427102537 -39.83259934255252 -5.873719327605284
    vertex 27.141442730255 -43.30988804833326 -7.922383293842878
  endloop
endfacet
facet normal -0.167588 0.614672 -0.770774
  outer loop
    vertex 0 -42.79224905678064 -3.471069912940453
    vertex 6.217830447535342 -44.76222691808191 -6.394004743842057
    vertex 0 -48.21983252834946 -7.799423297454585
  endloop
endfacet
facet normal 0.565821 -0.565821 0.599744
  outer loop
    vertex 45.34622598314572 -36.16240850780655 -1.959434878635765e-15
    vertex 36.34025022900204 -36.90457715839581 7.796379434251994
    vertex 36.16240850780653 -45.34622598314574 -1.959434878635765e-15
  endloop
endfacet
facet normal 0.655185 -0.415933 0.63066
  outer loop
    vertex 52.25619433834031 -25.16525686881839 -1.959434878635765e-15
    vertex 47.68091015900536 -20.60540341987823 7.760517151540269
    vertex 42.88299048036577 -27.93222466680597 7.912834641288446
  endloop
endfacet
facet normal -0.204853 0.978793 2.00363e-15
  outer loop
    vertex 0 -42.79224905678065 3.471069912940477
    vertex 5.528257526448888 -41.63523200937171 -0.101580981760279
    vertex 0 -42.79224905678064 -3.471069912940453
  endloop
endfacet
facet normal -0.662161 0.728343 -0.176236
  outer loop
    vertex 25.51586628011611 -34.1374764413841 -3.086920289045391
    vertex 19.9932427102537 -39.83259934255252 -5.873719327605284
    vertex 19.1661406178632 -38.30397574957599 3.551378857635516
  endloop
endfacet
facet normal -0.614286 0.171189 0.77029
  outer loop
    vertex 42.79224905678065 -1.048107816714055e-14 3.471069912940459
    vertex 44.86434514635444 -5.9233205697965 6.439907494398068
    vertex 48.21983252834948 -1.181045271225292e-14 7.799423297454587
  endloop
endfacet
facet normal -0.117911 -0.220969 -0.968127
  outer loop
    vertex 0 -48.21983252834946 -7.799423297454585
    vertex 5.970130020370368 -51.76161857651097 -7.718155277902789
    vertex 0 -54.98791841486986 -6.254651859744245
  endloop
endfacet
facet normal -0.615515 0.159428 -0.771831
  outer loop
    vertex 48.2198325283495 -1.181045271225293e-14 -7.799423297454592
    vertex 44.92021424459764 -6.750649701265298 -6.562467535167078
    vertex 42.79224905678065 -1.048107816714055e-14 -3.47106991294047
  endloop
endfacet
facet normal 0.0786269 0.896153 -0.436723
  outer loop
    vertex 5.528257526448888 -41.63523200937171 -0.101580981760279
    vertex 6.217830447535342 -44.76222691808191 -6.394004743842057
    vertex 0 -42.79224905678064 -3.471069912940453
  endloop
endfacet
facet normal -0.850359 0.51764 -0.0945475
  outer loop
    vertex 37.17049295346622 -21.32587476060108 -3.595859986284724
    vertex 32.89521874511487 -28.56010003050217 -4.750884756768232
    vertex 32.90551109637279 -27.10607890839887 3.117186783693349
  endloop
endfacet
facet normal -0.836466 0.299514 -0.458929
  outer loop
    vertex 40.23236377732788 -12.99329172385091 -2.092347857653849
    vertex 41.55494904852918 -6.098053184928322 -0.002864298111705086
    vertex 44.92021424459764 -6.750649701265298 -6.562467535167078
  endloop
endfacet
facet normal 0.120323 0.180421 -0.976202
  outer loop
    vertex 0 -48.21983252834946 -7.799423297454585
    vertex 6.217830447535342 -44.76222691808191 -6.394004743842057
    vertex 5.970130020370368 -51.76161857651097 -7.718155277902789
  endloop
endfacet
facet normal -0.16436 0.615011 0.771199
  outer loop
    vertex 0 -48.2198325283495 7.799423297454592
    vertex 6.116850229521377 -45.16081194737329 6.663577885814228
    vertex 0 -42.79224905678065 3.471069912940477
  endloop
endfacet
facet normal -0.932346 0.308603 0.188403
  outer loop
    vertex 40.04219483489136 -18.00919459934113 5.182588640628866
    vertex 40.23236377732788 -12.99329172385091 -2.092347857653849
    vertex 37.17049295346622 -21.32587476060108 -3.595859986284724
  endloop
endfacet
facet normal 0.221422 0.0992824 0.970111
  outer loop
    vertex 48.21983252834948 -1.181045271225292e-14 7.799423297454587
    vertex 51.32705716215299 -6.908128094755811 7.797205962047856
    vertex 54.98791841486986 -1.346815565570924e-14 6.254651859744243
  endloop
endfacet
facet normal -0.88572 -0.0807146 0.457148
  outer loop
    vertex 42.79224905678065 -1.048107816714055e-14 3.471069912940459
    vertex 41.55494904852918 -6.098053184928322 -0.002864298111705086
    vertex 44.86434514635444 -5.9233205697965 6.439907494398068
  endloop
endfacet
facet normal -0.98003 0.198849 0
  outer loop
    vertex 42.79224905678065 -1.048107816714055e-14 -3.47106991294047
    vertex 41.55494904852918 -6.098053184928322 -0.002864298111705086
    vertex 42.79224905678065 -1.048107816714055e-14 3.471069912940459
  endloop
endfacet
facet normal 0.106888 0.885504 0.45217
  outer loop
    vertex 0 -42.79224905678065 3.471069912940477
    vertex 6.116850229521377 -45.16081194737329 6.663577885814228
    vertex 5.528257526448888 -41.63523200937171 -0.101580981760279
  endloop
endfacet
facet normal 0.221996 0.0686404 -0.972629
  outer loop
    vertex 54.98791841486987 -1.346815565570924e-14 -6.254651859744235
    vertex 50.92755118690351 -8.973214459045343 -7.814662708603882
    vertex 48.2198325283495 -1.181045271225293e-14 -7.799423297454592
  endloop
endfacet
facet normal -0.157092 0.380197 0.911467
  outer loop
    vertex 32.90551109637279 -27.10607890839887 3.117186783693349
    vertex 27.46895568664976 -34.20831547372383 5.142724434799144
    vertex 36.34025022900204 -36.90457715839581 7.796379434251994
  endloop
endfacet
facet normal -0.302615 0.8399 -0.450548
  outer loop
    vertex 5.528257526448888 -41.63523200937171 -0.101580981760279
    vertex 12.64610448456443 -40.95454981673558 -3.613441595812554
    vertex 6.217830447535342 -44.76222691808191 -6.394004743842057
  endloop
endfacet
facet normal -0.89025 -0.0748873 -0.449274
  outer loop
    vertex 44.92021424459764 -6.750649701265298 -6.562467535167078
    vertex 41.55494904852918 -6.098053184928322 -0.002864298111705086
    vertex 42.79224905678065 -1.048107816714055e-14 -3.47106991294047
  endloop
endfacet
facet normal -0.200741 0.964072 -0.173976
  outer loop
    vertex 19.1661406178632 -38.30397574957599 3.551378857635516
    vertex 19.9932427102537 -39.83259934255252 -5.873719327605284
    vertex 12.64610448456443 -40.95454981673558 -3.613441595812554
  endloop
endfacet
facet normal -0.117911 -0.220969 0.968127
  outer loop
    vertex 0 -54.98791841486987 6.25465185974424
    vertex 5.970130020264334 -51.76161857673185 7.718155277846264
    vertex 0 -48.2198325283495 7.799423297454592
  endloop
endfacet
facet normal -0.0292459 0.462081 -0.886355
  outer loop
    vertex 27.141442730255 -43.30988804833326 -7.922383293842878
    vertex 19.9932427102537 -39.83259934255252 -5.873719327605284
    vertex 25.51586628011611 -34.1374764413841 -3.086920289045391
  endloop
endfacet
facet normal -0.218925 -0.0987825 0.970728
  outer loop
    vertex 44.86434514635444 -5.9233205697965 6.439907494398068
    vertex 51.32705716215299 -6.908128094755811 7.797205962047856
    vertex 48.21983252834948 -1.181045271225292e-14 7.799423297454587
  endloop
endfacet
facet normal -0.202798 0.261498 0.943659
  outer loop
    vertex 36.34025022900204 -36.90457715839581 7.796379434251994
    vertex 27.46895568664976 -34.20831547372383 5.142724434799144
    vertex 27.10276181980187 -44.09635436708448 7.80410665379226
  endloop
endfacet
facet normal -0.410617 0.284868 -0.866166
  outer loop
    vertex 25.51586628011611 -34.1374764413841 -3.086920289045391
    vertex 32.89521874511487 -28.56010003050217 -4.750884756768232
    vertex 35.16012507273192 -35.16012507273193 -7.995235018364064
  endloop
endfacet
facet normal -0.227272 -0.0669307 -0.971528
  outer loop
    vertex 48.2198325283495 -1.181045271225293e-14 -7.799423297454592
    vertex 50.92755118690351 -8.973214459045343 -7.814662708603882
    vertex 44.92021424459764 -6.750649701265298 -6.562467535167078
  endloop
endfacet
facet normal -0.617043 0.773971 -0.142223
  outer loop
    vertex 32.90551109637279 -27.10607890839887 3.117186783693349
    vertex 32.89521874511487 -28.56010003050217 -4.750884756768232
    vertex 25.51586628011611 -34.1374764413841 -3.086920289045391
  endloop
endfacet
facet normal -0.0684386 0.996173 0.0543704
  outer loop
    vertex 5.528257526448888 -41.63523200937171 -0.101580981760279
    vertex 11.73736789632849 -41.43159677968344 3.983128375577379
    vertex 12.64610448456443 -40.95454981673558 -3.613441595812554
  endloop
endfacet
facet normal -0.18416 0.133563 0.973779
  outer loop
    vertex 44.86434514635444 -5.9233205697965 6.439907494398068
    vertex 48.00359956612147 -12.93214241741397 7.994923494103995
    vertex 51.32705716215299 -6.908128094755811 7.797205962047856
  endloop
endfacet
facet normal -0.754346 0.630033 0.184447
  outer loop
    vertex 25.51586628011611 -34.1374764413841 -3.086920289045391
    vertex 27.46895568664976 -34.20831547372383 5.142724434799144
    vertex 32.90551109637279 -27.10607890839887 3.117186783693349
  endloop
endfacet
facet normal -0.447352 0.221525 0.866489
  outer loop
    vertex 48.00359956612147 -12.93214241741397 7.994923494103995
    vertex 41.87725762651398 -10.77804625567752 4.281296786183282
    vertex 40.04219483489136 -18.00919459934113 5.182588640628866
  endloop
endfacet
facet normal -0.843224 0.330226 0.424175
  outer loop
    vertex 41.55494904852918 -6.098053184928322 -0.002864298111705086
    vertex 41.87725762651398 -10.77804625567752 4.281296786183282
    vertex 44.86434514635444 -5.9233205697965 6.439907494398068
  endloop
endfacet
facet normal 0.105096 0.154612 0.98237
  outer loop
    vertex 5.970130020264334 -51.76161857673185 7.718155277846264
    vertex 6.116850229521377 -45.16081194737329 6.663577885814228
    vertex 0 -48.2198325283495 7.799423297454592
  endloop
endfacet
facet normal -0.387431 0.921826 0.0115422
  outer loop
    vertex 12.64610448456443 -40.95454981673558 -3.613441595812554
    vertex 11.73736789632849 -41.43159677968344 3.983128375577379
    vertex 19.1661406178632 -38.30397574957599 3.551378857635516
  endloop
endfacet
facet normal -0.530489 -0.0498585 0.846224
  outer loop
    vertex 44.86434514635444 -5.9233205697965 6.439907494398068
    vertex 41.87725762651398 -10.77804625567752 4.281296786183282
    vertex 48.00359956612147 -12.93214241741397 7.994923494103995
  endloop
endfacet
facet normal -0.324828 0.41695 -0.848905
  outer loop
    vertex 12.64610448456443 -40.95454981673558 -3.613441595812554
    vertex 19.9932427102537 -39.83259934255252 -5.873719327605284
    vertex 16.42277154764912 -46.93358461637126 -7.995235018359915
  endloop
endfacet
facet normal -0.95276 0.261119 0.15513
  outer loop
    vertex 40.04219483489136 -18.00919459934113 5.182588640628866
    vertex 41.87725762651398 -10.77804625567752 4.281296786183282
    vertex 40.23236377732788 -12.99329172385091 -2.092347857653849
  endloop
endfacet
facet normal -0.324376 -0.0152517 0.945805
  outer loop
    vertex 40.04219483489136 -18.00919459934113 5.182588640628866
    vertex 47.68091015900536 -20.60540341987823 7.760517151540269
    vertex 48.00359956612147 -12.93214241741397 7.994923494103995
  endloop
endfacet
facet normal -0.328885 0.825441 0.458783
  outer loop
    vertex 6.116850229521377 -45.16081194737329 6.663577885814228
    vertex 11.73736789632849 -41.43159677968344 3.983128375577379
    vertex 5.528257526448888 -41.63523200937171 -0.101580981760279
  endloop
endfacet
facet normal -0.256275 0.187533 0.948238
  outer loop
    vertex 42.88299048036577 -27.93222466680597 7.912834641288446
    vertex 47.68091015900536 -20.60540341987823 7.760517151540269
    vertex 40.04219483489136 -18.00919459934113 5.182588640628866
  endloop
endfacet
facet normal -0.970418 0.123223 0.207615
  outer loop
    vertex 40.23236377732788 -12.99329172385091 -2.092347857653849
    vertex 41.87725762651398 -10.77804625567752 4.281296786183282
    vertex 41.55494904852918 -6.098053184928322 -0.002864298111705086
  endloop
endfacet
facet normal 0.896362 -0.100996 0.431665
  outer loop
    vertex 56.54581890654576 -12.90621416946625 -1.959434878635765e-15
    vertex 58 -1.42059028701093e-14 -1.959434878635765e-15
    vertex 54.98791841486986 -1.346815565570924e-14 6.254651859744243
  endloop
endfacet
facet normal 0.100996 -0.896362 -0.431665
  outer loop
    vertex 0 -54.98791841486986 -6.254651859744245
    vertex 12.90621416946622 -56.54581890654577 -1.959434878635765e-15
    vertex -1.065442715258197e-14 -58 -1.959434878635765e-15
  endloop
endfacet
facet normal 0.716084 -0.232516 0.658149
  outer loop
    vertex 54.98791841486986 -1.346815565570924e-14 6.254651859744243
    vertex 51.32705716215299 -6.908128094755811 7.797205962047856
    vertex 56.54581890654576 -12.90621416946625 -1.959434878635765e-15
  endloop
endfacet
facet normal 0.896362 -0.100996 -0.431665
  outer loop
    vertex 56.54581890654576 -12.90621416946625 -1.959434878635765e-15
    vertex 54.98791841486987 -1.346815565570924e-14 -6.254651859744235
    vertex 58 -1.42059028701093e-14 -1.959434878635765e-15
  endloop
endfacet
facet normal 0.735517 -0.221508 -0.640273
  outer loop
    vertex 56.54581890654576 -12.90621416946625 -1.959434878635765e-15
    vertex 50.92755118690351 -8.973214459045343 -7.814662708603882
    vertex 54.98791841486987 -1.346815565570924e-14 -6.254651859744235
  endloop
endfacet
facet normal 0.229611 -0.721303 -0.653454
  outer loop
    vertex 0 -54.98791841486986 -6.254651859744245
    vertex 5.970130020370368 -51.76161857651097 -7.718155277902789
    vertex 12.90621416946622 -56.54581890654577 -1.959434878635765e-15
  endloop
endfacet
facet normal 0.355649 -0.842063 0.405516
  outer loop
    vertex -1.065442715258197e-14 -58 -1.959434878635765e-15
    vertex 5.970130020264334 -51.76161857673185 7.718155277846264
    vertex 0 -54.98791841486987 6.25465185974424
  endloop
endfacet
facet normal 0.0910102 -0.807738 0.582475
  outer loop
    vertex 12.90621416946622 -56.54581890654577 -1.959434878635765e-15
    vertex 5.970130020264334 -51.76161857673185 7.718155277846264
    vertex -1.065442715258197e-14 -58 -1.959434878635765e-15
  endloop
endfacet
facet normal -1 -0 0
  outer loop
    vertex 0 54.98791841486987 -6.25465185974424
    vertex 0 48.21983252834949 -7.799423297454588
    vertex 0 49.99999999999997 -7.105427357601002e-15
  endloop
endfacet
facet normal -1 4.43934e-16 3.54026e-16
  outer loop
    vertex 3.551475717527324e-15 58 -1.959434878635765e-15
    vertex 0 54.98791841486987 -6.25465185974424
    vertex 0 49.99999999999997 -7.105427357601002e-15
  endloop
endfacet
facet normal -1 0 0
  outer loop
    vertex 0 48.21983252834949 -7.799423297454588
    vertex 0 42.79224905678065 -3.471069912940476
    vertex 0 49.99999999999997 -7.105427357601002e-15
  endloop
endfacet
facet normal -1 4.43934e-16 -3.54026e-16
  outer loop
    vertex 0 54.98791841486987 6.254651859744242
    vertex 3.551475717527324e-15 58 -1.959434878635765e-15
    vertex 0 49.99999999999997 -7.105427357601002e-15
  endloop
endfacet
facet normal -1 0 0
  outer loop
    vertex 0 42.79224905678065 -3.471069912940476
    vertex 0 42.79224905678064 3.471069912940448
    vertex 0 49.99999999999997 -7.105427357601002e-15
  endloop
endfacet
facet normal -1 0 0
  outer loop
    vertex 0 48.21983252834946 7.799423297454583
    vertex 0 54.98791841486987 6.254651859744242
    vertex 0 49.99999999999997 -7.105427357601002e-15
  endloop
endfacet
facet normal -1 0 0
  outer loop
    vertex 0 42.79224905678064 3.471069912940448
    vertex 0 48.21983252834946 7.799423297454583
    vertex 0 49.99999999999997 -7.105427357601002e-15
  endloop
endfacet
facet normal -1 -0 0
  outer loop
    vertex 0 -42.79224905678064 -3.471069912940453
    vertex 0 -48.21983252834946 -7.799423297454585
    vertex 0 -50 3.552713678800501e-15
  endloop
endfacet
facet normal -1 0 0
  outer loop
    vertex 0 -48.21983252834946 -7.799423297454585
    vertex 0 -54.98791841486986 -6.254651859744245
    vertex 0 -50 3.552713678800501e-15
  endloop
endfacet
facet normal -1 0 -0
  outer loop
    vertex 0 -42.79224905678065 3.471069912940477
    vertex 0 -42.79224905678064 -3.471069912940453
    vertex 0 -50 3.552713678800501e-15
  endloop
endfacet
facet normal -1 1.3318e-15 -1.06208e-15
  outer loop
    vertex 0 -54.98791841486986 -6.254651859744245
    vertex -1.065442715258197e-14 -58 -1.959434878635765e-15
    vertex 0 -50 3.552713678800501e-15
  endloop
endfacet
facet normal -1 0 -0
  outer loop
    vertex 0 -48.2198325283495 7.799423297454592
    vertex 0 -42.79224905678065 3.471069912940477
    vertex 0 -50 3.552713678800501e-15
  endloop
endfacet
facet normal -1 1.3318e-15 1.06208e-15
  outer loop
    vertex -1.065442715258197e-14 -58 -1.959434878635765e-15
    vertex 0 -54.98791841486987 6.25465185974424
    vertex 0 -50 3.552713678800501e-15
  endloop
endfacet
facet normal -1 0 0
  outer loop
    vertex 0 -54.98791841486987 6.25465185974424
    vertex 0 -48.2198325283495 7.799423297454592
    vertex 0 -50 3.552713678800501e-15
  endloop
endfacet
endsolid Created by Gmsh
