solid Created by Gmsh
facet normal -0.343678 -0.296983 0.890891
  outer loop
    vertex -10.21995125225506 6.29634487736313 38.1563708649923
    vertex 4.80416468494653 -13.1650263506573 37.46467780278394
    vertex 2.449293598294707e-15 -5.999039130647431e-31 40
  endloop
endfacet
facet normal -0.0564075 -0.275629 0.959608
  outer loop
    vertex -2.701937641741697 -17.92670930510959 35.65575166042971
    vertex 4.80416468494653 -13.1650263506573 37.46467780278394
    vertex -9.533100700128042 -9.709792126633138 37.61435800194909
  endloop
endfacet
facet normal 0.228045 0.377865 0.897337
  outer loop
    vertex 5.086661900421156 9.016958892959984 38.63703305163938
    vertex 15.60586334128279 17.62631617715891 32.33836742007908
    vertex 5.39984496242359 21.47609051176628 33.31094731033944
  endloop
endfacet
facet normal 0.0764146 0.390301 0.917511
  outer loop
    vertex 5.39984496242359 21.47609051176628 33.31094731033944
    vertex -4.10792863625591 15.72711828297641 36.54836074070488
    vertex 5.086661900421156 9.016958892959984 38.63703305163938
  endloop
endfacet
facet normal 0.584244 -0.699427 0.411656
  outer loop
    vertex 22.00869885169984 -24.40109629024503 22.80797392775991
    vertex 17.4925790481659 -32.40420142765733 15.61977618531961
    vertex 27.60000701332813 -26.99428851692053 10.46651806139418
  endloop
endfacet
facet normal -0.671192 0.657966 0.341441
  outer loop
    vertex -31.2937358174146 22.68357926822901 10.30326793652543
    vertex -23.83802370071368 25.50020804541858 19.5317181959136
    vertex -23.40018341304114 30.80748436230709 10.16515240919872
  endloop
endfacet
facet normal 0.852321 0.346838 0.391474
  outer loop
    vertex 31.1646297988216 14.14022063848562 20.70796971693134
    vertex 36.12331455413848 8.439298260296196 14.96276680619358
    vertex 34.79291889438573 16.66319589136556 10.57311200615384
  endloop
endfacet
facet normal 0.66215 -0.614368 0.429079
  outer loop
    vertex 27.60000701332813 -26.99428851692053 10.46651806139418
    vertex 30.39451799821485 -18.60362077449682 18.1680645566583
    vertex 22.00869885169984 -24.40109629024503 22.80797392775991
  endloop
endfacet
facet normal 0.810841 0.429782 0.397272
  outer loop
    vertex 34.79291889438573 16.66319589136556 10.57311200615384
    vertex 28.86730215420128 21.58360300749873 17.3443635672439
    vertex 31.1646297988216 14.14022063848562 20.70796971693134
  endloop
endfacet
facet normal -0.717453 0.565264 0.407109
  outer loop
    vertex -30.25853950790206 17.25650004780614 19.66301078036619
    vertex -23.83802370071368 25.50020804541858 19.5317181959136
    vertex -31.2937358174146 22.68357926822901 10.30326793652543
  endloop
endfacet
facet normal 0.0915037 -0.926388 0.365284
  outer loop
    vertex 7.993422638455028 -34.38563784437086 18.80779371853078
    vertex -2.425008876060071 -36.13331018329534 16.98538274955249
    vertex 8.601469435111213 -37.68549991667469 10.28677887325084
  endloop
endfacet
facet normal 0.0543354 -0.94937 0.309427
  outer loop
    vertex 8.601469435111213 -37.68549991667469 10.28677887325084
    vertex -2.425008876060071 -36.13331018329534 16.98538274955249
    vertex -2.896505975063162 -39.07745555213959 8.035093073946177
  endloop
endfacet
facet normal 0.252274 0.351382 0.901603
  outer loop
    vertex 5.086661900421156 9.016958892959984 38.63703305163938
    vertex 14.97464226529293 8.294221449775932 36.15198444855523
    vertex 15.60586334128279 17.62631617715891 32.33836742007908
  endloop
endfacet
facet normal -0.675582 -0.490968 0.550036
  outer loop
    vertex -22.96938604510596 -18.49049026239364 27.02793137787681
    vertex -31.4693663717355 -16.12507336597136 18.69922429149199
    vertex -25.22473452788903 -24.90579034054712 18.53144288797375
  endloop
endfacet
facet normal -0.697202 -0.391989 0.600212
  outer loop
    vertex -28.36074912678405 -9.766470663624453 26.462878901287
    vertex -31.4693663717355 -16.12507336597136 18.69922429149199
    vertex -22.96938604510596 -18.49049026239364 27.02793137787681
  endloop
endfacet
facet normal -0.857716 0.303253 0.415163
  outer loop
    vertex -36.91659715092754 11.80520589128102 9.889487785552513
    vertex -34.8856361124853 5.29606966214903 18.83995857641216
    vertex -30.25853950790206 17.25650004780614 19.66301078036619
  endloop
endfacet
facet normal -0.22854 -0.878279 0.419994
  outer loop
    vertex -13.05024413674593 -36.07566880964455 11.32418862030158
    vertex -2.425008876060071 -36.13331018329534 16.98538274955249
    vertex -9.165961519740943 -31.67204042702429 22.64656717049114
  endloop
endfacet
facet normal 0.532965 -0.489312 0.690306
  outer loop
    vertex 22.00869885169984 -24.40109629024503 22.80797392775991
    vertex 22.31712335565221 -13.38877283842987 30.37575952975539
    vertex 15.26108306543771 -20.8463677953755 30.53732623216614
  endloop
endfacet
facet normal 0.546682 -0.484588 0.682872
  outer loop
    vertex 22.00869885169984 -24.40109629024503 22.80797392775991
    vertex 27.1682561027561 -16.56662456213505 24.23701324322615
    vertex 22.31712335565221 -13.38877283842987 30.37575952975539
  endloop
endfacet
facet normal 0.0801229 -0.461869 0.883322
  outer loop
    vertex -2.701937641741697 -17.92670930510959 35.65575166042971
    vertex 9.050049964088915 -18.53520660015293 34.27160212095637
    vertex 4.80416468494653 -13.1650263506573 37.46467780278394
  endloop
endfacet
facet normal -0.309101 -0.845728 0.434971
  outer loop
    vertex -9.165961519740943 -31.67204042702429 22.64656717049114
    vertex -18.19024833538552 -30.93106817800536 17.6743850491209
    vertex -13.05024413674593 -36.07566880964455 11.32418862030158
  endloop
endfacet
facet normal 0.0762368 -0.495642 0.865174
  outer loop
    vertex 4.692435253645918 -24.64104057272448 31.15766632602138
    vertex 9.050049964088915 -18.53520660015293 34.27160212095637
    vertex -2.701937641741697 -17.92670930510959 35.65575166042971
  endloop
endfacet
facet normal 0.421393 -0.380872 0.823022
  outer loop
    vertex 15.26108306543771 -20.8463677953755 30.53732623216614
    vertex 22.31712335565221 -13.38877283842987 30.37575952975539
    vertex 15.76683490049255 -9.584547573756044 35.49004599922374
  endloop
endfacet
facet normal -0.0680162 0.210368 0.975253
  outer loop
    vertex -4.10792863625591 15.72711828297641 36.54836074070488
    vertex -10.21995125225506 6.29634487736313 38.1563708649923
    vertex 5.086661900421156 9.016958892959984 38.63703305163938
  endloop
endfacet
facet normal -0.800938 0.273193 0.532789
  outer loop
    vertex -30.25853950790206 17.25650004780614 19.66301078036619
    vertex -34.8856361124853 5.29606966214903 18.83995857641216
    vertex -28.51193894699447 8.723669634172753 26.66396305121713
  endloop
endfacet
facet normal 0.669933 0.363895 0.647125
  outer loop
    vertex 24.60694227130597 9.645101799363459 30.02449672078669
    vertex 31.1646297988216 14.14022063848562 20.70796971693134
    vertex 23.17996875584004 20.28539193553274 25.51846238510665
  endloop
endfacet
facet normal -0.52637 0.750075 0.400402
  outer loop
    vertex -23.83802370071368 25.50020804541858 19.5317181959136
    vertex -15.45769715710548 32.11255731271542 18.16158752523524
    vertex -23.40018341304114 30.80748436230709 10.16515240919872
  endloop
endfacet
facet normal 0.364269 -0.38857 0.846358
  outer loop
    vertex 15.76683490049255 -9.584547573756044 35.49004599922374
    vertex 9.050049964088915 -18.53520660015293 34.27160212095637
    vertex 15.26108306543771 -20.8463677953755 30.53732623216614
  endloop
endfacet
facet normal -0.0250159 0.521616 0.852814
  outer loop
    vertex -4.886915809637105 24.93084751320163 30.8961307633012
    vertex -4.10792863625591 15.72711828297641 36.54836074070488
    vertex 5.39984496242359 21.47609051176628 33.31094731033944
  endloop
endfacet
facet normal 0.897155 0.432047 0.0919194
  outer loop
    vertex 33.0495509726398 22.53280232254487 0
    vertex 34.79291889438573 16.66319589136556 10.57311200615384
    vertex 38.22291223144563 11.79020697643616 0
  endloop
endfacet
facet normal 0.81721 0.550441 0.170827
  outer loop
    vertex 33.0495509726398 22.53280232254487 0
    vertex 28.35424490787461 26.48795528851949 9.717253744636857
    vertex 34.79291889438573 16.66319589136556 10.57311200615384
  endloop
endfacet
facet normal 0.284369 0.556694 0.78053
  outer loop
    vertex 5.39984496242359 21.47609051176628 33.31094731033944
    vertex 15.60586334128279 17.62631617715891 32.33836742007908
    vertex 14.23969140699426 25.96834897773189 26.88635415976486
  endloop
endfacet
facet normal -0.841323 0.422019 0.337751
  outer loop
    vertex -30.25853950790206 17.25650004780614 19.66301078036619
    vertex -31.2937358174146 22.68357926822901 10.30326793652543
    vertex -36.91659715092754 11.80520589128102 9.889487785552513
  endloop
endfacet
facet normal 0.537277 0.388973 0.748354
  outer loop
    vertex 24.60694227130597 9.645101799363459 30.02449672078669
    vertex 23.17996875584004 20.28539193553274 25.51846238510665
    vertex 15.60586334128279 17.62631617715891 32.33836742007908
  endloop
endfacet
facet normal 0.712991 -0.134535 0.688145
  outer loop
    vertex 28.28427124746188 -6.927648449883942e-15 28.28427124746192
    vertex 24.49430991051149 -6.870763880842516 30.86780500297241
    vertex 30.23772263460106 -9.491933986939291 24.40457578120385
  endloop
endfacet
facet normal 0.409955 0.730818 0.545749
  outer loop
    vertex 12.26957832813124 33.08719769287741 18.83334267946876
    vertex 14.23969140699426 25.96834897773189 26.88635415976486
    vertex 21.87356857933899 27.60904018418718 18.95489112901712
  endloop
endfacet
facet normal 0.202324 0.649762 0.732717
  outer loop
    vertex 3.836645302419564 29.97727172832256 26.20388010485728
    vertex 5.39984496242359 21.47609051176628 33.31094731033944
    vertex 14.23969140699426 25.96834897773189 26.88635415976486
  endloop
endfacet
facet normal -0.507501 0.0713323 0.858693
  outer loop
    vertex -24.87109873159188 -0.6575692006801105 31.32085647982389
    vertex -15.37454986852633 -0.5361488321765668 36.92337688741311
    vertex -20.37971215662847 9.252265694222723 33.15211775945059
  endloop
endfacet
facet normal 0.729986 -0.677328 0.0913581
  outer loop
    vertex 33.04955097263971 -22.532802322545 0
    vertex 27.60000701332813 -26.99428851692053 10.46651806139418
    vertex 24.93959207434916 -31.27325929872133 0
  endloop
endfacet
facet normal 0.498371 0.863203 0.0806682
  outer loop
    vertex 14.61364097465582 37.23494994576816 0
    vertex 19.33897230338519 33.57973760237259 9.919948225908499
    vertex 24.93959207434936 31.27325929872118 0
  endloop
endfacet
facet normal -0.973767 0.150436 0.170726
  outer loop
    vertex -38.72011473183928 -0.03684375506199801 10.0374975811163
    vertex -36.91659715092754 11.80520589128102 9.889487785552513
    vertex -39.55323304900512 5.961690647047094 0
  endloop
endfacet
facet normal -0.0744853 0.993937 0.080876
  outer loop
    vertex -8.900837358252573 38.99711648727295 0
    vertex -2.894738924527294 38.63905401375459 9.931968157469216
    vertex 2.989203743456993 39.8881518872472 0
  endloop
endfacet
facet normal -0.206622 0.965291 0.15975
  outer loop
    vertex -8.900837358252573 38.99711648727295 0
    vertex -13.67065085451343 36.46389554291731 9.137703598235555
    vertex -2.894738924527294 38.63905401375459 9.931968157469216
  endloop
endfacet
facet normal -0.375878 -0.170741 0.910804
  outer loop
    vertex -19.58214886944932 -10.01626636125925 33.40978679721005
    vertex -9.533100700128042 -9.709792126633138 37.61435800194909
    vertex -15.37454986852633 -0.5361488321765668 36.92337688741311
  endloop
endfacet
facet normal 0.221677 -0.971229 0.0870216
  outer loop
    vertex 14.61364097465552 -37.23494994576828 0
    vertex 8.601469435111213 -37.68549991667469 10.28677887325084
    vertex 2.989203743456585 -39.88815188724723 0
  endloop
endfacet
facet normal -0.822971 0.561092 0.0888442
  outer loop
    vertex -36.03875471609674 17.35534956470238 0
    vertex -31.2937358174146 22.68357926822901 10.30326793652543
    vertex -29.32207487319305 27.20690951083677 0
  endloop
endfacet
facet normal -0.996573 3.56329e-15 0.0827162
  outer loop
    vertex -39.55323304900516 -5.961690647046821 0
    vertex -38.72011473183928 -0.03684375506199801 10.0374975811163
    vertex -39.55323304900512 5.961690647047094 0
  endloop
endfacet
facet normal -0.823104 -0.561183 0.0870216
  outer loop
    vertex -29.32207487319324 -27.20690951083657 0
    vertex -31.93797292248602 -21.77494124022822 10.28677887325076
    vertex -36.03875471609686 -17.35534956470213 0
  endloop
endfacet
facet normal -0.363295 -0.92566 0.105686
  outer loop
    vertex -8.900837358252931 -38.99711648727286 0
    vertex -13.05024413674593 -36.07566880964455 11.32418862030158
    vertex -20.00000000000026 -34.64101615137739 0
  endloop
endfacet
facet normal -0.621181 0.778937 0.0859749
  outer loop
    vertex -29.32207487319305 27.20690951083677 0
    vertex -23.40018341304114 30.80748436230709 10.16515240919872
    vertex -20.00000000000001 34.64101615137754 0
  endloop
endfacet
facet normal -0.277983 0.580455 0.765374
  outer loop
    vertex -15.0346872797578 26.0841443061956 26.335823401091
    vertex -13.00884691934586 17.70591820802483 33.42559441864513
    vertex -4.886915809637105 24.93084751320163 30.8961307633012
  endloop
endfacet
facet normal 0.0870689 -0.982787 0.162936
  outer loop
    vertex 8.601469435111213 -37.68549991667469 10.28677887325084
    vertex -2.896505975063162 -39.07745555213959 8.035093073946177
    vertex 2.989203743456585 -39.88815188724723 0
  endloop
endfacet
facet normal 0.251154 0.75488 0.60587
  outer loop
    vertex 12.26957832813124 33.08719769287741 18.83334267946876
    vertex 3.836645302419564 29.97727172832256 26.20388010485728
    vertex 14.23969140699426 25.96834897773189 26.88635415976486
  endloop
endfacet
facet normal -0.974056 -0.150045 0.169415
  outer loop
    vertex -39.55323304900516 -5.961690647046821 0
    vertex -36.94090091135335 -11.65212472783804 9.979871200796039
    vertex -38.72011473183928 -0.03684375506199801 10.0374975811163
  endloop
endfacet
facet normal -0.470084 -0.86428 0.179
  outer loop
    vertex -13.05024413674593 -36.07566880964455 11.32418862030158
    vertex -24.06878849240818 -30.38097803782943 9.883804630436865
    vertex -20.00000000000026 -34.64101615137739 0
  endloop
endfacet
facet normal -0.466699 0.381103 0.798093
  outer loop
    vertex -22.54170935590533 17.99900373816998 27.71113862235244
    vertex -20.37971215662847 9.252265694222723 33.15211775945059
    vertex -13.00884691934586 17.70591820802483 33.42559441864513
  endloop
endfacet
facet normal 0.0374376 0.644989 0.763275
  outer loop
    vertex 3.836645302419564 29.97727172832256 26.20388010485728
    vertex -4.886915809637105 24.93084751320163 30.8961307633012
    vertex 5.39984496242359 21.47609051176628 33.31094731033944
  endloop
endfacet
facet normal 0.450046 0.797893 0.401031
  outer loop
    vertex 19.33897230338519 33.57973760237259 9.919948225908499
    vertex 12.26957832813124 33.08719769287741 18.83334267946876
    vertex 21.87356857933899 27.60904018418718 18.95489112901712
  endloop
endfacet
facet normal 0.816582 -0.316396 0.482792
  outer loop
    vertex 30.39451799821485 -18.60362077449682 18.1680645566583
    vertex 35.92741011865996 -8.944880403809405 15.13969341589043
    vertex 30.23772263460106 -9.491933986939291 24.40457578120385
  endloop
endfacet
facet normal -0.504985 -0.0938719 0.858008
  outer loop
    vertex -24.87109873159188 -0.6575692006801105 31.32085647982389
    vertex -19.58214886944932 -10.01626636125925 33.40978679721005
    vertex -15.37454986852633 -0.5361488321765668 36.92337688741311
  endloop
endfacet
facet normal -0.70568 0.688513 0.16723
  outer loop
    vertex -29.32207487319305 27.20690951083677 0
    vertex -31.2937358174146 22.68357926822901 10.30326793652543
    vertex -23.40018341304114 30.80748436230709 10.16515240919872
  endloop
endfacet
facet normal 0.269203 -0.630795 0.727755
  outer loop
    vertex 12.13857474605569 -29.33106786533229 24.3381071781207
    vertex 15.26108306543771 -20.8463677953755 30.53732623216614
    vertex 4.692435253645918 -24.64104057272448 31.15766632602138
  endloop
endfacet
facet normal 0.661213 -0.273595 0.69853
  outer loop
    vertex 30.23772263460106 -9.491933986939291 24.40457578120385
    vertex 24.49430991051149 -6.870763880842516 30.86780500297241
    vertex 22.31712335565221 -13.38877283842987 30.37575952975539
  endloop
endfacet
facet normal 0.589465 0.740092 0.323722
  outer loop
    vertex 19.33897230338519 33.57973760237259 9.919948225908499
    vertex 21.87356857933899 27.60904018418718 18.95489112901712
    vertex 28.35424490787461 26.48795528851949 9.717253744636857
  endloop
endfacet
facet normal 0.0699972 0.983774 0.165193
  outer loop
    vertex -2.894738924527294 38.63905401375459 9.931968157469216
    vertex 8.542595997398703 37.88379073906998 9.583446815399107
    vertex 2.989203743456993 39.8881518872472 0
  endloop
endfacet
facet normal -0.2142 -0.391397 0.894945
  outer loop
    vertex -13.14964275902181 -18.75070846997971 32.79478353616526
    vertex -2.701937641741697 -17.92670930510959 35.65575166042971
    vertex -9.533100700128042 -9.709792126633138 37.61435800194909
  endloop
endfacet
facet normal -0.623055 0.140184 0.769514
  outer loop
    vertex -28.51193894699447 8.723669634172753 26.66396305121713
    vertex -24.87109873159188 -0.6575692006801105 31.32085647982389
    vertex -20.37971215662847 9.252265694222723 33.15211775945059
  endloop
endfacet
facet normal -0.426725 0.521856 0.738628
  outer loop
    vertex -15.0346872797578 26.0841443061956 26.335823401091
    vertex -22.54170935590533 17.99900373816998 27.71113862235244
    vertex -13.00884691934586 17.70591820802483 33.42559441864513
  endloop
endfacet
facet normal 0.416712 -0.631268 0.654104
  outer loop
    vertex 12.13857474605569 -29.33106786533229 24.3381071781207
    vertex 22.00869885169984 -24.40109629024503 22.80797392775991
    vertex 15.26108306543771 -20.8463677953755 30.53732623216614
  endloop
endfacet
facet normal 0.690994 0.463815 0.554439
  outer loop
    vertex 31.1646297988216 14.14022063848562 20.70796971693134
    vertex 28.86730215420128 21.58360300749873 17.3443635672439
    vertex 23.17996875584004 20.28539193553274 25.51846238510665
  endloop
endfacet
facet normal -0.356677 -0.324364 0.876111
  outer loop
    vertex -19.58214886944932 -10.01626636125925 33.40978679721005
    vertex -13.14964275902181 -18.75070846997971 32.79478353616526
    vertex -9.533100700128042 -9.709792126633138 37.61435800194909
  endloop
endfacet
facet normal 0.61202 0.77328 0.165741
  outer loop
    vertex 19.33897230338519 33.57973760237259 9.919948225908499
    vertex 28.35424490787461 26.48795528851949 9.717253744636857
    vertex 24.93959207434936 31.27325929872118 0
  endloop
endfacet
facet normal 0.803027 -0.56957 0.175321
  outer loop
    vertex 33.04955097263971 -22.532802322545 0
    vertex 35.19996751415061 -16.72873338638764 9.006207097879846
    vertex 27.60000701332813 -26.99428851692053 10.46651806139418
  endloop
endfacet
facet normal -0.605664 0.306964 0.734128
  outer loop
    vertex -22.54170935590533 17.99900373816998 27.71113862235244
    vertex -28.51193894699447 8.723669634172753 26.66396305121713
    vertex -20.37971215662847 9.252265694222723 33.15211775945059
  endloop
endfacet
facet normal -0.224466 0.70111 0.676801
  outer loop
    vertex -6.464258065789631 32.17545728767946 22.86817255461373
    vertex -15.0346872797578 26.0841443061956 26.335823401091
    vertex -4.886915809637105 24.93084751320163 30.8961307633012
  endloop
endfacet
facet normal 0.730868 0.678147 0.0771284
  outer loop
    vertex 24.93959207434936 31.27325929872118 0
    vertex 28.35424490787461 26.48795528851949 9.717253744636857
    vertex 33.0495509726398 22.53280232254487 0
  endloop
endfacet
facet normal -0.173411 -0.932787 0.31597
  outer loop
    vertex -2.896505975063162 -39.07745555213959 8.035093073946177
    vertex -2.425008876060071 -36.13331018329534 16.98538274955249
    vertex -13.05024413674593 -36.07566880964455 11.32418862030158
  endloop
endfacet
facet normal 0.606367 0.0886074 0.790233
  outer loop
    vertex 28.28427124746188 -6.927648449883942e-15 28.28427124746192
    vertex 24.60694227130597 9.645101799363459 30.02449672078669
    vertex 19.99999999999996 -4.898587196589403e-15 34.64101615137757
  endloop
endfacet
facet normal -0.0334028 -0.581392 0.812938
  outer loop
    vertex -6.010499585060691 -26.30746603236997 29.52610922037791
    vertex 4.692435253645918 -24.64104057272448 31.15766632602138
    vertex -2.701937641741697 -17.92670930510959 35.65575166042971
  endloop
endfacet
facet normal 0.56325 -0.772171 0.294111
  outer loop
    vertex 17.4925790481659 -32.40420142765733 15.61977618531961
    vertex 19.5982382113309 -34.17001000200779 6.951221149885649
    vertex 27.60000701332813 -26.99428851692053 10.46651806139418
  endloop
endfacet
facet normal 0.851308 -0.371498 0.370492
  outer loop
    vertex 30.39451799821485 -18.60362077449682 18.1680645566583
    vertex 35.19996751415061 -16.72873338638764 9.006207097879846
    vertex 35.92741011865996 -8.944880403809405 15.13969341589043
  endloop
endfacet
facet normal -0.952484 0.293802 0.0803393
  outer loop
    vertex -39.55323304900512 5.961690647047094 0
    vertex -36.91659715092754 11.80520589128102 9.889487785552513
    vertex -36.03875471609674 17.35534956470238 0
  endloop
endfacet
facet normal -0.0618695 0.7349 0.675347
  outer loop
    vertex 3.836645302419564 29.97727172832256 26.20388010485728
    vertex -6.464258065789631 32.17545728767946 22.86817255461373
    vertex -4.886915809637105 24.93084751320163 30.8961307633012
  endloop
endfacet
facet normal 0.129206 -0.141852 0.981419
  outer loop
    vertex 2.449293598294707e-15 -5.999039130647431e-31 40
    vertex 4.80416468494653 -13.1650263506573 37.46467780278394
    vertex 10.3527618041008 -2.535695321145403e-15 38.63703305156274
  endloop
endfacet
facet normal -0.935163 -0.144851 0.323247
  outer loop
    vertex -36.94090091135335 -11.65212472783804 9.979871200796039
    vertex -34.77743644179039 -5.59410507604632 18.95351953953099
    vertex -38.72011473183928 -0.03684375506199801 10.0374975811163
  endloop
endfacet
facet normal -0.364515 0.928769 0.067206
  outer loop
    vertex -20.00000000000001 34.64101615137754 0
    vertex -13.67065085451343 36.46389554291731 9.137703598235555
    vertex -8.900837358252573 38.99711648727295 0
  endloop
endfacet
facet normal 0.130149 0.0760096 0.988577
  outer loop
    vertex 10.3527618041008 -2.535695321145403e-15 38.63703305156274
    vertex 5.086661900421156 9.016958892959984 38.63703305163938
    vertex 2.449293598294707e-15 -5.999039130647431e-31 40
  endloop
endfacet
facet normal 0.157246 -0.725146 0.6704
  outer loop
    vertex 1.157646986664651 -31.77180988825152 24.27368842757666
    vertex 12.13857474605569 -29.33106786533229 24.3381071781207
    vertex 4.692435253645918 -24.64104057272448 31.15766632602138
  endloop
endfacet
facet normal -0.0746516 -0.996156 0.0458243
  outer loop
    vertex 2.989203743456585 -39.88815188724723 0
    vertex -2.896505975063162 -39.07745555213959 8.035093073946177
    vertex -8.900837358252931 -38.99711648727286 0
  endloop
endfacet
facet normal -0.184409 -0.531754 0.826578
  outer loop
    vertex -13.14964275902181 -18.75070846997971 32.79478353616526
    vertex -6.010499585060691 -26.30746603236997 29.52610922037791
    vertex -2.701937641741697 -17.92670930510959 35.65575166042971
  endloop
endfacet
facet normal -0.621489 -0.779322 0.0800538
  outer loop
    vertex -20.00000000000026 -34.64101615137739 0
    vertex -24.06878849240818 -30.38097803782943 9.883804630436865
    vertex -29.32207487319324 -27.20690951083657 0
  endloop
endfacet
facet normal -0.952371 -0.293768 0.0817891
  outer loop
    vertex -36.03875471609686 -17.35534956470213 0
    vertex -36.94090091135335 -11.65212472783804 9.979871200796039
    vertex -39.55323304900516 -5.961690647046821 0
  endloop
endfacet
facet normal -0.614009 -0.175218 0.769605
  outer loop
    vertex -24.87109873159188 -0.6575692006801105 31.32085647982389
    vertex -28.36074912678405 -9.766470663624453 26.462878901287
    vertex -19.58214886944932 -10.01626636125925 33.40978679721005
  endloop
endfacet
facet normal -0.692311 -0.64791 0.317677
  outer loop
    vertex -24.06878849240818 -30.38097803782943 9.883804630436865
    vertex -25.22473452788903 -24.90579034054712 18.53144288797375
    vertex -31.93797292248602 -21.77494124022822 10.28677887325076
  endloop
endfacet
facet normal 0.443616 -0.724348 0.527755
  outer loop
    vertex 12.13857474605569 -29.33106786533229 24.3381071781207
    vertex 17.4925790481659 -32.40420142765733 15.61977618531961
    vertex 22.00869885169984 -24.40109629024503 22.80797392775991
  endloop
endfacet
facet normal 0.381237 -0.0868485 0.920389
  outer loop
    vertex 10.3527618041008 -2.535695321145403e-15 38.63703305156274
    vertex 15.76683490049255 -9.584547573756044 35.49004599922374
    vertex 19.99999999999996 -4.898587196589403e-15 34.64101615137757
  endloop
endfacet
facet normal -0.00166214 -0.69412 0.719858
  outer loop
    vertex -6.010499585060691 -26.30746603236997 29.52610922037791
    vertex 1.157646986664651 -31.77180988825152 24.27368842757666
    vertex 4.692435253645918 -24.64104057272448 31.15766632602138
  endloop
endfacet
facet normal 0.621718 0.581329 0.524903
  outer loop
    vertex 23.17996875584004 20.28539193553274 25.51846238510665
    vertex 28.86730215420128 21.58360300749873 17.3443635672439
    vertex 21.87356857933899 27.60904018418718 18.95489112901712
  endloop
endfacet
facet normal -0.686986 0.371695 0.624415
  outer loop
    vertex -22.54170935590533 17.99900373816998 27.71113862235244
    vertex -30.25853950790206 17.25650004780614 19.66301078036619
    vertex -28.51193894699447 8.723669634172753 26.66396305121713
  endloop
endfacet
facet normal 0.790466 -0.0852383 0.606546
  outer loop
    vertex 28.28427124746188 -6.927648449883942e-15 28.28427124746192
    vertex 30.23772263460106 -9.491933986939291 24.40457578120385
    vertex 34.64101615137754 -8.484601909799254e-15 20
  endloop
endfacet
facet normal -0.302371 -0.60446 0.737021
  outer loop
    vertex -13.14964275902181 -18.75070846997971 32.79478353616526
    vertex -16.52970332393367 -26.22817402079096 25.27551771097563
    vertex -6.010499585060691 -26.30746603236997 29.52610922037791
  endloop
endfacet
facet normal 0.786217 -0.539097 0.302055
  outer loop
    vertex 27.60000701332813 -26.99428851692053 10.46651806139418
    vertex 35.19996751415061 -16.72873338638764 9.006207097879846
    vertex 30.39451799821485 -18.60362077449682 18.1680645566583
  endloop
endfacet
facet normal -0.482973 0.860348 0.162907
  outer loop
    vertex -23.40018341304114 30.80748436230709 10.16515240919872
    vertex -13.67065085451343 36.46389554291731 9.137703598235555
    vertex -20.00000000000001 34.64101615137754 0
  endloop
endfacet
facet normal 0.366604 -0.890219 0.270391
  outer loop
    vertex 8.601469435111213 -37.68549991667469 10.28677887325084
    vertex 19.5982382113309 -34.17001000200779 6.951221149885649
    vertex 17.4925790481659 -32.40420142765733 15.61977618531961
  endloop
endfacet
facet normal -0.230824 -0.959263 0.162895
  outer loop
    vertex -8.900837358252931 -38.99711648727286 0
    vertex -2.896505975063162 -39.07745555213959 8.035093073946177
    vertex -13.05024413674593 -36.07566880964455 11.32418862030158
  endloop
endfacet
facet normal -0.723349 -0.669353 0.169508
  outer loop
    vertex -29.32207487319324 -27.20690951083657 0
    vertex -24.06878849240818 -30.38097803782943 9.883804630436865
    vertex -31.93797292248602 -21.77494124022822 10.28677887325076
  endloop
endfacet
facet normal -0.88587 -0.432747 0.167224
  outer loop
    vertex -31.93797292248602 -21.77494124022822 10.28677887325076
    vertex -36.94090091135335 -11.65212472783804 9.979871200796039
    vertex -36.03875471609686 -17.35534956470213 0
  endloop
endfacet
facet normal -0.392923 0.132208 0.910018
  outer loop
    vertex -10.21995125225506 6.29634487736313 38.1563708649923
    vertex -13.82501409425002 10.81342531379155 35.9435504406123
    vertex -15.37454986852633 -0.5361488321765668 36.92337688741311
  endloop
endfacet
facet normal -0.877623 0.447049 0.172989
  outer loop
    vertex -36.91659715092754 11.80520589128102 9.889487785552513
    vertex -31.2937358174146 22.68357926822901 10.30326793652543
    vertex -36.03875471609674 17.35534956470238 0
  endloop
endfacet
facet normal 0.342188 0.883387 0.320211
  outer loop
    vertex 19.33897230338519 33.57973760237259 9.919948225908499
    vertex 8.542595997398703 37.88379073906998 9.583446815399107
    vertex 12.26957832813124 33.08719769287741 18.83334267946876
  endloop
endfacet
facet normal 0.838629 0.233509 0.492112
  outer loop
    vertex 31.1646297988216 14.14022063848562 20.70796971693134
    vertex 31.62613330202596 6.183046196289103 23.69720726366379
    vertex 36.12331455413848 8.439298260296196 14.96276680619358
  endloop
endfacet
facet normal 0.360677 0.917736 0.166352
  outer loop
    vertex 14.61364097465582 37.23494994576816 0
    vertex 8.542595997398703 37.88379073906998 9.583446815399107
    vertex 19.33897230338519 33.57973760237259 9.919948225908499
  endloop
endfacet
facet normal -0.936327 0.146588 0.319068
  outer loop
    vertex -38.72011473183928 -0.03684375506199801 10.0374975811163
    vertex -34.8856361124853 5.29606966214903 18.83995857641216
    vertex -36.91659715092754 11.80520589128102 9.889487785552513
  endloop
endfacet
facet normal 0.231792 -0.182775 0.95544
  outer loop
    vertex 10.3527618041008 -2.535695321145403e-15 38.63703305156274
    vertex 4.80416468494653 -13.1650263506573 37.46467780278394
    vertex 15.76683490049255 -9.584547573756044 35.49004599922374
  endloop
endfacet
facet normal 0.221898 0.9722 0.0747489
  outer loop
    vertex 2.989203743456993 39.8881518872472 0
    vertex 8.542595997398703 37.88379073906998 9.583446815399107
    vertex 14.61364097465582 37.23494994576816 0
  endloop
endfacet
facet normal 0.305391 -0.880426 0.362748
  outer loop
    vertex 17.4925790481659 -32.40420142765733 15.61977618531961
    vertex 7.993422638455028 -34.38563784437086 18.80779371853078
    vertex 8.601469435111213 -37.68549991667469 10.28677887325084
  endloop
endfacet
facet normal -0.184433 0.502958 0.844404
  outer loop
    vertex -13.00884691934586 17.70591820802483 33.42559441864513
    vertex -4.10792863625591 15.72711828297641 36.54836074070488
    vertex -4.886915809637105 24.93084751320163 30.8961307633012
  endloop
endfacet
facet normal -0.45241 0.835052 0.313071
  outer loop
    vertex -23.40018341304114 30.80748436230709 10.16515240919872
    vertex -15.45769715710548 32.11255731271542 18.16158752523524
    vertex -13.67065085451343 36.46389554291731 9.137703598235555
  endloop
endfacet
facet normal 0.514141 0.157934 0.843039
  outer loop
    vertex 24.60694227130597 9.645101799363459 30.02449672078669
    vertex 14.97464226529293 8.294221449775932 36.15198444855523
    vertex 19.99999999999996 -4.898587196589403e-15 34.64101615137757
  endloop
endfacet
facet normal -0.548716 -0.590661 0.591634
  outer loop
    vertex -16.52970332393367 -26.22817402079096 25.27551771097563
    vertex -22.96938604510596 -18.49049026239364 27.02793137787681
    vertex -25.22473452788903 -24.90579034054712 18.53144288797375
  endloop
endfacet
facet normal 0.491589 0.62819 0.603091
  outer loop
    vertex 14.23969140699426 25.96834897773189 26.88635415976486
    vertex 23.17996875584004 20.28539193553274 25.51846238510665
    vertex 21.87356857933899 27.60904018418718 18.95489112901712
  endloop
endfacet
facet normal 0.921287 -0.0748586 0.38161
  outer loop
    vertex 34.64101615137754 -8.484601909799254e-15 20
    vertex 35.92741011865996 -8.944880403809405 15.13969341589043
    vertex 38.63703305156272 -9.463343771029357e-15 10.35276180410084
  endloop
endfacet
facet normal 0.251175 0.146692 0.956761
  outer loop
    vertex 10.3527618041008 -2.535695321145403e-15 38.63703305156274
    vertex 14.97464226529293 8.294221449775932 36.15198444855523
    vertex 5.086661900421156 9.016958892959984 38.63703305163938
  endloop
endfacet
facet normal 0.480716 0.303654 0.822622
  outer loop
    vertex 15.60586334128279 17.62631617715891 32.33836742007908
    vertex 14.97464226529293 8.294221449775932 36.15198444855523
    vertex 24.60694227130597 9.645101799363459 30.02449672078669
  endloop
endfacet
facet normal 0.987925 -0.148906 0.0427987
  outer loop
    vertex 40 -9.797174393178826e-15 2.572996239482618e-14
    vertex 38.4902804646076 -7.848168021941998 7.543511679265421
    vertex 38.2229122314456 -11.79020697643626 0
  endloop
endfacet
facet normal -0.415181 0.134362 0.899762
  outer loop
    vertex -15.37454986852633 -0.5361488321765668 36.92337688741311
    vertex -13.82501409425002 10.81342531379155 35.9435504406123
    vertex -20.37971215662847 9.252265694222723 33.15211775945059
  endloop
endfacet
facet normal 0.620421 -0.7685 0.156481
  outer loop
    vertex 27.60000701332813 -26.99428851692053 10.46651806139418
    vertex 19.5982382113309 -34.17001000200779 6.951221149885649
    vertex 24.93959207434916 -31.27325929872133 0
  endloop
endfacet
facet normal 0.0719425 0.951646 0.298654
  outer loop
    vertex -2.894738924527294 38.63905401375459 9.931968157469216
    vertex 1.715564218314074 35.89326834935356 17.570717874183
    vertex 8.542595997398703 37.88379073906998 9.583446815399107
  endloop
endfacet
facet normal 0.899101 -0.432984 0.0643588
  outer loop
    vertex 38.2229122314456 -11.79020697643626 0
    vertex 35.19996751415061 -16.72873338638764 9.006207097879846
    vertex 33.04955097263971 -22.532802322545 0
  endloop
endfacet
facet normal 0.344461 -0.924925 0.160812
  outer loop
    vertex 14.61364097465552 -37.23494994576828 0
    vertex 19.5982382113309 -34.17001000200779 6.951221149885649
    vertex 8.601469435111213 -37.68549991667469 10.28677887325084
  endloop
endfacet
facet normal 0.921865 0.0659988 0.381849
  outer loop
    vertex 38.63703305156272 -9.463343771029357e-15 10.35276180410084
    vertex 36.12331455413848 8.439298260296196 14.96276680619358
    vertex 34.64101615137754 -8.484601909799254e-15 20
  endloop
endfacet
facet normal 0.381913 0.0634305 0.922019
  outer loop
    vertex 19.99999999999996 -4.898587196589403e-15 34.64101615137757
    vertex 14.97464226529293 8.294221449775932 36.15198444855523
    vertex 10.3527618041008 -2.535695321145403e-15 38.63703305156274
  endloop
endfacet
facet normal -0.915688 -0.00490732 0.40186
  outer loop
    vertex -34.77743644179039 -5.59410507604632 18.95351953953099
    vertex -34.8856361124853 5.29606966214903 18.83995857641216
    vertex -38.72011473183928 -0.03684375506199801 10.0374975811163
  endloop
endfacet
facet normal -0.871048 -0.28331 0.401261
  outer loop
    vertex -36.94090091135335 -11.65212472783804 9.979871200796039
    vertex -31.4693663717355 -16.12507336597136 18.69922429149199
    vertex -34.77743644179039 -5.59410507604632 18.95351953953099
  endloop
endfacet
facet normal 0.86634 0.134873 0.4809
  outer loop
    vertex 36.12331455413848 8.439298260296196 14.96276680619358
    vertex 31.62613330202596 6.183046196289103 23.69720726366379
    vertex 34.64101615137754 -8.484601909799254e-15 20
  endloop
endfacet
facet normal 0.98826 0.148956 0.0339745
  outer loop
    vertex 38.22291223144563 11.79020697643616 0
    vertex 38.5878664598569 7.738604890364375 7.147765834656255
    vertex 40 -9.797174393178826e-15 2.572996239482618e-14
  endloop
endfacet
facet normal 0.98934 -0.0651223 0.130249
  outer loop
    vertex 38.63703305156272 -9.463343771029357e-15 10.35276180410084
    vertex 38.4902804646076 -7.848168021941998 7.543511679265421
    vertex 40 -9.797174393178826e-15 2.572996239482618e-14
  endloop
endfacet
facet normal 0.787103 0.541552 0.29528
  outer loop
    vertex 28.35424490787461 26.48795528851949 9.717253744636857
    vertex 28.86730215420128 21.58360300749873 17.3443635672439
    vertex 34.79291889438573 16.66319589136556 10.57311200615384
  endloop
endfacet
facet normal -0.742791 -0.535923 0.401307
  outer loop
    vertex -25.22473452788903 -24.90579034054712 18.53144288797375
    vertex -31.4693663717355 -16.12507336597136 18.69922429149199
    vertex -31.93797292248602 -21.77494124022822 10.28677887325076
  endloop
endfacet
facet normal 0.252624 -0.576566 0.777016
  outer loop
    vertex 15.26108306543771 -20.8463677953755 30.53732623216614
    vertex 9.050049964088915 -18.53520660015293 34.27160212095637
    vertex 4.692435253645918 -24.64104057272448 31.15766632602138
  endloop
endfacet
facet normal -0.593684 -0.319043 0.738749
  outer loop
    vertex -28.36074912678405 -9.766470663624453 26.462878901287
    vertex -22.96938604510596 -18.49049026239364 27.02793137787681
    vertex -19.58214886944932 -10.01626636125925 33.40978679721005
  endloop
endfacet
facet normal -0.852083 -0.411305 0.3237
  outer loop
    vertex -31.93797292248602 -21.77494124022822 10.28677887325076
    vertex -31.4693663717355 -16.12507336597136 18.69922429149199
    vertex -36.94090091135335 -11.65212472783804 9.979871200796039
  endloop
endfacet
facet normal -0.439774 -0.53018 0.72492
  outer loop
    vertex -13.14964275902181 -18.75070846997971 32.79478353616526
    vertex -22.96938604510596 -18.49049026239364 27.02793137787681
    vertex -16.52970332393367 -26.22817402079096 25.27551771097563
  endloop
endfacet
facet normal -0.00761793 0.824004 0.566532
  outer loop
    vertex 3.836645302419564 29.97727172832256 26.20388010485728
    vertex 1.715564218314074 35.89326834935356 17.570717874183
    vertex -6.464258065789631 32.17545728767946 22.86817255461373
  endloop
endfacet
facet normal -0.0635225 0.184096 0.980853
  outer loop
    vertex 5.086661900421156 9.016958892959984 38.63703305163938
    vertex -10.21995125225506 6.29634487736313 38.1563708649923
    vertex 2.449293598294707e-15 -5.999039130647431e-31 40
  endloop
endfacet
facet normal 0.451333 0.538808 0.711326
  outer loop
    vertex 15.60586334128279 17.62631617715891 32.33836742007908
    vertex 23.17996875584004 20.28539193553274 25.51846238510665
    vertex 14.23969140699426 25.96834897773189 26.88635415976486
  endloop
endfacet
facet normal 0.192891 0.900675 0.389331
  outer loop
    vertex 8.542595997398703 37.88379073906998 9.583446815399107
    vertex 1.715564218314074 35.89326834935356 17.570717874183
    vertex 12.26957832813124 33.08719769287741 18.83334267946876
  endloop
endfacet
facet normal 0.715363 0.281709 0.639449
  outer loop
    vertex 24.60694227130597 9.645101799363459 30.02449672078669
    vertex 31.62613330202596 6.183046196289103 23.69720726366379
    vertex 31.1646297988216 14.14022063848562 20.70796971693134
  endloop
endfacet
facet normal 0.845832 -0.155608 0.510249
  outer loop
    vertex 30.23772263460106 -9.491933986939291 24.40457578120385
    vertex 35.92741011865996 -8.944880403809405 15.13969341589043
    vertex 34.64101615137754 -8.484601909799254e-15 20
  endloop
endfacet
facet normal 0.664369 -0.304414 0.682603
  outer loop
    vertex 22.31712335565221 -13.38877283842987 30.37575952975539
    vertex 27.1682561027561 -16.56662456213505 24.23701324322615
    vertex 30.23772263460106 -9.491933986939291 24.40457578120385
  endloop
endfacet
facet normal 0.989644 0.0602477 0.130289
  outer loop
    vertex 40 -9.797174393178826e-15 2.572996239482618e-14
    vertex 38.5878664598569 7.738604890364375 7.147765834656255
    vertex 38.63703305156272 -9.463343771029357e-15 10.35276180410084
  endloop
endfacet
facet normal -0.643731 0.510443 0.57014
  outer loop
    vertex -22.54170935590533 17.99900373816998 27.71113862235244
    vertex -23.83802370071368 25.50020804541858 19.5317181959136
    vertex -30.25853950790206 17.25650004780614 19.66301078036619
  endloop
endfacet
facet normal -0.108487 -0.759189 0.641765
  outer loop
    vertex -6.010499585060691 -26.30746603236997 29.52610922037791
    vertex -9.165961519740943 -31.67204042702429 22.64656717049114
    vertex 1.157646986664651 -31.77180988825152 24.27368842757666
  endloop
endfacet
facet normal -0.573931 -0.724388 0.381923
  outer loop
    vertex -24.06878849240818 -30.38097803782943 9.883804630436865
    vertex -18.19024833538552 -30.93106817800536 17.6743850491209
    vertex -25.22473452788903 -24.90579034054712 18.53144288797375
  endloop
endfacet
facet normal -0.471483 -0.402475 0.784676
  outer loop
    vertex -19.58214886944932 -10.01626636125925 33.40978679721005
    vertex -22.96938604510596 -18.49049026239364 27.02793137787681
    vertex -13.14964275902181 -18.75070846997971 32.79478353616526
  endloop
endfacet
facet normal 0.332233 -0.806873 0.488443
  outer loop
    vertex 12.13857474605569 -29.33106786533229 24.3381071781207
    vertex 7.993422638455028 -34.38563784437086 18.80779371853078
    vertex 17.4925790481659 -32.40420142765733 15.61977618531961
  endloop
endfacet
facet normal -0.800821 -0.264535 0.537314
  outer loop
    vertex -34.77743644179039 -5.59410507604632 18.95351953953099
    vertex -31.4693663717355 -16.12507336597136 18.69922429149199
    vertex -28.36074912678405 -9.766470663624453 26.462878901287
  endloop
endfacet
facet normal 0.652681 0.656474 0.378219
  outer loop
    vertex 21.87356857933899 27.60904018418718 18.95489112901712
    vertex 28.86730215420128 21.58360300749873 17.3443635672439
    vertex 28.35424490787461 26.48795528851949 9.717253744636857
  endloop
endfacet
facet normal -0.436546 0.353872 0.827165
  outer loop
    vertex -20.37971215662847 9.252265694222723 33.15211775945059
    vertex -13.82501409425002 10.81342531379155 35.9435504406123
    vertex -13.00884691934586 17.70591820802483 33.42559441864513
  endloop
endfacet
facet normal 0.929352 0.339528 0.145005
  outer loop
    vertex 34.79291889438573 16.66319589136556 10.57311200615384
    vertex 38.5878664598569 7.738604890364375 7.147765834656255
    vertex 38.22291223144563 11.79020697643616 0
  endloop
endfacet
facet normal 0.157676 0.832221 0.531551
  outer loop
    vertex 12.26957832813124 33.08719769287741 18.83334267946876
    vertex 1.715564218314074 35.89326834935356 17.570717874183
    vertex 3.836645302419564 29.97727172832256 26.20388010485728
  endloop
endfacet
facet normal -0.468853 -0.832559 0.294996
  outer loop
    vertex -13.05024413674593 -36.07566880964455 11.32418862030158
    vertex -18.19024833538552 -30.93106817800536 17.6743850491209
    vertex -24.06878849240818 -30.38097803782943 9.883804630436865
  endloop
endfacet
facet normal -0.513572 -0.674953 0.529795
  outer loop
    vertex -25.22473452788903 -24.90579034054712 18.53144288797375
    vertex -18.19024833538552 -30.93106817800536 17.6743850491209
    vertex -16.52970332393367 -26.22817402079096 25.27551771097563
  endloop
endfacet
facet normal -0.705597 -0.103546 0.701007
  outer loop
    vertex -24.87109873159188 -0.6575692006801105 31.32085647982389
    vertex -31.23164796366756 -0.1670150966684836 24.99112385290075
    vertex -28.36074912678405 -9.766470663624453 26.462878901287
  endloop
endfacet
facet normal -0.206189 0.292826 0.93367
  outer loop
    vertex -4.10792863625591 15.72711828297641 36.54836074070488
    vertex -13.82501409425002 10.81342531379155 35.9435504406123
    vertex -10.21995125225506 6.29634487736313 38.1563708649923
  endloop
endfacet
facet normal -0.0921852 0.876382 0.472711
  outer loop
    vertex 1.715564218314074 35.89326834935356 17.570717874183
    vertex -8.185258586856257 35.89816906366226 15.63083490230185
    vertex -6.464258065789631 32.17545728767946 22.86817255461373
  endloop
endfacet
facet normal -0.306337 0.758473 0.575219
  outer loop
    vertex -6.464258065789631 32.17545728767946 22.86817255461373
    vertex -15.45769715710548 32.11255731271542 18.16158752523524
    vertex -15.0346872797578 26.0841443061956 26.335823401091
  endloop
endfacet
facet normal 0.70028 0.140718 0.699861
  outer loop
    vertex 28.28427124746188 -6.927648449883942e-15 28.28427124746192
    vertex 31.62613330202596 6.183046196289103 23.69720726366379
    vertex 24.60694227130597 9.645101799363459 30.02449672078669
  endloop
endfacet
facet normal -0.518924 0.587451 0.620983
  outer loop
    vertex -15.0346872797578 26.0841443061956 26.335823401091
    vertex -23.83802370071368 25.50020804541858 19.5317181959136
    vertex -22.54170935590533 17.99900373816998 27.71113862235244
  endloop
endfacet
facet normal -0.790598 -0.145241 0.594861
  outer loop
    vertex -28.36074912678405 -9.766470663624453 26.462878901287
    vertex -31.23164796366756 -0.1670150966684836 24.99112385290075
    vertex -34.77743644179039 -5.59410507604632 18.95351953953099
  endloop
endfacet
facet normal -0.274521 -0.693175 0.666444
  outer loop
    vertex -16.52970332393367 -26.22817402079096 25.27551771097563
    vertex -9.165961519740943 -31.67204042702429 22.64656717049114
    vertex -6.010499585060691 -26.30746603236997 29.52610922037791
  endloop
endfacet
facet normal -0.0732555 0.923631 0.376216
  outer loop
    vertex -2.894738924527294 38.63905401375459 9.931968157469216
    vertex -8.185258586856257 35.89816906366226 15.63083490230185
    vertex 1.715564218314074 35.89326834935356 17.570717874183
  endloop
endfacet
facet normal -0.464654 0.700994 0.541021
  outer loop
    vertex -15.0346872797578 26.0841443061956 26.335823401091
    vertex -15.45769715710548 32.11255731271542 18.16158752523524
    vertex -23.83802370071368 25.50020804541858 19.5317181959136
  endloop
endfacet
facet normal 0.608334 -0.0374553 0.792797
  outer loop
    vertex 19.99999999999996 -4.898587196589403e-15 34.64101615137757
    vertex 24.49430991051149 -6.870763880842516 30.86780500297241
    vertex 28.28427124746188 -6.927648449883942e-15 28.28427124746192
  endloop
endfacet
facet normal 0.0599824 -0.869261 0.490702
  outer loop
    vertex 1.157646986664651 -31.77180988825152 24.27368842757666
    vertex -2.425008876060071 -36.13331018329534 16.98538274955249
    vertex 7.993422638455028 -34.38563784437086 18.80779371853078
  endloop
endfacet
facet normal -0.20942 0.942882 0.259068
  outer loop
    vertex -13.67065085451343 36.46389554291731 9.137703598235555
    vertex -8.185258586856257 35.89816906366226 15.63083490230185
    vertex -2.894738924527294 38.63905401375459 9.931968157469216
  endloop
endfacet
facet normal 0.660748 -0.531777 0.529741
  outer loop
    vertex 30.39451799821485 -18.60362077449682 18.1680645566583
    vertex 27.1682561027561 -16.56662456213505 24.23701324322615
    vertex 22.00869885169984 -24.40109629024503 22.80797392775991
  endloop
endfacet
facet normal 0.499864 -0.86579 0.0233014
  outer loop
    vertex 24.93959207434916 -31.27325929872133 0
    vertex 19.5982382113309 -34.17001000200779 6.951221149885649
    vertex 14.61364097465552 -37.23494994576828 0
  endloop
endfacet
facet normal -0.699962 0.0806033 0.709617
  outer loop
    vertex -28.51193894699447 8.723669634172753 26.66396305121713
    vertex -31.23164796366756 -0.1670150966684836 24.99112385290075
    vertex -24.87109873159188 -0.6575692006801105 31.32085647982389
  endloop
endfacet
facet normal -0.237243 0.358004 0.903077
  outer loop
    vertex -13.00884691934586 17.70591820802483 33.42559441864513
    vertex -13.82501409425002 10.81342531379155 35.9435504406123
    vertex -4.10792863625591 15.72711828297641 36.54836074070488
  endloop
endfacet
facet normal 0.774161 -0.348399 0.528482
  outer loop
    vertex 30.23772263460106 -9.491933986939291 24.40457578120385
    vertex 27.1682561027561 -16.56662456213505 24.23701324322615
    vertex 30.39451799821485 -18.60362077449682 18.1680645566583
  endloop
endfacet
facet normal 0.269602 -0.325679 0.906227
  outer loop
    vertex 4.80416468494653 -13.1650263506573 37.46467780278394
    vertex 9.050049964088915 -18.53520660015293 34.27160212095637
    vertex 15.76683490049255 -9.584547573756044 35.49004599922374
  endloop
endfacet
facet normal 0.497765 -0.144084 0.85526
  outer loop
    vertex 15.76683490049255 -9.584547573756044 35.49004599922374
    vertex 24.49430991051149 -6.870763880842516 30.86780500297241
    vertex 19.99999999999996 -4.898587196589403e-15 34.64101615137757
  endloop
endfacet
facet normal 0.91722 -0.295903 0.266739
  outer loop
    vertex 35.19996751415061 -16.72873338638764 9.006207097879846
    vertex 38.4902804646076 -7.848168021941998 7.543511679265421
    vertex 35.92741011865996 -8.944880403809405 15.13969341589043
  endloop
endfacet
facet normal 0.793147 0.0228226 0.608603
  outer loop
    vertex 34.64101615137754 -8.484601909799254e-15 20
    vertex 31.62613330202596 6.183046196289103 23.69720726366379
    vertex 28.28427124746188 -6.927648449883942e-15 28.28427124746192
  endloop
endfacet
facet normal 0.171651 -0.78787 0.591436
  outer loop
    vertex 1.157646986664651 -31.77180988825152 24.27368842757666
    vertex 7.993422638455028 -34.38563784437086 18.80779371853078
    vertex 12.13857474605569 -29.33106786533229 24.3381071781207
  endloop
endfacet
facet normal -0.362989 -0.754833 0.546321
  outer loop
    vertex -16.52970332393367 -26.22817402079096 25.27551771097563
    vertex -18.19024833538552 -30.93106817800536 17.6743850491209
    vertex -9.165961519740943 -31.67204042702429 22.64656717049114
  endloop
endfacet
facet normal -0.861009 -0.0032512 0.508579
  outer loop
    vertex -34.77743644179039 -5.59410507604632 18.95351953953099
    vertex -31.23164796366756 -0.1670150966684836 24.99112385290075
    vertex -34.8856361124853 5.29606966214903 18.83995857641216
  endloop
endfacet
facet normal -0.796091 0.13242 0.590511
  outer loop
    vertex -34.8856361124853 5.29606966214903 18.83995857641216
    vertex -31.23164796366756 -0.1670150966684836 24.99112385290075
    vertex -28.51193894699447 8.723669634172753 26.66396305121713
  endloop
endfacet
facet normal 0.919921 0.289799 0.264125
  outer loop
    vertex 36.12331455413848 8.439298260296196 14.96276680619358
    vertex 38.5878664598569 7.738604890364375 7.147765834656255
    vertex 34.79291889438573 16.66319589136556 10.57311200615384
  endloop
endfacet
facet normal 0.510751 -0.233075 0.827532
  outer loop
    vertex 22.31712335565221 -13.38877283842987 30.37575952975539
    vertex 24.49430991051149 -6.870763880842516 30.86780500297241
    vertex 15.76683490049255 -9.584547573756044 35.49004599922374
  endloop
endfacet
facet normal 0.936058 -0.324362 0.136326
  outer loop
    vertex 38.2229122314456 -11.79020697643626 0
    vertex 38.4902804646076 -7.848168021941998 7.543511679265421
    vertex 35.19996751415061 -16.72873338638764 9.006207097879846
  endloop
endfacet
facet normal 0.94539 -0.125372 0.300864
  outer loop
    vertex 35.92741011865996 -8.944880403809405 15.13969341589043
    vertex 38.4902804646076 -7.848168021941998 7.543511679265421
    vertex 38.63703305156272 -9.463343771029357e-15 10.35276180410084
  endloop
endfacet
facet normal 0.949344 0.125369 0.288146
  outer loop
    vertex 38.63703305156272 -9.463343771029357e-15 10.35276180410084
    vertex 38.5878664598569 7.738604890364375 7.147765834656255
    vertex 36.12331455413848 8.439298260296196 14.96276680619358
  endloop
endfacet
facet normal -0.0939232 -0.833275 0.544821
  outer loop
    vertex -9.165961519740943 -31.67204042702429 22.64656717049114
    vertex -2.425008876060071 -36.13331018329534 16.98538274955249
    vertex 1.157646986664651 -31.77180988825152 24.27368842757666
  endloop
endfacet
facet normal -0.262242 0.83135 0.489986
  outer loop
    vertex -6.464258065789631 32.17545728767946 22.86817255461373
    vertex -8.185258586856257 35.89816906366226 15.63083490230185
    vertex -15.45769715710548 32.11255731271542 18.16158752523524
  endloop
endfacet
facet normal -0.331087 0.873931 0.355845
  outer loop
    vertex -15.45769715710548 32.11255731271542 18.16158752523524
    vertex -8.185258586856257 35.89816906366226 15.63083490230185
    vertex -13.67065085451343 36.46389554291731 9.137703598235555
  endloop
endfacet
facet normal -0.180676 -0.0410296 0.982687
  outer loop
    vertex -9.533100700128042 -9.709792126633138 37.61435800194909
    vertex -10.21995125225506 6.29634487736313 38.1563708649923
    vertex -15.37454986852633 -0.5361488321765668 36.92337688741311
  endloop
endfacet
facet normal 0.00230161 -0.0337447 0.999428
  outer loop
    vertex -9.533100700128042 -9.709792126633138 37.61435800194909
    vertex 4.80416468494653 -13.1650263506573 37.46467780278394
    vertex -10.21995125225506 6.29634487736313 38.1563708649923
  endloop
endfacet
facet normal 5.67626e-15 -1.32676e-15 -1
  outer loop
    vertex 38.22291223144563 11.79020697643616 0
    vertex 40 -9.797174393178826e-15 2.572996239482618e-14
    vertex 34 -8.327598234202001e-15 -8.327598234202001e-15
  endloop
endfacet
facet normal 5.67626e-15 1.32676e-15 -1
  outer loop
    vertex 40 -9.797174393178826e-15 2.572996239482618e-14
    vertex 38.2229122314456 -11.79020697643626 0
    vertex 34 -8.327598234202001e-15 -8.327598234202001e-15
  endloop
endfacet
facet normal -1.8355e-17 7.12889e-16 -1
  outer loop
    vertex 31.94954910672089 11.62868487307272 0
    vertex 38.22291223144563 11.79020697643616 0
    vertex 34 -8.327598234202001e-15 -8.327598234202001e-15
  endloop
endfacet
facet normal -1.8355e-17 -7.12889e-16 -1
  outer loop
    vertex 38.2229122314456 -11.79020697643626 0
    vertex 31.94954910672089 -11.62868487307273 0
    vertex 34 -8.327598234202001e-15 -8.327598234202001e-15
  endloop
endfacet
facet normal 0 -0 -1
  outer loop
    vertex 33.0495509726398 22.53280232254487 0
    vertex 38.22291223144563 11.79020697643616 0
    vertex 31.94954910672089 11.62868487307272 0
  endloop
endfacet
facet normal 0 0 -1
  outer loop
    vertex 24.93959207434936 31.27325929872118 0
    vertex 33.0495509726398 22.53280232254487 0
    vertex 26.04551106604528 21.8547787293423 0
  endloop
endfacet
facet normal 0 0 -1
  outer loop
    vertex 33.0495509726398 22.53280232254487 0
    vertex 31.94954910672089 11.62868487307272 0
    vertex 26.04551106604528 21.8547787293423 0
  endloop
endfacet
facet normal 0 0 -1
  outer loop
    vertex 14.61364097465582 37.23494994576816 0
    vertex 24.93959207434936 31.27325929872118 0
    vertex 17.00000000000006 29.44486372867088 0
  endloop
endfacet
facet normal 0 0 -1
  outer loop
    vertex 17.00000000000006 29.44486372867088 0
    vertex 24.93959207434936 31.27325929872118 0
    vertex 26.04551106604528 21.8547787293423 0
  endloop
endfacet
facet normal 0 0 -1
  outer loop
    vertex 2.989203743456993 39.8881518872472 0
    vertex 14.61364097465582 37.23494994576816 0
    vertex 5.904038040675724 33.48346360241506 0
  endloop
endfacet
facet normal 0 -0 -1
  outer loop
    vertex 14.61364097465582 37.23494994576816 0
    vertex 17.00000000000006 29.44486372867088 0
    vertex 5.904038040675724 33.48346360241506 0
  endloop
endfacet
facet normal 0 0 -1
  outer loop
    vertex -8.900837358252573 38.99711648727295 0
    vertex 2.989203743456993 39.8881518872472 0
    vertex -5.904038040675527 33.48346360241509 0
  endloop
endfacet
facet normal 0 -0 -1
  outer loop
    vertex 2.989203743456993 39.8881518872472 0
    vertex 5.904038040675724 33.48346360241506 0
    vertex -5.904038040675527 33.48346360241509 0
  endloop
endfacet
facet normal 0 0 -1
  outer loop
    vertex -20.00000000000001 34.64101615137754 0
    vertex -8.900837358252573 38.99711648727295 0
    vertex -16.9999999999999 29.44486372867097 0
  endloop
endfacet
facet normal 0 -0 -1
  outer loop
    vertex -8.900837358252573 38.99711648727295 0
    vertex -5.904038040675527 33.48346360241509 0
    vertex -16.9999999999999 29.44486372867097 0
  endloop
endfacet
facet normal 0 0 -1
  outer loop
    vertex -29.32207487319305 27.20690951083677 0
    vertex -20.00000000000001 34.64101615137754 0
    vertex -16.9999999999999 29.44486372867097 0
  endloop
endfacet
facet normal 0 0 -1
  outer loop
    vertex -36.03875471609674 17.35534956470238 0
    vertex -29.32207487319305 27.20690951083677 0
    vertex -26.04551106604516 21.85477872934245 0
  endloop
endfacet
facet normal 0 0 -1
  outer loop
    vertex -29.32207487319305 27.20690951083677 0
    vertex -16.9999999999999 29.44486372867097 0
    vertex -26.04551106604516 21.85477872934245 0
  endloop
endfacet
facet normal -0 0 -1
  outer loop
    vertex -31.94954910672083 11.6286848730729 0
    vertex -39.55323304900512 5.961690647047094 0
    vertex -36.03875471609674 17.35534956470238 0
  endloop
endfacet
facet normal 0 0 -1
  outer loop
    vertex -31.94954910672083 11.6286848730729 0
    vertex -36.03875471609674 17.35534956470238 0
    vertex -26.04551106604516 21.85477872934245 0
  endloop
endfacet
facet normal -0 0 -1
  outer loop
    vertex -34 1.551541304661223e-13 0
    vertex -39.55323304900516 -5.961690647046821 0
    vertex -39.55323304900512 5.961690647047094 0
  endloop
endfacet
facet normal 0 0 -1
  outer loop
    vertex -31.94954910672083 11.6286848730729 0
    vertex -34 1.551541304661223e-13 0
    vertex -39.55323304900512 5.961690647047094 0
  endloop
endfacet
facet normal -0 0 -1
  outer loop
    vertex -31.94954910672093 -11.62868487307261 0
    vertex -36.03875471609686 -17.35534956470213 0
    vertex -39.55323304900516 -5.961690647046821 0
  endloop
endfacet
facet normal 0 -0 -1
  outer loop
    vertex -34 1.551541304661223e-13 0
    vertex -31.94954910672093 -11.62868487307261 0
    vertex -39.55323304900516 -5.961690647046821 0
  endloop
endfacet
facet normal 0 0 -1
  outer loop
    vertex -36.03875471609686 -17.35534956470213 0
    vertex -26.04551106604532 -21.85477872934225 0
    vertex -29.32207487319324 -27.20690951083657 0
  endloop
endfacet
facet normal 0 -0 -1
  outer loop
    vertex -31.94954910672093 -11.62868487307261 0
    vertex -26.04551106604532 -21.85477872934225 0
    vertex -36.03875471609686 -17.35534956470213 0
  endloop
endfacet
facet normal 0 0 -1
  outer loop
    vertex -29.32207487319324 -27.20690951083657 0
    vertex -17.00000000000009 -29.44486372867086 0
    vertex -20.00000000000026 -34.64101615137739 0
  endloop
endfacet
facet normal 0 -0 -1
  outer loop
    vertex -26.04551106604532 -21.85477872934225 0
    vertex -17.00000000000009 -29.44486372867086 0
    vertex -29.32207487319324 -27.20690951083657 0
  endloop
endfacet
facet normal 0 0 -1
  outer loop
    vertex -20.00000000000026 -34.64101615137739 0
    vertex -17.00000000000009 -29.44486372867086 0
    vertex -8.900837358252931 -38.99711648727286 0
  endloop
endfacet
facet normal 0 0 -1
  outer loop
    vertex -8.900837358252931 -38.99711648727286 0
    vertex -5.90403804067572 -33.48346360241506 0
    vertex 2.989203743456585 -39.88815188724723 0
  endloop
endfacet
facet normal 0 0 -1
  outer loop
    vertex -17.00000000000009 -29.44486372867086 0
    vertex -5.90403804067572 -33.48346360241506 0
    vertex -8.900837358252931 -38.99711648727286 0
  endloop
endfacet
facet normal 0 0 -1
  outer loop
    vertex 2.989203743456585 -39.88815188724723 0
    vertex 5.90403804067556 -33.48346360241509 0
    vertex 14.61364097465552 -37.23494994576828 0
  endloop
endfacet
facet normal 0 0 -1
  outer loop
    vertex -5.90403804067572 -33.48346360241506 0
    vertex 5.90403804067556 -33.48346360241509 0
    vertex 2.989203743456585 -39.88815188724723 0
  endloop
endfacet
facet normal 0 0 -1
  outer loop
    vertex 14.61364097465552 -37.23494994576828 0
    vertex 16.99999999999998 -29.44486372867093 0
    vertex 24.93959207434916 -31.27325929872133 0
  endloop
endfacet
facet normal 0 0 -1
  outer loop
    vertex 5.90403804067556 -33.48346360241509 0
    vertex 16.99999999999998 -29.44486372867093 0
    vertex 14.61364097465552 -37.23494994576828 0
  endloop
endfacet
facet normal 0 0 -1
  outer loop
    vertex 24.93959207434916 -31.27325929872133 0
    vertex 26.04551106604523 -21.85477872934237 0
    vertex 33.04955097263971 -22.532802322545 0
  endloop
endfacet
facet normal 0 0 -1
  outer loop
    vertex 16.99999999999998 -29.44486372867093 0
    vertex 26.04551106604523 -21.85477872934237 0
    vertex 24.93959207434916 -31.27325929872133 0
  endloop
endfacet
facet normal 0 0 -1
  outer loop
    vertex 33.04955097263971 -22.532802322545 0
    vertex 31.94954910672089 -11.62868487307273 0
    vertex 38.2229122314456 -11.79020697643626 0
  endloop
endfacet
facet normal 0 0 -1
  outer loop
    vertex 26.04551106604523 -21.85477872934237 0
    vertex 31.94954910672089 -11.62868487307273 0
    vertex 33.04955097263971 -22.532802322545 0
  endloop
endfacet
facet normal 0.248235 -0.0700087 -0.966167
  outer loop
    vertex -5.809325226508149 10.74960102726584 31.72850166911859
    vertex 2.0818995585505e-15 -5.099183261050315e-31 34
    vertex -6.190939460676987 -6.173320766436816 32.85669458891007
  endloop
endfacet
facet normal 0.809473 0.363221 -0.461328
  outer loop
    vertex -27.56403669517959 -5.713650663712342 19.06772343935826
    vertex -22.52190149884442 -16.09060715138111 19.74477942080571
    vertex -29.01727204784038 -15.26623066763443 8.996672946384106
  endloop
endfacet
facet normal 0.692882 -0.535401 -0.48297
  outer loop
    vertex -27.96968144524023 15.81879065498836 11.1113807452286
    vertex -17.78287179690622 21.32058170297795 19.62657042127939
    vertex -23.7597908925436 12.43760150810864 20.89924413628627
  endloop
endfacet
facet normal 0.47356 -0.768874 -0.42962
  outer loop
    vertex -12.11768835842759 30.09775440198824 10.16301179796747
    vertex -17.78287179690622 21.32058170297795 19.62657042127939
    vertex -21.18284387595089 24.73835691318875 9.762214019513021
  endloop
endfacet
facet normal 0.430655 -0.775583 -0.461527
  outer loop
    vertex -17.78287179690622 21.32058170297795 19.62657042127939
    vertex -12.11768835842759 30.09775440198824 10.16301179796747
    vertex -8.347262080973497 26.93749373418023 18.99196269669206
  endloop
endfacet
facet normal 0.682272 -0.585385 -0.437983
  outer loop
    vertex -17.78287179690622 21.32058170297795 19.62657042127939
    vertex -27.96968144524023 15.81879065498836 11.1113807452286
    vertex -21.18284387595089 24.73835691318875 9.762214019513021
  endloop
endfacet
facet normal 0.0729895 -0.861337 -0.502763
  outer loop
    vertex -0.3525178069145631 32.00393079691743 11.47275663221042
    vertex 0.2843190157120821 25.89500743857959 22.03106335275745
    vertex -8.347262080973497 26.93749373418023 18.99196269669206
  endloop
endfacet
facet normal 0.880128 0.274476 -0.387346
  outer loop
    vertex -32.53068200131749 -3.837391716104743 9.112033436414125
    vertex -27.56403669517959 -5.713650663712342 19.06772343935826
    vertex -29.01727204784038 -15.26623066763443 8.996672946384106
  endloop
endfacet
facet normal 0.189869 -0.895851 -0.401747
  outer loop
    vertex -12.11768835842759 30.09775440198824 10.16301179796747
    vertex -0.3525178069145631 32.00393079691743 11.47275663221042
    vertex -8.347262080973497 26.93749373418023 18.99196269669206
  endloop
endfacet
facet normal -0.75576 -0.398885 -0.519343
  outer loop
    vertex 23.47242483933461 9.537680887120114 22.6732863841405
    vertex 21.21243809948638 18.47302519770431 19.0992096674297
    vertex 29.34278811582973 8.513918415791252 14.91690245321636
  endloop
endfacet
facet normal 0.818377 -0.334267 -0.467466
  outer loop
    vertex -29.21598019635498 5.022918247924762 16.6492280133602
    vertex -27.96968144524023 15.81879065498836 11.1113807452286
    vertex -23.7597908925436 12.43760150810864 20.89924413628627
  endloop
endfacet
facet normal -0.589126 0.666402 -0.456989
  outer loop
    vertex 21.56680986197344 -24.57513054315916 9.323930027846142
    vertex 14.46381519923698 -24.33444502030843 18.83169762490646
    vertex 23.89655950000812 -17.36464774483705 16.83518496364971
  endloop
endfacet
facet normal 0.761421 0.491721 -0.422432
  outer loop
    vertex -22.52190149884442 -16.09060715138111 19.74477942080571
    vertex -22.81145151101305 -21.95104317055058 12.40118476942124
    vertex -29.01727204784038 -15.26623066763443 8.996672946384106
  endloop
endfacet
facet normal -0.774874 -0.443387 -0.450531
  outer loop
    vertex 21.21243809948638 18.47302519770431 19.0992096674297
    vertex 28.45273368285268 16.52685790180318 8.561828885598336
    vertex 29.34278811582973 8.513918415791252 14.91690245321636
  endloop
endfacet
facet normal -0.0310837 -0.865954 -0.499157
  outer loop
    vertex 0.2843190157120821 25.89500743857959 22.03106335275745
    vertex -0.3525178069145631 32.00393079691743 11.47275663221042
    vertex 7.22962216397365 28.62602466590486 16.86070209668587
  endloop
endfacet
facet normal 0.0371072 -0.187366 -0.981589
  outer loop
    vertex 2.0818995585505e-15 -5.099183261050315e-31 34
    vertex -5.809325226508149 10.74960102726584 31.72850166911859
    vertex 4.640682689206514 8.995386940302817 32.45838994732068
  endloop
endfacet
facet normal 0.89706 0.0388653 -0.440196
  outer loop
    vertex -27.56403669517959 -5.713650663712342 19.06772343935826
    vertex -32.53068200131749 -3.837391716104743 9.112033436414125
    vertex -29.21598019635498 5.022918247924762 16.6492280133602
  endloop
endfacet
facet normal -0.55997 0.591736 -0.579899
  outer loop
    vertex 14.46381519923698 -24.33444502030843 18.83169762490646
    vertex 16.71844505115242 -16.69673012427844 24.44816553912809
    vertex 23.89655950000812 -17.36464774483705 16.83518496364971
  endloop
endfacet
facet normal -0.711286 -0.591685 -0.379449
  outer loop
    vertex 21.0529852724391 25.12708690801165 9.022267710265083
    vertex 28.45273368285268 16.52685790180318 8.561828885598336
    vertex 21.21243809948638 18.47302519770431 19.0992096674297
  endloop
endfacet
facet normal -0.864229 0.498963 -0.0643739
  outer loop
    vertex 31.94954910672089 -11.62868487307273 0
    vertex 26.04551106604523 -21.85477872934237 0
    vertex 28.86033883182983 -15.89714981595278 8.388174428391892
  endloop
endfacet
facet normal -0.86405 -0.49886 -0.0675
  outer loop
    vertex 26.04551106604528 21.8547787293423 0
    vertex 31.94954910672089 11.62868487307272 0
    vertex 28.45273368285268 16.52685790180318 8.561828885598336
  endloop
endfacet
facet normal -0.0248996 0.613841 -0.789037
  outer loop
    vertex 6.782457747749095 -22.99457739442521 24.10907873295426
    vertex -4.3609249609577 -24.02754973358072 23.65711705354652
    vertex -2.027207043447905 -15.59210486759645 30.1459233960559
  endloop
endfacet
facet normal 0.88744 -0.287324 -0.36041
  outer loop
    vertex -27.96968144524023 15.81879065498836 11.1113807452286
    vertex -29.21598019635498 5.022918247924762 16.6492280133602
    vertex -32.6115915441811 5.750303473083322 7.708314142725476
  endloop
endfacet
facet normal -0.264022 0.770677 -0.579956
  outer loop
    vertex 14.46381519923698 -24.33444502030843 18.83169762490646
    vertex 3.625452522901572 -28.28085387176186 18.52159275786613
    vertex 6.782457747749095 -22.99457739442521 24.10907873295426
  endloop
endfacet
facet normal -0.749876 -0.635325 -0.184521
  outer loop
    vertex 26.04551106604528 21.8547787293423 0
    vertex 28.45273368285268 16.52685790180318 8.561828885598336
    vertex 21.0529852724391 25.12708690801165 9.022267710265083
  endloop
endfacet
facet normal -0.76205 0.620527 -0.185002
  outer loop
    vertex 28.86033883182983 -15.89714981595278 8.388174428391892
    vertex 26.04551106604523 -21.85477872934237 0
    vertex 21.56680986197344 -24.57513054315916 9.323930027846142
  endloop
endfacet
facet normal 0.545929 0.0185093 -0.837627
  outer loop
    vertex -19.90627213753226 -7.199018033586529 26.60666211569205
    vertex -22.78472429465755 3.651854420014192 24.9703884253222
    vertex -12.98587550516893 2.414375484346158 31.32950411967674
  endloop
endfacet
facet normal -0.340243 0.934811 -0.101802
  outer loop
    vertex 16.99999999999998 -29.44486372867093 0
    vertex 5.90403804067556 -33.48346360241509 0
    vertex 11.09596195932433 -30.48590493037121 10.17296558401707
  endloop
endfacet
facet normal -0.34098 -0.936836 -0.0779183
  outer loop
    vertex 5.904038040675724 33.48346360241506 0
    vertex 17.00000000000006 29.44486372867088 0
    vertex 11.50111545157989 30.69534935140582 9.028835559726419
  endloop
endfacet
facet normal 0.345951 -0.254633 -0.90304
  outer loop
    vertex -12.98587550516893 2.414375484346158 31.32950411967674
    vertex -15.81467980541832 12.37032879310111 27.43849245499227
    vertex -5.809325226508149 10.74960102726584 31.72850166911859
  endloop
endfacet
facet normal 0.859688 -0.496341 -0.120752
  outer loop
    vertex -31.94954910672083 11.6286848730729 0
    vertex -26.04551106604516 21.85477872934245 0
    vertex -27.96968144524023 15.81879065498836 11.1113807452286
  endloop
endfacet
facet normal 0.340243 0.934811 -0.101802
  outer loop
    vertex -5.90403804067572 -33.48346360241506 0
    vertex -17.00000000000009 -29.44486372867086 0
    vertex -11.09596195932457 -30.4859049303715 10.17296558401594
  endloop
endfacet
facet normal 0.340188 -0.934657 -0.103382
  outer loop
    vertex -16.9999999999999 29.44486372867097 0
    vertex -5.904038040675527 33.48346360241509 0
    vertex -12.11768835842759 30.09775440198824 10.16301179796747
  endloop
endfacet
facet normal 0.981213 0.173014 -0.0853586
  outer loop
    vertex -31.94954910672093 -11.62868487307261 0
    vertex -34 1.551541304661223e-13 0
    vertex -32.53068200131749 -3.837391716104743 9.112033436414125
  endloop
endfacet
facet normal -0.040992 0.737265 -0.674359
  outer loop
    vertex 6.782457747749095 -22.99457739442521 24.10907873295426
    vertex 3.625452522901572 -28.28085387176186 18.52159275786613
    vertex -4.3609249609577 -24.02754973358072 23.65711705354652
  endloop
endfacet
facet normal 0.19915 0.56229 -0.802602
  outer loop
    vertex -2.027207043447905 -15.59210486759645 30.1459233960559
    vertex -4.3609249609577 -24.02754973358072 23.65711705354652
    vertex -12.74199672509263 -16.41475100338842 26.91091728192274
  endloop
endfacet
facet normal -0.784014 0.186294 -0.592129
  outer loop
    vertex 22.23847085498487 -7.980238427987528 24.44925783463497
    vertex 27.5065778087482 -6.73716849379622e-15 19.9846985779441
    vertex 29.37862460175537 -8.585743349592839 14.80477718994976
  endloop
endfacet
facet normal 0.519602 -0.178886 -0.835472
  outer loop
    vertex -12.98587550516893 2.414375484346158 31.32950411967674
    vertex -22.78472429465755 3.651854420014192 24.9703884253222
    vertex -15.81467980541832 12.37032879310111 27.43849245499227
  endloop
endfacet
facet normal 0.549568 0.403072 -0.731784
  outer loop
    vertex -12.74199672509263 -16.41475100338842 26.91091728192274
    vertex -22.52190149884442 -16.09060715138111 19.74477942080571
    vertex -19.90627213753226 -7.199018033586529 26.60666211569205
  endloop
endfacet
facet normal 0.179149 -0.961012 -0.210621
  outer loop
    vertex -12.11768835842759 30.09775440198824 10.16301179796747
    vertex -5.904038040675527 33.48346360241509 0
    vertex -0.3525178069145631 32.00393079691743 11.47275663221042
  endloop
endfacet
facet normal 0.505928 -0.841619 -0.188981
  outer loop
    vertex -16.9999999999999 29.44486372867097 0
    vertex -12.11768835842759 30.09775440198824 10.16301179796747
    vertex -21.18284387595089 24.73835691318875 9.762214019513021
  endloop
endfacet
facet normal -0.288541 0.829959 -0.477402
  outer loop
    vertex 14.46381519923698 -24.33444502030843 18.83169762490646
    vertex 11.09596195932433 -30.48590493037121 10.17296558401707
    vertex 3.625452522901572 -28.28085387176186 18.52159275786613
  endloop
endfacet
facet normal 0.932716 -0.0445215 -0.357852
  outer loop
    vertex -29.21598019635498 5.022918247924762 16.6492280133602
    vertex -32.53068200131749 -3.837391716104743 9.112033436414125
    vertex -32.6115915441811 5.750303473083322 7.708314142725476
  endloop
endfacet
facet normal 0.707214 0.0817066 -0.702262
  outer loop
    vertex -19.90627213753226 -7.199018033586529 26.60666211569205
    vertex -27.56403669517959 -5.713650663712342 19.06772343935826
    vertex -22.78472429465755 3.651854420014192 24.9703884253222
  endloop
endfacet
facet normal 0.107052 -0.484442 -0.868249
  outer loop
    vertex -5.809325226508149 10.74960102726584 31.72850166911859
    vertex -8.026465760563404 20.01959532097329 26.2829155646585
    vertex 2.410942036351264 18.5694115175992 28.37894138947766
  endloop
endfacet
facet normal -0.170557 0.96537 -0.197409
  outer loop
    vertex 11.09596195932433 -30.48590493037121 10.17296558401707
    vertex 5.90403804067556 -33.48346360241509 0
    vertex -0.369849436284157 -32.66242513070846 9.435528388773184
  endloop
endfacet
facet normal 0.295984 -0.430198 -0.852832
  outer loop
    vertex -5.809325226508149 10.74960102726584 31.72850166911859
    vertex -15.81467980541832 12.37032879310111 27.43849245499227
    vertex -8.026465760563404 20.01959532097329 26.2829155646585
  endloop
endfacet
facet normal 0.692728 0.699589 -0.175223
  outer loop
    vertex -26.04551106604532 -21.85477872934225 0
    vertex -22.81145151101305 -21.95104317055058 12.40118476942124
    vertex -18.36233230338193 -27.37808861707074 8.322560667006162
  endloop
endfacet
facet normal 0.698543 0.296942 -0.651048
  outer loop
    vertex -19.90627213753226 -7.199018033586529 26.60666211569205
    vertex -22.52190149884442 -16.09060715138111 19.74477942080571
    vertex -27.56403669517959 -5.713650663712342 19.06772343935826
  endloop
endfacet
facet normal 0.443959 0.810412 -0.382272
  outer loop
    vertex -14.86635296358045 -24.74715691176819 17.96022756945375
    vertex -11.09596195932457 -30.4859049303715 10.17296558401594
    vertex -18.36233230338193 -27.37808861707074 8.322560667006162
  endloop
endfacet
facet normal -0.14292 -0.671522 -0.727071
  outer loop
    vertex 2.410942036351264 18.5694115175992 28.37894138947766
    vertex 0.2843190157120821 25.89500743857959 22.03106335275745
    vertex 10.75477497324618 22.53431351695435 23.0768180127687
  endloop
endfacet
facet normal 0.766353 0.612077 -0.195103
  outer loop
    vertex -22.81145151101305 -21.95104317055058 12.40118476942124
    vertex -26.04551106604532 -21.85477872934225 0
    vertex -29.01727204784038 -15.26623066763443 8.996672946384106
  endloop
endfacet
facet normal -0.747436 0.333914 -0.574318
  outer loop
    vertex 23.89655950000812 -17.36464774483705 16.83518496364971
    vertex 22.23847085498487 -7.980238427987528 24.44925783463497
    vertex 29.37862460175537 -8.585743349592839 14.80477718994976
  endloop
endfacet
facet normal -0.155779 0.0914433 -0.98355
  outer loop
    vertex 2.0818995585505e-15 -5.099183261050315e-31 34
    vertex 10.50657780874819 -2.573369376695217e-15 32.33592155403523
    vertex 5.121506837713905 -9.17378574867114 32.33592155403535
  endloop
endfacet
facet normal -0.608473 -0.422577 -0.671707
  outer loop
    vertex 21.21243809948638 18.47302519770431 19.0992096674297
    vertex 23.47242483933461 9.537680887120114 22.6732863841405
    vertex 16.0205004772817 16.4358657120774 25.08397661360684
  endloop
endfacet
facet normal 0.789793 -0.0165981 -0.613149
  outer loop
    vertex -22.78472429465755 3.651854420014192 24.9703884253222
    vertex -27.56403669517959 -5.713650663712342 19.06772343935826
    vertex -29.21598019635498 5.022918247924762 16.6492280133602
  endloop
endfacet
facet normal -0.2982 -0.181699 -0.93705
  outer loop
    vertex 14.86319174022998 9.173785748671733 29.170656254713
    vertex 10.50657780874819 -2.573369376695217e-15 32.33592155403523
    vertex 4.640682689206514 8.995386940302817 32.45838994732068
  endloop
endfacet
facet normal 0.0639663 -0.642862 -0.763307
  outer loop
    vertex 2.410942036351264 18.5694115175992 28.37894138947766
    vertex -8.026465760563404 20.01959532097329 26.2829155646585
    vertex 0.2843190157120821 25.89500743857959 22.03106335275745
  endloop
endfacet
facet normal -0.452088 -0.0914433 -0.887273
  outer loop
    vertex 19.98469857794407 -4.894839429080774e-15 27.50657780874823
    vertex 10.50657780874819 -2.573369376695217e-15 32.33592155403523
    vertex 14.86319174022998 9.173785748671733 29.170656254713
  endloop
endfacet
facet normal -0.452088 0.0914433 -0.887273
  outer loop
    vertex 10.50657780874819 -2.573369376695217e-15 32.33592155403523
    vertex 19.98469857794407 -4.894839429080774e-15 27.50657780874823
    vertex 14.86319174022848 -9.173785748665491 29.17065625471573
  endloop
endfacet
facet normal -0.73928 0.585461 -0.332717
  outer loop
    vertex 28.86033883182983 -15.89714981595278 8.388174428391892
    vertex 21.56680986197344 -24.57513054315916 9.323930027846142
    vertex 23.89655950000812 -17.36464774483705 16.83518496364971
  endloop
endfacet
facet normal -0.368599 0.618878 -0.693631
  outer loop
    vertex 14.46381519923698 -24.33444502030843 18.83169762490646
    vertex 6.782457747749095 -22.99457739442521 24.10907873295426
    vertex 16.71844505115242 -16.69673012427844 24.44816553912809
  endloop
endfacet
facet normal 0.496504 0.573431 -0.65166
  outer loop
    vertex -12.74199672509263 -16.41475100338842 26.91091728192274
    vertex -14.86635296358045 -24.74715691176819 17.96022756945375
    vertex -22.52190149884442 -16.09060715138111 19.74477942080571
  endloop
endfacet
facet normal -0.640848 -0.763733 -0.077617
  outer loop
    vertex 17.00000000000006 29.44486372867088 0
    vertex 26.04551106604528 21.8547787293423 0
    vertex 21.0529852724391 25.12708690801165 9.022267710265083
  endloop
endfacet
facet normal -0.640464 0.763275 -0.0849502
  outer loop
    vertex 26.04551106604523 -21.85477872934237 0
    vertex 16.99999999999998 -29.44486372867093 0
    vertex 21.56680986197344 -24.57513054315916 9.323930027846142
  endloop
endfacet
facet normal 0.42356 -0.541016 -0.726566
  outer loop
    vertex -8.026465760563404 20.01959532097329 26.2829155646585
    vertex -15.81467980541832 12.37032879310111 27.43849245499227
    vertex -17.78287179690622 21.32058170297795 19.62657042127939
  endloop
endfacet
facet normal 0.583546 0.623363 -0.520473
  outer loop
    vertex -22.52190149884442 -16.09060715138111 19.74477942080571
    vertex -14.86635296358045 -24.74715691176819 17.96022756945375
    vertex -22.81145151101305 -21.95104317055058 12.40118476942124
  endloop
endfacet
facet normal 0.326475 0.651939 -0.68439
  outer loop
    vertex -12.74199672509263 -16.41475100338842 26.91091728192274
    vertex -4.3609249609577 -24.02754973358072 23.65711705354652
    vertex -14.86635296358045 -24.74715691176819 17.96022756945375
  endloop
endfacet
facet normal -0.149499 0.914737 -0.375376
  outer loop
    vertex 3.625452522901572 -28.28085387176186 18.52159275786613
    vertex 11.09596195932433 -30.48590493037121 10.17296558401707
    vertex -0.369849436284157 -32.66242513070846 9.435528388773184
  endloop
endfacet
facet normal -2.984e-15 -0.991787 -0.127901
  outer loop
    vertex -5.904038040675527 33.48346360241509 0
    vertex 5.904038040675724 33.48346360241506 0
    vertex -0.3525178069145631 32.00393079691743 11.47275663221042
  endloop
endfacet
facet normal 0.639972 -0.762689 -0.0934929
  outer loop
    vertex -26.04551106604516 21.85477872934245 0
    vertex -16.9999999999999 29.44486372867097 0
    vertex -21.18284387595089 24.73835691318875 9.762214019513021
  endloop
endfacet
facet normal -0.155825 -0.0882187 -0.983837
  outer loop
    vertex 10.50657780874819 -2.573369376695217e-15 32.33592155403523
    vertex 2.0818995585505e-15 -5.099183261050315e-31 34
    vertex 4.640682689206514 8.995386940302817 32.45838994732068
  endloop
endfacet
facet normal -0.478253 0.793013 -0.377365
  outer loop
    vertex 21.56680986197344 -24.57513054315916 9.323930027846142
    vertex 11.09596195932433 -30.48590493037121 10.17296558401707
    vertex 14.46381519923698 -24.33444502030843 18.83169762490646
  endloop
endfacet
facet normal -0.493897 0.846196 -0.200046
  outer loop
    vertex 16.99999999999998 -29.44486372867093 0
    vertex 11.09596195932433 -30.48590493037121 10.17296558401707
    vertex 21.56680986197344 -24.57513054315916 9.323930027846142
  endloop
endfacet
facet normal -0.495125 -0.849126 -0.183945
  outer loop
    vertex 11.50111545157989 30.69534935140582 9.028835559726419
    vertex 17.00000000000006 29.44486372867088 0
    vertex 21.0529852724391 25.12708690801165 9.022267710265083
  endloop
endfacet
facet normal -0.149255 -0.967079 -0.20611
  outer loop
    vertex 5.904038040675724 33.48346360241506 0
    vertex 11.50111545157989 30.69534935140582 9.028835559726419
    vertex -0.3525178069145631 32.00393079691743 11.47275663221042
  endloop
endfacet
facet normal 0.764892 -0.612275 -0.200146
  outer loop
    vertex -27.96968144524023 15.81879065498836 11.1113807452286
    vertex -26.04551106604516 21.85477872934245 0
    vertex -21.18284387595089 24.73835691318875 9.762214019513021
  endloop
endfacet
facet normal -0.304055 0.178482 -0.935786
  outer loop
    vertex 10.50657780874819 -2.573369376695217e-15 32.33592155403523
    vertex 14.86319174022848 -9.173785748665491 29.17065625471573
    vertex 5.121506837713905 -9.17378574867114 32.33592155403535
  endloop
endfacet
facet normal 2.39791e-15 0.996236 -0.0866881
  outer loop
    vertex 5.90403804067556 -33.48346360241509 0
    vertex -5.90403804067572 -33.48346360241506 0
    vertex -0.369849436284157 -32.66242513070846 9.435528388773184
  endloop
endfacet
facet normal 0.539677 0.741723 -0.398242
  outer loop
    vertex -22.81145151101305 -21.95104317055058 12.40118476942124
    vertex -14.86635296358045 -24.74715691176819 17.96022756945375
    vertex -18.36233230338193 -27.37808861707074 8.322560667006162
  endloop
endfacet
facet normal 0.182574 0.96446 -0.191008
  outer loop
    vertex -5.90403804067572 -33.48346360241506 0
    vertex -11.09596195932457 -30.4859049303715 10.17296558401594
    vertex -0.369849436284157 -32.66242513070846 9.435528388773184
  endloop
endfacet
facet normal 0.350211 0.111718 -0.929985
  outer loop
    vertex -12.98587550516893 2.414375484346158 31.32950411967674
    vertex -6.190939460676987 -6.173320766436816 32.85669458891007
    vertex -12.28823951190529 -9.916033168361725 30.11098563484762
  endloop
endfacet
facet normal 0.640477 0.763291 -0.0847105
  outer loop
    vertex -17.00000000000009 -29.44486372867086 0
    vertex -26.04551106604532 -21.85477872934225 0
    vertex -18.36233230338193 -27.37808861707074 8.322560667006162
  endloop
endfacet
facet normal -0.557869 -0.337716 -0.758109
  outer loop
    vertex 23.47242483933461 9.537680887120114 22.6732863841405
    vertex 14.86319174022998 9.173785748671733 29.170656254713
    vertex 16.0205004772817 16.4358657120774 25.08397661360684
  endloop
endfacet
facet normal -0.00160987 -0.392311 -0.919831
  outer loop
    vertex -5.809325226508149 10.74960102726584 31.72850166911859
    vertex 2.410942036351264 18.5694115175992 28.37894138947766
    vertex 4.640682689206514 8.995386940302817 32.45838994732068
  endloop
endfacet
facet normal 0.914228 -0.356214 -0.193129
  outer loop
    vertex -31.94954910672083 11.6286848730729 0
    vertex -27.96968144524023 15.81879065498836 11.1113807452286
    vertex -32.6115915441811 5.750303473083322 7.708314142725476
  endloop
endfacet
facet normal 0.986045 -0.0159407 -0.165713
  outer loop
    vertex -32.53068200131749 -3.837391716104743 9.112033436414125
    vertex -34 1.551541304661223e-13 0
    vertex -32.6115915441811 5.750303473083322 7.708314142725476
  endloop
endfacet
facet normal 0.86326 0.498404 -0.0798465
  outer loop
    vertex -26.04551106604532 -21.85477872934225 0
    vertex -31.94954910672093 -11.62868487307261 0
    vertex -29.01727204784038 -15.26623066763443 8.996672946384106
  endloop
endfacet
facet normal 0.328651 0.829269 -0.451997
  outer loop
    vertex -11.09596195932457 -30.4859049303715 10.17296558401594
    vertex -14.86635296358045 -24.74715691176819 17.96022756945375
    vertex -5.686004978471171 -29.25228211978575 16.36989120822932
  endloop
endfacet
facet normal 0.448211 0.112991 -0.886758
  outer loop
    vertex -19.90627213753226 -7.199018033586529 26.60666211569205
    vertex -12.98587550516893 2.414375484346158 31.32950411967674
    vertex -12.28823951190529 -9.916033168361725 30.11098563484762
  endloop
endfacet
facet normal -0.587039 -0.184756 -0.788194
  outer loop
    vertex 19.98469857794407 -4.894839429080774e-15 27.50657780874823
    vertex 14.86319174022998 9.173785748671733 29.170656254713
    vertex 23.47242483933461 9.537680887120114 22.6732863841405
  endloop
endfacet
facet normal -0.645751 0.409026 -0.64475
  outer loop
    vertex 16.71844505115242 -16.69673012427844 24.44816553912809
    vertex 22.23847085498487 -7.980238427987528 24.44925783463497
    vertex 23.89655950000812 -17.36464774483705 16.83518496364971
  endloop
endfacet
facet normal -0.705321 0.0710203 -0.705321
  outer loop
    vertex 19.98469857794407 -4.894839429080774e-15 27.50657780874823
    vertex 27.5065778087482 -6.73716849379622e-15 19.9846985779441
    vertex 22.23847085498487 -7.980238427987528 24.44925783463497
  endloop
endfacet
facet normal -0.983761 0.173464 -0.0461046
  outer loop
    vertex 34 -8.327598234202001e-15 -8.327598234202001e-15
    vertex 31.94954910672089 -11.62868487307273 0
    vertex 32.32306945881507 -7.554527781451744 7.358552219009545
  endloop
endfacet
facet normal -0.983752 -0.173462 -0.0463006
  outer loop
    vertex 31.94954910672089 11.62868487307272 0
    vertex 34 -8.327598234202001e-15 -8.327598234202001e-15
    vertex 32.28110499289131 7.804861505536861 7.281098633950588
  endloop
endfacet
facet normal -0.888304 -0.0778302 -0.452613
  outer loop
    vertex 32.33592155403522 -7.920016565725828e-15 10.5065778087482
    vertex 27.5065778087482 -6.73716849379622e-15 19.9846985779441
    vertex 29.34278811582973 8.513918415791252 14.91690245321636
  endloop
endfacet
facet normal -0.888195 0.0793726 -0.452558
  outer loop
    vertex 27.5065778087482 -6.73716849379622e-15 19.9846985779441
    vertex 32.33592155403522 -7.920016565725828e-15 10.5065778087482
    vertex 29.37862460175537 -8.585743349592839 14.80477718994976
  endloop
endfacet
facet normal -0.477542 -0.617911 -0.624611
  outer loop
    vertex 10.75477497324618 22.53431351695435 23.0768180127687
    vertex 21.21243809948638 18.47302519770431 19.0992096674297
    vertex 16.0205004772817 16.4358657120774 25.08397661360684
  endloop
endfacet
facet normal -0.477443 -0.644756 -0.59694
  outer loop
    vertex 21.21243809948638 18.47302519770431 19.0992096674297
    vertex 10.75477497324618 22.53431351695435 23.0768180127687
    vertex 14.88496471870029 26.08390414953962 15.9395034314334
  endloop
endfacet
facet normal 0.233335 0.416406 -0.878727
  outer loop
    vertex -2.027207043447905 -15.59210486759645 30.1459233960559
    vertex -12.74199672509263 -16.41475100338842 26.91091728192274
    vertex -12.28823951190529 -9.916033168361725 30.11098563484762
  endloop
endfacet
facet normal -0.985167 -0.0714031 -0.156035
  outer loop
    vertex 34 -8.327598234202001e-15 -8.327598234202001e-15
    vertex 32.33592155403522 -7.920016565725828e-15 10.5065778087482
    vertex 32.28110499289131 7.804861505536861 7.281098633950588
  endloop
endfacet
facet normal 0.758307 -0.202912 -0.619514
  outer loop
    vertex -22.78472429465755 3.651854420014192 24.9703884253222
    vertex -29.21598019635498 5.022918247924762 16.6492280133602
    vertex -23.7597908925436 12.43760150810864 20.89924413628627
  endloop
endfacet
facet normal 0.9382 0.290319 -0.188404
  outer loop
    vertex -31.94954910672093 -11.62868487307261 0
    vertex -32.53068200131749 -3.837391716104743 9.112033436414125
    vertex -29.01727204784038 -15.26623066763443 8.996672946384106
  endloop
endfacet
facet normal -0.703614 -0.0992651 -0.703614
  outer loop
    vertex 27.5065778087482 -6.73716849379622e-15 19.9846985779441
    vertex 19.98469857794407 -4.894839429080774e-15 27.50657780874823
    vertex 23.47242483933461 9.537680887120114 22.6732863841405
  endloop
endfacet
facet normal -0.985488 0.0667187 -0.156086
  outer loop
    vertex 32.33592155403522 -7.920016565725828e-15 10.5065778087482
    vertex 34 -8.327598234202001e-15 -8.327598234202001e-15
    vertex 32.32306945881507 -7.554527781451744 7.358552219009545
  endloop
endfacet
facet normal -0.0981859 0.556159 -0.825255
  outer loop
    vertex 6.782457747749095 -22.99457739442521 24.10907873295426
    vertex -2.027207043447905 -15.59210486759645 30.1459233960559
    vertex 9.208734066318744 -15.850620057683 28.63489236373691
  endloop
endfacet
facet normal 0.269604 0.758722 -0.593005
  outer loop
    vertex -14.86635296358045 -24.74715691176819 17.96022756945375
    vertex -4.3609249609577 -24.02754973358072 23.65711705354652
    vertex -5.686004978471171 -29.25228211978575 16.36989120822932
  endloop
endfacet
facet normal 0.557549 -0.472898 -0.68228
  outer loop
    vertex -17.78287179690622 21.32058170297795 19.62657042127939
    vertex -15.81467980541832 12.37032879310111 27.43849245499227
    vertex -23.7597908925436 12.43760150810864 20.89924413628627
  endloop
endfacet
facet normal 0.197067 0.350617 -0.91555
  outer loop
    vertex -6.190939460676987 -6.173320766436816 32.85669458891007
    vertex -2.027207043447905 -15.59210486759645 30.1459233960559
    vertex -12.28823951190529 -9.916033168361725 30.11098563484762
  endloop
endfacet
facet normal 0.032833 0.289806 -0.956522
  outer loop
    vertex 5.121506837713905 -9.17378574867114 32.33592155403535
    vertex -2.027207043447905 -15.59210486759645 30.1459233960559
    vertex -6.190939460676987 -6.173320766436816 32.85669458891007
  endloop
endfacet
facet normal 0.35518 -0.67027 -0.651602
  outer loop
    vertex -8.026465760563404 20.01959532097329 26.2829155646585
    vertex -17.78287179690622 21.32058170297795 19.62657042127939
    vertex -8.347262080973497 26.93749373418023 18.99196269669206
  endloop
endfacet
facet normal -0.11068 0.429146 -0.896428
  outer loop
    vertex -2.027207043447905 -15.59210486759645 30.1459233960559
    vertex 5.121506837713905 -9.17378574867114 32.33592155403535
    vertex 9.208734066318744 -15.850620057683 28.63489236373691
  endloop
endfacet
facet normal -0.344486 0.583103 -0.735745
  outer loop
    vertex 6.782457747749095 -22.99457739442521 24.10907873295426
    vertex 9.208734066318744 -15.850620057683 28.63489236373691
    vertex 16.71844505115242 -16.69673012427844 24.44816553912809
  endloop
endfacet
facet normal -0.796177 -0.173346 -0.579701
  outer loop
    vertex 27.5065778087482 -6.73716849379622e-15 19.9846985779441
    vertex 23.47242483933461 9.537680887120114 22.6732863841405
    vertex 29.34278811582973 8.513918415791252 14.91690245321636
  endloop
endfacet
facet normal -0.594364 -0.675382 -0.436567
  outer loop
    vertex 21.0529852724391 25.12708690801165 9.022267710265083
    vertex 21.21243809948638 18.47302519770431 19.0992096674297
    vertex 14.88496471870029 26.08390414953962 15.9395034314334
  endloop
endfacet
facet normal -0.919164 0.362501 -0.154046
  outer loop
    vertex 31.94954910672089 -11.62868487307273 0
    vertex 28.86033883182983 -15.89714981595278 8.388174428391892
    vertex 32.32306945881507 -7.554527781451744 7.358552219009545
  endloop
endfacet
facet normal 0.0516919 0.807139 -0.588095
  outer loop
    vertex -4.3609249609577 -24.02754973358072 23.65711705354652
    vertex 3.625452522901572 -28.28085387176186 18.52159275786613
    vertex -5.686004978471171 -29.25228211978575 16.36989120822932
  endloop
endfacet
facet normal 0.983683 -0.17345 -0.0477879
  outer loop
    vertex -34 1.551541304661223e-13 0
    vertex -31.94954910672083 11.6286848730729 0
    vertex -32.6115915441811 5.750303473083322 7.708314142725476
  endloop
endfacet
facet normal -0.912622 -0.377566 -0.156729
  outer loop
    vertex 28.45273368285268 16.52685790180318 8.561828885598336
    vertex 31.94954910672089 11.62868487307272 0
    vertex 32.28110499289131 7.804861505536861 7.281098633950588
  endloop
endfacet
facet normal -0.171872 -0.925244 -0.338205
  outer loop
    vertex -0.3525178069145631 32.00393079691743 11.47275663221042
    vertex 11.50111545157989 30.69534935140582 9.028835559726419
    vertex 7.22962216397365 28.62602466590486 16.86070209668587
  endloop
endfacet
facet normal 0.609274 -0.276723 -0.743108
  outer loop
    vertex -15.81467980541832 12.37032879310111 27.43849245499227
    vertex -22.78472429465755 3.651854420014192 24.9703884253222
    vertex -23.7597908925436 12.43760150810864 20.89924413628627
  endloop
endfacet
facet normal 0.00711675 0.899487 -0.436889
  outer loop
    vertex 3.625452522901572 -28.28085387176186 18.52159275786613
    vertex -0.369849436284157 -32.66242513070846 9.435528388773184
    vertex -5.686004978471171 -29.25228211978575 16.36989120822932
  endloop
endfacet
facet normal -0.550406 0.15859 -0.819697
  outer loop
    vertex 14.86319174022848 -9.173785748665491 29.17065625471573
    vertex 19.98469857794407 -4.894839429080774e-15 27.50657780874823
    vertex 22.23847085498487 -7.980238427987528 24.44925783463497
  endloop
endfacet
facet normal 0.0023983 0.179778 -0.983704
  outer loop
    vertex 2.0818995585505e-15 -5.099183261050315e-31 34
    vertex 5.121506837713905 -9.17378574867114 32.33592155403535
    vertex -6.190939460676987 -6.173320766436816 32.85669458891007
  endloop
endfacet
facet normal -0.215557 -0.588458 -0.779264
  outer loop
    vertex 2.410942036351264 18.5694115175992 28.37894138947766
    vertex 10.75477497324618 22.53431351695435 23.0768180127687
    vertex 9.68646195732933 15.57082202668924 28.63078685894576
  endloop
endfacet
facet normal 0.492405 0.356581 -0.793969
  outer loop
    vertex -12.74199672509263 -16.41475100338842 26.91091728192274
    vertex -19.90627213753226 -7.199018033586529 26.60666211569205
    vertex -12.28823951190529 -9.916033168361725 30.11098563484762
  endloop
endfacet
facet normal 0.154541 -0.713303 -0.683605
  outer loop
    vertex 0.2843190157120821 25.89500743857959 22.03106335275745
    vertex -8.026465760563404 20.01959532097329 26.2829155646585
    vertex -8.347262080973497 26.93749373418023 18.99196269669206
  endloop
endfacet
facet normal 0.421297 0.893919 -0.153028
  outer loop
    vertex -11.09596195932457 -30.4859049303715 10.17296558401594
    vertex -17.00000000000009 -29.44486372867086 0
    vertex -18.36233230338193 -27.37808861707074 8.322560667006162
  endloop
endfacet
facet normal -0.177682 -0.751342 -0.635542
  outer loop
    vertex 10.75477497324618 22.53431351695435 23.0768180127687
    vertex 0.2843190157120821 25.89500743857959 22.03106335275745
    vertex 7.22962216397365 28.62602466590486 16.86070209668587
  endloop
endfacet
facet normal 0.165904 0.929345 -0.32984
  outer loop
    vertex -0.369849436284157 -32.66242513070846 9.435528388773184
    vertex -11.09596195932457 -30.4859049303715 10.17296558401594
    vertex -5.686004978471171 -29.25228211978575 16.36989120822932
  endloop
endfacet
facet normal -0.478453 -0.820376 -0.313154
  outer loop
    vertex 11.50111545157989 30.69534935140582 9.028835559726419
    vertex 21.0529852724391 25.12708690801165 9.022267710265083
    vertex 14.88496471870029 26.08390414953962 15.9395034314334
  endloop
endfacet
facet normal -0.286377 -0.308306 -0.907158
  outer loop
    vertex 14.86319174022998 9.173785748671733 29.170656254713
    vertex 4.640682689206514 8.995386940302817 32.45838994732068
    vertex 9.68646195732933 15.57082202668924 28.63078685894576
  endloop
endfacet
facet normal -0.292746 0.320216 -0.900978
  outer loop
    vertex 5.121506837713905 -9.17378574867114 32.33592155403535
    vertex 14.86319174022848 -9.173785748665491 29.17065625471573
    vertex 9.208734066318744 -15.850620057683 28.63489236373691
  endloop
endfacet
facet normal -0.814249 0.414453 -0.40648
  outer loop
    vertex 28.86033883182983 -15.89714981595278 8.388174428391892
    vertex 23.89655950000812 -17.36464774483705 16.83518496364971
    vertex 29.37862460175537 -8.585743349592839 14.80477718994976
  endloop
endfacet
facet normal -0.891909 0.332353 -0.306659
  outer loop
    vertex 28.86033883182983 -15.89714981595278 8.388174428391892
    vertex 29.37862460175537 -8.585743349592839 14.80477718994976
    vertex 32.32306945881507 -7.554527781451744 7.358552219009545
  endloop
endfacet
facet normal -0.544996 0.345234 -0.764063
  outer loop
    vertex 14.86319174022848 -9.173785748665491 29.17065625471573
    vertex 22.23847085498487 -7.980238427987528 24.44925783463497
    vertex 16.71844505115242 -16.69673012427844 24.44816553912809
  endloop
endfacet
facet normal -0.886663 -0.343772 -0.309272
  outer loop
    vertex 29.34278811582973 8.513918415791252 14.91690245321636
    vertex 28.45273368285268 16.52685790180318 8.561828885598336
    vertex 32.28110499289131 7.804861505536861 7.281098633950588
  endloop
endfacet
facet normal -0.927501 -0.148321 -0.343137
  outer loop
    vertex 32.33592155403522 -7.920016565725828e-15 10.5065778087482
    vertex 29.34278811582973 8.513918415791252 14.91690245321636
    vertex 32.28110499289131 7.804861505536861 7.281098633950588
  endloop
endfacet
facet normal -0.926731 0.145864 -0.346255
  outer loop
    vertex 29.37862460175537 -8.585743349592839 14.80477718994976
    vertex 32.33592155403522 -7.920016565725828e-15 10.5065778087482
    vertex 32.32306945881507 -7.554527781451744 7.358552219009545
  endloop
endfacet
facet normal -0.320579 -0.761018 -0.563987
  outer loop
    vertex 14.88496471870029 26.08390414953962 15.9395034314334
    vertex 10.75477497324618 22.53431351695435 23.0768180127687
    vertex 7.22962216397365 28.62602466590486 16.86070209668587
  endloop
endfacet
facet normal -0.349182 -0.550968 -0.757962
  outer loop
    vertex 10.75477497324618 22.53431351695435 23.0768180127687
    vertex 16.0205004772817 16.4358657120774 25.08397661360684
    vertex 9.68646195732933 15.57082202668924 28.63078685894576
  endloop
endfacet
facet normal -0.140169 -0.415574 -0.898694
  outer loop
    vertex 4.640682689206514 8.995386940302817 32.45838994732068
    vertex 2.410942036351264 18.5694115175992 28.37894138947766
    vertex 9.68646195732933 15.57082202668924 28.63078685894576
  endloop
endfacet
facet normal -0.331643 -0.851624 -0.405893
  outer loop
    vertex 11.50111545157989 30.69534935140582 9.028835559726419
    vertex 14.88496471870029 26.08390414953962 15.9395034314334
    vertex 7.22962216397365 28.62602466590486 16.86070209668587
  endloop
endfacet
facet normal -0.408137 0.411051 -0.815145
  outer loop
    vertex 9.208734066318744 -15.850620057683 28.63489236373691
    vertex 14.86319174022848 -9.173785748665491 29.17065625471573
    vertex 16.71844505115242 -16.69673012427844 24.44816553912809
  endloop
endfacet
facet normal -0.406195 -0.398122 -0.822499
  outer loop
    vertex 16.0205004772817 16.4358657120774 25.08397661360684
    vertex 14.86319174022998 9.173785748671733 29.170656254713
    vertex 9.68646195732933 15.57082202668924 28.63078685894576
  endloop
endfacet
facet normal 0.135026 -0.0689408 -0.988441
  outer loop
    vertex -12.98587550516893 2.414375484346158 31.32950411967674
    vertex -5.809325226508149 10.74960102726584 31.72850166911859
    vertex -6.190939460676987 -6.173320766436816 32.85669458891007
  endloop
endfacet
endsolid Created by Gmsh
