solid Created by Gmsh
facet normal -1 0 0
  outer loop
    vertex 0 20.0000000000001 0
    vertex 0 10.00000000000005 0
    vertex 0 15.00000000000003 4
  endloop
endfacet
facet normal -1 0 0
  outer loop
    vertex 0 49.99999999999995 8
    vertex 0 60 8
    vertex 0 54.99999999999999 4
  endloop
endfacet
facet normal -1 0 0
  outer loop
    vertex 0 10.00000000000005 0
    vertex 0 0 0
    vertex 0 5.000000000000007 4
  endloop
endfacet
facet normal -1 0 0
  outer loop
    vertex 0 39.9999999999999 8
    vertex 0 49.99999999999995 8
    vertex 0 45 3.999999999999967
  endloop
endfacet
facet normal -1 0 0
  outer loop
    vertex 0 50.00000000000001 0
    vertex 0 40.00000000000001 0
    vertex 0 45 3.999999999999967
  endloop
endfacet
facet normal -1 0 0
  outer loop
    vertex 0 40.00000000000001 0
    vertex 0 30.00000000000006 0
    vertex 0 34.99999999999998 4
  endloop
endfacet
facet normal -1 0 0
  outer loop
    vertex 0 30.00000000000006 0
    vertex 0 20.0000000000001 0
    vertex 0 25.00000000000002 4
  endloop
endfacet
facet normal -1 0 0
  outer loop
    vertex 0 9.999999999999982 8
    vertex 0 19.99999999999999 8
    vertex 0 15.00000000000003 4
  endloop
endfacet
facet normal -1 0 0
  outer loop
    vertex 0 60 0
    vertex 0 50.00000000000001 0
    vertex 0 54.99999999999999 4
  endloop
endfacet
facet normal -1 0 0
  outer loop
    vertex 0 0 8
    vertex 0 9.999999999999982 8
    vertex 0 5.000000000000007 4
  endloop
endfacet
facet normal -1 0 0
  outer loop
    vertex 0 19.99999999999999 8
    vertex 0 29.99999999999994 8
    vertex 0 25.00000000000002 4
  endloop
endfacet
facet normal -1 0 0
  outer loop
    vertex 0 29.99999999999994 8
    vertex 0 39.9999999999999 8
    vertex 0 34.99999999999998 4
  endloop
endfacet
facet normal -1 0 0
  outer loop
    vertex 0 40.00000000000001 0
    vertex 0 39.9999999999999 8
    vertex 0 45 3.999999999999967
  endloop
endfacet
facet normal -1 0 0
  outer loop
    vertex 0 10.00000000000005 0
    vertex 0 9.999999999999982 8
    vertex 0 15.00000000000003 4
  endloop
endfacet
facet normal -1 0 0
  outer loop
    vertex 0 30.00000000000006 0
    vertex 0 29.99999999999994 8
    vertex 0 34.99999999999998 4
  endloop
endfacet
facet normal -1 0 0
  outer loop
    vertex 0 20.0000000000001 0
    vertex 0 19.99999999999999 8
    vertex 0 25.00000000000002 4
  endloop
endfacet
facet normal -1 0 0
  outer loop
    vertex 0 0 0
    vertex 0 0 8
    vertex 0 5.000000000000007 4
  endloop
endfacet
facet normal -1 0 -0
  outer loop
    vertex 0 60 8
    vertex 0 60 0
    vertex 0 54.99999999999999 4
  endloop
endfacet
facet normal -1 0 0
  outer loop
    vertex 0 50.00000000000001 0
    vertex 0 49.99999999999995 8
    vertex 0 54.99999999999999 4
  endloop
endfacet
facet normal -1 0 -0
  outer loop
    vertex 0 9.999999999999982 8
    vertex 0 10.00000000000005 0
    vertex 0 5.000000000000007 4
  endloop
endfacet
facet normal -1 0 -0
  outer loop
    vertex 0 49.99999999999995 8
    vertex 0 50.00000000000001 0
    vertex 0 45 3.999999999999967
  endloop
endfacet
facet normal -1 0 -0
  outer loop
    vertex 0 19.99999999999999 8
    vertex 0 20.0000000000001 0
    vertex 0 15.00000000000003 4
  endloop
endfacet
facet normal -1 0 -0
  outer loop
    vertex 0 39.9999999999999 8
    vertex 0 40.00000000000001 0
    vertex 0 34.99999999999998 4
  endloop
endfacet
facet normal -1 0 -0
  outer loop
    vertex 0 29.99999999999994 8
    vertex 0 30.00000000000006 0
    vertex 0 25.00000000000002 4
  endloop
endfacet
facet normal -0 -1 0
  outer loop
    vertex 80 0 8
    vertex 69.99999999999997 0 8
    vertex 75 0 4
  endloop
endfacet
facet normal 0 -1 0
  outer loop
    vertex 0 0 0
    vertex 10.00000000000002 0 0
    vertex 5.000000000000002 0 4
  endloop
endfacet
facet normal -0 -1 0
  outer loop
    vertex 69.99999999999997 0 8
    vertex 59.99999999999995 0 8
    vertex 64.99999999999999 0 4
  endloop
endfacet
facet normal 0 -1 0
  outer loop
    vertex 50.00000000000003 0 0
    vertex 60.00000000000002 0 0
    vertex 54.99999999999999 0 4
  endloop
endfacet
facet normal -0 -1 0
  outer loop
    vertex 39.99999999999997 0 8
    vertex 29.99999999999997 0 8
    vertex 35 0 4
  endloop
endfacet
facet normal 0 -1 0
  outer loop
    vertex 10.00000000000002 0 0
    vertex 20.00000000000005 0 0
    vertex 14.99999999999998 0 4.000000000000023
  endloop
endfacet
facet normal 0 -1 0
  outer loop
    vertex 40.00000000000003 0 0
    vertex 50.00000000000003 0 0
    vertex 45 0 4
  endloop
endfacet
facet normal 0 -1 0
  outer loop
    vertex 20.00000000000005 0 0
    vertex 30.00000000000004 0 0
    vertex 25.00000000000001 0 4
  endloop
endfacet
facet normal -0 -1 0
  outer loop
    vertex 19.99999999999998 0 8
    vertex 9.999999999999986 0 8
    vertex 14.99999999999998 0 4.000000000000023
  endloop
endfacet
facet normal 0 -1 0
  outer loop
    vertex 60.00000000000002 0 0
    vertex 70.00000000000001 0 0
    vertex 64.99999999999999 0 4
  endloop
endfacet
facet normal -0 -1 0
  outer loop
    vertex 9.999999999999986 0 8
    vertex 0 0 8
    vertex 5.000000000000002 0 4
  endloop
endfacet
facet normal 0 -1 0
  outer loop
    vertex 30.00000000000004 0 0
    vertex 40.00000000000003 0 0
    vertex 35 0 4
  endloop
endfacet
facet normal -0 -1 0
  outer loop
    vertex 49.99999999999996 0 8
    vertex 39.99999999999997 0 8
    vertex 45 0 4
  endloop
endfacet
facet normal -0 -1 0
  outer loop
    vertex 29.99999999999997 0 8
    vertex 19.99999999999998 0 8
    vertex 25.00000000000001 0 4
  endloop
endfacet
facet normal -0 -1 0
  outer loop
    vertex 59.99999999999995 0 8
    vertex 49.99999999999996 0 8
    vertex 54.99999999999999 0 4
  endloop
endfacet
facet normal 0 -1 0
  outer loop
    vertex 70.00000000000001 0 0
    vertex 80 0 0
    vertex 75 0 4
  endloop
endfacet
facet normal 0 -1 0
  outer loop
    vertex 49.99999999999996 0 8
    vertex 50.00000000000003 0 0
    vertex 54.99999999999999 0 4
  endloop
endfacet
facet normal 0 -1 0
  outer loop
    vertex 20.00000000000005 0 0
    vertex 19.99999999999998 0 8
    vertex 14.99999999999998 0 4.000000000000023
  endloop
endfacet
facet normal 0 -1 0
  outer loop
    vertex 19.99999999999998 0 8
    vertex 20.00000000000005 0 0
    vertex 25.00000000000001 0 4
  endloop
endfacet
facet normal 0 -1 0
  outer loop
    vertex 40.00000000000003 0 0
    vertex 39.99999999999997 0 8
    vertex 35 0 4
  endloop
endfacet
facet normal 0 -1 0
  outer loop
    vertex 39.99999999999997 0 8
    vertex 40.00000000000003 0 0
    vertex 45 0 4
  endloop
endfacet
facet normal 0 -1 0
  outer loop
    vertex 80 0 0
    vertex 80 0 8
    vertex 75 0 4
  endloop
endfacet
facet normal 0 -1 0
  outer loop
    vertex 59.99999999999995 0 8
    vertex 60.00000000000002 0 0
    vertex 64.99999999999999 0 4
  endloop
endfacet
facet normal 0 -1 0
  outer loop
    vertex 0 0 8
    vertex 0 0 0
    vertex 5.000000000000002 0 4
  endloop
endfacet
facet normal 0 -1 0
  outer loop
    vertex 10.00000000000002 0 0
    vertex 9.999999999999986 0 8
    vertex 5.000000000000002 0 4
  endloop
endfacet
facet normal 0 -1 0
  outer loop
    vertex 69.99999999999997 0 8
    vertex 70.00000000000001 0 0
    vertex 75 0 4
  endloop
endfacet
facet normal 0 -1 0
  outer loop
    vertex 9.999999999999986 0 8
    vertex 10.00000000000002 0 0
    vertex 14.99999999999998 0 4.000000000000023
  endloop
endfacet
facet normal 0 -1 0
  outer loop
    vertex 70.00000000000001 0 0
    vertex 69.99999999999997 0 8
    vertex 64.99999999999999 0 4
  endloop
endfacet
facet normal 0 -1 0
  outer loop
    vertex 29.99999999999997 0 8
    vertex 30.00000000000004 0 0
    vertex 35 0 4
  endloop
endfacet
facet normal 0 -1 0
  outer loop
    vertex 50.00000000000003 0 0
    vertex 49.99999999999996 0 8
    vertex 45 0 4
  endloop
endfacet
facet normal 0 -1 0
  outer loop
    vertex 30.00000000000004 0 0
    vertex 29.99999999999997 0 8
    vertex 25.00000000000001 0 4
  endloop
endfacet
facet normal 0 -1 0
  outer loop
    vertex 60.00000000000002 0 0
    vertex 59.99999999999995 0 8
    vertex 54.99999999999999 0 4
  endloop
endfacet
facet normal -0 0 1
  outer loop
    vertex 8 10 8
    vertex 9.999999999999986 0 8
    vertex 16.99999999999998 10 8
  endloop
endfacet
facet normal -0 0 1
  outer loop
    vertex 61.99999999999993 10 8
    vertex 69.99999999999997 0 8
    vertex 70.99999999999996 10 8
  endloop
endfacet
facet normal 0 0 1
  outer loop
    vertex 61.99999999999993 10 8
    vertex 59.99999999999995 0 8
    vertex 69.99999999999997 0 8
  endloop
endfacet
facet normal -0 0 1
  outer loop
    vertex 52.99999999999989 10 8
    vertex 59.99999999999995 0 8
    vertex 61.99999999999993 10 8
  endloop
endfacet
facet normal 0 0 1
  outer loop
    vertex 52.99999999999989 10 8
    vertex 49.99999999999996 0 8
    vertex 59.99999999999995 0 8
  endloop
endfacet
facet normal 0 0 1
  outer loop
    vertex 9.999999999999986 0 8
    vertex 19.99999999999998 0 8
    vertex 16.99999999999998 10 8
  endloop
endfacet
facet normal -0 0 1
  outer loop
    vertex 43.99999999999989 10 8
    vertex 49.99999999999996 0 8
    vertex 52.99999999999989 10 8
  endloop
endfacet
facet normal -0 0 1
  outer loop
    vertex 16.99999999999998 10 8
    vertex 19.99999999999998 0 8
    vertex 25.99999999999995 10 8
  endloop
endfacet
facet normal 0 0 1
  outer loop
    vertex 43.99999999999989 10 8
    vertex 39.99999999999997 0 8
    vertex 49.99999999999996 0 8
  endloop
endfacet
facet normal 0 0 1
  outer loop
    vertex 19.99999999999998 0 8
    vertex 29.99999999999997 0 8
    vertex 25.99999999999995 10 8
  endloop
endfacet
facet normal 0 0 1
  outer loop
    vertex 34.99999999999992 10 8
    vertex 29.99999999999997 0 8
    vertex 39.99999999999997 0 8
  endloop
endfacet
facet normal -0 0 1
  outer loop
    vertex 34.99999999999992 10 8
    vertex 39.99999999999997 0 8
    vertex 43.99999999999989 10 8
  endloop
endfacet
facet normal -0 0 1
  outer loop
    vertex 25.99999999999995 10 8
    vertex 29.99999999999997 0 8
    vertex 34.99999999999992 10 8
  endloop
endfacet
facet normal 0 0 1
  outer loop
    vertex 0 49.99999999999995 8
    vertex 4 54.99999999999999 8
    vertex 0 60 8
  endloop
endfacet
facet normal 0 0 1
  outer loop
    vertex 0 39.9999999999999 8
    vertex 4.000000000000017 44.99999999999996 8
    vertex 0 49.99999999999995 8
  endloop
endfacet
facet normal 0 0 1
  outer loop
    vertex 8 49.99999999999999 8
    vertex 4.000000000000017 44.99999999999996 8
    vertex 8 39.99999999999996 8
  endloop
endfacet
facet normal 0 0 1
  outer loop
    vertex 8 39.99999999999996 8
    vertex 4 34.99999999999994 8
    vertex 8 29.99999999999995 8
  endloop
endfacet
facet normal 0 0 1
  outer loop
    vertex 0 9.999999999999982 8
    vertex 4 14.99999999999999 8
    vertex 0 19.99999999999999 8
  endloop
endfacet
facet normal 0 0 1
  outer loop
    vertex 8 60 8
    vertex 4 54.99999999999999 8
    vertex 8 49.99999999999999 8
  endloop
endfacet
facet normal 0 0 1
  outer loop
    vertex 8 19.99999999999999 8
    vertex 4 14.99999999999999 8
    vertex 8 10 8
  endloop
endfacet
facet normal 0 0 1
  outer loop
    vertex 8 29.99999999999995 8
    vertex 3.999999999999999 24.99999999999996 8
    vertex 8 19.99999999999999 8
  endloop
endfacet
facet normal 0 0 1
  outer loop
    vertex 0 29.99999999999994 8
    vertex 4 34.99999999999994 8
    vertex 0 39.9999999999999 8
  endloop
endfacet
facet normal 0 0 1
  outer loop
    vertex 0 19.99999999999999 8
    vertex 3.999999999999999 24.99999999999996 8
    vertex 0 29.99999999999994 8
  endloop
endfacet
facet normal 0 0 1
  outer loop
    vertex 0 0 8
    vertex 4.000000000000011 4.999999999999991 8
    vertex 0 9.999999999999982 8
  endloop
endfacet
facet normal 0 0 1
  outer loop
    vertex 8 10 8
    vertex 4.000000000000011 4.999999999999991 8
    vertex 9.999999999999986 0 8
  endloop
endfacet
facet normal 0 0 1
  outer loop
    vertex 80 10 8
    vertex 75.49999999999999 5.00000000000001 8
    vertex 80 0 8
  endloop
endfacet
facet normal 0 0 1
  outer loop
    vertex 69.99999999999997 0 8
    vertex 75.49999999999999 5.00000000000001 8
    vertex 70.99999999999996 10 8
  endloop
endfacet
facet normal 0 0 1
  outer loop
    vertex 9.999999999999986 0 8
    vertex 4.000000000000011 4.999999999999991 8
    vertex 0 0 8
  endloop
endfacet
facet normal 0 0 1
  outer loop
    vertex 8 39.99999999999996 8
    vertex 4.000000000000017 44.99999999999996 8
    vertex 0 39.9999999999999 8
  endloop
endfacet
facet normal -0 0 1
  outer loop
    vertex 0 60 8
    vertex 4 54.99999999999999 8
    vertex 8 60 8
  endloop
endfacet
facet normal -0 0 1
  outer loop
    vertex 0 39.9999999999999 8
    vertex 4 34.99999999999994 8
    vertex 8 39.99999999999996 8
  endloop
endfacet
facet normal 0 0 1
  outer loop
    vertex 8 49.99999999999999 8
    vertex 4 54.99999999999999 8
    vertex 0 49.99999999999995 8
  endloop
endfacet
facet normal -0 0 1
  outer loop
    vertex 0 19.99999999999999 8
    vertex 4 14.99999999999999 8
    vertex 8 19.99999999999999 8
  endloop
endfacet
facet normal -0 0 1
  outer loop
    vertex 0 49.99999999999995 8
    vertex 4.000000000000017 44.99999999999996 8
    vertex 8 49.99999999999999 8
  endloop
endfacet
facet normal 0 0 1
  outer loop
    vertex 8 10 8
    vertex 4 14.99999999999999 8
    vertex 0 9.999999999999982 8
  endloop
endfacet
facet normal -0 0 1
  outer loop
    vertex 0 29.99999999999994 8
    vertex 3.999999999999999 24.99999999999996 8
    vertex 8 29.99999999999995 8
  endloop
endfacet
facet normal 0 0 1
  outer loop
    vertex 8 19.99999999999999 8
    vertex 3.999999999999999 24.99999999999996 8
    vertex 0 19.99999999999999 8
  endloop
endfacet
facet normal 0 0 1
  outer loop
    vertex 8 29.99999999999995 8
    vertex 4 34.99999999999994 8
    vertex 0 29.99999999999994 8
  endloop
endfacet
facet normal 0 0 1
  outer loop
    vertex 80 0 8
    vertex 75.49999999999999 5.00000000000001 8
    vertex 69.99999999999997 0 8
  endloop
endfacet
facet normal -0 0 1
  outer loop
    vertex 70.99999999999996 10 8
    vertex 75.49999999999999 5.00000000000001 8
    vertex 80 10 8
  endloop
endfacet
facet normal -0 0 1
  outer loop
    vertex 0 9.999999999999982 8
    vertex 4.000000000000011 4.999999999999991 8
    vertex 8 10 8
  endloop
endfacet
facet normal 0 0 -1
  outer loop
    vertex 10.00000000000002 0 0
    vertex 8 10 0
    vertex 16.99999999999998 10 0
  endloop
endfacet
facet normal 0 0 -1
  outer loop
    vertex 61.99999999999993 10 0
    vertex 70.99999999999996 10 0
    vertex 70.00000000000001 0 0
  endloop
endfacet
facet normal 0 0 -1
  outer loop
    vertex 60.00000000000002 0 0
    vertex 61.99999999999993 10 0
    vertex 70.00000000000001 0 0
  endloop
endfacet
facet normal 0 0 -1
  outer loop
    vertex 52.99999999999989 10 0
    vertex 61.99999999999993 10 0
    vertex 60.00000000000002 0 0
  endloop
endfacet
facet normal 0 0 -1
  outer loop
    vertex 50.00000000000003 0 0
    vertex 52.99999999999989 10 0
    vertex 60.00000000000002 0 0
  endloop
endfacet
facet normal 0 0 -1
  outer loop
    vertex 20.00000000000005 0 0
    vertex 10.00000000000002 0 0
    vertex 16.99999999999998 10 0
  endloop
endfacet
facet normal 0 0 -1
  outer loop
    vertex 50.00000000000003 0 0
    vertex 43.99999999999989 10 0
    vertex 52.99999999999989 10 0
  endloop
endfacet
facet normal -0 0 -1
  outer loop
    vertex 25.99999999999995 10 0
    vertex 20.00000000000005 0 0
    vertex 16.99999999999998 10 0
  endloop
endfacet
facet normal 0 -0 -1
  outer loop
    vertex 43.99999999999989 10 0
    vertex 50.00000000000003 0 0
    vertex 40.00000000000003 0 0
  endloop
endfacet
facet normal 0 0 -1
  outer loop
    vertex 20.00000000000005 0 0
    vertex 25.99999999999995 10 0
    vertex 30.00000000000004 0 0
  endloop
endfacet
facet normal 0 0 -1
  outer loop
    vertex 30.00000000000004 0 0
    vertex 34.99999999999992 10 0
    vertex 40.00000000000003 0 0
  endloop
endfacet
facet normal 0 0 -1
  outer loop
    vertex 34.99999999999992 10 0
    vertex 43.99999999999989 10 0
    vertex 40.00000000000003 0 0
  endloop
endfacet
facet normal 0 0 -1
  outer loop
    vertex 25.99999999999995 10 0
    vertex 34.99999999999992 10 0
    vertex 30.00000000000004 0 0
  endloop
endfacet
facet normal 0 0 -1
  outer loop
    vertex 0 10.00000000000005 0
    vertex 0 20.0000000000001 0
    vertex 4.000000000000023 15.00000000000001 0
  endloop
endfacet
facet normal 0 -0 -1
  outer loop
    vertex 8 49.99999999999999 0
    vertex 8 39.99999999999996 0
    vertex 3.999999999999993 45 0
  endloop
endfacet
facet normal 0 -0 -1
  outer loop
    vertex 8 60 0
    vertex 8 49.99999999999999 0
    vertex 4 54.99999999999999 0
  endloop
endfacet
facet normal 0 0 -1
  outer loop
    vertex 0 40.00000000000001 0
    vertex 0 50.00000000000001 0
    vertex 3.999999999999993 45 0
  endloop
endfacet
facet normal 0 -0 -1
  outer loop
    vertex 8 19.99999999999999 0
    vertex 8 10 0
    vertex 4.000000000000023 15.00000000000001 0
  endloop
endfacet
facet normal 0 -0 -1
  outer loop
    vertex 8 39.99999999999996 0
    vertex 8 29.99999999999995 0
    vertex 3.999999999999993 35.00000000000001 0
  endloop
endfacet
facet normal 0 0 -1
  outer loop
    vertex 0 50.00000000000001 0
    vertex 0 60 0
    vertex 4 54.99999999999999 0
  endloop
endfacet
facet normal 0 0 -1
  outer loop
    vertex 0 20.0000000000001 0
    vertex 0 30.00000000000006 0
    vertex 4 25.00000000000002 0
  endloop
endfacet
facet normal 0 0 -1
  outer loop
    vertex 0 30.00000000000006 0
    vertex 0 40.00000000000001 0
    vertex 3.999999999999993 35.00000000000001 0
  endloop
endfacet
facet normal 0 -0 -1
  outer loop
    vertex 8 29.99999999999995 0
    vertex 8 19.99999999999999 0
    vertex 4 25.00000000000002 0
  endloop
endfacet
facet normal 0 0 -1
  outer loop
    vertex 0 0 0
    vertex 0 10.00000000000005 0
    vertex 3.999999999999969 5.000000000000025 0
  endloop
endfacet
facet normal 0 -0 -1
  outer loop
    vertex 8 10 0
    vertex 10.00000000000002 0 0
    vertex 3.999999999999969 5.000000000000025 0
  endloop
endfacet
facet normal 0 -0 -1
  outer loop
    vertex 80 10 0
    vertex 80 0 0
    vertex 75.49999999999999 5 0
  endloop
endfacet
facet normal 0 0 -1
  outer loop
    vertex 70.00000000000001 0 0
    vertex 70.99999999999996 10 0
    vertex 75.49999999999999 5 0
  endloop
endfacet
facet normal 0 0 -1
  outer loop
    vertex 10.00000000000002 0 0
    vertex 0 0 0
    vertex 3.999999999999969 5.000000000000025 0
  endloop
endfacet
facet normal 0 0 -1
  outer loop
    vertex 0 20.0000000000001 0
    vertex 8 19.99999999999999 0
    vertex 4.000000000000023 15.00000000000001 0
  endloop
endfacet
facet normal 0 0 -1
  outer loop
    vertex 8 29.99999999999995 0
    vertex 0 30.00000000000006 0
    vertex 3.999999999999993 35.00000000000001 0
  endloop
endfacet
facet normal 0 0 -1
  outer loop
    vertex 8 19.99999999999999 0
    vertex 0 20.0000000000001 0
    vertex 4 25.00000000000002 0
  endloop
endfacet
facet normal 0 0 -1
  outer loop
    vertex 8 39.99999999999996 0
    vertex 0 40.00000000000001 0
    vertex 3.999999999999993 45 0
  endloop
endfacet
facet normal 0 0 -1
  outer loop
    vertex 8 49.99999999999999 0
    vertex 0 50.00000000000001 0
    vertex 4 54.99999999999999 0
  endloop
endfacet
facet normal 0 0 -1
  outer loop
    vertex 0 60 0
    vertex 8 60 0
    vertex 4 54.99999999999999 0
  endloop
endfacet
facet normal 0 0 -1
  outer loop
    vertex 0 50.00000000000001 0
    vertex 8 49.99999999999999 0
    vertex 3.999999999999993 45 0
  endloop
endfacet
facet normal 0 0 -1
  outer loop
    vertex 8 10 0
    vertex 0 10.00000000000005 0
    vertex 4.000000000000023 15.00000000000001 0
  endloop
endfacet
facet normal 0 0 -1
  outer loop
    vertex 0 40.00000000000001 0
    vertex 8 39.99999999999996 0
    vertex 3.999999999999993 35.00000000000001 0
  endloop
endfacet
facet normal 0 0 -1
  outer loop
    vertex 0 30.00000000000006 0
    vertex 8 29.99999999999995 0
    vertex 4 25.00000000000002 0
  endloop
endfacet
facet normal 0 0 -1
  outer loop
    vertex 80 0 0
    vertex 70.00000000000001 0 0
    vertex 75.49999999999999 5 0
  endloop
endfacet
facet normal 0 0 -1
  outer loop
    vertex 70.99999999999996 10 0
    vertex 80 10 0
    vertex 75.49999999999999 5 0
  endloop
endfacet
facet normal 0 0 -1
  outer loop
    vertex 0 10.00000000000005 0
    vertex 8 10 0
    vertex 3.999999999999969 5.000000000000025 0
  endloop
endfacet
facet normal 0 1 0
  outer loop
    vertex 0 60 8
    vertex 4 60 4
    vertex 0 60 0
  endloop
endfacet
facet normal 0 1 0
  outer loop
    vertex 0 60 0
    vertex 4 60 4
    vertex 8 60 0
  endloop
endfacet
facet normal 0 1 0
  outer loop
    vertex 8 60 8
    vertex 4 60 4
    vertex 0 60 8
  endloop
endfacet
facet normal 0 1 -0
  outer loop
    vertex 8 60 0
    vertex 4 60 4
    vertex 8 60 8
  endloop
endfacet
facet normal 1 0 0
  outer loop
    vertex 80 10 0
    vertex 80 5 4
    vertex 80 0 0
  endloop
endfacet
facet normal 1 -0 0
  outer loop
    vertex 80 0 8
    vertex 80 5 4
    vertex 80 10 8
  endloop
endfacet
facet normal 1 0 0
  outer loop
    vertex 80 10 8
    vertex 80 5 4
    vertex 80 10 0
  endloop
endfacet
facet normal 1 0 0
  outer loop
    vertex 80 0 0
    vertex 80 5 4
    vertex 80 0 8
  endloop
endfacet
facet normal 1 0 0
  outer loop
    vertex 8 49.99999999999999 0
    vertex 8 44.99999999999997 4
    vertex 8 39.99999999999996 0
  endloop
endfacet
facet normal 1 -0 0
  outer loop
    vertex 8 39.99999999999996 8
    vertex 8 44.99999999999997 4
    vertex 8 49.99999999999999 8
  endloop
endfacet
facet normal 1 -0 0
  outer loop
    vertex 8 49.99999999999999 8
    vertex 8 54.99999999999999 4
    vertex 8 60 8
  endloop
endfacet
facet normal 1 0 0
  outer loop
    vertex 8 60 0
    vertex 8 54.99999999999999 4
    vertex 8 49.99999999999999 0
  endloop
endfacet
facet normal 1 -0 0
  outer loop
    vertex 8 29.99999999999995 8
    vertex 8 34.99999999999996 4
    vertex 8 39.99999999999996 8
  endloop
endfacet
facet normal 1 0 0
  outer loop
    vertex 8 39.99999999999996 0
    vertex 8 34.99999999999996 4
    vertex 8 29.99999999999995 0
  endloop
endfacet
facet normal 1 0 0
  outer loop
    vertex 8 19.99999999999999 0
    vertex 8 14.99999999999999 4
    vertex 8 10 0
  endloop
endfacet
facet normal 1 -0 0
  outer loop
    vertex 8 10 8
    vertex 8 14.99999999999999 4
    vertex 8 19.99999999999999 8
  endloop
endfacet
facet normal 1 -0 0
  outer loop
    vertex 8 19.99999999999999 8
    vertex 8 24.99999999999997 4
    vertex 8 29.99999999999995 8
  endloop
endfacet
facet normal 1 0 0
  outer loop
    vertex 8 29.99999999999995 0
    vertex 8 24.99999999999997 4
    vertex 8 19.99999999999999 0
  endloop
endfacet
facet normal 1 0 0
  outer loop
    vertex 8 60 8
    vertex 8 54.99999999999999 4
    vertex 8 60 0
  endloop
endfacet
facet normal 1 0 0
  outer loop
    vertex 8 49.99999999999999 8
    vertex 8 44.99999999999997 4
    vertex 8 49.99999999999999 0
  endloop
endfacet
facet normal 1 0 0
  outer loop
    vertex 8 29.99999999999995 0
    vertex 8 34.99999999999996 4
    vertex 8 29.99999999999995 8
  endloop
endfacet
facet normal 1 0 0
  outer loop
    vertex 8 39.99999999999996 8
    vertex 8 34.99999999999996 4
    vertex 8 39.99999999999996 0
  endloop
endfacet
facet normal 1 0 0
  outer loop
    vertex 8 39.99999999999996 0
    vertex 8 44.99999999999997 4
    vertex 8 39.99999999999996 8
  endloop
endfacet
facet normal 1 0 0
  outer loop
    vertex 8 10 0
    vertex 8 14.99999999999999 4
    vertex 8 10 8
  endloop
endfacet
facet normal 1 0 0
  outer loop
    vertex 8 49.99999999999999 0
    vertex 8 54.99999999999999 4
    vertex 8 49.99999999999999 8
  endloop
endfacet
facet normal 1 0 0
  outer loop
    vertex 8 19.99999999999999 8
    vertex 8 14.99999999999999 4
    vertex 8 19.99999999999999 0
  endloop
endfacet
facet normal 1 0 0
  outer loop
    vertex 8 19.99999999999999 0
    vertex 8 24.99999999999997 4
    vertex 8 19.99999999999999 8
  endloop
endfacet
facet normal 1 0 0
  outer loop
    vertex 8 29.99999999999995 8
    vertex 8 24.99999999999997 4
    vertex 8 29.99999999999995 0
  endloop
endfacet
facet normal 0 1 0
  outer loop
    vertex 80 10 8
    vertex 75.49999999999997 10 4
    vertex 70.99999999999996 10 8
  endloop
endfacet
facet normal 0 1 0
  outer loop
    vertex 61.99999999999993 10 8
    vertex 57.49999999999991 10 4.000000000000004
    vertex 52.99999999999989 10 8
  endloop
endfacet
facet normal 0 1 0
  outer loop
    vertex 52.99999999999989 10 0
    vertex 57.49999999999991 10 4.000000000000004
    vertex 61.99999999999993 10 0
  endloop
endfacet
facet normal 0 1 0
  outer loop
    vertex 70.99999999999996 10 0
    vertex 75.49999999999997 10 4
    vertex 80 10 0
  endloop
endfacet
facet normal 0 1 0
  outer loop
    vertex 70.99999999999996 10 8
    vertex 66.49999999999994 10 4
    vertex 61.99999999999993 10 8
  endloop
endfacet
facet normal 0 1 0
  outer loop
    vertex 61.99999999999993 10 0
    vertex 66.49999999999994 10 4
    vertex 70.99999999999996 10 0
  endloop
endfacet
facet normal 0 1 0
  outer loop
    vertex 52.99999999999989 10 8
    vertex 48.49999999999989 10 4
    vertex 43.99999999999989 10 8
  endloop
endfacet
facet normal 0 1 0
  outer loop
    vertex 43.99999999999989 10 0
    vertex 48.49999999999989 10 4
    vertex 52.99999999999989 10 0
  endloop
endfacet
facet normal 0 1 0
  outer loop
    vertex 8 10 0
    vertex 12.49999999999999 10 4
    vertex 16.99999999999998 10 0
  endloop
endfacet
facet normal 0 1 0
  outer loop
    vertex 16.99999999999998 10 8
    vertex 12.49999999999999 10 4
    vertex 8 10 8
  endloop
endfacet
facet normal 0 1 0
  outer loop
    vertex 25.99999999999995 10 8
    vertex 21.49999999999996 10 4
    vertex 16.99999999999998 10 8
  endloop
endfacet
facet normal 0 1 0
  outer loop
    vertex 34.99999999999992 10 8
    vertex 30.49999999999994 10 4
    vertex 25.99999999999995 10 8
  endloop
endfacet
facet normal 0 1 0
  outer loop
    vertex 43.99999999999989 10 8
    vertex 39.4999999999999 10 4
    vertex 34.99999999999992 10 8
  endloop
endfacet
facet normal 0 1 0
  outer loop
    vertex 16.99999999999998 10 0
    vertex 21.49999999999996 10 4
    vertex 25.99999999999995 10 0
  endloop
endfacet
facet normal 0 1 0
  outer loop
    vertex 25.99999999999995 10 0
    vertex 30.49999999999994 10 4
    vertex 34.99999999999992 10 0
  endloop
endfacet
facet normal 0 1 0
  outer loop
    vertex 34.99999999999992 10 0
    vertex 39.4999999999999 10 4
    vertex 43.99999999999989 10 0
  endloop
endfacet
facet normal 0 1 0
  outer loop
    vertex 70.99999999999996 10 8
    vertex 75.49999999999997 10 4
    vertex 70.99999999999996 10 0
  endloop
endfacet
facet normal 0 1 -0
  outer loop
    vertex 70.99999999999996 10 0
    vertex 66.49999999999994 10 4
    vertex 70.99999999999996 10 8
  endloop
endfacet
facet normal 0 1 0
  outer loop
    vertex 52.99999999999989 10 8
    vertex 57.49999999999991 10 4.000000000000004
    vertex 52.99999999999989 10 0
  endloop
endfacet
facet normal 0 1 -0
  outer loop
    vertex 61.99999999999993 10 0
    vertex 57.49999999999991 10 4.000000000000004
    vertex 61.99999999999993 10 8
  endloop
endfacet
facet normal 0 1 -0
  outer loop
    vertex 80 10 0
    vertex 75.49999999999997 10 4
    vertex 80 10 8
  endloop
endfacet
facet normal 0 1 0
  outer loop
    vertex 43.99999999999989 10 8
    vertex 48.49999999999989 10 4
    vertex 43.99999999999989 10 0
  endloop
endfacet
facet normal 0 1 0
  outer loop
    vertex 8 10 8
    vertex 12.49999999999999 10 4
    vertex 8 10 0
  endloop
endfacet
facet normal 0 1 -0
  outer loop
    vertex 16.99999999999998 10 0
    vertex 12.49999999999999 10 4
    vertex 16.99999999999998 10 8
  endloop
endfacet
facet normal 0 1 0
  outer loop
    vertex 16.99999999999998 10 8
    vertex 21.49999999999996 10 4
    vertex 16.99999999999998 10 0
  endloop
endfacet
facet normal 0 1 -0
  outer loop
    vertex 25.99999999999995 10 0
    vertex 21.49999999999996 10 4
    vertex 25.99999999999995 10 8
  endloop
endfacet
facet normal 0 1 0
  outer loop
    vertex 25.99999999999995 10 8
    vertex 30.49999999999994 10 4
    vertex 25.99999999999995 10 0
  endloop
endfacet
facet normal 0 1 -0
  outer loop
    vertex 52.99999999999989 10 0
    vertex 48.49999999999989 10 4
    vertex 52.99999999999989 10 8
  endloop
endfacet
facet normal 0 1 -0
  outer loop
    vertex 34.99999999999992 10 0
    vertex 30.49999999999994 10 4
    vertex 34.99999999999992 10 8
  endloop
endfacet
facet normal 0 1 -0
  outer loop
    vertex 43.99999999999989 10 0
    vertex 39.4999999999999 10 4
    vertex 43.99999999999989 10 8
  endloop
endfacet
facet normal 0 1 0
  outer loop
    vertex 61.99999999999993 10 8
    vertex 66.49999999999994 10 4
    vertex 61.99999999999993 10 0
  endloop
endfacet
facet normal 0 1 0
  outer loop
    vertex 34.99999999999992 10 8
    vertex 39.4999999999999 10 4
    vertex 34.99999999999992 10 0
  endloop
endfacet
endsolid Created by Gmsh
