solid Created by Gmsh
facet normal 0 0 1
  outer loop
    vertex 8.333333333333332 33.33333333333333 0
    vertex 14.95738949360055 34.39872135911168 0
    vertex 10 40 0
  endloop
endfacet
facet normal 0 0 1
  outer loop
    vertex 39.46865326979344 28.99984978405358 0
    vertex 33.427936521283 29.99616733245999 0
    vertex 35.26019947290209 23.38566902209056 0
  endloop
endfacet
facet normal 0 0 1
  outer loop
    vertex 21.0776178656202 11.85430720832352 0
    vertex 16.66666666666666 4.871107535465629 0
    vertex 23.33333333333332 5.773502691896251 0
  endloop
endfacet
facet normal -0 0 1
  outer loop
    vertex 10 40 0
    vertex 14.95738949360055 34.39872135911168 0
    vertex 16.00000000000001 40 0
  endloop
endfacet
facet normal 0 -0 1
  outer loop
    vertex 6.666666666666663 0 0
    vertex 9.993318047168433 4.898532107323675 0
    vertex 1.666666666666666 6.666666666666664 0
  endloop
endfacet
facet normal 0 0 1
  outer loop
    vertex 35.26019947290209 23.38566902209056 0
    vertex 33.427936521283 29.99616733245999 0
    vertex 29.90812347083963 25.76657842993347 0
  endloop
endfacet
facet normal 0 0 1
  outer loop
    vertex 48.57142857142856 22.85714285714288 0
    vertex 44.36411194967274 17.32595147542802 0
    vertex 51.42857142857142 17.14285714285717 0
  endloop
endfacet
facet normal -0 0 1
  outer loop
    vertex 13.66930097193373 10.58878604624842 0
    vertex 16.66666666666666 4.871107535465629 0
    vertex 21.0776178656202 11.85430720832352 0
  endloop
endfacet
facet normal 0 0 1
  outer loop
    vertex 47.56680733025699 11.61986562205112 0
    vertex 39.61359279285607 12.11329495013071 0
    vertex 43.59188104901172 5.766832838299917 0
  endloop
endfacet
facet normal -0 0 1
  outer loop
    vertex 1.666666666666666 6.666666666666664 0
    vertex 9.993318047168433 4.898532107323675 0
    vertex 7.941237290947761 9.893374136481714 0
  endloop
endfacet
facet normal 0 0 1
  outer loop
    vertex 0 0 0
    vertex 6.666666666666663 0 0
    vertex 1.666666666666666 6.666666666666664 0
  endloop
endfacet
facet normal 0 0 1
  outer loop
    vertex 39.46865326979344 28.99984978405358 0
    vertex 35.26019947290209 23.38566902209056 0
    vertex 41.87782691280891 23.00132269003652 0
  endloop
endfacet
facet normal 0 0 1
  outer loop
    vertex 47.56680733025699 11.61986562205112 0
    vertex 44.36411194967274 17.32595147542802 0
    vertex 39.61359279285607 12.11329495013071 0
  endloop
endfacet
facet normal -0 0 1
  outer loop
    vertex 43.59188104901172 5.766832838299917 0
    vertex 50.43120996797334 5.754925933868037 0
    vertex 47.56680733025699 11.61986562205112 0
  endloop
endfacet
facet normal 0 0 1
  outer loop
    vertex 41.87782691280891 23.00132269003652 0
    vertex 44.36411194967274 17.32595147542802 0
    vertex 48.57142857142856 22.85714285714288 0
  endloop
endfacet
facet normal 0 0 1
  outer loop
    vertex 51.42857142857142 17.14285714285717 0
    vertex 44.36411194967274 17.32595147542802 0
    vertex 47.56680733025699 11.61986562205112 0
  endloop
endfacet
facet normal 0 0 1
  outer loop
    vertex 13.66930097193373 10.58878604624842 0
    vertex 9.993318047168433 4.898532107323675 0
    vertex 16.66666666666666 4.871107535465629 0
  endloop
endfacet
facet normal 0 -0 1
  outer loop
    vertex 46.66666666666664 0 0
    vertex 50.43120996797334 5.754925933868037 0
    vertex 43.59188104901172 5.766832838299917 0
  endloop
endfacet
facet normal 0 0 1
  outer loop
    vertex 39.61359279285607 12.11329495013071 0
    vertex 38.97590856292875 18.40231891730603 0
    vertex 33.76381168640394 16.18535644884435 0
  endloop
endfacet
facet normal 0 0 1
  outer loop
    vertex 33.76381168640394 16.18535644884435 0
    vertex 32.87046763811795 10.52177630844371 0
    vertex 39.61359279285607 12.11329495013071 0
  endloop
endfacet
facet normal 0 0 1
  outer loop
    vertex 30.77694089670996 35.07664662591755 0
    vertex 26.57657088863663 29.95386821217134 0
    vertex 33.427936521283 29.99616733245999 0
  endloop
endfacet
facet normal -0 0 1
  outer loop
    vertex 7.941237290947761 9.893374136481714 0
    vertex 9.993318047168433 4.898532107323675 0
    vertex 13.66930097193373 10.58878604624842 0
  endloop
endfacet
facet normal 0 0 1
  outer loop
    vertex 20.43749339660386 30.19606020494709 0
    vertex 13.43033245950095 28.27854056631909 0
    vertex 18.05757833766492 23.60141637704314 0
  endloop
endfacet
facet normal 0 0 1
  outer loop
    vertex 33.427936521283 29.99616733245999 0
    vertex 26.57657088863663 29.95386821217134 0
    vertex 29.90812347083963 25.76657842993347 0
  endloop
endfacet
facet normal -0 0 1
  outer loop
    vertex 20.43749339660386 30.19606020494709 0
    vertex 26.57657088863663 29.95386821217134 0
    vertex 25.00000000000001 34.80384757729338 0
  endloop
endfacet
facet normal 0 0 1
  outer loop
    vertex 18.05757833766492 23.60141637704314 0
    vertex 13.43033245950095 28.27854056631909 0
    vertex 11.55974275112735 21.84930905548886 0
  endloop
endfacet
facet normal 0 0 1
  outer loop
    vertex 60 0 0
    vertex 57.14285714285714 5.714285714285726 0
    vertex 53.33333333333331 0 0
  endloop
endfacet
facet normal 0 -0 1
  outer loop
    vertex 13.43033245950095 28.27854056631909 0
    vertex 14.95738949360055 34.39872135911168 0
    vertex 8.333333333333332 33.33333333333333 0
  endloop
endfacet
facet normal 0 0 1
  outer loop
    vertex 53.33333333333331 0 0
    vertex 50.43120996797334 5.754925933868037 0
    vertex 46.66666666666664 0 0
  endloop
endfacet
facet normal 0 -0 1
  outer loop
    vertex 16.41317617177391 17.11506157965241 0
    vertex 18.05757833766492 23.60141637704314 0
    vertex 11.55974275112735 21.84930905548886 0
  endloop
endfacet
facet normal 0 0 1
  outer loop
    vertex 9.845599318197856 15.44139829451647 0
    vertex 16.41317617177391 17.11506157965241 0
    vertex 11.55974275112735 21.84930905548886 0
  endloop
endfacet
facet normal 0 0 1
  outer loop
    vertex 24.51181178937846 25.01149937393382 0
    vertex 20.43749339660386 30.19606020494709 0
    vertex 18.05757833766492 23.60141637704314 0
  endloop
endfacet
facet normal -0 0 1
  outer loop
    vertex 9.845599318197856 15.44139829451647 0
    vertex 13.66930097193373 10.58878604624842 0
    vertex 16.41317617177391 17.11506157965241 0
  endloop
endfacet
facet normal 0 -0 1
  outer loop
    vertex 22.77630572157111 18.92541192395369 0
    vertex 24.51181178937846 25.01149937393382 0
    vertex 18.05757833766492 23.60141637704314 0
  endloop
endfacet
facet normal 0 0 1
  outer loop
    vertex 57.14285714285714 5.714285714285726 0
    vertex 50.43120996797334 5.754925933868037 0
    vertex 53.33333333333331 0 0
  endloop
endfacet
facet normal 0 0 1
  outer loop
    vertex 16.41317617177391 17.11506157965241 0
    vertex 22.77630572157111 18.92541192395369 0
    vertex 18.05757833766492 23.60141637704314 0
  endloop
endfacet
facet normal -0 0 1
  outer loop
    vertex 4.999999999999999 20 0
    vertex 9.845599318197856 15.44139829451647 0
    vertex 11.55974275112735 21.84930905548886 0
  endloop
endfacet
facet normal 0 0 1
  outer loop
    vertex 22.77630572157111 18.92541192395369 0
    vertex 21.0776178656202 11.85430720832352 0
    vertex 27.79978370920821 14.6834987119589 0
  endloop
endfacet
facet normal 0 -0 1
  outer loop
    vertex 11.55974275112735 21.84930905548886 0
    vertex 13.43033245950095 28.27854056631909 0
    vertex 6.666666666666665 26.66666666666666 0
  endloop
endfacet
facet normal -0 0 1
  outer loop
    vertex 16.41317617177391 17.11506157965241 0
    vertex 21.0776178656202 11.85430720832352 0
    vertex 22.77630572157111 18.92541192395369 0
  endloop
endfacet
facet normal 0 0 1
  outer loop
    vertex 6.666666666666665 26.66666666666666 0
    vertex 13.43033245950095 28.27854056631909 0
    vertex 8.333333333333332 33.33333333333333 0
  endloop
endfacet
facet normal 0 0 1
  outer loop
    vertex 43.59188104901172 5.766832838299917 0
    vertex 39.61359279285607 12.11329495013071 0
    vertex 36.67063634048858 5.579015412667836 0
  endloop
endfacet
facet normal 0 -0 1
  outer loop
    vertex 26.66666666666665 0 0
    vertex 30.0127053216302 5.481429645481965 0
    vertex 23.33333333333332 5.773502691896251 0
  endloop
endfacet
facet normal 0 0 1
  outer loop
    vertex 7.941237290947761 9.893374136481714 0
    vertex 13.66930097193373 10.58878604624842 0
    vertex 9.845599318197856 15.44139829451647 0
  endloop
endfacet
facet normal 0 0 1
  outer loop
    vertex 54.28571428571427 11.42857142857146 0
    vertex 50.43120996797334 5.754925933868037 0
    vertex 57.14285714285714 5.714285714285726 0
  endloop
endfacet
facet normal 0 0 1
  outer loop
    vertex 13.66930097193373 10.58878604624842 0
    vertex 21.0776178656202 11.85430720832352 0
    vertex 16.41317617177391 17.11506157965241 0
  endloop
endfacet
facet normal 0 -0 1
  outer loop
    vertex 39.99999999999999 0 0
    vertex 43.59188104901172 5.766832838299917 0
    vertex 36.67063634048858 5.579015412667836 0
  endloop
endfacet
facet normal 0 -0 1
  outer loop
    vertex 29.08957054165985 20.65546283499162 0
    vertex 29.90812347083963 25.76657842993347 0
    vertex 24.51181178937846 25.01149937393382 0
  endloop
endfacet
facet normal 0 -0 1
  outer loop
    vertex 7.941237290947761 9.893374136481714 0
    vertex 9.845599318197856 15.44139829451647 0
    vertex 3.333333333333331 13.33333333333333 0
  endloop
endfacet
facet normal 0 0 1
  outer loop
    vertex 22.77630572157111 18.92541192395369 0
    vertex 29.08957054165985 20.65546283499162 0
    vertex 24.51181178937846 25.01149937393382 0
  endloop
endfacet
facet normal 0 0 1
  outer loop
    vertex 4.999999999999999 20 0
    vertex 11.55974275112735 21.84930905548886 0
    vertex 6.666666666666665 26.66666666666666 0
  endloop
endfacet
facet normal 0 0 1
  outer loop
    vertex 47.56680733025699 11.61986562205112 0
    vertex 50.43120996797334 5.754925933868037 0
    vertex 54.28571428571427 11.42857142857146 0
  endloop
endfacet
facet normal 0 0 1
  outer loop
    vertex 1.666666666666666 6.666666666666664 0
    vertex 7.941237290947761 9.893374136481714 0
    vertex 3.333333333333331 13.33333333333333 0
  endloop
endfacet
facet normal 0 0 1
  outer loop
    vertex 46.66666666666664 0 0
    vertex 43.59188104901172 5.766832838299917 0
    vertex 39.99999999999999 0 0
  endloop
endfacet
facet normal 0 0 1
  outer loop
    vertex 36.67063634048858 5.579015412667836 0
    vertex 30.0127053216302 5.481429645481965 0
    vertex 33.33333333333332 0 0
  endloop
endfacet
facet normal 0 0 1
  outer loop
    vertex 26.66666666666665 0 0
    vertex 23.33333333333332 5.773502691896251 0
    vertex 19.99999999999999 0 0
  endloop
endfacet
facet normal 0 0 1
  outer loop
    vertex 3.333333333333331 13.33333333333333 0
    vertex 9.845599318197856 15.44139829451647 0
    vertex 4.999999999999999 20 0
  endloop
endfacet
facet normal 0 0 1
  outer loop
    vertex 39.99999999999999 0 0
    vertex 36.67063634048858 5.579015412667836 0
    vertex 33.33333333333332 0 0
  endloop
endfacet
facet normal 0 0 1
  outer loop
    vertex 33.33333333333332 0 0
    vertex 30.0127053216302 5.481429645481965 0
    vertex 26.66666666666665 0 0
  endloop
endfacet
facet normal 0 0 1
  outer loop
    vertex 27.79978370920821 14.6834987119589 0
    vertex 33.76381168640394 16.18535644884435 0
    vertex 29.08957054165985 20.65546283499162 0
  endloop
endfacet
facet normal 0 0 1
  outer loop
    vertex 42.85714285714285 34.2857142857143 0
    vertex 39.46865326979344 28.99984978405358 0
    vertex 45.7142857142857 28.5714285714286 0
  endloop
endfacet
facet normal 0 0 1
  outer loop
    vertex 29.08957054165985 20.65546283499162 0
    vertex 35.26019947290209 23.38566902209056 0
    vertex 29.90812347083963 25.76657842993347 0
  endloop
endfacet
facet normal 0 0 1
  outer loop
    vertex 45.7142857142857 28.5714285714286 0
    vertex 41.87782691280891 23.00132269003652 0
    vertex 48.57142857142856 22.85714285714288 0
  endloop
endfacet
facet normal -0 0 1
  outer loop
    vertex 22.77630572157111 18.92541192395369 0
    vertex 27.79978370920821 14.6834987119589 0
    vertex 29.08957054165985 20.65546283499162 0
  endloop
endfacet
facet normal 0 0 1
  outer loop
    vertex 45.7142857142857 28.5714285714286 0
    vertex 39.46865326979344 28.99984978405358 0
    vertex 41.87782691280891 23.00132269003652 0
  endloop
endfacet
facet normal 0 0 1
  outer loop
    vertex 51.42857142857142 17.14285714285717 0
    vertex 47.56680733025699 11.61986562205112 0
    vertex 54.28571428571427 11.42857142857146 0
  endloop
endfacet
facet normal 0 -0 1
  outer loop
    vertex 33.76381168640394 16.18535644884435 0
    vertex 35.26019947290209 23.38566902209056 0
    vertex 29.08957054165985 20.65546283499162 0
  endloop
endfacet
facet normal -0 0 1
  outer loop
    vertex 27.79978370920821 14.6834987119589 0
    vertex 32.87046763811795 10.52177630844371 0
    vertex 33.76381168640394 16.18535644884435 0
  endloop
endfacet
facet normal 0 0 1
  outer loop
    vertex 25.00000000000001 34.80384757729338 0
    vertex 19.99466557298197 35.62734211742438 0
    vertex 20.43749339660386 30.19606020494709 0
  endloop
endfacet
facet normal -0 0 1
  outer loop
    vertex 28.00000000000001 40 0
    vertex 30.77694089670996 35.07664662591755 0
    vertex 34 40 0
  endloop
endfacet
facet normal -0 0 1
  outer loop
    vertex 22.00000000000001 40 0
    vertex 25.00000000000001 34.80384757729338 0
    vertex 28.00000000000001 40 0
  endloop
endfacet
facet normal 0 0 1
  outer loop
    vertex 44.36411194967274 17.32595147542802 0
    vertex 38.97590856292875 18.40231891730603 0
    vertex 39.61359279285607 12.11329495013071 0
  endloop
endfacet
facet normal 0 0 1
  outer loop
    vertex 20.43749339660386 30.19606020494709 0
    vertex 14.95738949360055 34.39872135911168 0
    vertex 13.43033245950095 28.27854056631909 0
  endloop
endfacet
facet normal 0 0 1
  outer loop
    vertex 42.85714285714285 34.2857142857143 0
    vertex 37.00000000000001 34.92857142857144 0
    vertex 39.46865326979344 28.99984978405358 0
  endloop
endfacet
facet normal 0 0 1
  outer loop
    vertex 25.00000000000001 34.80384757729338 0
    vertex 30.77694089670996 35.07664662591755 0
    vertex 28.00000000000001 40 0
  endloop
endfacet
facet normal 0 -0 1
  outer loop
    vertex 24.51181178937846 25.01149937393382 0
    vertex 26.57657088863663 29.95386821217134 0
    vertex 20.43749339660386 30.19606020494709 0
  endloop
endfacet
facet normal 0 0 1
  outer loop
    vertex 27.79978370920821 14.6834987119589 0
    vertex 26.68453463334564 9.470897440646283 0
    vertex 32.87046763811795 10.52177630844371 0
  endloop
endfacet
facet normal 0 0 1
  outer loop
    vertex 40 40 0
    vertex 37.00000000000001 34.92857142857144 0
    vertex 42.85714285714285 34.2857142857143 0
  endloop
endfacet
facet normal 0 0 1
  outer loop
    vertex 39.61359279285607 12.11329495013071 0
    vertex 32.87046763811795 10.52177630844371 0
    vertex 36.67063634048858 5.579015412667836 0
  endloop
endfacet
facet normal -0 0 1
  outer loop
    vertex 34 40 0
    vertex 37.00000000000001 34.92857142857144 0
    vertex 40 40 0
  endloop
endfacet
facet normal 0 0 1
  outer loop
    vertex 23.33333333333332 5.773502691896251 0
    vertex 16.66666666666666 4.871107535465629 0
    vertex 19.99999999999999 0 0
  endloop
endfacet
facet normal -0 0 1
  outer loop
    vertex 30.77694089670996 35.07664662591755 0
    vertex 37.00000000000001 34.92857142857144 0
    vertex 34 40 0
  endloop
endfacet
facet normal 0 0 1
  outer loop
    vertex 35.26019947290209 23.38566902209056 0
    vertex 38.97590856292875 18.40231891730603 0
    vertex 41.87782691280891 23.00132269003652 0
  endloop
endfacet
facet normal -0 0 1
  outer loop
    vertex 25.00000000000001 34.80384757729338 0
    vertex 26.57657088863663 29.95386821217134 0
    vertex 30.77694089670996 35.07664662591755 0
  endloop
endfacet
facet normal -0 0 1
  outer loop
    vertex 16.00000000000001 40 0
    vertex 19.99466557298197 35.62734211742438 0
    vertex 22.00000000000001 40 0
  endloop
endfacet
facet normal 0 -0 1
  outer loop
    vertex 23.33333333333332 5.773502691896251 0
    vertex 26.68453463334564 9.470897440646283 0
    vertex 21.0776178656202 11.85430720832352 0
  endloop
endfacet
facet normal 0 0 1
  outer loop
    vertex 41.87782691280891 23.00132269003652 0
    vertex 38.97590856292875 18.40231891730603 0
    vertex 44.36411194967274 17.32595147542802 0
  endloop
endfacet
facet normal 0 0 1
  outer loop
    vertex 14.95738949360055 34.39872135911168 0
    vertex 19.99466557298197 35.62734211742438 0
    vertex 16.00000000000001 40 0
  endloop
endfacet
facet normal 0 0 1
  outer loop
    vertex 19.99999999999999 0 0
    vertex 16.66666666666666 4.871107535465629 0
    vertex 13.33333333333333 0 0
  endloop
endfacet
facet normal 0 0 1
  outer loop
    vertex 36.67063634048858 5.579015412667836 0
    vertex 32.87046763811795 10.52177630844371 0
    vertex 30.0127053216302 5.481429645481965 0
  endloop
endfacet
facet normal -0 0 1
  outer loop
    vertex 21.0776178656202 11.85430720832352 0
    vertex 26.68453463334564 9.470897440646283 0
    vertex 27.79978370920821 14.6834987119589 0
  endloop
endfacet
facet normal 0 0 1
  outer loop
    vertex 37.00000000000001 34.92857142857144 0
    vertex 33.427936521283 29.99616733245999 0
    vertex 39.46865326979344 28.99984978405358 0
  endloop
endfacet
facet normal 0 0 1
  outer loop
    vertex 32.87046763811795 10.52177630844371 0
    vertex 26.68453463334564 9.470897440646283 0
    vertex 30.0127053216302 5.481429645481965 0
  endloop
endfacet
facet normal 0 0 1
  outer loop
    vertex 16.66666666666666 4.871107535465629 0
    vertex 9.993318047168433 4.898532107323675 0
    vertex 13.33333333333333 0 0
  endloop
endfacet
facet normal 0 0 1
  outer loop
    vertex 29.90812347083963 25.76657842993347 0
    vertex 26.57657088863663 29.95386821217134 0
    vertex 24.51181178937846 25.01149937393382 0
  endloop
endfacet
facet normal 0 0 1
  outer loop
    vertex 33.76381168640394 16.18535644884435 0
    vertex 38.97590856292875 18.40231891730603 0
    vertex 35.26019947290209 23.38566902209056 0
  endloop
endfacet
facet normal 0 0 1
  outer loop
    vertex 20.43749339660386 30.19606020494709 0
    vertex 19.99466557298197 35.62734211742438 0
    vertex 14.95738949360055 34.39872135911168 0
  endloop
endfacet
facet normal 0 0 1
  outer loop
    vertex 30.0127053216302 5.481429645481965 0
    vertex 26.68453463334564 9.470897440646283 0
    vertex 23.33333333333332 5.773502691896251 0
  endloop
endfacet
facet normal 0 0 1
  outer loop
    vertex 22.00000000000001 40 0
    vertex 19.99466557298197 35.62734211742438 0
    vertex 25.00000000000001 34.80384757729338 0
  endloop
endfacet
facet normal 0 0 1
  outer loop
    vertex 30.77694089670996 35.07664662591755 0
    vertex 33.427936521283 29.99616733245999 0
    vertex 37.00000000000001 34.92857142857144 0
  endloop
endfacet
facet normal 0 0 1
  outer loop
    vertex 13.33333333333333 0 0
    vertex 9.993318047168433 4.898532107323675 0
    vertex 6.666666666666663 0 0
  endloop
endfacet
facet normal 0 -1 0
  outer loop
    vertex 53.33333333333331 0 4
    vertex 53.33333333333331 0 0
    vertex 56.66666666666666 0 2
  endloop
endfacet
facet normal 0 -1 0
  outer loop
    vertex 60 0 0
    vertex 60 0 4
    vertex 56.66666666666666 0 2
  endloop
endfacet
facet normal 0 -1 0
  outer loop
    vertex 26.66666666666665 0 4
    vertex 26.66666666666665 0 0
    vertex 29.99999999999999 0 2
  endloop
endfacet
facet normal 0 -1 0
  outer loop
    vertex 39.99999999999999 0 0
    vertex 39.99999999999999 0 4
    vertex 36.66666666666665 0 2
  endloop
endfacet
facet normal 0 -1 0
  outer loop
    vertex 53.33333333333331 0 0
    vertex 53.33333333333331 0 4
    vertex 49.99999999999997 0 2
  endloop
endfacet
facet normal 0 -1 0
  outer loop
    vertex 13.33333333333333 0 4
    vertex 13.33333333333333 0 0
    vertex 16.66666666666666 0 2
  endloop
endfacet
facet normal 0 -1 0
  outer loop
    vertex 13.33333333333333 0 0
    vertex 13.33333333333333 0 4
    vertex 9.999999999999995 0 2
  endloop
endfacet
facet normal 0 -1 0
  outer loop
    vertex 19.99999999999999 0 0
    vertex 19.99999999999999 0 4
    vertex 16.66666666666666 0 2
  endloop
endfacet
facet normal 0 -1 0
  outer loop
    vertex 26.66666666666665 0 0
    vertex 26.66666666666665 0 4
    vertex 23.33333333333332 0 2
  endloop
endfacet
facet normal 0 -1 0
  outer loop
    vertex 0 0 4
    vertex 0 0 0
    vertex 3.333333333333332 0 2
  endloop
endfacet
facet normal 0 -1 0
  outer loop
    vertex 6.666666666666663 0 4
    vertex 6.666666666666663 0 0
    vertex 9.999999999999995 0 2
  endloop
endfacet
facet normal 0 -1 0
  outer loop
    vertex 6.666666666666663 0 0
    vertex 6.666666666666663 0 4
    vertex 3.333333333333332 0 2
  endloop
endfacet
facet normal 0 -1 0
  outer loop
    vertex 19.99999999999999 0 4
    vertex 19.99999999999999 0 0
    vertex 23.33333333333332 0 2
  endloop
endfacet
facet normal 0 -1 0
  outer loop
    vertex 33.33333333333332 0 4
    vertex 33.33333333333332 0 0
    vertex 36.66666666666665 0 2
  endloop
endfacet
facet normal 0 -1 0
  outer loop
    vertex 33.33333333333332 0 0
    vertex 33.33333333333332 0 4
    vertex 29.99999999999999 0 2
  endloop
endfacet
facet normal 0 -1 0
  outer loop
    vertex 39.99999999999999 0 4
    vertex 39.99999999999999 0 0
    vertex 43.33333333333331 0 2
  endloop
endfacet
facet normal 0 -1 0
  outer loop
    vertex 46.66666666666664 0 4
    vertex 46.66666666666664 0 0
    vertex 49.99999999999997 0 2
  endloop
endfacet
facet normal 0 -1 0
  outer loop
    vertex 46.66666666666664 0 0
    vertex 46.66666666666664 0 4
    vertex 43.33333333333331 0 2
  endloop
endfacet
facet normal 0 -1 0
  outer loop
    vertex 0 0 0
    vertex 6.666666666666663 0 0
    vertex 3.333333333333332 0 2
  endloop
endfacet
facet normal 0 -1 0
  outer loop
    vertex 53.33333333333331 0 0
    vertex 60 0 0
    vertex 56.66666666666666 0 2
  endloop
endfacet
facet normal -0 -1 0
  outer loop
    vertex 6.666666666666663 0 4
    vertex 0 0 4
    vertex 3.333333333333332 0 2
  endloop
endfacet
facet normal -0 -1 0
  outer loop
    vertex 60 0 4
    vertex 53.33333333333331 0 4
    vertex 56.66666666666666 0 2
  endloop
endfacet
facet normal 0 -1 0
  outer loop
    vertex 6.666666666666663 0 0
    vertex 13.33333333333333 0 0
    vertex 9.999999999999995 0 2
  endloop
endfacet
facet normal 0 -1 0
  outer loop
    vertex 13.33333333333333 0 0
    vertex 19.99999999999999 0 0
    vertex 16.66666666666666 0 2
  endloop
endfacet
facet normal 0 -1 0
  outer loop
    vertex 19.99999999999999 0 0
    vertex 26.66666666666665 0 0
    vertex 23.33333333333332 0 2
  endloop
endfacet
facet normal 0 -1 0
  outer loop
    vertex 26.66666666666665 0 0
    vertex 33.33333333333332 0 0
    vertex 29.99999999999999 0 2
  endloop
endfacet
facet normal 0 -1 0
  outer loop
    vertex 33.33333333333332 0 0
    vertex 39.99999999999999 0 0
    vertex 36.66666666666665 0 2
  endloop
endfacet
facet normal 0 -1 0
  outer loop
    vertex 39.99999999999999 0 0
    vertex 46.66666666666664 0 0
    vertex 43.33333333333331 0 2
  endloop
endfacet
facet normal 0 -1 0
  outer loop
    vertex 46.66666666666664 0 0
    vertex 53.33333333333331 0 0
    vertex 49.99999999999997 0 2
  endloop
endfacet
facet normal -0 -1 0
  outer loop
    vertex 13.33333333333333 0 4
    vertex 6.666666666666663 0 4
    vertex 9.999999999999995 0 2
  endloop
endfacet
facet normal -0 -1 0
  outer loop
    vertex 19.99999999999999 0 4
    vertex 13.33333333333333 0 4
    vertex 16.66666666666666 0 2
  endloop
endfacet
facet normal -0 -1 0
  outer loop
    vertex 26.66666666666665 0 4
    vertex 19.99999999999999 0 4
    vertex 23.33333333333332 0 2
  endloop
endfacet
facet normal -0 -1 0
  outer loop
    vertex 33.33333333333332 0 4
    vertex 26.66666666666665 0 4
    vertex 29.99999999999999 0 2
  endloop
endfacet
facet normal -0 -1 0
  outer loop
    vertex 39.99999999999999 0 4
    vertex 33.33333333333332 0 4
    vertex 36.66666666666665 0 2
  endloop
endfacet
facet normal -0 -1 0
  outer loop
    vertex 46.66666666666664 0 4
    vertex 39.99999999999999 0 4
    vertex 43.33333333333331 0 2
  endloop
endfacet
facet normal -0 -1 0
  outer loop
    vertex 53.33333333333331 0 4
    vertex 46.66666666666664 0 4
    vertex 49.99999999999997 0 2
  endloop
endfacet
facet normal 0.894427 0.447214 0
  outer loop
    vertex 57.14285714285714 5.714285714285726 4
    vertex 57.14285714285714 5.714285714285726 0
    vertex 55.7142857142857 8.571428571428592 2
  endloop
endfacet
facet normal 0.894427 0.447214 0
  outer loop
    vertex 48.57142857142856 22.85714285714288 4
    vertex 48.57142857142856 22.85714285714288 0
    vertex 47.14285714285713 25.71428571428574 2
  endloop
endfacet
facet normal 0.894427 0.447214 -0
  outer loop
    vertex 57.14285714285714 5.714285714285726 0
    vertex 57.14285714285714 5.714285714285726 4
    vertex 58.57142857142857 2.857142857142863 2
  endloop
endfacet
facet normal 0.894427 0.447214 0
  outer loop
    vertex 60 0 4
    vertex 60 0 0
    vertex 58.57142857142857 2.857142857142863 2
  endloop
endfacet
facet normal 0.894427 0.447214 -0
  outer loop
    vertex 54.28571428571427 11.42857142857146 0
    vertex 54.28571428571427 11.42857142857146 4
    vertex 55.7142857142857 8.571428571428592 2
  endloop
endfacet
facet normal 0.894427 0.447214 0
  outer loop
    vertex 54.28571428571427 11.42857142857146 4
    vertex 54.28571428571427 11.42857142857146 0
    vertex 52.85714285714284 14.28571428571432 1.999999999999999
  endloop
endfacet
facet normal 0.894427 0.447214 -0
  outer loop
    vertex 51.42857142857142 17.14285714285717 0
    vertex 51.42857142857142 17.14285714285717 4
    vertex 52.85714285714284 14.28571428571432 1.999999999999999
  endloop
endfacet
facet normal 0.894427 0.447214 0
  outer loop
    vertex 42.85714285714285 34.2857142857143 4
    vertex 42.85714285714285 34.2857142857143 0
    vertex 41.42857142857142 37.14285714285715 2
  endloop
endfacet
facet normal 0.894427 0.447214 0
  outer loop
    vertex 51.42857142857142 17.14285714285717 4
    vertex 51.42857142857142 17.14285714285717 0
    vertex 49.99999999999999 20.00000000000002 2
  endloop
endfacet
facet normal 0.894427 0.447214 -0
  outer loop
    vertex 48.57142857142856 22.85714285714288 0
    vertex 48.57142857142856 22.85714285714288 4
    vertex 49.99999999999999 20.00000000000002 2
  endloop
endfacet
facet normal 0.894427 0.447214 -0
  outer loop
    vertex 45.7142857142857 28.5714285714286 0
    vertex 45.7142857142857 28.5714285714286 4
    vertex 47.14285714285713 25.71428571428574 2
  endloop
endfacet
facet normal 0.894427 0.447214 0
  outer loop
    vertex 45.7142857142857 28.5714285714286 4
    vertex 45.7142857142857 28.5714285714286 0
    vertex 44.28571428571428 31.42857142857145 2
  endloop
endfacet
facet normal 0.894427 0.447214 -0
  outer loop
    vertex 40 40 0
    vertex 40 40 4
    vertex 41.42857142857142 37.14285714285715 2
  endloop
endfacet
facet normal 0.894427 0.447214 -0
  outer loop
    vertex 42.85714285714285 34.2857142857143 0
    vertex 42.85714285714285 34.2857142857143 4
    vertex 44.28571428571428 31.42857142857145 2
  endloop
endfacet
facet normal 0.894427 0.447214 0
  outer loop
    vertex 60 0 0
    vertex 57.14285714285714 5.714285714285726 0
    vertex 58.57142857142857 2.857142857142863 2
  endloop
endfacet
facet normal 0.894427 0.447214 -8.34131e-16
  outer loop
    vertex 42.85714285714285 34.2857142857143 0
    vertex 40 40 0
    vertex 41.42857142857142 37.14285714285715 2
  endloop
endfacet
facet normal 0.894427 0.447214 0
  outer loop
    vertex 57.14285714285714 5.714285714285726 4
    vertex 60 0 4
    vertex 58.57142857142857 2.857142857142863 2
  endloop
endfacet
facet normal 0.894427 0.447214 8.34131e-16
  outer loop
    vertex 40 40 4
    vertex 42.85714285714285 34.2857142857143 4
    vertex 41.42857142857142 37.14285714285715 2
  endloop
endfacet
facet normal 0.894427 0.447214 1.2512e-15
  outer loop
    vertex 57.14285714285714 5.714285714285726 0
    vertex 54.28571428571427 11.42857142857146 0
    vertex 55.7142857142857 8.571428571428592 2
  endloop
endfacet
facet normal 0.894427 0.447214 1.11218e-15
  outer loop
    vertex 54.28571428571427 11.42857142857146 0
    vertex 51.42857142857142 17.14285714285717 0
    vertex 52.85714285714284 14.28571428571432 1.999999999999999
  endloop
endfacet
facet normal 0.894427 0.447214 1.66826e-15
  outer loop
    vertex 51.42857142857142 17.14285714285717 0
    vertex 48.57142857142856 22.85714285714288 0
    vertex 49.99999999999999 20.00000000000002 2
  endloop
endfacet
facet normal 0.894427 0.447214 -8.34131e-16
  outer loop
    vertex 48.57142857142856 22.85714285714288 0
    vertex 45.7142857142857 28.5714285714286 0
    vertex 47.14285714285713 25.71428571428574 2
  endloop
endfacet
facet normal 0.894427 0.447214 -2.36337e-15
  outer loop
    vertex 45.7142857142857 28.5714285714286 0
    vertex 42.85714285714285 34.2857142857143 0
    vertex 44.28571428571428 31.42857142857145 2
  endloop
endfacet
facet normal 0.894427 0.447214 -1.11218e-15
  outer loop
    vertex 54.28571428571427 11.42857142857146 4
    vertex 57.14285714285714 5.714285714285726 4
    vertex 55.7142857142857 8.571428571428592 2
  endloop
endfacet
facet normal 0.894427 0.447214 -1.2512e-15
  outer loop
    vertex 51.42857142857142 17.14285714285717 4
    vertex 54.28571428571427 11.42857142857146 4
    vertex 52.85714285714284 14.28571428571432 1.999999999999999
  endloop
endfacet
facet normal 0.894427 0.447214 -1.52924e-15
  outer loop
    vertex 48.57142857142856 22.85714285714288 4
    vertex 51.42857142857142 17.14285714285717 4
    vertex 49.99999999999999 20.00000000000002 2
  endloop
endfacet
facet normal 0.894427 0.447214 8.34131e-16
  outer loop
    vertex 45.7142857142857 28.5714285714286 4
    vertex 48.57142857142856 22.85714285714288 4
    vertex 47.14285714285713 25.71428571428574 2
  endloop
endfacet
facet normal 0.894427 0.447214 2.36337e-15
  outer loop
    vertex 42.85714285714285 34.2857142857143 4
    vertex 45.7142857142857 28.5714285714286 4
    vertex 44.28571428571428 31.42857142857145 2
  endloop
endfacet
facet normal 0 1 0
  outer loop
    vertex 10 40 0
    vertex 10 40 4
    vertex 13.00000000000001 40 2
  endloop
endfacet
facet normal 0 1 0
  outer loop
    vertex 16.00000000000001 40 4
    vertex 16.00000000000001 40 0
    vertex 13.00000000000001 40 2
  endloop
endfacet
facet normal 0 1 0
  outer loop
    vertex 40 40 4
    vertex 40 40 0
    vertex 37 40 2
  endloop
endfacet
facet normal 0 1 0
  outer loop
    vertex 34 40 0
    vertex 34 40 4
    vertex 37 40 2
  endloop
endfacet
facet normal 0 1 0
  outer loop
    vertex 28.00000000000001 40 4
    vertex 28.00000000000001 40 0
    vertex 25.00000000000001 40 2
  endloop
endfacet
facet normal 0 1 0
  outer loop
    vertex 28.00000000000001 40 0
    vertex 28.00000000000001 40 4
    vertex 31.00000000000001 40 2
  endloop
endfacet
facet normal 0 1 0
  outer loop
    vertex 22.00000000000001 40 0
    vertex 22.00000000000001 40 4
    vertex 25.00000000000001 40 2
  endloop
endfacet
facet normal 0 1 0
  outer loop
    vertex 22.00000000000001 40 4
    vertex 22.00000000000001 40 0
    vertex 19.00000000000001 40 2
  endloop
endfacet
facet normal 0 1 0
  outer loop
    vertex 16.00000000000001 40 0
    vertex 16.00000000000001 40 4
    vertex 19.00000000000001 40 2
  endloop
endfacet
facet normal 0 1 0
  outer loop
    vertex 34 40 4
    vertex 34 40 0
    vertex 31.00000000000001 40 2
  endloop
endfacet
facet normal 0 1 0
  outer loop
    vertex 40 40 0
    vertex 34 40 0
    vertex 37 40 2
  endloop
endfacet
facet normal 0 1 0
  outer loop
    vertex 16.00000000000001 40 0
    vertex 10 40 0
    vertex 13.00000000000001 40 2
  endloop
endfacet
facet normal -0 1 0
  outer loop
    vertex 34 40 4
    vertex 40 40 4
    vertex 37 40 2
  endloop
endfacet
facet normal -0 1 0
  outer loop
    vertex 10 40 4
    vertex 16.00000000000001 40 4
    vertex 13.00000000000001 40 2
  endloop
endfacet
facet normal 0 1 0
  outer loop
    vertex 34 40 0
    vertex 28.00000000000001 40 0
    vertex 31.00000000000001 40 2
  endloop
endfacet
facet normal 0 1 0
  outer loop
    vertex 28.00000000000001 40 0
    vertex 22.00000000000001 40 0
    vertex 25.00000000000001 40 2
  endloop
endfacet
facet normal 0 1 0
  outer loop
    vertex 22.00000000000001 40 0
    vertex 16.00000000000001 40 0
    vertex 19.00000000000001 40 2
  endloop
endfacet
facet normal -0 1 0
  outer loop
    vertex 28.00000000000001 40 4
    vertex 34 40 4
    vertex 31.00000000000001 40 2
  endloop
endfacet
facet normal -0 1 0
  outer loop
    vertex 22.00000000000001 40 4
    vertex 28.00000000000001 40 4
    vertex 25.00000000000001 40 2
  endloop
endfacet
facet normal -0 1 0
  outer loop
    vertex 16.00000000000001 40 4
    vertex 22.00000000000001 40 4
    vertex 19.00000000000001 40 2
  endloop
endfacet
facet normal -0.970143 0.242536 0
  outer loop
    vertex 1.666666666666666 6.666666666666664 4
    vertex 1.666666666666666 6.666666666666664 0
    vertex 0.8333333333333321 3.333333333333329 2
  endloop
endfacet
facet normal -0.970143 0.242536 0
  outer loop
    vertex 6.666666666666665 26.66666666666666 0
    vertex 6.666666666666665 26.66666666666666 4
    vertex 7.499999999999999 30 2
  endloop
endfacet
facet normal -0.970143 0.242536 0
  outer loop
    vertex 4.999999999999999 20 4
    vertex 4.999999999999999 20 0
    vertex 4.166666666666665 16.66666666666666 2
  endloop
endfacet
facet normal -0.970143 0.242536 0
  outer loop
    vertex 1.666666666666666 6.666666666666664 0
    vertex 1.666666666666666 6.666666666666664 4
    vertex 2.499999999999998 9.999999999999993 2
  endloop
endfacet
facet normal -0.970143 0.242536 0
  outer loop
    vertex 10 40 4
    vertex 10 40 0
    vertex 9.166666666666666 36.66666666666666 2
  endloop
endfacet
facet normal -0.970143 0.242536 0
  outer loop
    vertex 8.333333333333332 33.33333333333333 0
    vertex 8.333333333333332 33.33333333333333 4
    vertex 9.166666666666666 36.66666666666666 2
  endloop
endfacet
facet normal -0.970143 0.242536 0
  outer loop
    vertex 8.333333333333332 33.33333333333333 4
    vertex 8.333333333333332 33.33333333333333 0
    vertex 7.499999999999999 30 2
  endloop
endfacet
facet normal -0.970143 0.242536 0
  outer loop
    vertex 6.666666666666665 26.66666666666666 4
    vertex 6.666666666666665 26.66666666666666 0
    vertex 5.833333333333332 23.33333333333333 2
  endloop
endfacet
facet normal -0.970143 0.242536 0
  outer loop
    vertex 4.999999999999999 20 0
    vertex 4.999999999999999 20 4
    vertex 5.833333333333332 23.33333333333333 2
  endloop
endfacet
facet normal -0.970143 0.242536 0
  outer loop
    vertex 3.333333333333331 13.33333333333333 0
    vertex 3.333333333333331 13.33333333333333 4
    vertex 4.166666666666665 16.66666666666666 2
  endloop
endfacet
facet normal -0.970143 0.242536 0
  outer loop
    vertex 0 0 0
    vertex 0 0 4
    vertex 0.8333333333333321 3.333333333333329 2
  endloop
endfacet
facet normal -0.970143 0.242536 0
  outer loop
    vertex 3.333333333333331 13.33333333333333 4
    vertex 3.333333333333331 13.33333333333333 0
    vertex 2.499999999999998 9.999999999999993 2
  endloop
endfacet
facet normal -0.970143 0.242536 0
  outer loop
    vertex 1.666666666666666 6.666666666666664 0
    vertex 0 0 0
    vertex 0.8333333333333321 3.333333333333329 2
  endloop
endfacet
facet normal -0.970143 0.242536 0
  outer loop
    vertex 10 40 0
    vertex 8.333333333333332 33.33333333333333 0
    vertex 9.166666666666666 36.66666666666666 2
  endloop
endfacet
facet normal -0.970143 0.242536 0
  outer loop
    vertex 0 0 4
    vertex 1.666666666666666 6.666666666666664 4
    vertex 0.8333333333333321 3.333333333333329 2
  endloop
endfacet
facet normal -0.970143 0.242536 0
  outer loop
    vertex 8.333333333333332 33.33333333333333 4
    vertex 10 40 4
    vertex 9.166666666666666 36.66666666666666 2
  endloop
endfacet
facet normal -0.970143 0.242536 0
  outer loop
    vertex 8.333333333333332 33.33333333333333 0
    vertex 6.666666666666665 26.66666666666666 0
    vertex 7.499999999999999 30 2
  endloop
endfacet
facet normal -0.970143 0.242536 0
  outer loop
    vertex 6.666666666666665 26.66666666666666 0
    vertex 4.999999999999999 20 0
    vertex 5.833333333333332 23.33333333333333 2
  endloop
endfacet
facet normal -0.970143 0.242536 0
  outer loop
    vertex 4.999999999999999 20 0
    vertex 3.333333333333331 13.33333333333333 0
    vertex 4.166666666666665 16.66666666666666 2
  endloop
endfacet
facet normal -0.970143 0.242536 0
  outer loop
    vertex 3.333333333333331 13.33333333333333 0
    vertex 1.666666666666666 6.666666666666664 0
    vertex 2.499999999999998 9.999999999999993 2
  endloop
endfacet
facet normal -0.970143 0.242536 0
  outer loop
    vertex 6.666666666666665 26.66666666666666 4
    vertex 8.333333333333332 33.33333333333333 4
    vertex 7.499999999999999 30 2
  endloop
endfacet
facet normal -0.970143 0.242536 0
  outer loop
    vertex 4.999999999999999 20 4
    vertex 6.666666666666665 26.66666666666666 4
    vertex 5.833333333333332 23.33333333333333 2
  endloop
endfacet
facet normal -0.970143 0.242536 0
  outer loop
    vertex 3.333333333333331 13.33333333333333 4
    vertex 4.999999999999999 20 4
    vertex 4.166666666666665 16.66666666666666 2
  endloop
endfacet
facet normal -0.970143 0.242536 0
  outer loop
    vertex 1.666666666666666 6.666666666666664 4
    vertex 3.333333333333331 13.33333333333333 4
    vertex 2.499999999999998 9.999999999999993 2
  endloop
endfacet
facet normal 0 0 1
  outer loop
    vertex 8.333333333333332 33.33333333333333 4
    vertex 14.95738949360055 34.39872135911168 4
    vertex 10 40 4
  endloop
endfacet
facet normal 0 0 1
  outer loop
    vertex 39.46865326979344 28.99984978405358 4
    vertex 33.427936521283 29.99616733245999 4
    vertex 35.26019947290209 23.38566902209056 4
  endloop
endfacet
facet normal 0 0 1
  outer loop
    vertex 21.0776178656202 11.85430720832352 4
    vertex 16.66666666666666 4.871107535465629 4
    vertex 23.33333333333332 5.773502691896251 4
  endloop
endfacet
facet normal -0 0 1
  outer loop
    vertex 10 40 4
    vertex 14.95738949360055 34.39872135911168 4
    vertex 16.00000000000001 40 4
  endloop
endfacet
facet normal 0 -0 1
  outer loop
    vertex 6.666666666666663 0 4
    vertex 9.993318047168433 4.898532107323675 4
    vertex 1.666666666666666 6.666666666666664 4
  endloop
endfacet
facet normal 0 0 1
  outer loop
    vertex 35.26019947290209 23.38566902209056 4
    vertex 33.427936521283 29.99616733245999 4
    vertex 29.90812347083963 25.76657842993347 4
  endloop
endfacet
facet normal 0 0 1
  outer loop
    vertex 48.57142857142856 22.85714285714288 4
    vertex 44.36411194967274 17.32595147542802 4
    vertex 51.42857142857142 17.14285714285717 4
  endloop
endfacet
facet normal -0 0 1
  outer loop
    vertex 13.66930097193373 10.58878604624842 4
    vertex 16.66666666666666 4.871107535465629 4
    vertex 21.0776178656202 11.85430720832352 4
  endloop
endfacet
facet normal 0 0 1
  outer loop
    vertex 47.56680733025699 11.61986562205112 4
    vertex 39.61359279285607 12.11329495013071 4
    vertex 43.59188104901172 5.766832838299917 4
  endloop
endfacet
facet normal -0 0 1
  outer loop
    vertex 1.666666666666666 6.666666666666664 4
    vertex 9.993318047168433 4.898532107323675 4
    vertex 7.941237290947761 9.893374136481714 4
  endloop
endfacet
facet normal 0 0 1
  outer loop
    vertex 1.666666666666666 6.666666666666664 4
    vertex 0 0 4
    vertex 6.666666666666663 0 4
  endloop
endfacet
facet normal 0 0 1
  outer loop
    vertex 39.46865326979344 28.99984978405358 4
    vertex 35.26019947290209 23.38566902209056 4
    vertex 41.87782691280891 23.00132269003652 4
  endloop
endfacet
facet normal 0 0 1
  outer loop
    vertex 47.56680733025699 11.61986562205112 4
    vertex 44.36411194967274 17.32595147542802 4
    vertex 39.61359279285607 12.11329495013071 4
  endloop
endfacet
facet normal -0 0 1
  outer loop
    vertex 43.59188104901172 5.766832838299917 4
    vertex 50.43120996797334 5.754925933868037 4
    vertex 47.56680733025699 11.61986562205112 4
  endloop
endfacet
facet normal 0 0 1
  outer loop
    vertex 41.87782691280891 23.00132269003652 4
    vertex 44.36411194967274 17.32595147542802 4
    vertex 48.57142857142856 22.85714285714288 4
  endloop
endfacet
facet normal 0 0 1
  outer loop
    vertex 51.42857142857142 17.14285714285717 4
    vertex 44.36411194967274 17.32595147542802 4
    vertex 47.56680733025699 11.61986562205112 4
  endloop
endfacet
facet normal 0 0 1
  outer loop
    vertex 13.66930097193373 10.58878604624842 4
    vertex 9.993318047168433 4.898532107323675 4
    vertex 16.66666666666666 4.871107535465629 4
  endloop
endfacet
facet normal 0 -0 1
  outer loop
    vertex 46.66666666666664 0 4
    vertex 50.43120996797334 5.754925933868037 4
    vertex 43.59188104901172 5.766832838299917 4
  endloop
endfacet
facet normal 0 0 1
  outer loop
    vertex 39.61359279285607 12.11329495013071 4
    vertex 38.97590856292875 18.40231891730603 4
    vertex 33.76381168640394 16.18535644884435 4
  endloop
endfacet
facet normal 0 0 1
  outer loop
    vertex 33.76381168640394 16.18535644884435 4
    vertex 32.87046763811795 10.52177630844371 4
    vertex 39.61359279285607 12.11329495013071 4
  endloop
endfacet
facet normal 0 0 1
  outer loop
    vertex 30.77694089670996 35.07664662591755 4
    vertex 26.57657088863663 29.95386821217134 4
    vertex 33.427936521283 29.99616733245999 4
  endloop
endfacet
facet normal -0 0 1
  outer loop
    vertex 7.941237290947761 9.893374136481714 4
    vertex 9.993318047168433 4.898532107323675 4
    vertex 13.66930097193373 10.58878604624842 4
  endloop
endfacet
facet normal 0 0 1
  outer loop
    vertex 20.43749339660386 30.19606020494709 4
    vertex 13.43033245950095 28.27854056631909 4
    vertex 18.05757833766492 23.60141637704314 4
  endloop
endfacet
facet normal 0 0 1
  outer loop
    vertex 33.427936521283 29.99616733245999 4
    vertex 26.57657088863663 29.95386821217134 4
    vertex 29.90812347083963 25.76657842993347 4
  endloop
endfacet
facet normal -0 0 1
  outer loop
    vertex 20.43749339660386 30.19606020494709 4
    vertex 26.57657088863663 29.95386821217134 4
    vertex 25.00000000000001 34.80384757729338 4
  endloop
endfacet
facet normal 0 0 1
  outer loop
    vertex 18.05757833766492 23.60141637704314 4
    vertex 13.43033245950095 28.27854056631909 4
    vertex 11.55974275112735 21.84930905548886 4
  endloop
endfacet
facet normal 0 0 1
  outer loop
    vertex 60 0 4
    vertex 57.14285714285714 5.714285714285726 4
    vertex 53.33333333333331 0 4
  endloop
endfacet
facet normal 0 -0 1
  outer loop
    vertex 13.43033245950095 28.27854056631909 4
    vertex 14.95738949360055 34.39872135911168 4
    vertex 8.333333333333332 33.33333333333333 4
  endloop
endfacet
facet normal 0 0 1
  outer loop
    vertex 53.33333333333331 0 4
    vertex 50.43120996797334 5.754925933868037 4
    vertex 46.66666666666664 0 4
  endloop
endfacet
facet normal 0 -0 1
  outer loop
    vertex 16.41317617177391 17.11506157965241 4
    vertex 18.05757833766492 23.60141637704314 4
    vertex 11.55974275112735 21.84930905548886 4
  endloop
endfacet
facet normal 0 0 1
  outer loop
    vertex 9.845599318197856 15.44139829451647 4
    vertex 16.41317617177391 17.11506157965241 4
    vertex 11.55974275112735 21.84930905548886 4
  endloop
endfacet
facet normal 0 0 1
  outer loop
    vertex 24.51181178937846 25.01149937393382 4
    vertex 20.43749339660386 30.19606020494709 4
    vertex 18.05757833766492 23.60141637704314 4
  endloop
endfacet
facet normal -0 0 1
  outer loop
    vertex 9.845599318197856 15.44139829451647 4
    vertex 13.66930097193373 10.58878604624842 4
    vertex 16.41317617177391 17.11506157965241 4
  endloop
endfacet
facet normal 0 -0 1
  outer loop
    vertex 22.77630572157111 18.92541192395369 4
    vertex 24.51181178937846 25.01149937393382 4
    vertex 18.05757833766492 23.60141637704314 4
  endloop
endfacet
facet normal 0 0 1
  outer loop
    vertex 57.14285714285714 5.714285714285726 4
    vertex 50.43120996797334 5.754925933868037 4
    vertex 53.33333333333331 0 4
  endloop
endfacet
facet normal 0 0 1
  outer loop
    vertex 16.41317617177391 17.11506157965241 4
    vertex 22.77630572157111 18.92541192395369 4
    vertex 18.05757833766492 23.60141637704314 4
  endloop
endfacet
facet normal -0 0 1
  outer loop
    vertex 4.999999999999999 20 4
    vertex 9.845599318197856 15.44139829451647 4
    vertex 11.55974275112735 21.84930905548886 4
  endloop
endfacet
facet normal 0 0 1
  outer loop
    vertex 22.77630572157111 18.92541192395369 4
    vertex 21.0776178656202 11.85430720832352 4
    vertex 27.79978370920821 14.6834987119589 4
  endloop
endfacet
facet normal 0 -0 1
  outer loop
    vertex 11.55974275112735 21.84930905548886 4
    vertex 13.43033245950095 28.27854056631909 4
    vertex 6.666666666666665 26.66666666666666 4
  endloop
endfacet
facet normal -0 0 1
  outer loop
    vertex 16.41317617177391 17.11506157965241 4
    vertex 21.0776178656202 11.85430720832352 4
    vertex 22.77630572157111 18.92541192395369 4
  endloop
endfacet
facet normal 0 0 1
  outer loop
    vertex 6.666666666666665 26.66666666666666 4
    vertex 13.43033245950095 28.27854056631909 4
    vertex 8.333333333333332 33.33333333333333 4
  endloop
endfacet
facet normal 0 0 1
  outer loop
    vertex 43.59188104901172 5.766832838299917 4
    vertex 39.61359279285607 12.11329495013071 4
    vertex 36.67063634048858 5.579015412667836 4
  endloop
endfacet
facet normal 0 -0 1
  outer loop
    vertex 26.66666666666665 0 4
    vertex 30.0127053216302 5.481429645481965 4
    vertex 23.33333333333332 5.773502691896251 4
  endloop
endfacet
facet normal 0 0 1
  outer loop
    vertex 7.941237290947761 9.893374136481714 4
    vertex 13.66930097193373 10.58878604624842 4
    vertex 9.845599318197856 15.44139829451647 4
  endloop
endfacet
facet normal 0 0 1
  outer loop
    vertex 54.28571428571427 11.42857142857146 4
    vertex 50.43120996797334 5.754925933868037 4
    vertex 57.14285714285714 5.714285714285726 4
  endloop
endfacet
facet normal 0 0 1
  outer loop
    vertex 13.66930097193373 10.58878604624842 4
    vertex 21.0776178656202 11.85430720832352 4
    vertex 16.41317617177391 17.11506157965241 4
  endloop
endfacet
facet normal 0 -0 1
  outer loop
    vertex 39.99999999999999 0 4
    vertex 43.59188104901172 5.766832838299917 4
    vertex 36.67063634048858 5.579015412667836 4
  endloop
endfacet
facet normal 0 -0 1
  outer loop
    vertex 29.08957054165985 20.65546283499162 4
    vertex 29.90812347083963 25.76657842993347 4
    vertex 24.51181178937846 25.01149937393382 4
  endloop
endfacet
facet normal 0 -0 1
  outer loop
    vertex 7.941237290947761 9.893374136481714 4
    vertex 9.845599318197856 15.44139829451647 4
    vertex 3.333333333333331 13.33333333333333 4
  endloop
endfacet
facet normal 0 0 1
  outer loop
    vertex 22.77630572157111 18.92541192395369 4
    vertex 29.08957054165985 20.65546283499162 4
    vertex 24.51181178937846 25.01149937393382 4
  endloop
endfacet
facet normal 0 0 1
  outer loop
    vertex 4.999999999999999 20 4
    vertex 11.55974275112735 21.84930905548886 4
    vertex 6.666666666666665 26.66666666666666 4
  endloop
endfacet
facet normal 0 0 1
  outer loop
    vertex 47.56680733025699 11.61986562205112 4
    vertex 50.43120996797334 5.754925933868037 4
    vertex 54.28571428571427 11.42857142857146 4
  endloop
endfacet
facet normal 0 0 1
  outer loop
    vertex 1.666666666666666 6.666666666666664 4
    vertex 7.941237290947761 9.893374136481714 4
    vertex 3.333333333333331 13.33333333333333 4
  endloop
endfacet
facet normal 0 0 1
  outer loop
    vertex 46.66666666666664 0 4
    vertex 43.59188104901172 5.766832838299917 4
    vertex 39.99999999999999 0 4
  endloop
endfacet
facet normal 0 0 1
  outer loop
    vertex 36.67063634048858 5.579015412667836 4
    vertex 30.0127053216302 5.481429645481965 4
    vertex 33.33333333333332 0 4
  endloop
endfacet
facet normal 0 0 1
  outer loop
    vertex 26.66666666666665 0 4
    vertex 23.33333333333332 5.773502691896251 4
    vertex 19.99999999999999 0 4
  endloop
endfacet
facet normal 0 0 1
  outer loop
    vertex 3.333333333333331 13.33333333333333 4
    vertex 9.845599318197856 15.44139829451647 4
    vertex 4.999999999999999 20 4
  endloop
endfacet
facet normal 0 0 1
  outer loop
    vertex 39.99999999999999 0 4
    vertex 36.67063634048858 5.579015412667836 4
    vertex 33.33333333333332 0 4
  endloop
endfacet
facet normal 0 0 1
  outer loop
    vertex 33.33333333333332 0 4
    vertex 30.0127053216302 5.481429645481965 4
    vertex 26.66666666666665 0 4
  endloop
endfacet
facet normal 0 0 1
  outer loop
    vertex 27.79978370920821 14.6834987119589 4
    vertex 33.76381168640394 16.18535644884435 4
    vertex 29.08957054165985 20.65546283499162 4
  endloop
endfacet
facet normal 0 0 1
  outer loop
    vertex 42.85714285714285 34.2857142857143 4
    vertex 39.46865326979344 28.99984978405358 4
    vertex 45.7142857142857 28.5714285714286 4
  endloop
endfacet
facet normal 0 0 1
  outer loop
    vertex 29.08957054165985 20.65546283499162 4
    vertex 35.26019947290209 23.38566902209056 4
    vertex 29.90812347083963 25.76657842993347 4
  endloop
endfacet
facet normal 0 0 1
  outer loop
    vertex 45.7142857142857 28.5714285714286 4
    vertex 41.87782691280891 23.00132269003652 4
    vertex 48.57142857142856 22.85714285714288 4
  endloop
endfacet
facet normal -0 0 1
  outer loop
    vertex 22.77630572157111 18.92541192395369 4
    vertex 27.79978370920821 14.6834987119589 4
    vertex 29.08957054165985 20.65546283499162 4
  endloop
endfacet
facet normal 0 0 1
  outer loop
    vertex 45.7142857142857 28.5714285714286 4
    vertex 39.46865326979344 28.99984978405358 4
    vertex 41.87782691280891 23.00132269003652 4
  endloop
endfacet
facet normal 0 0 1
  outer loop
    vertex 51.42857142857142 17.14285714285717 4
    vertex 47.56680733025699 11.61986562205112 4
    vertex 54.28571428571427 11.42857142857146 4
  endloop
endfacet
facet normal 0 -0 1
  outer loop
    vertex 33.76381168640394 16.18535644884435 4
    vertex 35.26019947290209 23.38566902209056 4
    vertex 29.08957054165985 20.65546283499162 4
  endloop
endfacet
facet normal -0 0 1
  outer loop
    vertex 27.79978370920821 14.6834987119589 4
    vertex 32.87046763811795 10.52177630844371 4
    vertex 33.76381168640394 16.18535644884435 4
  endloop
endfacet
facet normal 0 0 1
  outer loop
    vertex 25.00000000000001 34.80384757729338 4
    vertex 19.99466557298197 35.62734211742438 4
    vertex 20.43749339660386 30.19606020494709 4
  endloop
endfacet
facet normal -0 0 1
  outer loop
    vertex 28.00000000000001 40 4
    vertex 30.77694089670996 35.07664662591755 4
    vertex 34 40 4
  endloop
endfacet
facet normal -0 0 1
  outer loop
    vertex 22.00000000000001 40 4
    vertex 25.00000000000001 34.80384757729338 4
    vertex 28.00000000000001 40 4
  endloop
endfacet
facet normal 0 0 1
  outer loop
    vertex 44.36411194967274 17.32595147542802 4
    vertex 38.97590856292875 18.40231891730603 4
    vertex 39.61359279285607 12.11329495013071 4
  endloop
endfacet
facet normal 0 0 1
  outer loop
    vertex 20.43749339660386 30.19606020494709 4
    vertex 14.95738949360055 34.39872135911168 4
    vertex 13.43033245950095 28.27854056631909 4
  endloop
endfacet
facet normal 0 0 1
  outer loop
    vertex 42.85714285714285 34.2857142857143 4
    vertex 37.00000000000001 34.92857142857144 4
    vertex 39.46865326979344 28.99984978405358 4
  endloop
endfacet
facet normal 0 0 1
  outer loop
    vertex 25.00000000000001 34.80384757729338 4
    vertex 30.77694089670996 35.07664662591755 4
    vertex 28.00000000000001 40 4
  endloop
endfacet
facet normal 0 -0 1
  outer loop
    vertex 24.51181178937846 25.01149937393382 4
    vertex 26.57657088863663 29.95386821217134 4
    vertex 20.43749339660386 30.19606020494709 4
  endloop
endfacet
facet normal 0 0 1
  outer loop
    vertex 27.79978370920821 14.6834987119589 4
    vertex 26.68453463334564 9.470897440646283 4
    vertex 32.87046763811795 10.52177630844371 4
  endloop
endfacet
facet normal 0 0 1
  outer loop
    vertex 40 40 4
    vertex 37.00000000000001 34.92857142857144 4
    vertex 42.85714285714285 34.2857142857143 4
  endloop
endfacet
facet normal 0 0 1
  outer loop
    vertex 39.61359279285607 12.11329495013071 4
    vertex 32.87046763811795 10.52177630844371 4
    vertex 36.67063634048858 5.579015412667836 4
  endloop
endfacet
facet normal -0 0 1
  outer loop
    vertex 34 40 4
    vertex 37.00000000000001 34.92857142857144 4
    vertex 40 40 4
  endloop
endfacet
facet normal 0 0 1
  outer loop
    vertex 23.33333333333332 5.773502691896251 4
    vertex 16.66666666666666 4.871107535465629 4
    vertex 19.99999999999999 0 4
  endloop
endfacet
facet normal -0 0 1
  outer loop
    vertex 30.77694089670996 35.07664662591755 4
    vertex 37.00000000000001 34.92857142857144 4
    vertex 34 40 4
  endloop
endfacet
facet normal 0 0 1
  outer loop
    vertex 35.26019947290209 23.38566902209056 4
    vertex 38.97590856292875 18.40231891730603 4
    vertex 41.87782691280891 23.00132269003652 4
  endloop
endfacet
facet normal -0 0 1
  outer loop
    vertex 25.00000000000001 34.80384757729338 4
    vertex 26.57657088863663 29.95386821217134 4
    vertex 30.77694089670996 35.07664662591755 4
  endloop
endfacet
facet normal -0 0 1
  outer loop
    vertex 16.00000000000001 40 4
    vertex 19.99466557298197 35.62734211742438 4
    vertex 22.00000000000001 40 4
  endloop
endfacet
facet normal 0 -0 1
  outer loop
    vertex 23.33333333333332 5.773502691896251 4
    vertex 26.68453463334564 9.470897440646283 4
    vertex 21.0776178656202 11.85430720832352 4
  endloop
endfacet
facet normal 0 0 1
  outer loop
    vertex 41.87782691280891 23.00132269003652 4
    vertex 38.97590856292875 18.40231891730603 4
    vertex 44.36411194967274 17.32595147542802 4
  endloop
endfacet
facet normal 0 0 1
  outer loop
    vertex 14.95738949360055 34.39872135911168 4
    vertex 19.99466557298197 35.62734211742438 4
    vertex 16.00000000000001 40 4
  endloop
endfacet
facet normal 0 0 1
  outer loop
    vertex 19.99999999999999 0 4
    vertex 16.66666666666666 4.871107535465629 4
    vertex 13.33333333333333 0 4
  endloop
endfacet
facet normal 0 0 1
  outer loop
    vertex 36.67063634048858 5.579015412667836 4
    vertex 32.87046763811795 10.52177630844371 4
    vertex 30.0127053216302 5.481429645481965 4
  endloop
endfacet
facet normal -0 0 1
  outer loop
    vertex 21.0776178656202 11.85430720832352 4
    vertex 26.68453463334564 9.470897440646283 4
    vertex 27.79978370920821 14.6834987119589 4
  endloop
endfacet
facet normal 0 0 1
  outer loop
    vertex 37.00000000000001 34.92857142857144 4
    vertex 33.427936521283 29.99616733245999 4
    vertex 39.46865326979344 28.99984978405358 4
  endloop
endfacet
facet normal 0 0 1
  outer loop
    vertex 32.87046763811795 10.52177630844371 4
    vertex 26.68453463334564 9.470897440646283 4
    vertex 30.0127053216302 5.481429645481965 4
  endloop
endfacet
facet normal 0 0 1
  outer loop
    vertex 16.66666666666666 4.871107535465629 4
    vertex 9.993318047168433 4.898532107323675 4
    vertex 13.33333333333333 0 4
  endloop
endfacet
facet normal 0 0 1
  outer loop
    vertex 29.90812347083963 25.76657842993347 4
    vertex 26.57657088863663 29.95386821217134 4
    vertex 24.51181178937846 25.01149937393382 4
  endloop
endfacet
facet normal 0 0 1
  outer loop
    vertex 33.76381168640394 16.18535644884435 4
    vertex 38.97590856292875 18.40231891730603 4
    vertex 35.26019947290209 23.38566902209056 4
  endloop
endfacet
facet normal 0 0 1
  outer loop
    vertex 20.43749339660386 30.19606020494709 4
    vertex 19.99466557298197 35.62734211742438 4
    vertex 14.95738949360055 34.39872135911168 4
  endloop
endfacet
facet normal 0 0 1
  outer loop
    vertex 30.0127053216302 5.481429645481965 4
    vertex 26.68453463334564 9.470897440646283 4
    vertex 23.33333333333332 5.773502691896251 4
  endloop
endfacet
facet normal 0 0 1
  outer loop
    vertex 22.00000000000001 40 4
    vertex 19.99466557298197 35.62734211742438 4
    vertex 25.00000000000001 34.80384757729338 4
  endloop
endfacet
facet normal 0 0 1
  outer loop
    vertex 30.77694089670996 35.07664662591755 4
    vertex 33.427936521283 29.99616733245999 4
    vertex 37.00000000000001 34.92857142857144 4
  endloop
endfacet
facet normal 0 0 1
  outer loop
    vertex 13.33333333333333 0 4
    vertex 9.993318047168433 4.898532107323675 4
    vertex 6.666666666666663 0 4
  endloop
endfacet
endsolid Created by Gmsh
