solid Created by Gmsh
facet normal 0.879395 -0.217527 0.423494
  outer loop
    vertex 43.11744900929367 -5.662141986736729e-15 3.909157412340146
    vertex 41.64503601494883 -4.792676243813385 4.504907285113825
    vertex 45 -6.123233995736766e-15 -1.224646799147353e-15
  endloop
endfacet
facet normal -0.260342 -0.353186 0.8986
  outer loop
    vertex 14.43697665109205 -24.37319780454557 -1.224646799147353e-15
    vertex 20.33471561681532 -17.58168587452224 4.378030984190205
    vertex 12.0440508144967 -14.17651443184427 3.314437071866508
  endloop
endfacet
facet normal 0.385543 -0.544191 0.745126
  outer loop
    vertex 38.07997372953113 -11.14759599344563 4.843699225429859
    vertex 32.7270112964736 -14.76162251159963 4.973980397148336
    vertex 35.58724504646825 -19.54578706170082 -1.224646799147353e-15
  endloop
endfacet
facet normal -0.0239783 -0.500229 0.865561
  outer loop
    vertex 4.412754953531625 -19.54578706170071 -1.224646799147353e-15
    vertex 12.0440508144967 -14.17651443184427 3.314437071866508
    vertex 3.101942617457315 -10.83218890031179 4.99948319493986
  endloop
endfacet
facet normal 0.367681 0.646112 0.668842
  outer loop
    vertex 12.0440508144967 -14.17651443184427 3.314437071866508
    vertex 7.882174588334012 -8.88095148454525 0.4867361312018401
    vertex 3.101942617457315 -10.83218890031179 4.99948319493986
  endloop
endfacet
facet normal 0.335784 0.90215 0.270877
  outer loop
    vertex 20.33471561681532 -17.58168587452224 4.378030984190205
    vertex 17.01998734788825 -14.77633831731531 -0.8561230729989582
    vertex 12.0440508144967 -14.17651443184427 3.314437071866508
  endloop
endfacet
facet normal -0.163475 -0.33946 0.926306
  outer loop
    vertex 14.43697665109205 -24.37319780454557 -1.224646799147353e-15
    vertex 12.0440508144967 -14.17651443184427 3.314437071866508
    vertex 4.412754953531625 -19.54578706170071 -1.224646799147353e-15
  endloop
endfacet
facet normal 0.498248 0.639669 -0.585297
  outer loop
    vertex 3.760210819742156 -10.6604167743419 -4.966960262127926
    vertex 7.882174588334012 -8.88095148454525 0.4867361312018401
    vertex 10.96514325451363 -16.07407013056893 -4.750150128423253
  endloop
endfacet
facet normal -0.430936 0.875884 0.217077
  outer loop
    vertex 27.85843264781385 -12.77733262848662 -0.07116120989431525
    vertex 22.48036614758386 -15.05102088494725 -1.573459030793977
    vertex 20.33471561681532 -17.58168587452224 4.378030984190205
  endloop
endfacet
facet normal -0.586439 -0.46767 0.661343
  outer loop
    vertex 4.412754953531625 -19.54578706170071 -1.224646799147353e-15
    vertex 3.101942617457315 -10.83218890031179 4.99948319493986
    vertex -2.524221697560488 -10.84709347793893 -1.224646799147353e-15
  endloop
endfacet
facet normal 0.646916 -0.515898 0.56156
  outer loop
    vertex 42.52422169756045 -10.84709347793902 -1.224646799147353e-15
    vertex 38.07997372953113 -11.14759599344563 4.843699225429859
    vertex 35.58724504646825 -19.54578706170082 -1.224646799147353e-15
  endloop
endfacet
facet normal 0.82115 0.52121 -0.232494
  outer loop
    vertex 10.96514325451363 -16.07407013056893 -4.750150128423253
    vertex 7.882174588334012 -8.88095148454525 0.4867361312018401
    vertex 12.0440508144967 -14.17651443184427 3.314437071866508
  endloop
endfacet
facet normal -2.59514e-15 -0.541813 0.840499
  outer loop
    vertex 25.56302334890773 -24.37319780454562 -1.224646799147353e-15
    vertex 20.33471561681532 -17.58168587452224 4.378030984190205
    vertex 14.43697665109205 -24.37319780454557 -1.224646799147353e-15
  endloop
endfacet
facet normal -0.000883039 0.680211 0.733016
  outer loop
    vertex 20.33471561681532 -17.58168587452224 4.378030984190205
    vertex 28.57640230350957 -18.23866679259632 4.997612579344348
    vertex 27.85843264781385 -12.77733262848662 -0.07116120989431525
  endloop
endfacet
facet normal -0.122298 -0.531068 -0.838457
  outer loop
    vertex 14.43697665109205 -24.37319780454557 -1.224646799147353e-15
    vertex 10.96514325451363 -16.07407013056893 -4.750150128423253
    vertex 19.99999999999991 -18.25599481956586 -4.685983987447981
  endloop
endfacet
facet normal -0.357169 0.577867 -0.733826
  outer loop
    vertex 27.85843264781385 -12.77733262848662 -0.07116120989431525
    vertex 34.82550372943318 -14.64076170454093 -4.929580122270275
    vertex 28.59624452474477 -18.55469414053896 -4.979775951531067
  endloop
endfacet
facet normal -2.9127e-15 -0.608115 -0.793849
  outer loop
    vertex 14.43697665109205 -24.37319780454557 -1.224646799147353e-15
    vertex 19.99999999999991 -18.25599481956586 -4.685983987447981
    vertex 25.56302334890773 -24.37319780454562 -1.224646799147353e-15
  endloop
endfacet
facet normal -0.541638 0.137196 -0.829341
  outer loop
    vertex 33.72910775817682 -8.522602865959209 -3.201416404433806
    vertex 34.82550372943318 -14.64076170454093 -4.929580122270275
    vertex 27.85843264781385 -12.77733262848662 -0.07116120989431525
  endloop
endfacet
facet normal -0.057921 0.642091 -0.764437
  outer loop
    vertex 28.59624452474477 -18.55469414053896 -4.979775951531067
    vertex 22.48036614758386 -15.05102088494725 -1.573459030793977
    vertex 27.85843264781385 -12.77733262848662 -0.07116120989431525
  endloop
endfacet
facet normal -0.549355 -0.438096 -0.711535
  outer loop
    vertex -2.524221697560488 -10.84709347793893 -1.224646799147353e-15
    vertex 3.760210819742156 -10.6604167743419 -4.966960262127926
    vertex 4.412754953531625 -19.54578706170071 -1.224646799147353e-15
  endloop
endfacet
facet normal 0.836142 0.260426 0.482747
  outer loop
    vertex 2.499999999999996 0 4.330127018922195
    vertex 4.687899892688185 -4.351253682052303 2.887926741088749
    vertex 5 -6.123233995736766e-15 -1.224646799147353e-15
  endloop
endfacet
facet normal -0.335013 -0.478371 -0.811743
  outer loop
    vertex 3.760210819742156 -10.6604167743419 -4.966960262127926
    vertex 10.96514325451363 -16.07407013056893 -4.750150128423253
    vertex 4.412754953531625 -19.54578706170071 -1.224646799147353e-15
  endloop
endfacet
facet normal 0.196523 0.796959 -0.57117
  outer loop
    vertex 10.96514325451363 -16.07407013056893 -4.750150128423253
    vertex 17.01998734788825 -14.77633831731531 -0.8561230729989582
    vertex 19.99999999999991 -18.25599481956586 -4.685983987447981
  endloop
endfacet
facet normal -0.270123 -0.560917 -0.782564
  outer loop
    vertex 4.412754953531625 -19.54578706170071 -1.224646799147353e-15
    vertex 10.96514325451363 -16.07407013056893 -4.750150128423253
    vertex 14.43697665109205 -24.37319780454557 -1.224646799147353e-15
  endloop
endfacet
facet normal -0.107328 -0.595737 0.795977
  outer loop
    vertex 25.56302334890773 -24.37319780454562 -1.224646799147353e-15
    vertex 28.57640230350957 -18.23866679259632 4.997612579344348
    vertex 20.33471561681532 -17.58168587452224 4.378030984190205
  endloop
endfacet
facet normal -0.0484134 -0.634776 -0.771178
  outer loop
    vertex 19.99999999999991 -18.25599481956586 -4.685983987447981
    vertex 28.59624452474477 -18.55469414053896 -4.979775951531067
    vertex 25.56302334890773 -24.37319780454562 -1.224646799147353e-15
  endloop
endfacet
facet normal -0.968077 0.250655 4.55725e-32
  outer loop
    vertex 35.4951556604879 -3.795218556381301e-15 -2.169418695587788
    vertex 34.49185364369475 -3.874942446133276 -0.09831455185931412
    vertex 35.4951556604879 -3.795218556381301e-15 2.169418695587793
  endloop
endfacet
facet normal 0.834849 0.265901 -0.482
  outer loop
    vertex 5 -6.123233995736766e-15 -1.224646799147353e-15
    vertex 5.060809464929894 -4.589362675353275 -2.426448522516859
    vertex 2.499999999999999 0 -4.330127018922195
  endloop
endfacet
facet normal 0.34072 -0.707512 -0.619141
  outer loop
    vertex 25.56302334890773 -24.37319780454562 -1.224646799147353e-15
    vertex 28.59624452474477 -18.55469414053896 -4.979775951531067
    vertex 35.58724504646825 -19.54578706170082 -1.224646799147353e-15
  endloop
endfacet
facet normal 0.331521 -0.688411 0.645124
  outer loop
    vertex 35.58724504646825 -19.54578706170082 -1.224646799147353e-15
    vertex 28.57640230350957 -18.23866679259632 4.997612579344348
    vertex 25.56302334890773 -24.37319780454562 -1.224646799147353e-15
  endloop
endfacet
facet normal -0.000301351 0.696805 -0.717261
  outer loop
    vertex 19.99999999999991 -18.25599481956586 -4.685983987447981
    vertex 22.48036614758386 -15.05102088494725 -1.573459030793977
    vertex 28.59624452474477 -18.55469414053896 -4.979775951531067
  endloop
endfacet
facet normal 1.75932e-16 0.138184 -0.990407
  outer loop
    vertex 2.499999999999999 0 -4.330127018922195
    vertex 0.5015962852078957 -4.79664359466025 -4.999364280107772
    vertex -2.499999999999996 0 -4.330127018922195
  endloop
endfacet
facet normal 0.628109 -0.500901 -0.595464
  outer loop
    vertex 35.58724504646825 -19.54578706170082 -1.224646799147353e-15
    vertex 34.82550372943318 -14.64076170454093 -4.929580122270275
    vertex 42.52422169756045 -10.84709347793902 -1.224646799147353e-15
  endloop
endfacet
facet normal -0.612108 -0.386317 0.689987
  outer loop
    vertex -2.524221697560488 -10.84709347793893 -1.224646799147353e-15
    vertex 3.101942617457315 -10.83218890031179 4.99948319493986
    vertex -0.7844360554800467 -5.021527426942126 4.80508833456806
  endloop
endfacet
facet normal -0.608124 0.791165 -0.0651407
  outer loop
    vertex 33.72910775817682 -8.522602865959209 -3.201416404433806
    vertex 27.85843264781385 -12.77733262848662 -0.07116120989431525
    vertex 33.45383809223188 -8.249581487715757 2.684354262016697
  endloop
endfacet
facet normal -0.612196 0.189475 0.767669
  outer loop
    vertex 35.4951556604879 -3.795218556381301e-15 2.169418695587793
    vertex 36.60470006417321 -4.223225406873911 4.096623031199885
    vertex 38.88739533021843 -4.626077647076534e-15 4.874639560909119
  endloop
endfacet
facet normal 0.667359 0.0779983 0.740641
  outer loop
    vertex 3.101942617457315 -10.83218890031179 4.99948319493986
    vertex 7.882174588334012 -8.88095148454525 0.4867361312018401
    vertex 4.687899892688185 -4.351253682052303 2.887926741088749
  endloop
endfacet
facet normal -7.07386e-16 0.0941648 0.995557
  outer loop
    vertex -2.500000000000002 0 4.330127018922192
    vertex -0.7844360554800467 -5.021527426942126 4.80508833456806
    vertex 2.499999999999996 0 4.330127018922195
  endloop
endfacet
facet normal 0.342357 -0.135992 0.929676
  outer loop
    vertex 2.499999999999996 0 4.330127018922195
    vertex -0.7844360554800467 -5.021527426942126 4.80508833456806
    vertex 4.687899892688185 -4.351253682052303 2.887926741088749
  endloop
endfacet
facet normal -0.612399 0.187775 -0.767924
  outer loop
    vertex 38.88739533021842 -4.626077647076533e-15 -4.874639560909118
    vertex 36.66405024536616 -4.249339772405014 -4.140643281305699
    vertex 35.4951556604879 -3.795218556381301e-15 -2.169418695587788
  endloop
endfacet
facet normal 0.997174 -0.0243592 0.0710631
  outer loop
    vertex 4.687899892688185 -4.351253682052303 2.887926741088749
    vertex 5.060809464929894 -4.589362675353275 -2.426448522516859
    vertex 5 -6.123233995736766e-15 -1.224646799147353e-15
  endloop
endfacet
facet normal -0.978801 0.19731 -0.0549298
  outer loop
    vertex 34.49185364369475 -3.874942446133276 -0.09831455185931412
    vertex 33.72910775817682 -8.522602865959209 -3.201416404433806
    vertex 33.45383809223188 -8.249581487715757 2.684354262016697
  endloop
endfacet
facet normal -0.0670882 0.973188 -0.220011
  outer loop
    vertex 12.0440508144967 -14.17651443184427 3.314437071866508
    vertex 17.01998734788825 -14.77633831731531 -0.8561230729989582
    vertex 10.96514325451363 -16.07407013056893 -4.750150128423253
  endloop
endfacet
facet normal -0.776723 0.432915 -0.457478
  outer loop
    vertex 34.49185364369475 -3.874942446133276 -0.09831455185931412
    vertex 36.66405024536616 -4.249339772405014 -4.140643281305699
    vertex 33.72910775817682 -8.522602865959209 -3.201416404433806
  endloop
endfacet
facet normal 0.579481 -0.37215 -0.725056
  outer loop
    vertex 42.52422169756045 -10.84709347793902 -1.224646799147353e-15
    vertex 38.04047629935474 -8.097271943847598 -4.994905247067034
    vertex 41.09407963449453 -3.734898496218889 -4.793476078344939
  endloop
endfacet
facet normal 0.779682 0.0921479 -0.619359
  outer loop
    vertex 5.060809464929894 -4.589362675353275 -2.426448522516859
    vertex 7.882174588334012 -8.88095148454525 0.4867361312018401
    vertex 3.760210819742156 -10.6604167743419 -4.966960262127926
  endloop
endfacet
facet normal 0.698711 -0.358981 0.618818
  outer loop
    vertex 41.64503601494883 -4.792676243813385 4.504907285113825
    vertex 38.07997372953113 -11.14759599344563 4.843699225429859
    vertex 42.52422169756045 -10.84709347793902 -1.224646799147353e-15
  endloop
endfacet
facet normal 0.296665 0.229433 0.927012
  outer loop
    vertex -0.7844360554800467 -5.021527426942126 4.80508833456806
    vertex 3.101942617457315 -10.83218890031179 4.99948319493986
    vertex 4.687899892688185 -4.351253682052303 2.887926741088749
  endloop
endfacet
facet normal -0.614922 0.321769 0.719956
  outer loop
    vertex 27.85843264781385 -12.77733262848662 -0.07116120989431525
    vertex 32.7270112964736 -14.76162251159963 4.973980397148336
    vertex 33.45383809223188 -8.249581487715757 2.684354262016697
  endloop
endfacet
facet normal 0.824858 0.5644 0.0325925
  outer loop
    vertex 4.687899892688185 -4.351253682052303 2.887926741088749
    vertex 7.882174588334012 -8.88095148454525 0.4867361312018401
    vertex 5.060809464929894 -4.589362675353275 -2.426448522516859
  endloop
endfacet
facet normal -0.580102 -0.326498 -0.746244
  outer loop
    vertex 0.5015962852078957 -4.79664359466025 -4.999364280107772
    vertex 3.760210819742156 -10.6604167743419 -4.966960262127926
    vertex -2.524221697560488 -10.84709347793893 -1.224646799147353e-15
  endloop
endfacet
facet normal -0.881542 -0.0237646 -0.471507
  outer loop
    vertex 35.4951556604879 -3.795218556381301e-15 -2.169418695587788
    vertex 36.66405024536616 -4.249339772405014 -4.140643281305699
    vertex 34.49185364369475 -3.874942446133276 -0.09831455185931412
  endloop
endfacet
facet normal -0.778043 0.458073 0.429905
  outer loop
    vertex 34.49185364369475 -3.874942446133276 -0.09831455185931412
    vertex 33.45383809223188 -8.249581487715757 2.684354262016697
    vertex 36.60470006417321 -4.223225406873911 4.096623031199885
  endloop
endfacet
facet normal 0.22118 0.109621 -0.969052
  outer loop
    vertex 43.11744900929367 -5.662141986736728e-15 -3.90915741234015
    vertex 41.09407963449453 -3.734898496218889 -4.793476078344939
    vertex 38.88739533021842 -4.626077647076533e-15 -4.874639560909118
  endloop
endfacet
facet normal 0.222211 0.0527509 0.973571
  outer loop
    vertex 38.88739533021843 -4.626077647076534e-15 4.874639560909119
    vertex 41.64503601494883 -4.792676243813385 4.504907285113825
    vertex 43.11744900929367 -5.662141986736729e-15 3.909157412340146
  endloop
endfacet
facet normal 0.395006 -0.619982 -0.677932
  outer loop
    vertex 28.59624452474477 -18.55469414053896 -4.979775951531067
    vertex 34.82550372943318 -14.64076170454093 -4.929580122270275
    vertex 35.58724504646825 -19.54578706170082 -1.224646799147353e-15
  endloop
endfacet
facet normal -0.893714 -0.0305464 0.447597
  outer loop
    vertex 34.49185364369475 -3.874942446133276 -0.09831455185931412
    vertex 36.60470006417321 -4.223225406873911 4.096623031199885
    vertex 35.4951556604879 -3.795218556381301e-15 2.169418695587793
  endloop
endfacet
facet normal 0.492628 -0.0843959 -0.866138
  outer loop
    vertex 5.060809464929894 -4.589362675353275 -2.426448522516859
    vertex 0.5015962852078957 -4.79664359466025 -4.999364280107772
    vertex 2.499999999999999 0 -4.330127018922195
  endloop
endfacet
facet normal 0.466481 0.254551 -0.847112
  outer loop
    vertex 5.060809464929894 -4.589362675353275 -2.426448522516859
    vertex 3.760210819742156 -10.6604167743419 -4.966960262127926
    vertex 0.5015962852078957 -4.79664359466025 -4.999364280107772
  endloop
endfacet
facet normal -0.470504 0.566249 0.676748
  outer loop
    vertex 28.57640230350957 -18.23866679259632 4.997612579344348
    vertex 32.7270112964736 -14.76162251159963 4.973980397148336
    vertex 27.85843264781385 -12.77733262848662 -0.07116120989431525
  endloop
endfacet
facet normal 0.616303 -0.310032 -0.723913
  outer loop
    vertex 42.52422169756045 -10.84709347793902 -1.224646799147353e-15
    vertex 34.82550372943318 -14.64076170454093 -4.929580122270275
    vertex 38.04047629935474 -8.097271943847598 -4.994905247067034
  endloop
endfacet
facet normal -0.0946998 -0.130624 0.986899
  outer loop
    vertex 38.88739533021843 -4.626077647076534e-15 4.874639560909119
    vertex 36.60470006417321 -4.223225406873911 4.096623031199885
    vertex 41.64503601494883 -4.792676243813385 4.504907285113825
  endloop
endfacet
facet normal 0.433217 -0.512098 0.741673
  outer loop
    vertex 35.58724504646825 -19.54578706170082 -1.224646799147353e-15
    vertex 32.7270112964736 -14.76162251159963 4.973980397148336
    vertex 28.57640230350957 -18.23866679259632 4.997612579344348
  endloop
endfacet
facet normal -0.210729 0.345094 0.914606
  outer loop
    vertex 33.45383809223188 -8.249581487715757 2.684354262016697
    vertex 32.7270112964736 -14.76162251159963 4.973980397148336
    vertex 38.07997372953113 -11.14759599344563 4.843699225429859
  endloop
endfacet
facet normal -0.133636 -0.100381 -0.985934
  outer loop
    vertex 41.09407963449453 -3.734898496218889 -4.793476078344939
    vertex 36.66405024536616 -4.249339772405014 -4.140643281305699
    vertex 38.88739533021842 -4.626077647076533e-15 -4.874639560909118
  endloop
endfacet
facet normal -0.0700368 0.0922431 0.99327
  outer loop
    vertex 36.60470006417321 -4.223225406873911 4.096623031199885
    vertex 38.07997372953113 -11.14759599344563 4.843699225429859
    vertex 41.64503601494883 -4.792676243813385 4.504907285113825
  endloop
endfacet
facet normal -0.392946 0.184069 -0.900951
  outer loop
    vertex 38.04047629935474 -8.097271943847598 -4.994905247067034
    vertex 34.82550372943318 -14.64076170454093 -4.929580122270275
    vertex 33.72910775817682 -8.522602865959209 -3.201416404433806
  endloop
endfacet
facet normal -0.418389 0.00884908 0.908225
  outer loop
    vertex 33.45383809223188 -8.249581487715757 2.684354262016697
    vertex 38.07997372953113 -11.14759599344563 4.843699225429859
    vertex 36.60470006417321 -4.223225406873911 4.096623031199885
  endloop
endfacet
facet normal -0.38873 0.0649848 -0.919057
  outer loop
    vertex 36.66405024536616 -4.249339772405014 -4.140643281305699
    vertex 38.04047629935474 -8.097271943847598 -4.994905247067034
    vertex 33.72910775817682 -8.522602865959209 -3.201416404433806
  endloop
endfacet
facet normal -0.161922 0.158318 -0.974021
  outer loop
    vertex 41.09407963449453 -3.734898496218889 -4.793476078344939
    vertex 38.04047629935474 -8.097271943847598 -4.994905247067034
    vertex 36.66405024536616 -4.249339772405014 -4.140643281305699
  endloop
endfacet
facet normal 0.100526 0.902032 0.4198
  outer loop
    vertex 20.33471561681532 -17.58168587452224 4.378030984190205
    vertex 22.48036614758386 -15.05102088494725 -1.573459030793977
    vertex 17.01998734788825 -14.77633831731531 -0.8561230729989582
  endloop
endfacet
facet normal -0.0551696 0.717269 -0.694609
  outer loop
    vertex 17.01998734788825 -14.77633831731531 -0.8561230729989582
    vertex 22.48036614758386 -15.05102088494725 -1.573459030793977
    vertex 19.99999999999991 -18.25599481956586 -4.685983987447981
  endloop
endfacet
facet normal -0.827565 -0.188886 0.528638
  outer loop
    vertex -2.524221697560488 -10.84709347793893 -1.224646799147353e-15
    vertex -0.7844360554800467 -5.021527426942126 4.80508833456806
    vertex -5 3.061616997868383e-15 -1.224646799147353e-15
  endloop
endfacet
facet normal -0.840448 -0.241237 0.485233
  outer loop
    vertex -5 3.061616997868383e-15 -1.224646799147353e-15
    vertex -0.7844360554800467 -5.021527426942126 4.80508833456806
    vertex -2.500000000000002 0 4.330127018922192
  endloop
endfacet
facet normal 0.875708 -0.199875 0.439528
  outer loop
    vertex 45 -6.123233995736766e-15 -1.224646799147353e-15
    vertex 41.64503601494883 -4.792676243813385 4.504907285113825
    vertex 42.52422169756045 -10.84709347793902 -1.224646799147353e-15
  endloop
endfacet
facet normal -0.849587 -0.193913 -0.490509
  outer loop
    vertex -2.499999999999996 0 -4.330127018922195
    vertex -2.524221697560488 -10.84709347793893 -1.224646799147353e-15
    vertex -5 3.061616997868383e-15 -1.224646799147353e-15
  endloop
endfacet
facet normal -0.623368 -0.288697 -0.726682
  outer loop
    vertex -2.499999999999996 0 -4.330127018922195
    vertex 0.5015962852078957 -4.79664359466025 -4.999364280107772
    vertex -2.524221697560488 -10.84709347793893 -1.224646799147353e-15
  endloop
endfacet
facet normal 0.840704 -0.359589 -0.404862
  outer loop
    vertex 45 -6.123233995736766e-15 -1.224646799147353e-15
    vertex 41.09407963449453 -3.734898496218889 -4.793476078344939
    vertex 43.11744900929367 -5.662141986736728e-15 -3.90915741234015
  endloop
endfacet
facet normal 0.828211 -0.189034 -0.527572
  outer loop
    vertex 42.52422169756045 -10.84709347793902 -1.224646799147353e-15
    vertex 41.09407963449453 -3.734898496218889 -4.793476078344939
    vertex 45 -6.123233995736766e-15 -1.224646799147353e-15
  endloop
endfacet
facet normal -0.840704 0.359589 0.404862
  outer loop
    vertex -43.11744900929367 0 3.909157412340146
    vertex -41.09407963448662 3.73489849620395 4.793476078348025
    vertex -45 3.061616997868383e-15 -1.224646799147353e-15
  endloop
endfacet
facet normal 0.223209 0.264993 0.93806
  outer loop
    vertex -14.43697665109206 24.37319780454557 -1.224646799147353e-15
    vertex -21.18060534919837 16.68224354426427 3.77724887254479
    vertex -11.64171133180671 13.24078376890175 2.479678449383087
  endloop
endfacet
facet normal -0.39761 0.463234 0.792036
  outer loop
    vertex -38.12610812154163 8.821929887708258 4.997473657689791
    vertex -33.04444294539183 13.4551530089405 4.83871282519958
    vertex -35.58724504646825 19.54578706170081 -1.224646799147353e-15
  endloop
endfacet
facet normal -0.0616543 0.425729 0.902748
  outer loop
    vertex -4.412754953531621 19.54578706170071 -1.224646799147353e-15
    vertex -11.64171133180671 13.24078376890175 2.479678449383087
    vertex -2.928500196822622 9.232856135368767 4.964864529970728
  endloop
endfacet
facet normal -0.475301 -0.718014 0.508473
  outer loop
    vertex -11.64171133180671 13.24078376890175 2.479678449383087
    vertex -7.939711789693431 8.923180568057617 -0.156715269257857
    vertex -2.928500196822622 9.232856135368767 4.964864529970728
  endloop
endfacet
facet normal -0.326589 -0.94052 0.0936101
  outer loop
    vertex -21.18060534919837 16.68224354426427 3.77724887254479
    vertex -17.01998734793182 14.77633831731968 -0.8561230729740626
    vertex -11.64171133180671 13.24078376890175 2.479678449383087
  endloop
endfacet
facet normal 0.117466 0.24392 0.962655
  outer loop
    vertex -14.43697665109206 24.37319780454557 -1.224646799147353e-15
    vertex -11.64171133180671 13.24078376890175 2.479678449383087
    vertex -4.412754953531621 19.54578706170071 -1.224646799147353e-15
  endloop
endfacet
facet normal -0.447472 -0.586187 -0.675391
  outer loop
    vertex -3.87706398927088 11.39462335839356 -4.993391328835541
    vertex -7.939711789693431 8.923180568057617 -0.156715269257857
    vertex -10.80211920861836 16.55787360818614 -4.886580647733289
  endloop
endfacet
facet normal 0.43697 -0.888059 0.142859
  outer loop
    vertex -27.85843264781733 12.77733262848447 -0.0711612098937047
    vertex -22.42434815027583 15.1642297860352 -1.85491256632704
    vertex -21.18060534919837 16.68224354426427 3.77724887254479
  endloop
endfacet
facet normal 0.536141 0.427558 0.727837
  outer loop
    vertex -4.412754953531621 19.54578706170071 -1.224646799147353e-15
    vertex -2.928500196822622 9.232856135368767 4.964864529970728
    vertex 2.524221697560488 10.84709347793894 -1.224646799147353e-15
  endloop
endfacet
facet normal -0.569458 0.454127 0.685191
  outer loop
    vertex -42.52422169756045 10.847093477939 -1.224646799147353e-15
    vertex -38.12610812154163 8.821929887708258 4.997473657689791
    vertex -35.58724504646825 19.54578706170081 -1.224646799147353e-15
  endloop
endfacet
facet normal -0.806959 -0.498634 -0.316515
  outer loop
    vertex -10.80211920861836 16.55787360818614 -4.886580647733289
    vertex -7.939711789693431 8.923180568057617 -0.156715269257857
    vertex -11.64171133180671 13.24078376890175 2.479678449383087
  endloop
endfacet
facet normal 1.82994e-15 0.440832 0.89759
  outer loop
    vertex -25.56302334890773 24.37319780454562 -1.224646799147353e-15
    vertex -21.18060534919837 16.68224354426427 3.77724887254479
    vertex -14.43697665109206 24.37319780454557 -1.224646799147353e-15
  endloop
endfacet
facet normal 0.0135749 -0.713551 0.700472
  outer loop
    vertex -21.18060534919837 16.68224354426427 3.77724887254479
    vertex -29.35219479043868 17.72694288415767 4.999818044983321
    vertex -27.85843264781733 12.77733262848447 -0.0711612098937047
  endloop
endfacet
facet normal 0.215098 0.587712 -0.779954
  outer loop
    vertex -14.43697665109206 24.37319780454557 -1.224646799147353e-15
    vertex -10.80211920861836 16.55787360818614 -4.886580647733289
    vertex -19.1604167934515 19.49763027837716 -4.976489929621904
  endloop
endfacet
facet normal 0.290831 -0.584136 -0.757762
  outer loop
    vertex -27.85843264781733 12.77733262848447 -0.0711612098937047
    vertex -36.26674044667269 14.54073171163981 -4.657645261982916
    vertex -28.17449400648945 18.95938085351392 -4.958019672947243
  endloop
endfacet
facet normal 2.96518e-15 0.714313 -0.699827
  outer loop
    vertex -14.43697665109206 24.37319780454557 -1.224646799147353e-15
    vertex -19.1604167934515 19.49763027837716 -4.976489929621904
    vertex -25.56302334890773 24.37319780454562 -1.224646799147353e-15
  endloop
endfacet
facet normal 0.476965 -0.0115384 -0.878847
  outer loop
    vertex -33.729107758178 8.522602865957627 -3.201416404434008
    vertex -36.26674044667269 14.54073171163981 -4.657645261982916
    vertex -27.85843264781733 12.77733262848447 -0.0711612098937047
  endloop
endfacet
facet normal 0.0145583 -0.619612 -0.784773
  outer loop
    vertex -28.17449400648945 18.95938085351392 -4.958019672947243
    vertex -22.42434815027583 15.1642297860352 -1.85491256632704
    vertex -27.85843264781733 12.77733262848447 -0.0711612098937047
  endloop
endfacet
facet normal 0.571399 0.455676 -0.682541
  outer loop
    vertex 2.524221697560488 10.84709347793894 -1.224646799147353e-15
    vertex -3.87706398927088 11.39462335839356 -4.993391328835541
    vertex -4.412754953531621 19.54578706170071 -1.224646799147353e-15
  endloop
endfacet
facet normal -0.836142 -0.260426 0.482747
  outer loop
    vertex -2.500000000000002 0 4.330127018922192
    vertex -4.687899892697239 4.351253682072158 2.887926741084111
    vertex -5 3.061616997868383e-15 -1.224646799147353e-15
  endloop
endfacet
facet normal 0.363601 0.503878 -0.783518
  outer loop
    vertex -3.87706398927088 11.39462335839356 -4.993391328835541
    vertex -10.80211920861836 16.55787360818614 -4.886580647733289
    vertex -4.412754953531621 19.54578706170071 -1.224646799147353e-15
  endloop
endfacet
facet normal -0.238108 -0.697654 -0.67571
  outer loop
    vertex -10.80211920861836 16.55787360818614 -4.886580647733289
    vertex -17.01998734793182 14.77633831731968 -0.8561230729740626
    vertex -19.1604167934515 19.49763027837716 -4.976489929621904
  endloop
endfacet
facet normal 0.28923 0.600591 -0.74541
  outer loop
    vertex -4.412754953531621 19.54578706170071 -1.224646799147353e-15
    vertex -10.80211920861836 16.55787360818614 -4.886580647733289
    vertex -14.43697665109206 24.37319780454557 -1.224646799147353e-15
  endloop
endfacet
facet normal 0.190977 0.518245 0.833637
  outer loop
    vertex -25.56302334890773 24.37319780454562 -1.224646799147353e-15
    vertex -29.35219479043868 17.72694288415767 4.999818044983321
    vertex -21.18060534919837 16.68224354426427 3.77724887254479
  endloop
endfacet
facet normal -0.042441 0.685829 -0.726524
  outer loop
    vertex -19.1604167934515 19.49763027837716 -4.976489929621904
    vertex -28.17449400648945 18.95938085351392 -4.958019672947243
    vertex -25.56302334890773 24.37319780454562 -1.224646799147353e-15
  endloop
endfacet
facet normal 0.968077 -0.250655 3.17071e-15
  outer loop
    vertex -35.4951556604879 0 -2.169418695587781
    vertex -34.49185364369436 3.874942446134663 -0.09831455185780673
    vertex -35.49515566048791 0 2.169418695587796
  endloop
endfacet
facet normal -0.834849 -0.265901 -0.482
  outer loop
    vertex -5 3.061616997868383e-15 -1.224646799147353e-15
    vertex -5.060809464935623 4.589362675358516 -2.426448522509769
    vertex -2.499999999999996 0 -4.330127018922195
  endloop
endfacet
facet normal -0.34623 0.718955 -0.602684
  outer loop
    vertex -25.56302334890773 24.37319780454562 -1.224646799147353e-15
    vertex -28.17449400648945 18.95938085351392 -4.958019672947243
    vertex -35.58724504646825 19.54578706170081 -1.224646799147353e-15
  endloop
endfacet
facet normal -0.32753 0.680122 0.655864
  outer loop
    vertex -35.58724504646825 19.54578706170081 -1.224646799147353e-15
    vertex -29.35219479043868 17.72694288415767 4.999818044983321
    vertex -25.56302334890773 24.37319780454562 -1.224646799147353e-15
  endloop
endfacet
facet normal 0.0342512 -0.601007 -0.79851
  outer loop
    vertex -19.1604167934515 19.49763027837716 -4.976489929621904
    vertex -22.42434815027583 15.1642297860352 -1.85491256632704
    vertex -28.17449400648945 18.95938085351392 -4.958019672947243
  endloop
endfacet
facet normal 1.76606e-16 -0.10752 -0.994203
  outer loop
    vertex -2.499999999999996 0 -4.330127018922195
    vertex -0.6263948820147327 6.103760583367104 -4.990232814716351
    vertex 2.499999999999999 0 -4.330127018922195
  endloop
endfacet
facet normal -0.683333 0.54494 -0.485897
  outer loop
    vertex -35.58724504646825 19.54578706170081 -1.224646799147353e-15
    vertex -36.26674044667269 14.54073171163981 -4.657645261982916
    vertex -42.52422169756045 10.847093477939 -1.224646799147353e-15
  endloop
endfacet
facet normal 0.576769 0.338467 0.74349
  outer loop
    vertex 2.524221697560488 10.84709347793894 -1.224646799147353e-15
    vertex -2.928500196822622 9.232856135368767 4.964864529970728
    vertex 0 4.207504000118592 4.980797482441436
  endloop
endfacet
facet normal 0.608124 -0.791165 -0.0651407
  outer loop
    vertex -33.729107758178 8.522602865957627 -3.201416404434008
    vertex -27.85843264781733 12.77733262848447 -0.0711612098937047
    vertex -33.45383809223173 8.249581487715769 2.684354262016507
  endloop
endfacet
facet normal 0.612231 -0.189181 0.767713
  outer loop
    vertex -35.49515566048791 0 2.169418695587796
    vertex -36.6044745932432 4.246325370655545 4.100459321492923
    vertex -38.88739533021844 0 4.87463956090912
  endloop
endfacet
facet normal -0.712931 -0.0408901 0.70004
  outer loop
    vertex -2.928500196822622 9.232856135368767 4.964864529970728
    vertex -7.939711789693431 8.923180568057617 -0.156715269257857
    vertex -4.687899892697239 4.351253682072158 2.887926741084111
  endloop
endfacet
facet normal -7.02196e-16 -0.152829 0.988253
  outer loop
    vertex 2.499999999999996 0 4.330127018922195
    vertex 0 4.207504000118592 4.980797482441436
    vertex -2.500000000000002 0 4.330127018922192
  endloop
endfacet
facet normal -0.403135 0.0988394 0.909787
  outer loop
    vertex -2.500000000000002 0 4.330127018922192
    vertex 0 4.207504000118592 4.980797482441436
    vertex -4.687899892697239 4.351253682072158 2.887926741084111
  endloop
endfacet
facet normal 0.612103 -0.190245 -0.767553
  outer loop
    vertex -38.88739533021842 0 -4.874639560909118
    vertex -36.72032824348095 3.991505939268786 -4.13579279921804
    vertex -35.4951556604879 0 -2.169418695587781
  endloop
endfacet
facet normal -0.997174 0.0243592 0.0710631
  outer loop
    vertex -4.687899892697239 4.351253682072158 2.887926741084111
    vertex -5.060809464935623 4.589362675358516 -2.426448522509769
    vertex -5 3.061616997868383e-15 -1.224646799147353e-15
  endloop
endfacet
facet normal 0.978801 -0.19731 -0.0549298
  outer loop
    vertex -34.49185364369436 3.874942446134663 -0.09831455185780673
    vertex -33.729107758178 8.522602865957627 -3.201416404434008
    vertex -33.45383809223173 8.249581487715769 2.684354262016507
  endloop
endfacet
facet normal -0.00528956 -0.911578 -0.411094
  outer loop
    vertex -11.64171133180671 13.24078376890175 2.479678449383087
    vertex -17.01998734793182 14.77633831731968 -0.8561230729740626
    vertex -10.80211920861836 16.55787360818614 -4.886580647733289
  endloop
endfacet
facet normal 0.786364 -0.427075 -0.446361
  outer loop
    vertex -34.49185364369436 3.874942446134663 -0.09831455185780673
    vertex -36.72032824348095 3.991505939268786 -4.13579279921804
    vertex -33.729107758178 8.522602865957627 -3.201416404434008
  endloop
endfacet
facet normal -0.650326 0.378391 -0.658708
  outer loop
    vertex -42.52422169756045 10.847093477939 -1.224646799147353e-15
    vertex -38.63838737738364 8.895898475575272 -4.957239196365096
    vertex -41.78890177725238 4.302943995009707 -4.485214259443574
  endloop
endfacet
facet normal -0.72605 -0.128515 -0.675526
  outer loop
    vertex -5.060809464935623 4.589362675358516 -2.426448522509769
    vertex -7.939711789693431 8.923180568057617 -0.156715269257857
    vertex -3.87706398927088 11.39462335839356 -4.993391328835541
  endloop
endfacet
facet normal -0.632715 0.341275 0.695129
  outer loop
    vertex -41.09407963448662 3.73489849620395 4.793476078348025
    vertex -38.12610812154163 8.821929887708258 4.997473657689791
    vertex -42.52422169756045 10.847093477939 -1.224646799147353e-15
  endloop
endfacet
facet normal -0.40248 -0.231735 0.885612
  outer loop
    vertex 0 4.207504000118592 4.980797482441436
    vertex -2.928500196822622 9.232856135368767 4.964864529970728
    vertex -4.687899892697239 4.351253682072158 2.887926741084111
  endloop
endfacet
facet normal 0.622558 -0.340559 0.704586
  outer loop
    vertex -27.85843264781733 12.77733262848447 -0.0711612098937047
    vertex -33.04444294539183 13.4551530089405 4.83871282519958
    vertex -33.45383809223173 8.249581487715769 2.684354262016507
  endloop
endfacet
facet normal -0.82458 -0.564808 0.0325547
  outer loop
    vertex -4.687899892697239 4.351253682072158 2.887926741084111
    vertex -7.939711789693431 8.923180568057617 -0.156715269257857
    vertex -5.060809464935623 4.589362675358516 -2.426448522509769
  endloop
endfacet
facet normal 0.592142 0.363378 -0.719252
  outer loop
    vertex -0.6263948820147327 6.103760583367104 -4.990232814716351
    vertex -3.87706398927088 11.39462335839356 -4.993391328835541
    vertex 2.524221697560488 10.84709347793894 -1.224646799147353e-15
  endloop
endfacet
facet normal 0.875451 0.031113 -0.482304
  outer loop
    vertex -35.4951556604879 0 -2.169418695587781
    vertex -36.72032824348095 3.991505939268786 -4.13579279921804
    vertex -34.49185364369436 3.874942446134663 -0.09831455185780673
  endloop
endfacet
facet normal 0.776803 -0.458746 0.431426
  outer loop
    vertex -34.49185364369436 3.874942446134663 -0.09831455185780673
    vertex -33.45383809223173 8.249581487715769 2.684354262016507
    vertex -36.6044745932432 4.246325370655545 4.100459321492923
  endloop
endfacet
facet normal -0.222097 -0.0616967 -0.973071
  outer loop
    vertex -43.11744900929367 0 -3.90915741234015
    vertex -41.78890177725238 4.302943995009707 -4.485214259443574
    vertex -38.88739533021842 0 -4.874639560909118
  endloop
endfacet
facet normal -0.22118 -0.109621 0.969052
  outer loop
    vertex -38.88739533021844 0 4.87463956090912
    vertex -41.09407963448662 3.73489849620395 4.793476078348025
    vertex -43.11744900929367 0 3.909157412340146
  endloop
endfacet
facet normal -0.382698 0.656693 -0.649844
  outer loop
    vertex -28.17449400648945 18.95938085351392 -4.958019672947243
    vertex -36.26674044667269 14.54073171163981 -4.657645261982916
    vertex -35.58724504646825 19.54578706170081 -1.224646799147353e-15
  endloop
endfacet
facet normal 0.893961 0.030207 0.447126
  outer loop
    vertex -34.49185364369436 3.874942446134663 -0.09831455185780673
    vertex -36.6044745932432 4.246325370655545 4.100459321492923
    vertex -35.49515566048791 0 2.169418695587796
  endloop
endfacet
facet normal -0.516257 0.0661252 -0.853877
  outer loop
    vertex -5.060809464935623 4.589362675358516 -2.426448522509769
    vertex -0.6263948820147327 6.103760583367104 -4.990232814716351
    vertex -2.499999999999996 0 -4.330127018922195
  endloop
endfacet
facet normal -0.416635 -0.256498 -0.872138
  outer loop
    vertex -5.060809464935623 4.589362675358516 -2.426448522509769
    vertex -3.87706398927088 11.39462335839356 -4.993391328835541
    vertex -0.6263948820147327 6.103760583367104 -4.990232814716351
  endloop
endfacet
facet normal 0.557057 -0.506309 0.658284
  outer loop
    vertex -29.35219479043868 17.72694288415767 4.999818044983321
    vertex -33.04444294539183 13.4551530089405 4.83871282519958
    vertex -27.85843264781733 12.77733262848447 -0.0711612098937047
  endloop
endfacet
facet normal -0.680048 0.32071 -0.659303
  outer loop
    vertex -42.52422169756045 10.847093477939 -1.224646799147353e-15
    vertex -36.26674044667269 14.54073171163981 -4.657645261982916
    vertex -38.63838737738364 8.895898475575272 -4.957239196365096
  endloop
endfacet
facet normal 0.140121 0.104185 0.984638
  outer loop
    vertex -38.88739533021844 0 4.87463956090912
    vertex -36.6044745932432 4.246325370655545 4.100459321492923
    vertex -41.09407963448662 3.73489849620395 4.793476078348025
  endloop
endfacet
facet normal -0.498587 0.401981 0.767999
  outer loop
    vertex -35.58724504646825 19.54578706170081 -1.224646799147353e-15
    vertex -33.04444294539183 13.4551530089405 4.83871282519958
    vertex -29.35219479043868 17.72694288415767 4.999818044983321
  endloop
endfacet
facet normal 0.37267 -0.379727 0.846714
  outer loop
    vertex -33.45383809223173 8.249581487715769 2.684354262016507
    vertex -33.04444294539183 13.4551530089405 4.83871282519958
    vertex -38.12610812154163 8.821929887708258 4.997473657689791
  endloop
endfacet
facet normal 0.0767115 0.141055 -0.987025
  outer loop
    vertex -41.78890177725238 4.302943995009707 -4.485214259443574
    vertex -36.72032824348095 3.991505939268786 -4.13579279921804
    vertex -38.88739533021842 0 -4.874639560909118
  endloop
endfacet
facet normal 0.166265 -0.13617 0.976634
  outer loop
    vertex -36.6044745932432 4.246325370655545 4.100459321492923
    vertex -38.12610812154163 8.821929887708258 4.997473657689791
    vertex -41.09407963448662 3.73489849620395 4.793476078348025
  endloop
endfacet
facet normal 0.329465 -0.0885332 -0.940008
  outer loop
    vertex -38.63838737738364 8.895898475575272 -4.957239196365096
    vertex -36.26674044667269 14.54073171163981 -4.657645261982916
    vertex -33.729107758178 8.522602865957627 -3.201416404434008
  endloop
endfacet
facet normal 0.440595 -0.0293732 0.897225
  outer loop
    vertex -33.45383809223173 8.249581487715769 2.684354262016507
    vertex -38.12610812154163 8.821929887708258 4.997473657689791
    vertex -36.6044745932432 4.246325370655545 4.100459321492923
  endloop
endfacet
facet normal 0.334834 -0.0268097 -0.941896
  outer loop
    vertex -36.72032824348095 3.991505939268786 -4.13579279921804
    vertex -38.63838737738364 8.895898475575272 -4.957239196365096
    vertex -33.729107758178 8.522602865957627 -3.201416404434008
  endloop
endfacet
facet normal 0.059373 -0.14227 -0.988046
  outer loop
    vertex -41.78890177725238 4.302943995009707 -4.485214259443574
    vertex -38.63838737738364 8.895898475575272 -4.957239196365096
    vertex -36.72032824348095 3.991505939268786 -4.13579279921804
  endloop
endfacet
facet normal -0.120609 -0.951482 0.283083
  outer loop
    vertex -21.18060534919837 16.68224354426427 3.77724887254479
    vertex -22.42434815027583 15.1642297860352 -1.85491256632704
    vertex -17.01998734793182 14.77633831731968 -0.8561230729740626
  endloop
endfacet
facet normal 0.0974019 -0.628973 -0.771302
  outer loop
    vertex -17.01998734793182 14.77633831731968 -0.8561230729740626
    vertex -22.42434815027583 15.1642297860352 -1.85491256632704
    vertex -19.1604167934515 19.49763027837716 -4.976489929621904
  endloop
endfacet
facet normal 0.849587 0.193913 -0.490509
  outer loop
    vertex 2.499999999999999 0 -4.330127018922195
    vertex 2.524221697560488 10.84709347793894 -1.224646799147353e-15
    vertex 5 -6.123233995736766e-15 -1.224646799147353e-15
  endloop
endfacet
facet normal -0.828211 0.189034 0.527572
  outer loop
    vertex -45 3.061616997868383e-15 -1.224646799147353e-15
    vertex -41.09407963448662 3.73489849620395 4.793476078348025
    vertex -42.52422169756045 10.847093477939 -1.224646799147353e-15
  endloop
endfacet
facet normal 0.793489 0.400626 0.458121
  outer loop
    vertex 5 -6.123233995736766e-15 -1.224646799147353e-15
    vertex 0 4.207504000118592 4.980797482441436
    vertex 2.499999999999996 0 4.330127018922195
  endloop
endfacet
facet normal 0.675704 0.272003 -0.685156
  outer loop
    vertex 2.499999999999999 0 -4.330127018922195
    vertex -0.6263948820147327 6.103760583367104 -4.990232814716351
    vertex 2.524221697560488 10.84709347793894 -1.224646799147353e-15
  endloop
endfacet
facet normal 0.764743 0.174548 0.620243
  outer loop
    vertex 2.524221697560488 10.84709347793894 -1.224646799147353e-15
    vertex 0 4.207504000118592 4.980797482441436
    vertex 5 -6.123233995736766e-15 -1.224646799147353e-15
  endloop
endfacet
facet normal -0.87991 0.214946 -0.423742
  outer loop
    vertex -45 3.061616997868383e-15 -1.224646799147353e-15
    vertex -41.78890177725238 4.302943995009707 -4.485214259443574
    vertex -43.11744900929367 0 -3.90915741234015
  endloop
endfacet
facet normal -0.877373 0.200255 -0.436021
  outer loop
    vertex -42.52422169756045 10.847093477939 -1.224646799147353e-15
    vertex -41.78890177725238 4.302943995009707 -4.485214259443574
    vertex -45 3.061616997868383e-15 -1.224646799147353e-15
  endloop
endfacet
facet normal -0.853455 -0.169763 -0.492742
  outer loop
    vertex -4.000000000000005 0 -6.928203230275506
    vertex -5.868626910316024 -10.71513610622252 -1.959434878635765e-15
    vertex -8 3.429011037612589e-15 -1.959434878635765e-15
  endloop
endfacet
facet normal -0.637938 -0.336593 -0.692633
  outer loop
    vertex -4.000000000000005 0 -6.928203230275506
    vertex -2.025046796916286e-13 -5.443836006696183 -7.966839387891929
    vertex -5.868626910316024 -10.71513610622252 -1.959434878635765e-15
  endloop
endfacet
facet normal 0.977208 -0.194379 0.085329
  outer loop
    vertex 48 -6.858022075225177e-15 -1.959434878635765e-15
    vertex 46.63383578079248 -5.297799327558486 3.577296847821465
    vertex 45.86862691031602 -10.71513610622253 -1.959434878635765e-15
  endloop
endfacet
facet normal 0.977208 -0.194379 -0.085329
  outer loop
    vertex 45.86862691031602 -10.71513610622253 -1.959434878635765e-15
    vertex 46.63383578071761 -5.297799327543595 -3.577296847974158
    vertex 48 -6.858022075225177e-15 -1.959434878635765e-15
  endloop
endfacet
facet normal -0.201896 0.0395458 0.978608
  outer loop
    vertex 34.22080979278087 -5.988663330179663 6.566448441385062
    vertex 28.35290502700978 -11.56813952731848 5.581310360615978
    vertex 38.28838417559557 -12.679179940001 7.675994621306415
  endloop
endfacet
facet normal -0.00205821 0.194026 0.980994
  outer loop
    vertex 20.16924331365027 -14.99527550280836 6.241978155182379
    vertex 25.06104600056146 -21.87840883350214 7.613625667151482
    vertex 28.35290502700978 -11.56813952731848 5.581310360615978
  endloop
endfacet
facet normal -0.198708 0.0665343 0.977798
  outer loop
    vertex 28.35290502700978 -11.56813952731848 5.581310360615978
    vertex 33.38159881129693 -19.45059417594844 7.139601414060735
    vertex 38.28838417559557 -12.679179940001 7.675994621306415
  endloop
endfacet
facet normal -0.000589788 0.193576 0.981085
  outer loop
    vertex 28.35290502700978 -11.56813952731848 5.581310360615978
    vertex 25.06104600056146 -21.87840883350214 7.613625667151482
    vertex 33.38159881129693 -19.45059417594844 7.139601414060735
  endloop
endfacet
facet normal 0.394382 -0.115855 -0.911614
  outer loop
    vertex 9.356003365782946 -7.286720927604815 -3.685040461515737
    vertex -2.025046796916286e-13 -5.443836006696183 -7.966839387891929
    vertex 3.999999999999998 0 -6.928203230275511
  endloop
endfacet
facet normal -0.0981931 0.994414 0.0387283
  outer loop
    vertex 29.26310516635114 -11.03801528228826 -5.722751282228256
    vertex 21.59684306962418 -11.97395445758167 -1.12827542499322
    vertex 28.35290502700978 -11.56813952731848 5.581310360615978
  endloop
endfacet
facet normal -0.947923 0.312471 -0.0616726
  outer loop
    vertex 30.84825292476985 -5.134342558239399 -0.1752252200031947
    vertex 29.26310516635114 -11.03801528228826 -5.722751282228256
    vertex 28.35290502700978 -11.56813952731848 5.581310360615978
  endloop
endfacet
facet normal 0.444512 0.426508 -0.787718
  outer loop
    vertex 9.356003365782946 -7.286720927604815 -3.685040461515737
    vertex 7.848767896992472 -13.18052388499221 -7.726760247805745
    vertex -2.025046796916286e-13 -5.443836006696183 -7.966839387891929
  endloop
endfacet
facet normal -0.00300818 -0.0340649 -0.999415
  outer loop
    vertex -2.025046796916286e-13 -5.443836006696183 -7.966839387891929
    vertex 7.848767896992472 -13.18052388499221 -7.726760247805745
    vertex 1.690082978556784 -12.23429541580332 -7.740474974489907
  endloop
endfacet
facet normal 0.630216 -0.503493 0.591035
  outer loop
    vertex 38.28838417559557 -12.679179940001 7.675994621306415
    vertex 33.38159881129693 -19.45059417594844 7.139601414060735
    vertex 39.79898987322333 -19.79898987322333 -1.959434878635765e-15
  endloop
endfacet
facet normal 0.0210101 -0.785936 0.617951
  outer loop
    vertex 20 -28 -1.959434878635765e-15
    vertex 25.06104600056146 -21.87840883350214 7.613625667151482
    vertex 15.97359168875348 -22.13112835316683 7.601176404473567
  endloop
endfacet
facet normal 0.162907 -0.818987 0.550201
  outer loop
    vertex 30.71513610622252 -25.86862691031602 -1.959434878635765e-15
    vertex 25.06104600056146 -21.87840883350214 7.613625667151482
    vertex 20 -28 -1.959434878635765e-15
  endloop
endfacet
facet normal 0.48886 -0.731631 0.475111
  outer loop
    vertex 39.79898987322333 -19.79898987322333 -1.959434878635765e-15
    vertex 33.38159881129693 -19.45059417594844 7.139601414060735
    vertex 30.71513610622252 -25.86862691031602 -1.959434878635765e-15
  endloop
endfacet
facet normal 0.800158 0.382531 -0.461971
  outer loop
    vertex 8 -6.858022075225178e-15 -1.959434878635765e-15
    vertex 9.356003365782946 -7.286720927604815 -3.685040461515737
    vertex 3.999999999999998 0 -6.928203230275511
  endloop
endfacet
facet normal 0.680236 -0.454519 -0.575058
  outer loop
    vertex 39.79898987322333 -19.79898987322333 -1.959434878635765e-15
    vertex 38.30991702146387 -12.23429541581712 -7.740474974483417
    vertex 45.86862691031602 -10.71513610622253 -1.959434878635765e-15
  endloop
endfacet
facet normal 0.687902 -0.459641 0.561713
  outer loop
    vertex 45.86862691031602 -10.71513610622253 -1.959434878635765e-15
    vertex 38.28838417559557 -12.679179940001 7.675994621306415
    vertex 39.79898987322333 -19.79898987322333 -1.959434878635765e-15
  endloop
endfacet
facet normal 0.56296 -0.534349 -0.630514
  outer loop
    vertex 39.79898987322333 -19.79898987322333 -1.959434878635765e-15
    vertex 32.17976316958005 -18.8312784634516 -7.623017157366579
    vertex 38.30991702146387 -12.23429541581712 -7.740474974483417
  endloop
endfacet
facet normal -0.163279 -0.820858 0.547295
  outer loop
    vertex 20 -28 -1.959434878635765e-15
    vertex 15.97359168875348 -22.13112835316683 7.601176404473567
    vertex 9.284863893777494 -25.86862691031603 -1.959434878635765e-15
  endloop
endfacet
facet normal 0.700883 -0.365056 -0.612778
  outer loop
    vertex 38.30991702146387 -12.23429541581712 -7.740474974483417
    vertex 41.73279628667404 -5.912036645040525 -7.591876575242153
    vertex 45.86862691031602 -10.71513610622253 -1.959434878635765e-15
  endloop
endfacet
facet normal 0.693346 -0.437186 0.572835
  outer loop
    vertex 45.86862691031602 -10.71513610622253 -1.959434878635765e-15
    vertex 42.39445814538014 -6.7258523611884 7.249662274065661
    vertex 38.28838417559557 -12.679179940001 7.675994621306415
  endloop
endfacet
facet normal -0.970042 -0.192953 0.147604
  outer loop
    vertex -5.868626910316024 -10.71513610622252 -1.959434878635765e-15
    vertex -6.327911535782565 -5.23694721174472 4.142908483709748
    vertex -8 3.429011037612589e-15 -1.959434878635765e-15
  endloop
endfacet
facet normal -0.680236 -0.454519 -0.575058
  outer loop
    vertex -5.868626910316024 -10.71513610622252 -1.959434878635765e-15
    vertex 1.690082978556784 -12.23429541580332 -7.740474974489907
    vertex 0.2010101267766657 -19.79898987322333 -1.959434878635765e-15
  endloop
endfacet
facet normal 0.276169 0.869335 0.409863
  outer loop
    vertex 21.59684306962418 -11.97395445758167 -1.12827542499322
    vertex 14.7565943489561 -10.89200029866821 1.185873796929847
    vertex 20.16924331365027 -14.99527550280836 6.241978155182379
  endloop
endfacet
facet normal -0.0949712 -0.139513 0.985655
  outer loop
    vertex 34.22080979278087 -5.988663330179663 6.566448441385062
    vertex 42.39445814538014 -6.7258523611884 7.249662274065661
    vertex 38.2198325283495 -4.462571917368809e-15 7.799423297454593
  endloop
endfacet
facet normal 0.463504 -0.693683 -0.551334
  outer loop
    vertex 30.71513610622252 -25.86862691031602 -1.959434878635765e-15
    vertex 32.17976316958005 -18.8312784634516 -7.623017157366579
    vertex 39.79898987322333 -19.79898987322333 -1.959434878635765e-15
  endloop
endfacet
facet normal -0.720263 -0.201396 -0.663823
  outer loop
    vertex -5.868626910316024 -10.71513610622252 -1.959434878635765e-15
    vertex -2.025046796916286e-13 -5.443836006696183 -7.966839387891929
    vertex 1.690082978556784 -12.23429541580332 -7.740474974489907
  endloop
endfacet
facet normal -0.194159 0.163197 -0.9673
  outer loop
    vertex 38.30991702146387 -12.23429541581712 -7.740474974483417
    vertex 32.17976316958005 -18.8312784634516 -7.623017157366579
    vertex 29.26310516635114 -11.03801528228826 -5.722751282228256
  endloop
endfacet
facet normal 0.240241 0.225728 -0.944103
  outer loop
    vertex 15.70388676272627 -21.59801974039089 -7.740474974486877
    vertex 7.848767896992472 -13.18052388499221 -7.726760247805745
    vertex 15.23430110347928 -13.9540280528614 -6.032343318205799
  endloop
endfacet
facet normal -0.604102 0.247437 0.75752
  outer loop
    vertex 32.79224905678066 -3.133197372256437e-15 3.471069912940491
    vertex 34.22080979278087 -5.988663330179663 6.566448441385062
    vertex 38.2198325283495 -4.462571917368809e-15 7.799423297454593
  endloop
endfacet
facet normal -0.159606 -0.802393 -0.575058
  outer loop
    vertex 9.284863893777494 -25.86862691031603 -1.959434878635765e-15
    vertex 15.70388676272627 -21.59801974039089 -7.740474974486877
    vertex 20 -28 -1.959434878635765e-15
  endloop
endfacet
facet normal 0.434336 -0.701901 -0.564524
  outer loop
    vertex 30.71513610622252 -25.86862691031602 -1.959434878635765e-15
    vertex 25.33859569303035 -23.83620737574315 -6.663633892003137
    vertex 32.17976316958005 -18.8312784634516 -7.623017157366579
  endloop
endfacet
facet normal -0.21449 0.0248065 -0.976411
  outer loop
    vertex 38.30991702146387 -12.23429541581712 -7.740474974483417
    vertex 29.26310516635114 -11.03801528228826 -5.722751282228256
    vertex 34.60571890836049 -5.836080099658031 -6.764214536760909
  endloop
endfacet
facet normal 0.118228 0.829172 0.546348
  outer loop
    vertex 20.16924331365027 -14.99527550280836 6.241978155182379
    vertex 14.7565943489561 -10.89200029866821 1.185873796929847
    vertex 12.30783598537478 -14.46246963322297 7.134549073543865
  endloop
endfacet
facet normal 0.25675 -0.764473 0.591321
  outer loop
    vertex 33.38159881129693 -19.45059417594844 7.139601414060735
    vertex 25.06104600056146 -21.87840883350214 7.613625667151482
    vertex 30.71513610622252 -25.86862691031602 -1.959434878635765e-15
  endloop
endfacet
facet normal -0.868165 0.0102073 -0.496171
  outer loop
    vertex 32.79224905678063 -3.133197372256431e-15 -3.471069912940441
    vertex 34.60571890836049 -5.836080099658031 -6.764214536760909
    vertex 30.84825292476985 -5.134342558239399 -0.1752252200031947
  endloop
endfacet
facet normal 0.130683 0.324946 0.93666
  outer loop
    vertex 4.798655421041081 -13.87605651928892 7.978789085642083
    vertex 12.30783598537478 -14.46246963322297 7.134549073543865
    vertex 8.167781107678298 -7.480991994886871 5.290151513334902
  endloop
endfacet
facet normal -0.348348 0.889074 0.296988
  outer loop
    vertex 21.59684306962418 -11.97395445758167 -1.12827542499322
    vertex 20.16924331365027 -14.99527550280836 6.241978155182379
    vertex 28.35290502700978 -11.56813952731848 5.581310360615978
  endloop
endfacet
facet normal -0.93521 0.354095 3.82883e-15
  outer loop
    vertex 32.79224905678063 -3.133197372256431e-15 -3.471069912940441
    vertex 30.84825292476985 -5.134342558239399 -0.1752252200031947
    vertex 32.79224905678066 -3.133197372256437e-15 3.471069912940491
  endloop
endfacet
facet normal -0.632113 -0.48989 -0.600368
  outer loop
    vertex 1.690082978556784 -12.23429541580332 -7.740474974489907
    vertex 7.177083980261717 -20.34382691852462 -6.900363385620075
    vertex 0.2010101267766657 -19.79898987322333 -1.959434878635765e-15
  endloop
endfacet
facet normal -0.667894 0.596973 -0.444455
  outer loop
    vertex 34.60571890836049 -5.836080099658031 -6.764214536760909
    vertex 29.26310516635114 -11.03801528228826 -5.722751282228256
    vertex 30.84825292476985 -5.134342558239399 -0.1752252200031947
  endloop
endfacet
facet normal 0.322555 0.217383 0.921251
  outer loop
    vertex -7.460698725481052e-14 -6.554278847610559 7.931246323192053
    vertex 4.798655421041081 -13.87605651928892 7.978789085642083
    vertex 8.167781107678298 -7.480991994886871 5.290151513334902
  endloop
endfacet
facet normal -0.112584 -0.103452 -0.988242
  outer loop
    vertex 7.177083980261717 -20.34382691852462 -6.900363385620075
    vertex 7.848767896992472 -13.18052388499221 -7.726760247805745
    vertex 15.70388676272627 -21.59801974039089 -7.740474974486877
  endloop
endfacet
facet normal -0.637482 -0.395706 0.661085
  outer loop
    vertex 0.2010101267766657 -19.79898987322333 -1.959434878635765e-15
    vertex 8.042515229863938 -21.27788984822242 6.676318195317064
    vertex 4.798655421041081 -13.87605651928892 7.978789085642083
  endloop
endfacet
facet normal 0.811418 0.349477 0.468473
  outer loop
    vertex 3.999999999999988 0 6.928203230275516
    vertex 8.167781107678298 -7.480991994886871 5.290151513334902
    vertex 8 -6.858022075225178e-15 -1.959434878635765e-15
  endloop
endfacet
facet normal 0.145016 0.837775 -0.526405
  outer loop
    vertex 23.87018107991261 -16.23466708064769 -7.282942099306264
    vertex 15.23430110347928 -13.9540280528614 -6.032343318205799
    vertex 21.59684306962418 -11.97395445758167 -1.12827542499322
  endloop
endfacet
facet normal 0.100799 -0.129407 0.986455
  outer loop
    vertex 4.798655421041081 -13.87605651928892 7.978789085642083
    vertex 8.042515229863938 -21.27788984822242 6.676318195317064
    vertex 12.30783598537478 -14.46246963322297 7.134549073543865
  endloop
endfacet
facet normal -0.0849049 0.212324 -0.973504
  outer loop
    vertex 15.70388676272627 -21.59801974039089 -7.740474974486877
    vertex 15.23430110347928 -13.9540280528614 -6.032343318205799
    vertex 23.87018107991261 -16.23466708064769 -7.282942099306264
  endloop
endfacet
facet normal 0.303376 -0.0394479 0.952054
  outer loop
    vertex 3.999999999999988 0 6.928203230275516
    vertex -7.460698725481052e-14 -6.554278847610559 7.931246323192053
    vertex 8.167781107678298 -7.480991994886871 5.290151513334902
  endloop
endfacet
facet normal -0.115258 0.0053469 0.993321
  outer loop
    vertex 12.30783598537478 -14.46246963322297 7.134549073543865
    vertex 8.042515229863938 -21.27788984822242 6.676318195317064
    vertex 15.97359168875348 -22.13112835316683 7.601176404473567
  endloop
endfacet
facet normal -0.605239 0.240184 -0.758945
  outer loop
    vertex 38.21983252834948 -4.462571917368803e-15 -7.799423297454587
    vertex 34.60571890836049 -5.836080099658031 -6.764214536760909
    vertex 32.79224905678063 -3.133197372256431e-15 -3.471069912940441
  endloop
endfacet
facet normal -0.070158 -0.0944581 -0.993054
  outer loop
    vertex 32.17976316958005 -18.8312784634516 -7.623017157366579
    vertex 25.33859569303035 -23.83620737574315 -6.663633892003137
    vertex 23.87018107991261 -16.23466708064769 -7.282942099306264
  endloop
endfacet
facet normal -0.8932 0.0191392 0.449253
  outer loop
    vertex 30.84825292476985 -5.134342558239399 -0.1752252200031947
    vertex 34.22080979278087 -5.988663330179663 6.566448441385062
    vertex 32.79224905678066 -3.133197372256437e-15 3.471069912940491
  endloop
endfacet
facet normal -0.300042 -0.675049 0.674006
  outer loop
    vertex 4.798655421041081 -13.87605651928892 7.978789085642083
    vertex -1.910294601088381 -13.07364735505512 5.795870520333888
    vertex 0.2010101267766657 -19.79898987322333 -1.959434878635765e-15
  endloop
endfacet
facet normal 0.984327 0.116003 0.132826
  outer loop
    vertex 8.167781107678298 -7.480991994886871 5.290151513334902
    vertex 9.356003365782946 -7.286720927604815 -3.685040461515737
    vertex 8 -6.858022075225178e-15 -1.959434878635765e-15
  endloop
endfacet
facet normal -0.152058 -0.8274 0.540637
  outer loop
    vertex 15.97359168875348 -22.13112835316683 7.601176404473567
    vertex 8.042515229863938 -21.27788984822242 6.676318195317064
    vertex 9.284863893777494 -25.86862691031603 -1.959434878635765e-15
  endloop
endfacet
facet normal -0.663448 0.625157 0.411115
  outer loop
    vertex 30.84825292476985 -5.134342558239399 -0.1752252200031947
    vertex 28.35290502700978 -11.56813952731848 5.581310360615978
    vertex 34.22080979278087 -5.988663330179663 6.566448441385062
  endloop
endfacet
facet normal 0.222142 0.0583265 0.973268
  outer loop
    vertex 38.2198325283495 -4.462571917368809e-15 7.799423297454593
    vertex 42.39445814538014 -6.7258523611884 7.249662274065661
    vertex 44.98791841486987 -6.12027486082512e-15 6.254651859744233
  endloop
endfacet
facet normal 0.22146 0.0975303 -0.97028
  outer loop
    vertex 44.98791841486987 -6.120274860825119e-15 -6.254651859744235
    vertex 41.73279628667404 -5.912036645040525 -7.591876575242153
    vertex 38.21983252834948 -4.462571917368803e-15 -7.799423297454587
  endloop
endfacet
facet normal 0.11988 0.117291 0.985836
  outer loop
    vertex 20.16924331365027 -14.99527550280836 6.241978155182379
    vertex 12.30783598537478 -14.46246963322297 7.134549073543865
    vertex 15.97359168875348 -22.13112835316683 7.601176404473567
  endloop
endfacet
facet normal -1.53642e-15 0.151275 0.988492
  outer loop
    vertex -4.00000000000001 0 6.928203230275503
    vertex -7.460698725481052e-14 -6.554278847610559 7.931246323192053
    vertex 3.999999999999988 0 6.928203230275516
  endloop
endfacet
facet normal 0.038637 0.250342 -0.967386
  outer loop
    vertex 32.17976316958005 -18.8312784634516 -7.623017157366579
    vertex 23.87018107991261 -16.23466708064769 -7.282942099306264
    vertex 29.26310516635114 -11.03801528228826 -5.722751282228256
  endloop
endfacet
facet normal 0.584539 -0.502977 -0.636654
  outer loop
    vertex 41.73279628667404 -5.912036645040525 -7.591876575242153
    vertex 46.63383578071761 -5.297799327543595 -3.577296847974158
    vertex 45.86862691031602 -10.71513610622253 -1.959434878635765e-15
  endloop
endfacet
facet normal 0.661947 -0.475899 0.579091
  outer loop
    vertex 45.86862691031602 -10.71513610622253 -1.959434878635765e-15
    vertex 46.63383578079248 -5.297799327558486 3.577296847821465
    vertex 42.39445814538014 -6.7258523611884 7.249662274065661
  endloop
endfacet
facet normal 0.628979 0.524569 0.573771
  outer loop
    vertex 12.30783598537478 -14.46246963322297 7.134549073543865
    vertex 14.7565943489561 -10.89200029866821 1.185873796929847
    vertex 8.167781107678298 -7.480991994886871 5.290151513334902
  endloop
endfacet
facet normal -0.503124 -0.752978 0.424136
  outer loop
    vertex 9.284863893777494 -25.86862691031603 -1.959434878635765e-15
    vertex 8.042515229863938 -21.27788984822242 6.676318195317064
    vertex 0.2010101267766657 -19.79898987322333 -1.959434878635765e-15
  endloop
endfacet
facet normal -0.497708 -0.744873 -0.444355
  outer loop
    vertex 0.2010101267766657 -19.79898987322333 -1.959434878635765e-15
    vertex 7.177083980261717 -20.34382691852462 -6.900363385620075
    vertex 9.284863893777494 -25.86862691031603 -1.959434878635765e-15
  endloop
endfacet
facet normal -0.447738 0.64924 -0.614832
  outer loop
    vertex 29.26310516635114 -11.03801528228826 -5.722751282228256
    vertex 23.87018107991261 -16.23466708064769 -7.282942099306264
    vertex 21.59684306962418 -11.97395445758167 -1.12827542499322
  endloop
endfacet
facet normal -0.0718934 0.12049 0.990108
  outer loop
    vertex 38.28838417559557 -12.679179940001 7.675994621306415
    vertex 42.39445814538014 -6.7258523611884 7.249662274065661
    vertex 34.22080979278087 -5.988663330179663 6.566448441385062
  endloop
endfacet
facet normal 0.177469 -0.892199 -0.415313
  outer loop
    vertex 20 -28 -1.959434878635765e-15
    vertex 25.33859569303035 -23.83620737574315 -6.663633892003137
    vertex 30.71513610622252 -25.86862691031602 -1.959434878635765e-15
  endloop
endfacet
facet normal -0.115823 -0.103502 -0.987863
  outer loop
    vertex 38.21983252834948 -4.462571917368803e-15 -7.799423297454587
    vertex 41.73279628667404 -5.912036645040525 -7.591876575242153
    vertex 34.60571890836049 -5.836080099658031 -6.764214536760909
  endloop
endfacet
facet normal -0.174172 -0.793961 -0.582485
  outer loop
    vertex 9.284863893777494 -25.86862691031603 -1.959434878635765e-15
    vertex 7.177083980261717 -20.34382691852462 -6.900363385620075
    vertex 15.70388676272627 -21.59801974039089 -7.740474974486877
  endloop
endfacet
facet normal -0.00665303 0.19088 0.981591
  outer loop
    vertex 15.97359168875348 -22.13112835316683 7.601176404473567
    vertex 25.06104600056146 -21.87840883350214 7.613625667151482
    vertex 20.16924331365027 -14.99527550280836 6.241978155182379
  endloop
endfacet
facet normal 0.499217 0.862322 0.0847564
  outer loop
    vertex 8.167781107678298 -7.480991994886871 5.290151513334902
    vertex 14.7565943489561 -10.89200029866821 1.185873796929847
    vertex 9.356003365782946 -7.286720927604815 -3.685040461515737
  endloop
endfacet
facet normal -0.118771 -0.796505 -0.592852
  outer loop
    vertex 15.70388676272627 -21.59801974039089 -7.740474974486877
    vertex 25.33859569303035 -23.83620737574315 -6.663633892003137
    vertex 20 -28 -1.959434878635765e-15
  endloop
endfacet
facet normal -0.786785 -0.525713 0.323412
  outer loop
    vertex 0.2010101267766657 -19.79898987322333 -1.959434878635765e-15
    vertex -1.910294601088381 -13.07364735505512 5.795870520333888
    vertex -5.868626910316024 -10.71513610622252 -1.959434878635765e-15
  endloop
endfacet
facet normal 0.0965589 -0.0622792 -0.993377
  outer loop
    vertex 23.87018107991261 -16.23466708064769 -7.282942099306264
    vertex 25.33859569303035 -23.83620737574315 -6.663633892003137
    vertex 15.70388676272627 -21.59801974039089 -7.740474974486877
  endloop
endfacet
facet normal -5.45276e-16 0.187411 -0.982282
  outer loop
    vertex 3.999999999999998 0 -6.928203230275511
    vertex -2.025046796916286e-13 -5.443836006696183 -7.966839387891929
    vertex -4.000000000000005 0 -6.928203230275506
  endloop
endfacet
facet normal -0.114043 0.0850078 -0.989832
  outer loop
    vertex 34.60571890836049 -5.836080099658031 -6.764214536760909
    vertex 41.73279628667404 -5.912036645040525 -7.591876575242153
    vertex 38.30991702146387 -12.23429541581712 -7.740474974483417
  endloop
endfacet
facet normal 0.899317 0.060529 -0.433088
  outer loop
    vertex 48 -6.858022075225177e-15 -1.959434878635765e-15
    vertex 46.63383578071761 -5.297799327543595 -3.577296847974158
    vertex 44.98791841486987 -6.120274860825119e-15 -6.254651859744235
  endloop
endfacet
facet normal 0.899317 0.060529 0.433088
  outer loop
    vertex 44.98791841486987 -6.12027486082512e-15 6.254651859744233
    vertex 46.63383578079248 -5.297799327558486 3.577296847821465
    vertex 48 -6.858022075225177e-15 -1.959434878635765e-15
  endloop
endfacet
facet normal -0.528262 -0.120505 0.840487
  outer loop
    vertex -6.327911535782565 -5.23694721174472 4.142908483709748
    vertex -1.910294601088381 -13.07364735505512 5.795870520333888
    vertex -7.460698725481052e-14 -6.554278847610559 7.931246323192053
  endloop
endfacet
facet normal -0.0151779 -0.113187 -0.993458
  outer loop
    vertex 1.690082978556784 -12.23429541580332 -7.740474974489907
    vertex 7.848767896992472 -13.18052388499221 -7.726760247805745
    vertex 7.177083980261717 -20.34382691852462 -6.900363385620075
  endloop
endfacet
facet normal 0.0138079 0.920834 -0.389711
  outer loop
    vertex 15.23430110347928 -13.9540280528614 -6.032343318205799
    vertex 14.7565943489561 -10.89200029866821 1.185873796929847
    vertex 21.59684306962418 -11.97395445758167 -1.12827542499322
  endloop
endfacet
facet normal -0.859954 0.118201 0.496495
  outer loop
    vertex -8 3.429011037612589e-15 -1.959434878635765e-15
    vertex -6.327911535782565 -5.23694721174472 4.142908483709748
    vertex -4.00000000000001 0 6.928203230275503
  endloop
endfacet
facet normal -0.325007 -0.207016 0.922776
  outer loop
    vertex -7.460698725481052e-14 -6.554278847610559 7.931246323192053
    vertex -1.910294601088381 -13.07364735505512 5.795870520333888
    vertex 4.798655421041081 -13.87605651928892 7.978789085642083
  endloop
endfacet
facet normal 0.242886 0.505605 -0.827871
  outer loop
    vertex 15.23430110347928 -13.9540280528614 -6.032343318205799
    vertex 7.848767896992472 -13.18052388499221 -7.726760247805745
    vertex 9.356003365782946 -7.286720927604815 -3.685040461515737
  endloop
endfacet
facet normal -0.533589 -0.19988 0.821785
  outer loop
    vertex -4.00000000000001 0 6.928203230275503
    vertex -6.327911535782565 -5.23694721174472 4.142908483709748
    vertex -7.460698725481052e-14 -6.554278847610559 7.931246323192053
  endloop
endfacet
facet normal 0.682128 0.688309 -0.246843
  outer loop
    vertex 9.356003365782946 -7.286720927604815 -3.685040461515737
    vertex 14.7565943489561 -10.89200029866821 1.185873796929847
    vertex 15.23430110347928 -13.9540280528614 -6.032343318205799
  endloop
endfacet
facet normal 0.676076 -0.154097 0.720539
  outer loop
    vertex 42.39445814538014 -6.7258523611884 7.249662274065661
    vertex 46.63383578079248 -5.297799327558486 3.577296847821465
    vertex 44.98791841486987 -6.12027486082512e-15 6.254651859744233
  endloop
endfacet
facet normal 0.636686 -0.18101 -0.749578
  outer loop
    vertex 44.98791841486987 -6.120274860825119e-15 -6.254651859744235
    vertex 46.63383578071761 -5.297799327543595 -3.577296847974158
    vertex 41.73279628667404 -5.912036645040525 -7.591876575242153
  endloop
endfacet
facet normal -0.828485 -0.380322 0.411056
  outer loop
    vertex -5.868626910316024 -10.71513610622252 -1.959434878635765e-15
    vertex -1.910294601088381 -13.07364735505512 5.795870520333888
    vertex -6.327911535782565 -5.23694721174472 4.142908483709748
  endloop
endfacet
facet normal 0.342552 0.512665 0.787295
  outer loop
    vertex -9.284863893777503 25.86862691031603 -1.959434878635765e-15
    vertex -10.66153105111786 15.02570746650628 7.659600876845907
    vertex -0.2010101267766728 19.79898987322333 -1.959434878635765e-15
  endloop
endfacet
facet normal 0.637938 0.336593 0.692633
  outer loop
    vertex 5.868626910316028 10.71513610622252 -1.959434878635765e-15
    vertex -2.131628207280301e-14 5.443836006703755 7.966839387891767
    vertex 3.999999999999988 0 6.928203230275516
  endloop
endfacet
facet normal 0.205212 0.679935 0.703972
  outer loop
    vertex -0.2010101267766728 19.79898987322333 -1.959434878635765e-15
    vertex -10.66153105111786 15.02570746650628 7.659600876845907
    vertex -1.690082978532864 12.2342954158193 7.740474974482393
  endloop
endfacet
facet normal -0.977208 0.194379 0.085329
  outer loop
    vertex -48 3.429011037612589e-15 -1.959434878635765e-15
    vertex -46.63383578079247 5.297799327558469 3.577296847821494
    vertex -45.86862691031602 10.71513610622252 -1.959434878635765e-15
  endloop
endfacet
facet normal -0.977208 0.194379 -0.085329
  outer loop
    vertex -45.86862691031602 10.71513610622252 -1.959434878635765e-15
    vertex -46.6338357807176 5.297799327543577 -3.577296847974183
    vertex -48 3.429011037612589e-15 -1.959434878635765e-15
  endloop
endfacet
facet normal 0.20919 -0.0611614 0.97596
  outer loop
    vertex -33.92431986567671 6.161436972146213 6.419879563811394
    vertex -28.32544356146635 11.56022496138293 5.558130540463454
    vertex -38.30991702146724 12.23429541581936 7.740474974482365
  endloop
endfacet
facet normal 0.566757 0.426146 0.705115
  outer loop
    vertex -15.7038867627226 21.59801974040937 7.740474974481956
    vertex -10.66153105111786 15.02570746650628 7.659600876845907
    vertex -9.284863893777503 25.86862691031603 -1.959434878635765e-15
  endloop
endfacet
facet normal 0.195852 -0.204242 0.959128
  outer loop
    vertex -28.32544356146635 11.56022496138293 5.558130540463454
    vertex -31.62992089208243 18.67024793190118 7.746944491517739
    vertex -38.30991702146724 12.23429541581936 7.740474974482365
  endloop
endfacet
facet normal 0.0859307 -0.995916 0.0276923
  outer loop
    vertex -29.28184821742342 11.16118742174255 -5.824923294734685
    vertex -21.35059035010607 11.98100629833549 -0.9523706979183907
    vertex -28.32544356146635 11.56022496138293 5.558130540463454
  endloop
endfacet
facet normal -0.725541 -0.653467 -0.215805
  outer loop
    vertex -8.716123464795546 7.14458395239877 -4.455491047042815
    vertex -14.05490856426563 10.82643843842283 2.344818674167135
    vertex -14.39057509070286 14.07498277674701 -6.363407512912378
  endloop
endfacet
facet normal 0.068357 -0.11953 -0.990475
  outer loop
    vertex -16.19767350023195 22.46324142367171 -7.500410343109953
    vertex -14.39057509070286 14.07498277674701 -6.363407512912378
    vertex -23.86191345547289 16.22111329965718 -7.276059247716899
  endloop
endfacet
facet normal 0.947975 -0.310833 -0.0687525
  outer loop
    vertex -30.84825292477448 5.134342558236361 -0.1752252201347663
    vertex -29.28184821742342 11.16118742174255 -5.824923294734685
    vertex -28.32544356146635 11.56022496138293 5.558130540463454
  endloop
endfacet
facet normal -0.501332 -0.862153 0.073205
  outer loop
    vertex -7.360518491725784 7.232892058180416 5.86816762217917
    vertex -14.05490856426563 10.82643843842283 2.344818674167135
    vertex -8.716123464795546 7.14458395239877 -4.455491047042815
  endloop
endfacet
facet normal -0.0310025 -0.219361 0.975151
  outer loop
    vertex -18.96806532462854 15.74832245051128 6.797741133458796
    vertex -24.94344387465318 21.12721501474017 7.81775499055908
    vertex -28.32544356146635 11.56022496138293 5.558130540463454
  endloop
endfacet
facet normal -0.532391 0.551933 0.641818
  outer loop
    vertex -38.30991702146724 12.23429541581936 7.740474974482365
    vertex -31.62992089208243 18.67024793190118 7.746944491517739
    vertex -39.79898987322333 19.79898987322333 -1.959434878635765e-15
  endloop
endfacet
facet normal 0.260191 0.232711 -0.937095
  outer loop
    vertex -6.105916346018558 13.98654470399742 -7.994910761324018
    vertex -7.05840890233198 20.94296675554323 -6.531868998399055
    vertex 0.6565371219597651 14.71805280132273 -5.935612787103748
  endloop
endfacet
facet normal -0.142718 -0.847357 -0.511485
  outer loop
    vertex -23.86191345547289 16.22111329965718 -7.276059247716899
    vertex -14.39057509070286 14.07498277674701 -6.363407512912378
    vertex -21.35059035010607 11.98100629833549 -0.9523706979183907
  endloop
endfacet
facet normal 0.0843059 -0.257178 0.96268
  outer loop
    vertex -28.32544356146635 11.56022496138293 5.558130540463454
    vertex -24.94344387465318 21.12721501474017 7.81775499055908
    vertex -31.62992089208243 18.67024793190118 7.746944491517739
  endloop
endfacet
facet normal -0.709897 0.474338 -0.520625
  outer loop
    vertex -39.79898987322333 19.79898987322333 -1.959434878635765e-15
    vertex -38.66788118536201 13.323280808326 -7.442287722758989
    vertex -45.86862691031602 10.71513610622252 -1.959434878635765e-15
  endloop
endfacet
facet normal -0.680236 0.454519 0.575058
  outer loop
    vertex -45.86862691031602 10.71513610622252 -1.959434878635765e-15
    vertex -38.30991702146724 12.23429541581936 7.740474974482365
    vertex -39.79898987322333 19.79898987322333 -1.959434878635765e-15
  endloop
endfacet
facet normal -0.556172 0.583247 -0.592026
  outer loop
    vertex -39.79898987322333 19.79898987322333 -1.959434878635765e-15
    vertex -32.49504683574973 19.19827266179749 -7.45340571632955
    vertex -38.66788118536201 13.323280808326 -7.442287722758989
  endloop
endfacet
facet normal -0.156906 0.788822 0.594256
  outer loop
    vertex -30.71513610622252 25.86862691031602 -1.959434878635765e-15
    vertex -24.94344387465318 21.12721501474017 7.81775499055908
    vertex -20.00000000000002 28 -1.959434878635765e-15
  endloop
endfacet
facet normal -0.453646 0.67893 0.577286
  outer loop
    vertex -39.79898987322333 19.79898987322333 -1.959434878635765e-15
    vertex -31.62992089208243 18.67024793190118 7.746944491517739
    vertex -30.71513610622252 25.86862691031602 -1.959434878635765e-15
  endloop
endfacet
facet normal 0.165428 0.831663 -0.530065
  outer loop
    vertex -9.284863893777503 25.86862691031603 -1.959434878635765e-15
    vertex -16.19767350023195 22.46324142367171 -7.500410343109953
    vertex -20.00000000000002 28 -1.959434878635765e-15
  endloop
endfacet
facet normal 0.0856281 -0.115689 -0.989588
  outer loop
    vertex -16.19767350023195 22.46324142367171 -7.500410343109953
    vertex -7.05840890233198 20.94296675554323 -6.531868998399055
    vertex -14.39057509070286 14.07498277674701 -6.363407512912378
  endloop
endfacet
facet normal 0.102279 0.824388 -0.556708
  outer loop
    vertex -16.19767350023195 22.46324142367171 -7.500410343109953
    vertex -24.81528177131293 24.22528689317182 -6.474359608926656
    vertex -20.00000000000002 28 -1.959434878635765e-15
  endloop
endfacet
facet normal -0.100149 0.0873432 -0.991131
  outer loop
    vertex -23.86191345547289 16.22111329965718 -7.276059247716899
    vertex -24.81528177131293 24.22528689317182 -6.474359608926656
    vertex -16.19767350023195 22.46324142367171 -7.500410343109953
  endloop
endfacet
facet normal -0.722103 0.41563 -0.55301
  outer loop
    vertex -38.66788118536201 13.323280808326 -7.442287722758989
    vertex -42.63071566062595 6.868883829951995 -7.118722518788671
    vertex -45.86862691031602 10.71513610622252 -1.959434878635765e-15
  endloop
endfacet
facet normal -0.700883 0.365056 0.612778
  outer loop
    vertex -45.86862691031602 10.71513610622252 -1.959434878635765e-15
    vertex -41.73279628667462 5.912036645042521 7.591876575241796
    vertex -38.30991702146724 12.23429541581936 7.740474974482365
  endloop
endfacet
facet normal -0.188333 0.177368 -0.965956
  outer loop
    vertex -14.39057509070286 14.07498277674701 -6.363407512912378
    vertex -7.05840890233198 20.94296675554323 -6.531868998399055
    vertex -6.105916346018558 13.98654470399742 -7.994910761324018
  endloop
endfacet
facet normal -0.473988 0.709373 -0.521656
  outer loop
    vertex -30.71513610622252 25.86862691031602 -1.959434878635765e-15
    vertex -32.49504683574973 19.19827266179749 -7.45340571632955
    vertex -39.79898987322333 19.79898987322333 -1.959434878635765e-15
  endloop
endfacet
facet normal 0.135644 -0.144375 -0.980182
  outer loop
    vertex -38.66788118536201 13.323280808326 -7.442287722758989
    vertex -32.49504683574973 19.19827266179749 -7.45340571632955
    vertex -29.28184821742342 11.16118742174255 -5.824923294734685
  endloop
endfacet
facet normal 0.680236 0.454519 0.575058
  outer loop
    vertex -0.2010101267766728 19.79898987322333 -1.959434878635765e-15
    vertex -1.690082978532864 12.2342954158193 7.740474974482393
    vertex 5.868626910316028 10.71513610622252 -1.959434878635765e-15
  endloop
endfacet
facet normal -0.0333572 0.760987 0.64791
  outer loop
    vertex -20.00000000000002 28 -1.959434878635765e-15
    vertex -24.94344387465318 21.12721501474017 7.81775499055908
    vertex -15.7038867627226 21.59801974040937 7.740474974481956
  endloop
endfacet
facet normal 0.143617 0.119824 0.982352
  outer loop
    vertex -33.92431986567671 6.161436972146213 6.419879563811394
    vertex -41.73279628667462 5.912036645042521 7.591876575241796
    vertex -38.2198325283495 0 7.799423297454593
  endloop
endfacet
facet normal 0.720263 0.201396 0.663823
  outer loop
    vertex -1.690082978532864 12.2342954158193 7.740474974482393
    vertex -2.131628207280301e-14 5.443836006703755 7.966839387891767
    vertex 5.868626910316028 10.71513610622252 -1.959434878635765e-15
  endloop
endfacet
facet normal 0.571765 0.662239 -0.484277
  outer loop
    vertex 0.6565371219597651 14.71805280132273 -5.935612787103748
    vertex -7.05840890233198 20.94296675554323 -6.531868998399055
    vertex -0.2010101267766728 19.79898987322333 -1.959434878635765e-15
  endloop
endfacet
facet normal 0.603483 -0.25129 0.756744
  outer loop
    vertex -32.79224905678066 0 3.471069912940499
    vertex -33.92431986567671 6.161436972146213 6.419879563811394
    vertex -38.2198325283495 0 7.799423297454593
  endloop
endfacet
facet normal 0.159606 0.802393 0.575058
  outer loop
    vertex -20.00000000000002 28 -1.959434878635765e-15
    vertex -15.7038867627226 21.59801974040937 7.740474974481956
    vertex -9.284863893777503 25.86862691031603 -1.959434878635765e-15
  endloop
endfacet
facet normal 0.17501 0.0234471 -0.984287
  outer loop
    vertex -38.66788118536201 13.323280808326 -7.442287722758989
    vertex -29.28184821742342 11.16118742174255 -5.824923294734685
    vertex -35.00581649006546 5.765754256147789 -6.971191176630503
  endloop
endfacet
facet normal 0.928809 0.184752 -0.321219
  outer loop
    vertex 8 -6.858022075225178e-15 -1.959434878635765e-15
    vertex 4.724568123607611 6.454308049338394 -5.75871227689747
    vertex 5.868626910316028 10.71513610622252 -1.959434878635765e-15
  endloop
endfacet
facet normal 0.853446 0.0113416 -0.521058
  outer loop
    vertex -32.79224905678063 0 -3.471069912940437
    vertex -35.00581649006546 5.765754256147789 -6.971191176630503
    vertex -30.84825292477448 5.134342558236361 -0.1752252201347663
  endloop
endfacet
facet normal -0.991306 -0.0180895 0.130324
  outer loop
    vertex -8 3.429011037612589e-15 -1.959434878635765e-15
    vertex -7.360518491725784 7.232892058180416 5.86816762217917
    vertex -8.716123464795546 7.14458395239877 -4.455491047042815
  endloop
endfacet
facet normal -0.132939 -0.734629 0.665318
  outer loop
    vertex -18.96806532462854 15.74832245051128 6.797741133458796
    vertex -14.05490856426563 10.82643843842283 2.344818674167135
    vertex -10.66153105111786 15.02570746650628 7.659600876845907
  endloop
endfacet
facet normal 0.93521 -0.354095 3.82883e-15
  outer loop
    vertex -32.79224905678063 0 -3.471069912940437
    vertex -30.84825292477448 5.134342558236361 -0.1752252201347663
    vertex -32.79224905678066 0 3.471069912940499
  endloop
endfacet
facet normal 0.656727 -0.599527 -0.457468
  outer loop
    vertex -35.00581649006546 5.765754256147789 -6.971191176630503
    vertex -29.28184821742342 11.16118742174255 -5.824923294734685
    vertex -30.84825292477448 5.134342558236361 -0.1752252201347663
  endloop
endfacet
facet normal -0.181466 -0.396345 -0.899989
  outer loop
    vertex -8.716123464795546 7.14458395239877 -4.455491047042815
    vertex -14.39057509070286 14.07498277674701 -6.363407512912378
    vertex -6.105916346018558 13.98654470399742 -7.994910761324018
  endloop
endfacet
facet normal -5.48615e-16 -0.152539 -0.988297
  outer loop
    vertex -4.000000000000005 0 -6.928203230275506
    vertex -1.465596646920503 6.925591219219614 -7.997138674846706
    vertex 3.999999999999998 0 -6.928203230275511
  endloop
endfacet
facet normal -0.804468 -0.37028 -0.46446
  outer loop
    vertex -8 3.429011037612589e-15 -1.959434878635765e-15
    vertex -8.716123464795546 7.14458395239877 -4.455491047042815
    vertex -4.000000000000005 0 -6.928203230275506
  endloop
endfacet
facet normal -0.0892222 -0.25889 0.961777
  outer loop
    vertex -1.690082978532864 12.2342954158193 7.740474974482393
    vertex -10.66153105111786 15.02570746650628 7.659600876845907
    vertex -7.360518491725784 7.232892058180416 5.86816762217917
  endloop
endfacet
facet normal -0.111091 -0.0974009 0.989026
  outer loop
    vertex -18.96806532462854 15.74832245051128 6.797741133458796
    vertex -10.66153105111786 15.02570746650628 7.659600876845907
    vertex -15.7038867627226 21.59801974040937 7.740474974481956
  endloop
endfacet
facet normal -0.271617 0.720811 0.637696
  outer loop
    vertex -31.62992089208243 18.67024793190118 7.746944491517739
    vertex -24.94344387465318 21.12721501474017 7.81775499055908
    vertex -30.71513610622252 25.86862691031602 -1.959434878635765e-15
  endloop
endfacet
facet normal 0.35148 -0.879925 0.319678
  outer loop
    vertex -21.35059035010607 11.98100629833549 -0.9523706979183907
    vertex -18.96806532462854 15.74832245051128 6.797741133458796
    vertex -28.32544356146635 11.56022496138293 5.558130540463454
  endloop
endfacet
facet normal -0.0557326 -0.219632 -0.973989
  outer loop
    vertex -32.49504683574973 19.19827266179749 -7.45340571632955
    vertex -23.86191345547289 16.22111329965718 -7.276059247716899
    vertex -29.28184821742342 11.16118742174255 -5.824923294734685
  endloop
endfacet
facet normal 0.866006 -0.00662317 -0.499989
  outer loop
    vertex 3.999999999999998 0 -6.928203230275511
    vertex 4.724568123607611 6.454308049338394 -5.75871227689747
    vertex 8 -6.858022075225178e-15 -1.959434878635765e-15
  endloop
endfacet
facet normal 0.606922 -0.228995 -0.761056
  outer loop
    vertex -38.21983252834947 0 -7.799423297454585
    vertex -35.00581649006546 5.765754256147789 -6.971191176630503
    vertex -32.79224905678063 0 -3.471069912940437
  endloop
endfacet
facet normal 0.00985636 -0.936761 -0.349832
  outer loop
    vertex -14.39057509070286 14.07498277674701 -6.363407512912378
    vertex -14.05490856426563 10.82643843842283 2.344818674167135
    vertex -21.35059035010607 11.98100629833549 -0.9523706979183907
  endloop
endfacet
facet normal 0.444579 -0.652274 -0.613913
  outer loop
    vertex -29.28184821742342 11.16118742174255 -5.824923294734685
    vertex -23.86191345547289 16.22111329965718 -7.276059247716899
    vertex -21.35059035010607 11.98100629833549 -0.9523706979183907
  endloop
endfacet
facet normal 0.903284 -0.0385416 0.427309
  outer loop
    vertex -30.84825292477448 5.134342558236361 -0.1752252201347663
    vertex -33.92431986567671 6.161436972146213 6.419879563811394
    vertex -32.79224905678066 0 3.471069912940499
  endloop
endfacet
facet normal -0.822625 -0.312598 0.474943
  outer loop
    vertex -4.00000000000001 0 6.928203230275503
    vertex -7.360518491725784 7.232892058180416 5.86816762217917
    vertex -8 3.429011037612589e-15 -1.959434878635765e-15
  endloop
endfacet
facet normal -0.22146 -0.0975303 0.97028
  outer loop
    vertex -38.2198325283495 0 7.799423297454593
    vertex -41.73279628667462 5.912036645042521 7.591876575241796
    vertex -44.98791841486987 0 6.254651859744233
  endloop
endfacet
facet normal -0.222283 -0.0462287 -0.973886
  outer loop
    vertex -44.98791841486987 0 -6.254651859744231
    vertex -42.63071566062595 6.868883829951995 -7.118722518788671
    vertex -38.21983252834947 0 -7.799423297454585
  endloop
endfacet
facet normal -0.349371 -0.795978 0.494327
  outer loop
    vertex -21.35059035010607 11.98100629833549 -0.9523706979183907
    vertex -14.05490856426563 10.82643843842283 2.344818674167135
    vertex -18.96806532462854 15.74832245051128 6.797741133458796
  endloop
endfacet
facet normal 0.193448 0.813915 -0.547832
  outer loop
    vertex -9.284863893777503 25.86862691031603 -1.959434878635765e-15
    vertex -7.05840890233198 20.94296675554323 -6.531868998399055
    vertex -16.19767350023195 22.46324142367171 -7.500410343109953
  endloop
endfacet
facet normal -0.681473 0.46787 -0.562755
  outer loop
    vertex -42.63071566062595 6.868883829951995 -7.118722518788671
    vertex -46.6338357807176 5.297799327543577 -3.577296847974183
    vertex -45.86862691031602 10.71513610622252 -1.959434878635765e-15
  endloop
endfacet
facet normal -0.584539 0.502977 0.636654
  outer loop
    vertex -45.86862691031602 10.71513610622252 -1.959434878635765e-15
    vertex -46.63383578079247 5.297799327558469 3.577296847821494
    vertex -41.73279628667462 5.912036645042521 7.591876575241796
  endloop
endfacet
facet normal 0.665542 -0.62512 0.407773
  outer loop
    vertex -30.84825292477448 5.134342558236361 -0.1752252201347663
    vertex -28.32544356146635 11.56022496138293 5.558130540463454
    vertex -33.92431986567671 6.161436972146213 6.419879563811394
  endloop
endfacet
facet normal 0.508964 0.761719 -0.400924
  outer loop
    vertex -0.2010101267766728 19.79898987322333 -1.959434878635765e-15
    vertex -7.05840890233198 20.94296675554323 -6.531868998399055
    vertex -9.284863893777503 25.86862691031603 -1.959434878635765e-15
  endloop
endfacet
facet normal 0.150886 -0.104794 0.982981
  outer loop
    vertex -38.30991702146724 12.23429541581936 7.740474974482365
    vertex -41.73279628667462 5.912036645042521 7.591876575241796
    vertex -33.92431986567671 6.161436972146213 6.419879563811394
  endloop
endfacet
facet normal 0.0368333 0.121944 -0.991853
  outer loop
    vertex -38.21983252834947 0 -7.799423297454585
    vertex -42.63071566062595 6.868883829951995 -7.118722518788671
    vertex -35.00581649006546 5.765754256147789 -6.971191176630503
  endloop
endfacet
facet normal -0.179436 0.902086 -0.392484
  outer loop
    vertex -20.00000000000002 28 -1.959434878635765e-15
    vertex -24.81528177131293 24.22528689317182 -6.474359608926656
    vertex -30.71513610622252 25.86862691031602 -1.959434878635765e-15
  endloop
endfacet
facet normal -0.270729 0.0152818 0.962534
  outer loop
    vertex -4.00000000000001 0 6.928203230275503
    vertex -2.131628207280301e-14 5.443836006703755 7.966839387891767
    vertex -7.360518491725784 7.232892058180416 5.86816762217917
  endloop
endfacet
facet normal -0.405372 0.727176 -0.553975
  outer loop
    vertex -30.71513610622252 25.86862691031602 -1.959434878635765e-15
    vertex -24.81528177131293 24.22528689317182 -6.474359608926656
    vertex -32.49504683574973 19.19827266179749 -7.45340571632955
  endloop
endfacet
facet normal -0.428055 -0.281038 -0.858945
  outer loop
    vertex -8.716123464795546 7.14458395239877 -4.455491047042815
    vertex -6.105916346018558 13.98654470399742 -7.994910761324018
    vertex -1.465596646920503 6.925591219219614 -7.997138674846706
  endloop
endfacet
facet normal -0.282614 -0.0383889 0.958465
  outer loop
    vertex -7.360518491725784 7.232892058180416 5.86816762217917
    vertex -2.131628207280301e-14 5.443836006703755 7.966839387891767
    vertex -1.690082978532864 12.2342954158193 7.740474974482393
  endloop
endfacet
facet normal 0.78345 0.523484 -0.334918
  outer loop
    vertex 5.868626910316028 10.71513610622252 -1.959434878635765e-15
    vertex 0.6565371219597651 14.71805280132273 -5.935612787103748
    vertex -0.2010101267766728 19.79898987322333 -1.959434878635765e-15
  endloop
endfacet
facet normal -0.438272 0.0216926 -0.89858
  outer loop
    vertex -8.716123464795546 7.14458395239877 -4.455491047042815
    vertex -1.465596646920503 6.925591219219614 -7.997138674846706
    vertex -4.000000000000005 0 -6.928203230275506
  endloop
endfacet
facet normal 0.0570235 0.106222 -0.992706
  outer loop
    vertex -32.49504683574973 19.19827266179749 -7.45340571632955
    vertex -24.81528177131293 24.22528689317182 -6.474359608926656
    vertex -23.86191345547289 16.22111329965718 -7.276059247716899
  endloop
endfacet
facet normal -0.587235 -0.409281 0.698315
  outer loop
    vertex -10.66153105111786 15.02570746650628 7.659600876845907
    vertex -14.05490856426563 10.82643843842283 2.344818674167135
    vertex -7.360518491725784 7.232892058180416 5.86816762217917
  endloop
endfacet
facet normal -1.52677e-15 -0.187411 0.982282
  outer loop
    vertex 3.999999999999988 0 6.928203230275516
    vertex -2.131628207280301e-14 5.443836006703755 7.966839387891767
    vertex -4.00000000000001 0 6.928203230275503
  endloop
endfacet
facet normal 0.0110905 -0.0568561 -0.998321
  outer loop
    vertex -35.00581649006546 5.765754256147789 -6.971191176630503
    vertex -42.63071566062595 6.868883829951995 -7.118722518788671
    vertex -38.66788118536201 13.323280808326 -7.442287722758989
  endloop
endfacet
facet normal 0.345902 0.129551 -0.929284
  outer loop
    vertex -1.465596646920503 6.925591219219614 -7.997138674846706
    vertex 4.724568123607611 6.454308049338394 -5.75871227689747
    vertex 3.999999999999998 0 -6.928203230275511
  endloop
endfacet
facet normal -0.899317 -0.060529 -0.433088
  outer loop
    vertex -48 3.429011037612589e-15 -1.959434878635765e-15
    vertex -46.6338357807176 5.297799327543577 -3.577296847974183
    vertex -44.98791841486987 0 -6.254651859744231
  endloop
endfacet
facet normal -0.899317 -0.060529 0.433088
  outer loop
    vertex -44.98791841486987 0 6.254651859744233
    vertex -46.63383578079247 5.297799327558469 3.577296847821494
    vertex -48 3.429011037612589e-15 -1.959434878635765e-15
  endloop
endfacet
facet normal 0.0168155 -0.168223 0.985606
  outer loop
    vertex -15.7038867627226 21.59801974040937 7.740474974481956
    vertex -24.94344387465318 21.12721501474017 7.81775499055908
    vertex -18.96806532462854 15.74832245051128 6.797741133458796
  endloop
endfacet
facet normal 0.269117 0.177157 -0.946674
  outer loop
    vertex -6.105916346018558 13.98654470399742 -7.994910761324018
    vertex 0.6565371219597651 14.71805280132273 -5.935612787103748
    vertex -1.465596646920503 6.925591219219614 -7.997138674846706
  endloop
endfacet
facet normal -0.636686 0.18101 0.749578
  outer loop
    vertex -41.73279628667462 5.912036645042521 7.591876575241796
    vertex -46.63383578079247 5.297799327558469 3.577296847821494
    vertex -44.98791841486987 0 6.254651859744233
  endloop
endfacet
facet normal -0.687049 0.146242 -0.711742
  outer loop
    vertex -44.98791841486987 0 -6.254651859744231
    vertex -46.6338357807176 5.297799327543577 -3.577296847974183
    vertex -42.63071566062595 6.868883829951995 -7.118722518788671
  endloop
endfacet
facet normal 0.346302 0.150654 -0.925947
  outer loop
    vertex 0.6565371219597651 14.71805280132273 -5.935612787103748
    vertex 4.724568123607611 6.454308049338394 -5.75871227689747
    vertex -1.465596646920503 6.925591219219614 -7.997138674846706
  endloop
endfacet
facet normal 0.806387 0.387399 -0.446835
  outer loop
    vertex 5.868626910316028 10.71513610622252 -1.959434878635765e-15
    vertex 4.724568123607611 6.454308049338394 -5.75871227689747
    vertex 0.6565371219597651 14.71805280132273 -5.935612787103748
  endloop
endfacet
facet normal 0.853455 0.169763 0.492742
  outer loop
    vertex 3.999999999999988 0 6.928203230275516
    vertex 8 -6.858022075225178e-15 -1.959434878635765e-15
    vertex 5.868626910316028 10.71513610622252 -1.959434878635765e-15
  endloop
endfacet
facet normal 2.44929e-16 1 8.40826e-32
  outer loop
    vertex 48 -6.858022075225177e-15 -1.959434878635765e-15
    vertex 45 -6.123233995736766e-15 -1.224646799147353e-15
    vertex 44.98791841486987 -6.12027486082512e-15 6.254651859744233
  endloop
endfacet
facet normal 2.44929e-16 1 4.88566e-32
  outer loop
    vertex 44.98791841486987 -6.120274860825119e-15 -6.254651859744235
    vertex 45 -6.123233995736766e-15 -1.224646799147353e-15
    vertex 48 -6.858022075225177e-15 -1.959434878635765e-15
  endloop
endfacet
facet normal 2.44929e-16 1 7.8696e-32
  outer loop
    vertex 44.98791841486987 -6.12027486082512e-15 6.254651859744233
    vertex 45 -6.123233995736766e-15 -1.224646799147353e-15
    vertex 43.11744900929367 -5.662141986736729e-15 3.909157412340146
  endloop
endfacet
facet normal 2.44929e-16 1 5.04495e-32
  outer loop
    vertex 43.11744900929367 -5.662141986736728e-15 -3.90915741234015
    vertex 45 -6.123233995736766e-15 -1.224646799147353e-15
    vertex 44.98791841486987 -6.120274860825119e-15 -6.254651859744235
  endloop
endfacet
facet normal 2.44929e-16 1 -1.34532e-31
  outer loop
    vertex 43.11744900929367 -5.662141986736729e-15 3.909157412340146
    vertex 38.88739533021843 -4.626077647076534e-15 4.874639560909119
    vertex 38.2198325283495 -4.462571917368809e-15 7.799423297454593
  endloop
endfacet
facet normal 2.44929e-16 1 2.94289e-31
  outer loop
    vertex 43.11744900929367 -5.662141986736729e-15 3.909157412340146
    vertex 38.2198325283495 -4.462571917368809e-15 7.799423297454593
    vertex 44.98791841486987 -6.12027486082512e-15 6.254651859744233
  endloop
endfacet
facet normal 2.44929e-16 1 -4.70862e-31
  outer loop
    vertex 38.88739533021843 -4.626077647076534e-15 4.874639560909119
    vertex 35.4951556604879 -3.795218556381301e-15 2.169418695587793
    vertex 32.79224905678066 -3.133197372256437e-15 3.471069912940491
  endloop
endfacet
facet normal 2.44929e-16 1 -4.20413e-32
  outer loop
    vertex 38.88739533021843 -4.626077647076534e-15 4.874639560909119
    vertex 32.79224905678066 -3.133197372256437e-15 3.471069912940491
    vertex 38.2198325283495 -4.462571917368809e-15 7.799423297454593
  endloop
endfacet
facet normal 2.44929e-16 1 2.01798e-31
  outer loop
    vertex 32.79224905678063 -3.133197372256431e-15 -3.471069912940441
    vertex 35.4951556604879 -3.795218556381301e-15 2.169418695587793
    vertex 35.4951556604879 -3.795218556381301e-15 -2.169418695587788
  endloop
endfacet
facet normal 2.44929e-16 1 -2.07326e-31
  outer loop
    vertex 32.79224905678066 -3.133197372256437e-15 3.471069912940491
    vertex 35.4951556604879 -3.795218556381301e-15 2.169418695587793
    vertex 32.79224905678063 -3.133197372256431e-15 -3.471069912940441
  endloop
endfacet
facet normal 2.44929e-16 1 1.76573e-31
  outer loop
    vertex 38.88739533021842 -4.626077647076533e-15 -4.874639560909118
    vertex 38.21983252834948 -4.462571917368803e-15 -7.799423297454587
    vertex 35.4951556604879 -3.795218556381301e-15 -2.169418695587788
  endloop
endfacet
facet normal 2.44929e-16 1 -8.40826e-32
  outer loop
    vertex 35.4951556604879 -3.795218556381301e-15 -2.169418695587788
    vertex 38.21983252834948 -4.462571917368803e-15 -7.799423297454587
    vertex 32.79224905678063 -3.133197372256431e-15 -3.471069912940441
  endloop
endfacet
facet normal 2.44929e-16 1 2.69064e-31
  outer loop
    vertex 38.88739533021842 -4.626077647076533e-15 -4.874639560909118
    vertex 43.11744900929367 -5.662141986736728e-15 -3.90915741234015
    vertex 38.21983252834948 -4.462571917368803e-15 -7.799423297454587
  endloop
endfacet
facet normal 2.44929e-16 1 2.94289e-31
  outer loop
    vertex 43.11744900929367 -5.662141986736728e-15 -3.90915741234015
    vertex 44.98791841486987 -6.120274860825119e-15 -6.254651859744235
    vertex 38.21983252834948 -4.462571917368803e-15 -7.799423297454587
  endloop
endfacet
facet normal -1.22465e-16 -1 -4.89258e-16
  outer loop
    vertex -44.98791841486987 0 6.254651859744233
    vertex -48 3.429011037612589e-15 -1.959434878635765e-15
    vertex -45 3.061616997868383e-15 -1.224646799147353e-15
  endloop
endfacet
facet normal -1.22465e-16 -1 4.89258e-16
  outer loop
    vertex -48 3.429011037612589e-15 -1.959434878635765e-15
    vertex -44.98791841486987 0 -6.254651859744231
    vertex -45 3.061616997868383e-15 -1.224646799147353e-15
  endloop
endfacet
facet normal -6.12323e-16 -1 -4.88312e-16
  outer loop
    vertex -43.11744900929367 0 3.909157412340146
    vertex -44.98791841486987 0 6.254651859744233
    vertex -45 3.061616997868383e-15 -1.224646799147353e-15
  endloop
endfacet
facet normal -6.12323e-16 -1 4.88312e-16
  outer loop
    vertex -44.98791841486987 0 -6.254651859744231
    vertex -43.11744900929367 0 -3.90915741234015
    vertex -45 3.061616997868383e-15 -1.224646799147353e-15
  endloop
endfacet
facet normal 0 -1 0
  outer loop
    vertex -43.11744900929367 0 3.909157412340146
    vertex -38.88739533021844 0 4.87463956090912
    vertex -38.2198325283495 0 7.799423297454593
  endloop
endfacet
facet normal 0 -1 0
  outer loop
    vertex -44.98791841486987 0 6.254651859744233
    vertex -43.11744900929367 0 3.909157412340146
    vertex -38.2198325283495 0 7.799423297454593
  endloop
endfacet
facet normal -0 -1 0
  outer loop
    vertex -32.79224905678066 0 3.471069912940499
    vertex -38.88739533021844 0 4.87463956090912
    vertex -35.49515566048791 0 2.169418695587796
  endloop
endfacet
facet normal 0 -1 0
  outer loop
    vertex -38.88739533021844 0 4.87463956090912
    vertex -32.79224905678066 0 3.471069912940499
    vertex -38.2198325283495 0 7.799423297454593
  endloop
endfacet
facet normal 0 -1 0
  outer loop
    vertex -35.4951556604879 0 -2.169418695587781
    vertex -32.79224905678063 0 -3.471069912940437
    vertex -35.49515566048791 0 2.169418695587796
  endloop
endfacet
facet normal 0 -1 0
  outer loop
    vertex -32.79224905678063 0 -3.471069912940437
    vertex -32.79224905678066 0 3.471069912940499
    vertex -35.49515566048791 0 2.169418695587796
  endloop
endfacet
facet normal 0 -1 0
  outer loop
    vertex -35.4951556604879 0 -2.169418695587781
    vertex -38.88739533021842 0 -4.874639560909118
    vertex -38.21983252834947 0 -7.799423297454585
  endloop
endfacet
facet normal -0 -1 0
  outer loop
    vertex -32.79224905678063 0 -3.471069912940437
    vertex -35.4951556604879 0 -2.169418695587781
    vertex -38.21983252834947 0 -7.799423297454585
  endloop
endfacet
facet normal -0 -1 0
  outer loop
    vertex -38.88739533021842 0 -4.874639560909118
    vertex -43.11744900929367 0 -3.90915741234015
    vertex -44.98791841486987 0 -6.254651859744231
  endloop
endfacet
facet normal 0 -1 0
  outer loop
    vertex -38.21983252834947 0 -7.799423297454585
    vertex -38.88739533021842 0 -4.874639560909118
    vertex -44.98791841486987 0 -6.254651859744231
  endloop
endfacet
endsolid Created by Gmsh
