solid Created by Gmsh
facet normal 0.695441 0.711243 0.10245
  outer loop
    vertex 13.77306714825886 14.5018144150845 8.660294292814964
    vertex 9.892372489691706 17.38220257979957 15.00619859758659
    vertex 17.15429991365045 10.28250915256253 14.99999999999998
  endloop
endfacet
facet normal 0.695344 0.711322 -0.102555
  outer loop
    vertex 17.15429991365045 10.28250915256253 14.99999999999998
    vertex 9.892372489691706 17.38220257979957 15.00619859758659
    vertex 13.77306714825887 14.50181441508449 21.33970570718503
  endloop
endfacet
facet normal 0.695253 -0.711392 0.102689
  outer loop
    vertex 17.15595034646248 -10.27975523588543 15.00547896046215
    vertex 9.885582127976424 -17.3860652820307 14.99936543790152
    vertex 13.77306714825272 -14.50181441509033 8.660294292810601
  endloop
endfacet
facet normal 0.695336 -0.7113 -0.102761
  outer loop
    vertex 13.77306714825272 -14.50181441509033 21.3397057071894
    vertex 9.885582127976424 -17.3860652820307 14.99936543790152
    vertex 17.15595034646248 -10.27975523588543 15.00547896046215
  endloop
endfacet
facet normal -0.498585 -0.86348 -0.0762618
  outer loop
    vertex -10.00000000000001 -17.32050807568877 30
    vertex -14.14194628669845 -14.14232495822861 21.09403135474982
    vertex -5.176589645221902 -19.3184605920084 21.08744751030961
  endloop
endfacet
facet normal -0.498592 -0.863474 0.0762793
  outer loop
    vertex -5.176172158279356 -19.3185724572975 8.912552489688535
    vertex -14.14323573333543 -14.14103542854284 8.909489562926103
    vertex -10.00000000000001 -17.32050807568877 0
  endloop
endfacet
facet normal -0.705046 -0.705046 0.0762968
  outer loop
    vertex -17.32050807568878 -9.999999999999995 30
    vertex -14.14194628669845 -14.14232495822861 21.09403135474982
    vertex -10.00000000000001 -17.32050807568877 30
  endloop
endfacet
facet normal -0.997082 0.000160914 -0.0763362
  outer loop
    vertex -20 2.449293598294707e-15 30
    vertex -19.3179989655243 5.178312077115662 21.10281127463355
    vertex -19.31850216933932 -5.176434480724353 21.08755661165952
  endloop
endfacet
facet normal -0.000205874 -0.997098 -0.0761281
  outer loop
    vertex -3.673940397442059e-15 -20 30
    vertex -5.176589645221902 -19.3184605920084 21.08744751030961
    vertex 5.176380902050406 -19.31851652578137 21.06018244013315
  endloop
endfacet
facet normal -0.258066 -0.963114 -0.0762408
  outer loop
    vertex -3.673940397442059e-15 -20 0
    vertex -5.176172158279356 -19.3185724572975 8.912552489688535
    vertex -10.00000000000001 -17.32050807568877 0
  endloop
endfacet
facet normal -0.963114 -0.258066 0.0762417
  outer loop
    vertex -20 2.449293598294707e-15 30
    vertex -19.31850216933932 -5.176434480724353 21.08755661165952
    vertex -17.32050807568878 -9.999999999999995 30
  endloop
endfacet
facet normal 0.25807 0.963131 -0.0760096
  outer loop
    vertex 5.665538897647979e-15 20 0
    vertex 5.176380902050419 19.31851652578136 8.939817559866857
    vertex 10 17.32050807568877 0
  endloop
endfacet
facet normal -0.705049 0.705049 -0.0762417
  outer loop
    vertex -17.32050807568877 10.00000000000001 0
    vertex -14.14209640134844 14.14217484600468 8.912443388339442
    vertex -9.999999999999996 17.32050807568877 0
  endloop
endfacet
facet normal -0.000195092 -0.997098 0.0761219
  outer loop
    vertex -3.673940397442059e-15 -20 0
    vertex 5.176380902050406 -19.31851652578137 8.939817559866841
    vertex -5.176172158279356 -19.3185724572975 8.912552489688535
  endloop
endfacet
facet normal -0.25807 0.963131 0.0760096
  outer loop
    vertex 5.665538897647979e-15 20 30
    vertex -5.176380902050413 19.31851652578137 21.06018244013315
    vertex -9.999999999999996 17.32050807568877 30
  endloop
endfacet
facet normal -0.705061 0.705061 0.0760096
  outer loop
    vertex -9.999999999999996 17.32050807568877 30
    vertex -14.14213562373094 14.14213562373096 21.06018244013315
    vertex -17.32050807568877 10.00000000000001 30
  endloop
endfacet
facet normal -0.963105 0.258063 0.0763717
  outer loop
    vertex -17.32050807568877 10.00000000000001 30
    vertex -19.3179989655243 5.178312077115662 21.10281127463355
    vertex -20 2.449293598294707e-15 30
  endloop
endfacet
facet normal -0.863642 0.498319 -0.0761615
  outer loop
    vertex -17.32050807568877 10.00000000000001 30
    vertex -14.14213562373094 14.14213562373096 21.06018244013315
    vertex -19.3179989655243 5.178312077115662 21.10281127463355
  endloop
endfacet
facet normal -0.258066 -0.963114 0.0762408
  outer loop
    vertex -10.00000000000001 -17.32050807568877 30
    vertex -5.176589645221902 -19.3184605920084 21.08744751030961
    vertex -3.673940397442059e-15 -20 30
  endloop
endfacet
facet normal 0.25807 -0.963131 0.0760096
  outer loop
    vertex -3.673940397442059e-15 -20 30
    vertex 5.176380902050406 -19.31851652578137 21.06018244013315
    vertex 9.999999999999986 -17.32050807568878 30
  endloop
endfacet
facet normal -0.25806 0.963094 -0.0765156
  outer loop
    vertex -9.999999999999996 17.32050807568877 0
    vertex -5.173135280466303 19.31938589526062 8.880349718439444
    vertex 5.665538897647979e-15 20 0
  endloop
endfacet
facet normal -0.000354162 0.997091 0.0762135
  outer loop
    vertex 5.665538897647979e-15 20 0
    vertex -5.173135280466303 19.31938589526062 8.880349718439444
    vertex 5.176380902050419 19.31851652578136 8.939817559866857
  endloop
endfacet
facet normal -0.963105 0.258063 -0.0763717
  outer loop
    vertex -20 2.449293598294707e-15 0
    vertex -19.31903389298331 5.174449675256509 8.897188725366281
    vertex -17.32050807568877 10.00000000000001 0
  endloop
endfacet
facet normal 0.25807 0.963131 0.0760096
  outer loop
    vertex 10 17.32050807568877 30
    vertex 5.176380902050419 19.31851652578136 21.06018244013315
    vertex 5.665538897647979e-15 20 30
  endloop
endfacet
facet normal -0.498259 0.863653 0.076426
  outer loop
    vertex -14.14209640134844 14.14217484600468 8.912443388339442
    vertex -5.173135280466303 19.31938589526062 8.880349718439444
    vertex -9.999999999999996 17.32050807568877 0
  endloop
endfacet
facet normal -0.997095 0.000263825 0.0761615
  outer loop
    vertex -19.31851652578137 -5.176380902050407 8.939817559866851
    vertex -19.31903389298331 5.174449675256509 8.897188725366281
    vertex -20 2.449293598294707e-15 0
  endloop
endfacet
facet normal -0.963131 -0.25807 -0.0760096
  outer loop
    vertex -17.32050807568878 -9.999999999999995 0
    vertex -19.31851652578137 -5.176380902050407 8.939817559866851
    vertex -20 2.449293598294707e-15 0
  endloop
endfacet
facet normal 0.25807 -0.963131 -0.0760096
  outer loop
    vertex 9.999999999999986 -17.32050807568878 0
    vertex 5.176380902050406 -19.31851652578137 8.939817559866841
    vertex -3.673940397442059e-15 -20 0
  endloop
endfacet
facet normal -0.863579 0.498402 0.0763362
  outer loop
    vertex -17.32050807568877 10.00000000000001 0
    vertex -19.31903389298331 5.174449675256509 8.897188725366281
    vertex -14.14209640134844 14.14217484600468 8.912443388339442
  endloop
endfacet
facet normal 3.73183e-16 0.997107 -0.0760096
  outer loop
    vertex 5.665538897647979e-15 20 30
    vertex 5.176380902050419 19.31851652578136 21.06018244013315
    vertex -5.176380902050413 19.31851652578137 21.06018244013315
  endloop
endfacet
facet normal -0.498554 0.86352 -0.0760096
  outer loop
    vertex -5.176380902050413 19.31851652578137 21.06018244013315
    vertex -14.14213562373094 14.14213562373096 21.06018244013315
    vertex -9.999999999999996 17.32050807568877 30
  endloop
endfacet
facet normal -0.705047 -0.705047 -0.0762668
  outer loop
    vertex -10.00000000000001 -17.32050807568877 0
    vertex -14.14323573333543 -14.14103542854284 8.909489562926103
    vertex -17.32050807568878 -9.999999999999995 0
  endloop
endfacet
facet normal -0.863475 -0.498592 -0.0762723
  outer loop
    vertex -19.31850216933932 -5.176434480724353 21.08755661165952
    vertex -14.14194628669845 -14.14232495822861 21.09403135474982
    vertex -17.32050807568878 -9.999999999999995 30
  endloop
endfacet
facet normal -0.863421 -0.498709 0.0761157
  outer loop
    vertex -17.32050807568878 -9.999999999999995 0
    vertex -14.14323573333543 -14.14103542854284 8.909489562926103
    vertex -19.31851652578137 -5.176380902050407 8.939817559866851
  endloop
endfacet
facet normal 0.963794 -0.266648 0
  outer loop
    vertex 20 -4.898587196589413e-15 19.99999999999999
    vertex 17.15595034646248 -10.27975523588543 15.00547896046215
    vertex 20 -4.898587196589413e-15 9.999999999999975
  endloop
endfacet
facet normal 0.963773 0.266726 -0
  outer loop
    vertex 20 -4.898587196589413e-15 9.999999999999975
    vertex 17.15429991365045 10.28250915256253 14.99999999999998
    vertex 20 -4.898587196589413e-15 19.99999999999999
  endloop
endfacet
facet normal 0.70497 0.70497 -0.0776884
  outer loop
    vertex 10 17.32050807568877 0
    vertex 13.77306714825886 14.5018144150845 8.660294292814964
    vertex 17.32050807568877 9.999999999999996 0
  endloop
endfacet
facet normal 0.70497 0.70497 0.0776884
  outer loop
    vertex 17.32050807568877 9.999999999999996 30
    vertex 13.77306714825887 14.50181441508449 21.33970570718503
    vertex 10 17.32050807568877 30
  endloop
endfacet
facet normal 0.70497 -0.70497 0.0776884
  outer loop
    vertex 9.999999999999986 -17.32050807568878 30
    vertex 13.77306714825272 -14.50181441509033 21.3397057071894
    vertex 17.32050807568877 -10.00000000000001 30
  endloop
endfacet
facet normal 0.70497 -0.70497 -0.0776884
  outer loop
    vertex 17.32050807568877 -10.00000000000001 0
    vertex 13.77306714825272 -14.50181441509033 8.660294292810601
    vertex 9.999999999999986 -17.32050807568878 0
  endloop
endfacet
facet normal 0.489336 0.869302 -0.0697437
  outer loop
    vertex 10 17.32050807568877 30
    vertex 13.77306714825887 14.50181441508449 21.33970570718503
    vertex 5.176380902050419 19.31851652578136 21.06018244013315
  endloop
endfacet
facet normal 0.489336 0.869302 0.0697437
  outer loop
    vertex 5.176380902050419 19.31851652578136 8.939817559866857
    vertex 13.77306714825886 14.5018144150845 8.660294292814964
    vertex 10 17.32050807568877 0
  endloop
endfacet
facet normal 0.489336 -0.869302 -0.0697437
  outer loop
    vertex 5.176380902050406 -19.31851652578137 21.06018244013315
    vertex 13.77306714825272 -14.50181441509033 21.3397057071894
    vertex 9.999999999999986 -17.32050807568878 30
  endloop
endfacet
facet normal 0.489336 -0.869302 0.0697437
  outer loop
    vertex 9.999999999999986 -17.32050807568878 0
    vertex 13.77306714825272 -14.50181441509033 8.660294292810601
    vertex 5.176380902050406 -19.31851652578137 8.939817559866841
  endloop
endfacet
facet normal 0.964123 0.258336 -0.0610729
  outer loop
    vertex 17.32050807568877 9.999999999999996 0
    vertex 18.32477675170659 8.012649811399088 7.447396802423876
    vertex 20 -4.898587196589413e-15 0
  endloop
endfacet
facet normal 0.964123 0.258336 0.0610729
  outer loop
    vertex 20 -4.898587196589413e-15 30
    vertex 18.32477675170658 8.012649811399104 22.5526031975761
    vertex 17.32050807568877 9.999999999999996 30
  endloop
endfacet
facet normal 0.963809 -0.258252 -0.0661679
  outer loop
    vertex 20 -4.898587196589413e-15 0
    vertex 18.41966988532091 -7.792031911882934 7.392864589835716
    vertex 17.32050807568877 -10.00000000000001 0
  endloop
endfacet
facet normal 0.964123 -0.258336 0.0610765
  outer loop
    vertex 17.32050807568877 -10.00000000000001 30
    vertex 18.32481814026129 -8.012555155900694 22.55278601233228
    vertex 20 -4.898587196589413e-15 30
  endloop
endfacet
facet normal 0.978836 -0.204645 0
  outer loop
    vertex 20 -4.898587196589413e-15 30
    vertex 18.32481814026129 -8.012555155900694 22.55278601233228
    vertex 20 -4.898587196589413e-15 19.99999999999999
  endloop
endfacet
facet normal 0.980047 -0.198767 0
  outer loop
    vertex 20 -4.898587196589413e-15 9.999999999999975
    vertex 18.41966988532091 -7.792031911882934 7.392864589835716
    vertex 20 -4.898587196589413e-15 0
  endloop
endfacet
facet normal 0.978836 0.204647 -0
  outer loop
    vertex 20 -4.898587196589413e-15 0
    vertex 18.32477675170659 8.012649811399088 7.447396802423876
    vertex 20 -4.898587196589413e-15 9.999999999999975
  endloop
endfacet
facet normal 0.978836 0.204647 -0
  outer loop
    vertex 20 -4.898587196589413e-15 19.99999999999999
    vertex 18.32477675170658 8.012649811399104 22.5526031975761
    vertex 20 -4.898587196589413e-15 30
  endloop
endfacet
facet normal 0.821576 0.568626 0.0409506
  outer loop
    vertex 13.77306714825886 14.5018144150845 8.660294292814964
    vertex 18.32477675170659 8.012649811399088 7.447396802423876
    vertex 17.32050807568877 9.999999999999996 0
  endloop
endfacet
facet normal 0.821576 0.568626 -0.0409506
  outer loop
    vertex 17.32050807568877 9.999999999999996 30
    vertex 18.32477675170658 8.012649811399104 22.5526031975761
    vertex 13.77306714825887 14.50181441508449 21.33970570718503
  endloop
endfacet
facet normal 0.825261 -0.562922 0.0454248
  outer loop
    vertex 17.32050807568877 -10.00000000000001 0
    vertex 18.41966988532091 -7.792031911882934 7.392864589835716
    vertex 13.77306714825272 -14.50181441509033 8.660294292810601
  endloop
endfacet
facet normal 0.821578 -0.568623 -0.0409532
  outer loop
    vertex 13.77306714825272 -14.50181441509033 21.3397057071894
    vertex 18.32481814026129 -8.012555155900694 22.55278601233228
    vertex 17.32050807568877 -10.00000000000001 30
  endloop
endfacet
facet normal -0.702101 0.703265 -0.111684
  outer loop
    vertex -14.14213562373094 14.14213562373096 21.06018244013315
    vertex -9.986946715391785 17.32803783767583 15
    vertex -17.31462591009329 10.01018129673614 14.9854806449294
  endloop
endfacet
facet normal -0.959789 -0.257728 0.11127
  outer loop
    vertex -19.31851652578137 -5.176380902050407 8.939817559866851
    vertex -17.3176939415078 -10.00487264028203 15.01449505591389
    vertex -19.99999670382578 -0.01148246306580685 15.02466515696179
  endloop
endfacet
facet normal -0.496934 -0.860715 -0.110574
  outer loop
    vertex -5.176172158279356 -19.3185724572975 8.912552489688535
    vertex -10.00000000000515 -17.3205080756858 15.03843921395171
    vertex -14.14323573333543 -14.14103542854284 8.909489562926103
  endloop
endfacet
facet normal 0.000286461 -0.993841 0.110813
  outer loop
    vertex -5.176589645221902 -19.3184605920084 21.08744751030961
    vertex -3.673940397442059e-15 -20 14.96156078604865
    vertex 5.176380902050406 -19.31851652578137 21.06018244013315
  endloop
endfacet
facet normal -0.993834 -0.000506306 -0.110876
  outer loop
    vertex -19.31851652578137 -5.176380902050407 8.939817559866851
    vertex -19.99999670382578 -0.01148246306580685 15.02466515696179
    vertex -19.31903389298331 5.174449675256509 8.897188725366281
  endloop
endfacet
facet normal -0.860414 0.497346 0.111058
  outer loop
    vertex -14.14213562373094 14.14213562373096 21.06018244013315
    vertex -17.31462591009329 10.01018129673614 14.9854806449294
    vertex -19.3179989655243 5.178312077115662 21.10281127463355
  endloop
endfacet
facet normal 0.000718131 0.993881 -0.110451
  outer loop
    vertex -5.173135280466303 19.31938589526062 8.880349718439444
    vertex 5.665538897647979e-15 20 15.03843921395135
    vertex 5.176380902050419 19.31851652578136 8.939817559866857
  endloop
endfacet
facet normal -0.70234 0.703062 0.111452
  outer loop
    vertex -17.31462591009329 10.01018129673614 14.9854806449294
    vertex -9.986946715391785 17.32803783767583 15
    vertex -14.14209640134844 14.14217484600468 8.912443388339442
  endloop
endfacet
facet normal -0.959823 -0.25751 -0.111484
  outer loop
    vertex -19.99999670382578 -0.01148246306580685 15.02466515696179
    vertex -17.3176939415078 -10.00487264028203 15.01449505591389
    vertex -19.31850216933932 -5.176434480724353 21.08755661165952
  endloop
endfacet
facet normal -0.256414 -0.960143 0.111254
  outer loop
    vertex -5.176172158279356 -19.3185724572975 8.912552489688535
    vertex -3.673940397442059e-15 -20 14.96156078604865
    vertex -10.00000000000515 -17.3205080756858 15.03843921395171
  endloop
endfacet
facet normal -0.25801 -0.959715 -0.111254
  outer loop
    vertex -10.00000000000515 -17.3205080756858 15.03843921395171
    vertex -3.673940397442059e-15 -20 14.96156078604865
    vertex -5.176589645221902 -19.3184605920084 21.08744751030961
  endloop
endfacet
facet normal -0.959806 0.257622 0.11137
  outer loop
    vertex -19.99999670382578 -0.01148246306580685 15.02466515696179
    vertex -17.31462591009329 10.01018129673614 14.9854806449294
    vertex -19.31903389298331 5.174449675256509 8.897188725366281
  endloop
endfacet
facet normal -0.960004 0.256803 -0.111553
  outer loop
    vertex -19.3179989655243 5.178312077115662 21.10281127463355
    vertex -17.31462591009329 10.01018129673614 14.9854806449294
    vertex -19.99999670382578 -0.01148246306580685 15.02466515696179
  endloop
endfacet
facet normal -0.497133 0.860541 -0.11103
  outer loop
    vertex -14.14209640134844 14.14217484600468 8.912443388339442
    vertex -9.986946715391785 17.32803783767583 15
    vertex -5.173135280466303 19.31938589526062 8.880349718439444
  endloop
endfacet
facet normal -0.496868 0.860601 0.111747
  outer loop
    vertex -5.176380902050413 19.31851652578137 21.06018244013315
    vertex -9.986946715391785 17.32803783767583 15
    vertex -14.14213562373094 14.14213562373096 21.06018244013315
  endloop
endfacet
facet normal -0.860839 -0.496585 -0.111178
  outer loop
    vertex -14.14323573333543 -14.14103542854284 8.909489562926103
    vertex -17.3176939415078 -10.00487264028203 15.01449505591389
    vertex -19.31851652578137 -5.176380902050407 8.939817559866851
  endloop
endfacet
facet normal -0.86066 -0.496831 0.11146
  outer loop
    vertex -19.31850216933932 -5.176434480724353 21.08755661165952
    vertex -17.3176939415078 -10.00487264028203 15.01449505591389
    vertex -14.14194628669845 -14.14232495822861 21.09403135474982
  endloop
endfacet
facet normal -0.70285 -0.702686 0.110607
  outer loop
    vertex -10.00000000000515 -17.3205080756858 15.03843921395171
    vertex -17.3176939415078 -10.00487264028203 15.01449505591389
    vertex -14.14323573333543 -14.14103542854284 8.909489562926103
  endloop
endfacet
facet normal -0.257281 0.960053 0.110022
  outer loop
    vertex -5.173135280466303 19.31938589526062 8.880349718439444
    vertex -9.986946715391785 17.32803783767583 15
    vertex 5.665538897647979e-15 20 15.03843921395135
  endloop
endfacet
facet normal -0.496798 -0.860624 0.111882
  outer loop
    vertex -14.14194628669845 -14.14232495822861 21.09403135474982
    vertex -10.00000000000515 -17.3205080756858 15.03843921395171
    vertex -5.176589645221902 -19.3184605920084 21.08744751030961
  endloop
endfacet
facet normal 0.000300858 -0.993686 -0.112197
  outer loop
    vertex 5.176380902050406 -19.31851652578137 8.939817559866841
    vertex -3.673940397442059e-15 -20 14.96156078604865
    vertex -5.176172158279356 -19.3185724572975 8.912552489688535
  endloop
endfacet
facet normal -0.993753 -0.000116121 0.111603
  outer loop
    vertex -19.3179989655243 5.178312077115662 21.10281127463355
    vertex -19.99999670382578 -0.01148246306580685 15.02466515696179
    vertex -19.31850216933932 -5.176434480724353 21.08755661165952
  endloop
endfacet
facet normal -0.860575 0.496987 -0.111419
  outer loop
    vertex -19.31903389298331 5.174449675256509 8.897188725366281
    vertex -17.31462591009329 10.01018129673614 14.9854806449294
    vertex -14.14209640134844 14.14217484600468 8.912443388339442
  endloop
endfacet
facet normal 3.02399e-16 0.993657 0.112453
  outer loop
    vertex 5.176380902050419 19.31851652578136 21.06018244013315
    vertex 5.665538897647979e-15 20 15.03843921395135
    vertex -5.176380902050413 19.31851652578137 21.06018244013315
  endloop
endfacet
facet normal -0.702417 -0.702979 -0.111496
  outer loop
    vertex -14.14194628669845 -14.14232495822861 21.09403135474982
    vertex -17.3176939415078 -10.00487264028203 15.01449505591389
    vertex -10.00000000000515 -17.3205080756858 15.03843921395171
  endloop
endfacet
facet normal -0.256434 0.960076 -0.111782
  outer loop
    vertex 5.665538897647979e-15 20 15.03843921395135
    vertex -9.986946715391785 17.32803783767583 15
    vertex -5.176380902050413 19.31851652578137 21.06018244013315
  endloop
endfacet
facet normal 0.254508 -0.960949 -0.108641
  outer loop
    vertex -3.673940397442059e-15 -20 14.96156078604865
    vertex 9.885582127976424 -17.3860652820307 14.99936543790152
    vertex 5.176380902050406 -19.31851652578137 21.06018244013315
  endloop
endfacet
facet normal 0.25371 -0.961082 0.109327
  outer loop
    vertex 5.176380902050406 -19.31851652578137 8.939817559866841
    vertex 9.885582127976424 -17.3860652820307 14.99936543790152
    vertex -3.673940397442059e-15 -20 14.96156078604865
  endloop
endfacet
facet normal 0.254636 0.960902 0.108755
  outer loop
    vertex 5.665538897647979e-15 20 15.03843921395135
    vertex 9.892372489691706 17.38220257979957 15.00619859758659
    vertex 5.176380902050419 19.31851652578136 8.939817559866857
  endloop
endfacet
facet normal 0.253949 0.960995 -0.109542
  outer loop
    vertex 5.176380902050419 19.31851652578136 21.06018244013315
    vertex 9.892372489691706 17.38220257979957 15.00619859758659
    vertex 5.665538897647979e-15 20 15.03843921395135
  endloop
endfacet
facet normal 0.813481 0.579597 0.0481214
  outer loop
    vertex 13.77306714825887 14.50181441508449 21.33970570718503
    vertex 18.32477675170658 8.012649811399104 22.5526031975761
    vertex 17.15429991365045 10.28250915256253 14.99999999999998
  endloop
endfacet
facet normal 0.813481 0.579597 -0.0481214
  outer loop
    vertex 17.15429991365045 10.28250915256253 14.99999999999998
    vertex 18.32477675170659 8.012649811399088 7.447396802423876
    vertex 13.77306714825886 14.5018144150845 8.660294292814964
  endloop
endfacet
facet normal 0.813482 -0.579596 0.0481239
  outer loop
    vertex 17.15595034646248 -10.27975523588543 15.00547896046215
    vertex 18.32481814026129 -8.012555155900694 22.55278601233228
    vertex 13.77306714825272 -14.50181441509033 21.3397057071894
  endloop
endfacet
facet normal 0.816316 -0.575218 -0.0524642
  outer loop
    vertex 13.77306714825272 -14.50181441509033 8.660294292810601
    vertex 18.41966988532091 -7.792031911882934 7.392864589835716
    vertex 17.15595034646248 -10.27975523588543 15.00547896046215
  endloop
endfacet
facet normal 0.970225 -0.225958 0.0872199
  outer loop
    vertex 17.15595034646248 -10.27975523588543 15.00547896046215
    vertex 18.41966988532091 -7.792031911882934 7.392864589835716
    vertex 20 -4.898587196589413e-15 9.999999999999975
  endloop
endfacet
facet normal 0.97006 -0.228779 -0.0815104
  outer loop
    vertex 20 -4.898587196589413e-15 19.99999999999999
    vertex 18.32481814026129 -8.012555155900694 22.55278601233228
    vertex 17.15595034646248 -10.27975523588543 15.00547896046215
  endloop
endfacet
facet normal 0.97005 0.228797 0.0815724
  outer loop
    vertex 20 -4.898587196589413e-15 9.999999999999975
    vertex 18.32477675170659 8.012649811399088 7.447396802423876
    vertex 17.15429991365045 10.28250915256253 14.99999999999998
  endloop
endfacet
facet normal 0.97005 0.228797 -0.0815724
  outer loop
    vertex 17.15429991365045 10.28250915256253 14.99999999999998
    vertex 18.32477675170658 8.012649811399104 22.5526031975761
    vertex 20 -4.898587196589413e-15 19.99999999999999
  endloop
endfacet
facet normal 0.483961 -0.869492 -0.0988223
  outer loop
    vertex 13.77306714825272 -14.50181441509033 8.660294292810601
    vertex 9.885582127976424 -17.3860652820307 14.99936543790152
    vertex 5.176380902050406 -19.31851652578137 8.939817559866841
  endloop
endfacet
facet normal 0.483955 0.869486 0.0988986
  outer loop
    vertex 13.77306714825887 14.50181441508449 21.33970570718503
    vertex 9.892372489691706 17.38220257979957 15.00619859758659
    vertex 5.176380902050419 19.31851652578136 21.06018244013315
  endloop
endfacet
facet normal 0.48397 0.8695 -0.0987031
  outer loop
    vertex 5.176380902050419 19.31851652578136 8.939817559866857
    vertex 9.892372489691706 17.38220257979957 15.00619859758659
    vertex 13.77306714825886 14.5018144150845 8.660294292814964
  endloop
endfacet
facet normal 0.483962 -0.869493 0.0988023
  outer loop
    vertex 5.176380902050406 -19.31851652578137 21.06018244013315
    vertex 9.885582127976424 -17.3860652820307 14.99936543790152
    vertex 13.77306714825272 -14.50181441509033 21.3397057071894
  endloop
endfacet
facet normal 0 0 1
  outer loop
    vertex -9.89949493661161 -9.89949493661172 30
    vertex -17.32050807568878 -9.999999999999995 30
    vertex -10.00000000000001 -17.32050807568877 30
  endloop
endfacet
facet normal 0 -0 1
  outer loop
    vertex 9.999999999999986 -17.32050807568878 30
    vertex 17.32050807568877 -10.00000000000001 30
    vertex 9.899494936611681 -9.899494936611651 30
  endloop
endfacet
facet normal 0 0 1
  outer loop
    vertex -9.999999999999996 17.32050807568877 30
    vertex -17.32050807568877 10.00000000000001 30
    vertex -9.899494936611703 9.899494936611628 30
  endloop
endfacet
facet normal 0 0 1
  outer loop
    vertex 17.32050807568877 9.999999999999996 30
    vertex 10 17.32050807568877 30
    vertex 9.899494936611655 9.899494936611676 30
  endloop
endfacet
facet normal 0 0 1
  outer loop
    vertex 17.32050807568877 9.999999999999996 30
    vertex 14 -3.429011037612589e-15 30
    vertex 20 -4.898587196589413e-15 30
  endloop
endfacet
facet normal 0 0 1
  outer loop
    vertex 14 -3.429011037612589e-15 30
    vertex 17.32050807568877 -10.00000000000001 30
    vertex 20 -4.898587196589413e-15 30
  endloop
endfacet
facet normal -0 0 1
  outer loop
    vertex 9.899494936611655 9.899494936611676 30
    vertex 14 -3.429011037612589e-15 30
    vertex 17.32050807568877 9.999999999999996 30
  endloop
endfacet
facet normal -0 0 1
  outer loop
    vertex 9.899494936611681 -9.899494936611651 30
    vertex 17.32050807568877 -10.00000000000001 30
    vertex 14 -3.429011037612589e-15 30
  endloop
endfacet
facet normal 0 0 1
  outer loop
    vertex 5.665538897647979e-15 20 30
    vertex -2.71203674611508e-14 14 30
    vertex 10 17.32050807568877 30
  endloop
endfacet
facet normal 0 0 1
  outer loop
    vertex 10 17.32050807568877 30
    vertex -2.71203674611508e-14 14 30
    vertex 9.899494936611655 9.899494936611676 30
  endloop
endfacet
facet normal -0 0 1
  outer loop
    vertex -9.999999999999996 17.32050807568877 30
    vertex -2.71203674611508e-14 14 30
    vertex 5.665538897647979e-15 20 30
  endloop
endfacet
facet normal 0 -0 1
  outer loop
    vertex -9.899494936611703 9.899494936611628 30
    vertex -2.71203674611508e-14 14 30
    vertex -9.999999999999996 17.32050807568877 30
  endloop
endfacet
facet normal 0 0 1
  outer loop
    vertex -17.32050807568877 10.00000000000001 30
    vertex -20 2.449293598294707e-15 30
    vertex -14 -7.289248173600423e-14 30
  endloop
endfacet
facet normal 0 0 1
  outer loop
    vertex -9.899494936611703 9.899494936611628 30
    vertex -17.32050807568877 10.00000000000001 30
    vertex -14 -7.289248173600423e-14 30
  endloop
endfacet
facet normal 0 0 1
  outer loop
    vertex -20 2.449293598294707e-15 30
    vertex -17.32050807568878 -9.999999999999995 30
    vertex -14 -7.289248173600423e-14 30
  endloop
endfacet
facet normal 0 0 1
  outer loop
    vertex -14 -7.289248173600423e-14 30
    vertex -17.32050807568878 -9.999999999999995 30
    vertex -9.89949493661161 -9.89949493661172 30
  endloop
endfacet
facet normal -0 0 1
  outer loop
    vertex -10.00000000000001 -17.32050807568877 30
    vertex -3.673940397442059e-15 -20 30
    vertex 5.960073110079933e-14 -14 30
  endloop
endfacet
facet normal 0 0 1
  outer loop
    vertex -10.00000000000001 -17.32050807568877 30
    vertex 5.960073110079933e-14 -14 30
    vertex -9.89949493661161 -9.89949493661172 30
  endloop
endfacet
facet normal 0 0 1
  outer loop
    vertex -3.673940397442059e-15 -20 30
    vertex 9.999999999999986 -17.32050807568878 30
    vertex 5.960073110079933e-14 -14 30
  endloop
endfacet
facet normal -0 0 1
  outer loop
    vertex 5.960073110079933e-14 -14 30
    vertex 9.999999999999986 -17.32050807568878 30
    vertex 9.899494936611681 -9.899494936611651 30
  endloop
endfacet
facet normal 0 0 -1
  outer loop
    vertex 3.82078040878242 10.24519052838329 0
    vertex 10 17.32050807568877 0
    vertex 11.06569584701672 6.197397206423322 0
  endloop
endfacet
facet normal 0 0 -1
  outer loop
    vertex 10 17.32050807568877 0
    vertex 17.32050807568877 9.999999999999996 0
    vertex 11.06569584701672 6.197397206423322 0
  endloop
endfacet
facet normal 0 0 -1
  outer loop
    vertex 5.252886597629143 2.298176558779111 0
    vertex 3.82078040878242 10.24519052838329 0
    vertex 11.06569584701672 6.197397206423322 0
  endloop
endfacet
facet normal 0 0 -1
  outer loop
    vertex 20 -4.898587196589413e-15 0
    vertex 17.32050807568877 -10.00000000000001 0
    vertex 9.999999999999995 -2.679491924311229 0
  endloop
endfacet
facet normal 0 0 -1
  outer loop
    vertex -20 2.449293598294707e-15 0
    vertex -17.32050807568877 10.00000000000001 0
    vertex -10 2.679491924311233 0
  endloop
endfacet
facet normal 0 0 -1
  outer loop
    vertex 5.665538897647979e-15 20 0
    vertex 10 17.32050807568877 0
    vertex 3.82078040878242 10.24519052838329 0
  endloop
endfacet
facet normal 0 0 -1
  outer loop
    vertex -3.673940397442059e-15 -20 0
    vertex -10.00000000000001 -17.32050807568877 0
    vertex -3.606972191776415 -11.37807014786431 0
  endloop
endfacet
facet normal -0 0 -1
  outer loop
    vertex 9.999999999999996 -10 0
    vertex 3.660254037844379 -13.66025403784439 0
    vertex 2.36413539971894 -4.8144107124508 0
  endloop
endfacet
facet normal 0 0 -1
  outer loop
    vertex -2.788268612930572 4.621809109699363 0
    vertex -10 10.00000000000001 0
    vertex -3.728235467938896 13.03640072402291 0
  endloop
endfacet
facet normal 0 -0 -1
  outer loop
    vertex 9.999999999999995 -2.679491924311229 0
    vertex 9.999999999999996 -10 0
    vertex 2.36413539971894 -4.8144107124508 0
  endloop
endfacet
facet normal 0 0 -1
  outer loop
    vertex -10 2.679491924311233 0
    vertex -10 10.00000000000001 0
    vertex -2.788268612930572 4.621809109699363 0
  endloop
endfacet
facet normal -0 0 -1
  outer loop
    vertex 3.82078040878242 10.24519052838329 0
    vertex -2.788268612930572 4.621809109699363 0
    vertex -3.728235467938896 13.03640072402291 0
  endloop
endfacet
facet normal 0 -0 -1
  outer loop
    vertex 17.32050807568877 9.999999999999996 0
    vertex 20 -4.898587196589413e-15 0
    vertex 11.06569584701672 6.197397206423322 0
  endloop
endfacet
facet normal -0 0 -1
  outer loop
    vertex 20 -4.898587196589413e-15 0
    vertex 9.999999999999995 -2.679491924311229 0
    vertex 11.06569584701672 6.197397206423322 0
  endloop
endfacet
facet normal 0 0 -1
  outer loop
    vertex 3.660254037844379 -13.66025403784439 0
    vertex -3.606972191776415 -11.37807014786431 0
    vertex 2.36413539971894 -4.8144107124508 0
  endloop
endfacet
facet normal -0 0 -1
  outer loop
    vertex 17.32050807568877 -10.00000000000001 0
    vertex 9.999999999999986 -17.32050807568878 0
    vertex 9.999999999999996 -10 0
  endloop
endfacet
facet normal 0 0 -1
  outer loop
    vertex -9.999999999999996 17.32050807568877 0
    vertex 5.665538897647979e-15 20 0
    vertex -3.728235467938896 13.03640072402291 0
  endloop
endfacet
facet normal 0 0 -1
  outer loop
    vertex -3.673940397442059e-15 -20 0
    vertex -3.606972191776415 -11.37807014786431 0
    vertex 3.660254037844379 -13.66025403784439 0
  endloop
endfacet
facet normal 0 0 -1
  outer loop
    vertex 9.999999999999995 -2.679491924311229 0
    vertex 17.32050807568877 -10.00000000000001 0
    vertex 9.999999999999996 -10 0
  endloop
endfacet
facet normal 0 0 -1
  outer loop
    vertex -20 2.449293598294707e-15 0
    vertex -10 2.679491924311233 0
    vertex -12.99725173050474 -4.043038598460273 0
  endloop
endfacet
facet normal 0 0 -1
  outer loop
    vertex -17.32050807568877 10.00000000000001 0
    vertex -9.999999999999996 17.32050807568877 0
    vertex -10 10.00000000000001 0
  endloop
endfacet
facet normal 0 0 -1
  outer loop
    vertex -10 2.679491924311233 0
    vertex -17.32050807568877 10.00000000000001 0
    vertex -10 10.00000000000001 0
  endloop
endfacet
facet normal 0 -0 -1
  outer loop
    vertex 5.665538897647979e-15 20 0
    vertex 3.82078040878242 10.24519052838329 0
    vertex -3.728235467938896 13.03640072402291 0
  endloop
endfacet
facet normal 0 0 -1
  outer loop
    vertex -10.00000000000001 -17.32050807568877 0
    vertex -17.32050807568878 -9.999999999999995 0
    vertex -10.00000000000001 -9.999999999999998 0
  endloop
endfacet
facet normal 0 0 -1
  outer loop
    vertex -17.32050807568878 -9.999999999999995 0
    vertex -20 2.449293598294707e-15 0
    vertex -12.99725173050474 -4.043038598460273 0
  endloop
endfacet
facet normal -0 0 -1
  outer loop
    vertex -3.606972191776415 -11.37807014786431 0
    vertex -10.00000000000001 -17.32050807568877 0
    vertex -10.00000000000001 -9.999999999999998 0
  endloop
endfacet
facet normal -0 0 -1
  outer loop
    vertex 9.999999999999986 -17.32050807568878 0
    vertex -3.673940397442059e-15 -20 0
    vertex 3.660254037844379 -13.66025403784439 0
  endloop
endfacet
facet normal -0 0 -1
  outer loop
    vertex 9.999999999999995 -2.679491924311229 0
    vertex 2.36413539971894 -4.8144107124508 0
    vertex 5.252886597629143 2.298176558779111 0
  endloop
endfacet
facet normal 0 0 -1
  outer loop
    vertex -6.263343151990961 -3.807590269948857 0
    vertex -10 2.679491924311233 0
    vertex -2.788268612930572 4.621809109699363 0
  endloop
endfacet
facet normal 0 0 -1
  outer loop
    vertex -6.263343151990961 -3.807590269948857 0
    vertex -2.788268612930572 4.621809109699363 0
    vertex 2.36413539971894 -4.8144107124508 0
  endloop
endfacet
facet normal 0 0 -1
  outer loop
    vertex -2.788268612930572 4.621809109699363 0
    vertex 3.82078040878242 10.24519052838329 0
    vertex 5.252886597629143 2.298176558779111 0
  endloop
endfacet
facet normal 0 0 -1
  outer loop
    vertex 2.36413539971894 -4.8144107124508 0
    vertex -2.788268612930572 4.621809109699363 0
    vertex 5.252886597629143 2.298176558779111 0
  endloop
endfacet
facet normal 0 0 -1
  outer loop
    vertex 9.999999999999995 -2.679491924311229 0
    vertex 5.252886597629143 2.298176558779111 0
    vertex 11.06569584701672 6.197397206423322 0
  endloop
endfacet
facet normal 0 0 -1
  outer loop
    vertex -3.606972191776415 -11.37807014786431 0
    vertex -6.263343151990961 -3.807590269948857 0
    vertex 2.36413539971894 -4.8144107124508 0
  endloop
endfacet
facet normal 0 0 -1
  outer loop
    vertex 9.999999999999996 -10 0
    vertex 9.999999999999986 -17.32050807568878 0
    vertex 3.660254037844379 -13.66025403784439 0
  endloop
endfacet
facet normal 0 -0 -1
  outer loop
    vertex -6.263343151990961 -3.807590269948857 0
    vertex -3.606972191776415 -11.37807014786431 0
    vertex -10.00000000000001 -9.999999999999998 0
  endloop
endfacet
facet normal 0 0 -1
  outer loop
    vertex -12.99725173050474 -4.043038598460273 0
    vertex -6.263343151990961 -3.807590269948857 0
    vertex -10.00000000000001 -9.999999999999998 0
  endloop
endfacet
facet normal 0 0 -1
  outer loop
    vertex -12.99725173050474 -4.043038598460273 0
    vertex -10 2.679491924311233 0
    vertex -6.263343151990961 -3.807590269948857 0
  endloop
endfacet
facet normal 0 0 -1
  outer loop
    vertex -10 10.00000000000001 0
    vertex -9.999999999999996 17.32050807568877 0
    vertex -3.728235467938896 13.03640072402291 0
  endloop
endfacet
facet normal 0 0 -1
  outer loop
    vertex -17.32050807568878 -9.999999999999995 0
    vertex -12.99725173050474 -4.043038598460273 0
    vertex -10.00000000000001 -9.999999999999998 0
  endloop
endfacet
facet normal -0.292574 0.949831 0.110552
  outer loop
    vertex -4.005821192438257 13.41467094543182 38.99414222066545
    vertex -8.596263472732444 11.05007938013868 47.16153403105344
    vertex 1.474745962707442 13.92210919169499 49.13860971193487
  endloop
endfacet
facet normal -0.0179058 -0.999437 0.0283577
  outer loop
    vertex 4.026838214397483 -13.40837700823885 49.99949884415203
    vertex 4.908261534751602 -13.11140605375632 61.02247770613133
    vertex -5.357568053111196 -12.93431345515804 60.78181587733793
  endloop
endfacet
facet normal 0.0337953 0.997104 -0.0681343
  outer loop
    vertex 1.474745962707442 13.92210919169499 49.13860971193487
    vertex 4.908261534776269 13.11140605374708 38.9775222938587
    vertex -4.005821192438257 13.41467094543182 38.99414222066545
  endloop
endfacet
facet normal -0.0173064 -0.999433 -0.0288818
  outer loop
    vertex -5.357568053111196 -12.93431345515804 39.21818412266219
    vertex 4.923661838717102 -13.10563062572576 38.98580520290751
    vertex 4.026838214397483 -13.40837700823885 49.99949884415203
  endloop
endfacet
facet normal -0.104219 -0.993442 0.0470334
  outer loop
    vertex 4.026838214397483 -13.40837700823885 49.99949884415203
    vertex -6.729698805644438 -12.27644712387537 50.07320923425063
    vertex -5.357568053111196 -12.93431345515804 39.21818412266219
  endloop
endfacet
facet normal -0.104858 -0.993348 -0.047589
  outer loop
    vertex -5.357568053111196 -12.93431345515804 60.78181587733793
    vertex -6.729698805644438 -12.27644712387537 50.07320923425063
    vertex 4.026838214397483 -13.40837700823885 49.99949884415203
  endloop
endfacet
facet normal -0.788046 -0.612347 0.0633565
  outer loop
    vertex -5.357568053111196 -12.93431345515804 60.78181587733793
    vertex -13.69678565828744 -2.8979411020467 54.05889942820785
    vertex -6.729698805644438 -12.27644712387537 50.07320923425063
  endloop
endfacet
facet normal -0.963913 0.217265 -0.153842
  outer loop
    vertex -13.38112936634304 4.116476269965846 61.98733688958079
    vertex -11.11443941600477 8.512886494483492 53.99402499162741
    vertex -13.69678565828744 -2.8979411020467 54.05889942820785
  endloop
endfacet
facet normal -0.248293 0.95996 -0.129724
  outer loop
    vertex 1.474745962707442 13.92210919169499 49.13860971193487
    vertex -8.596263472732444 11.05007938013868 47.16153403105344
    vertex -5.021872156504671 13.06831282315063 55.25505857530922
  endloop
endfacet
facet normal -0.957582 0.21778 0.188705
  outer loop
    vertex -13.69678565828744 -2.8979411020467 54.05889942820785
    vertex -11.11443941600477 8.512886494483492 53.99402499162741
    vertex -13.48569864186275 3.759778203679182 47.4465363487043
  endloop
endfacet
facet normal -0.719931 -0.682529 -0.125906
  outer loop
    vertex -5.357568053111196 -12.93431345515804 60.78181587733793
    vertex -12.93431345515799 -5.357568053111324 63.03258305449832
    vertex -13.69678565828744 -2.8979411020467 54.05889942820785
  endloop
endfacet
facet normal -0.997805 -0.0244966 -0.0615192
  outer loop
    vertex -13.48569864186275 3.759778203679182 47.4465363487043
    vertex -12.93431345515804 5.357568053111201 37.86715760734355
    vertex -13.02212449325088 -5.140454618248803 43.47165284091432
  endloop
endfacet
facet normal -0.999945 0.00300755 -0.0100335
  outer loop
    vertex -12.93431345515804 5.357568053111201 37.86715760734355
    vertex -12.94393318152803 -5.334284749817692 35.62098500475281
    vertex -13.02212449325088 -5.140454618248803 43.47165284091432
  endloop
endfacet
facet normal 0.380199 0.91788 0.113774
  outer loop
    vertex 9.899494936611655 9.899494936611676 70
    vertex 4.717927444831437 13.18109102560582 60.840697885861
    vertex -2.71203674611508e-14 14 70
  endloop
endfacet
facet normal -0.9965 -0.0388298 0.0740272
  outer loop
    vertex -13.69678565828744 -2.8979411020467 54.05889942820785
    vertex -12.93431345515799 -5.357568053111324 63.03258305449832
    vertex -13.38112936634304 4.116476269965846 61.98733688958079
  endloop
endfacet
facet normal -0.725643 -0.686243 -0.0501354
  outer loop
    vertex -6.729698805644438 -12.27644712387537 50.07320923425063
    vertex -13.02212449325088 -5.140454618248803 43.47165284091432
    vertex -5.357568053111196 -12.93431345515804 39.21818412266219
  endloop
endfacet
facet normal 0.589794 -0.807153 -0.0254158
  outer loop
    vertex 11.32142857142859 -8.235608969714411 54.99999999999999
    vertex 4.908261534751602 -13.11140605375632 61.02247770613133
    vertex 4.026838214397483 -13.40837700823885 49.99949884415203
  endloop
endfacet
facet normal -0.7637 0.632118 0.131107
  outer loop
    vertex -6.158006775822081 12.5729452615101 63.2901271657949
    vertex -11.11443941600477 8.512886494483492 53.99402499162741
    vertex -13.38112936634304 4.116476269965846 61.98733688958079
  endloop
endfacet
facet normal -0.783421 -0.616242 0.0806052
  outer loop
    vertex -6.729698805644438 -12.27644712387537 50.07320923425063
    vertex -13.69678565828744 -2.8979411020467 54.05889942820785
    vertex -13.02212449325088 -5.140454618248803 43.47165284091432
  endloop
endfacet
facet normal 0.532044 0.839165 0.112829
  outer loop
    vertex 11.3214285714285 8.235608969714525 44.99999999999997
    vertex 4.908261534776269 13.11140605374708 38.9775222938587
    vertex 1.474745962707442 13.92210919169499 49.13860971193487
  endloop
endfacet
facet normal -0.997972 -0.0260418 -0.0580788
  outer loop
    vertex -13.69678565828744 -2.8979411020467 54.05889942820785
    vertex -13.48569864186275 3.759778203679182 47.4465363487043
    vertex -13.02212449325088 -5.140454618248803 43.47165284091432
  endloop
endfacet
facet normal 0.590446 -0.806661 0.0259052
  outer loop
    vertex 4.026838214397483 -13.40837700823885 49.99949884415203
    vertex 4.923661838717102 -13.10563062572576 38.98580520290751
    vertex 11.33233030941497 -8.220601544796752 45.03055927343043
  endloop
endfacet
facet normal -0.380152 -0.917767 -0.114842
  outer loop
    vertex 5.960073110079933e-14 -14 30
    vertex -5.357568053111196 -12.93431345515804 39.21818412266219
    vertex -9.89949493661161 -9.89949493661172 30
  endloop
endfacet
facet normal -0.916718 0.379717 0.124274
  outer loop
    vertex -9.899494936611703 9.899494936611628 70
    vertex -13.38112936634304 4.116476269965846 61.98733688958079
    vertex -14 -7.289248173600423e-14 70
  endloop
endfacet
facet normal -0.380152 -0.917767 0.114842
  outer loop
    vertex -9.89949493661161 -9.89949493661172 70
    vertex -5.357568053111196 -12.93431345515804 60.78181587733793
    vertex 5.960073110079933e-14 -14 70
  endloop
endfacet
facet normal -0.380376 0.918309 -0.10965
  outer loop
    vertex -9.899494936611703 9.899494936611628 30
    vertex -4.005821192438257 13.41467094543182 38.99414222066545
    vertex -2.71203674611508e-14 14 30
  endloop
endfacet
facet normal -0.593888 0.803811 -0.0344184
  outer loop
    vertex -5.021872156504671 13.06831282315063 55.25505857530922
    vertex -11.11443941600477 8.512886494483492 53.99402499162741
    vertex -6.158006775822081 12.5729452615101 63.2901271657949
  endloop
endfacet
facet normal 0.380056 -0.917538 0.11697
  outer loop
    vertex 5.960073110079933e-14 -14 70
    vertex 4.908261534751602 -13.11140605375632 61.02247770613133
    vertex 9.899494936611681 -9.899494936611651 70
  endloop
endfacet
facet normal -0.651682 0.743294 -0.151079
  outer loop
    vertex -12.93431345515804 5.357568053111201 37.86715760734355
    vertex -8.596263472732444 11.05007938013868 47.16153403105344
    vertex -4.005821192438257 13.41467094543182 38.99414222066545
  endloop
endfacet
facet normal 0.380059 -0.917542 -0.116924
  outer loop
    vertex 9.899494936611681 -9.899494936611651 30
    vertex 4.923661838717102 -13.10563062572576 38.98580520290751
    vertex 5.960073110079933e-14 -14 30
  endloop
endfacet
facet normal 0.380056 0.917538 -0.11697
  outer loop
    vertex -2.71203674611508e-14 14 30
    vertex 4.908261534776269 13.11140605374708 38.9775222938587
    vertex 9.899494936611655 9.899494936611676 30
  endloop
endfacet
facet normal 0.950966 0.309295 -0
  outer loop
    vertex 14 -3.429011037612589e-15 49.99999999999998
    vertex 11.32142857142857 8.235608969714436 54.99999999999999
    vertex 14 -3.429011037612589e-15 59.99999999999999
  endloop
endfacet
facet normal 0.950966 -0.309295 0
  outer loop
    vertex 14 -3.429011037612589e-15 59.99999999999999
    vertex 11.32142857142859 -8.235608969714411 54.99999999999999
    vertex 14 -3.429011037612589e-15 49.99999999999998
  endloop
endfacet
facet normal -0.0566765 0.995283 0.0787326
  outer loop
    vertex 1.474745962707442 13.92210919169499 49.13860971193487
    vertex -5.021872156504671 13.06831282315063 55.25505857530922
    vertex 4.717927444831437 13.18109102560582 60.840697885861
  endloop
endfacet
facet normal 0.540346 0.835854 -0.0968251
  outer loop
    vertex 1.474745962707442 13.92210919169499 49.13860971193487
    vertex 4.717927444831437 13.18109102560582 60.840697885861
    vertex 11.32142857142857 8.235608969714436 54.99999999999999
  endloop
endfacet
facet normal 0.950966 0.309295 -0
  outer loop
    vertex 14 -3.429011037612589e-15 39.99999999999997
    vertex 11.3214285714285 8.235608969714525 44.99999999999997
    vertex 14 -3.429011037612589e-15 49.99999999999998
  endloop
endfacet
facet normal 0.648456 0.755138 -0.0962915
  outer loop
    vertex 9.899494936611655 9.899494936611676 70
    vertex 12.03663161784358 7.149790157503104 62.82837968098264
    vertex 4.717927444831437 13.18109102560582 60.840697885861
  endloop
endfacet
facet normal 0.951171 -0.308665 0
  outer loop
    vertex 14 -3.429011037612589e-15 49.99999999999998
    vertex 11.33233030941497 -8.220601544796752 45.03055927343043
    vertex 14 -3.429011037612589e-15 39.99999999999997
  endloop
endfacet
facet normal 0.5001 0.865968 4.40442e-15
  outer loop
    vertex 11.3214285714285 8.235608969714525 44.99999999999997
    vertex 1.474745962707442 13.92210919169499 49.13860971193487
    vertex 11.32142857142857 8.235608969714436 54.99999999999999
  endloop
endfacet
facet normal -0.0146561 -0.994213 -0.10642
  outer loop
    vertex -5.357568053111196 -12.93431345515804 60.78181587733793
    vertex 4.908261534751602 -13.11140605375632 61.02247770613133
    vertex 5.960073110079933e-14 -14 70
  endloop
endfacet
facet normal -0.0141544 -0.99419 0.106709
  outer loop
    vertex 5.960073110079933e-14 -14 30
    vertex 4.923661838717102 -13.10563062572576 38.98580520290751
    vertex -5.357568053111196 -12.93431345515804 39.21818412266219
  endloop
endfacet
facet normal 0.950966 0.309295 -3.528e-15
  outer loop
    vertex 14 -3.429011037612589e-15 49.99999999999998
    vertex 11.3214285714285 8.235608969714525 44.99999999999997
    vertex 11.32142857142857 8.235608969714436 54.99999999999999
  endloop
endfacet
facet normal 0.578718 -0.815528 -0.000594812
  outer loop
    vertex 11.32142857142859 -8.235608969714411 54.99999999999999
    vertex 4.026838214397483 -13.40837700823885 49.99949884415203
    vertex 11.33233030941497 -8.220601544796752 45.03055927343043
  endloop
endfacet
facet normal 0.0340412 0.996214 0.0799938
  outer loop
    vertex -4.005821192438257 13.41467094543182 38.99414222066545
    vertex 4.908261534776269 13.11140605374708 38.9775222938587
    vertex -2.71203674611508e-14 14 30
  endloop
endfacet
facet normal 0.951069 -0.308979 0.000574889
  outer loop
    vertex 11.32142857142859 -8.235608969714411 54.99999999999999
    vertex 11.33233030941497 -8.220601544796752 45.03055927343043
    vertex 14 -3.429011037612589e-15 49.99999999999998
  endloop
endfacet
facet normal -0.672451 0.723071 0.158046
  outer loop
    vertex -9.899494936611703 9.899494936611628 30
    vertex -12.93431345515804 5.357568053111201 37.86715760734355
    vertex -4.005821192438257 13.41467094543182 38.99414222066545
  endloop
endfacet
facet normal -0.828837 0.557653 0.045306
  outer loop
    vertex -13.48569864186275 3.759778203679182 47.4465363487043
    vertex -8.596263472732444 11.05007938013868 47.16153403105344
    vertex -12.93431345515804 5.357568053111201 37.86715760734355
  endloop
endfacet
facet normal -0.992557 -0.0585898 -0.106762
  outer loop
    vertex -13.38112936634304 4.116476269965846 61.98733688958079
    vertex -12.93431345515799 -5.357568053111324 63.03258305449832
    vertex -14 -7.289248173600423e-14 70
  endloop
endfacet
facet normal -0.720176 -0.681407 -0.130507
  outer loop
    vertex -9.89949493661161 -9.89949493661172 70
    vertex -12.93431345515799 -5.357568053111324 63.03258305449832
    vertex -5.357568053111196 -12.93431345515804 60.78181587733793
  endloop
endfacet
facet normal -0.71014 -0.703985 0.0103082
  outer loop
    vertex -13.02212449325088 -5.140454618248803 43.47165284091432
    vertex -12.94393318152803 -5.334284749817692 35.62098500475281
    vertex -5.357568053111196 -12.93431345515804 39.21818412266219
  endloop
endfacet
facet normal -0.739958 0.655375 -0.151483
  outer loop
    vertex -9.899494936611703 9.899494936611628 70
    vertex -6.158006775822081 12.5729452615101 63.2901271657949
    vertex -13.38112936634304 4.116476269965846 61.98733688958079
  endloop
endfacet
facet normal -0.733436 -0.664642 0.14256
  outer loop
    vertex -5.357568053111196 -12.93431345515804 39.21818412266219
    vertex -12.94393318152803 -5.334284749817692 35.62098500475281
    vertex -9.89949493661161 -9.89949493661172 30
  endloop
endfacet
facet normal 0.916335 -0.379558 0.127539
  outer loop
    vertex 9.899494936611681 -9.899494936611651 70
    vertex 12.03663161784359 -7.149790157503092 62.82837968098261
    vertex 14 -3.429011037612589e-15 70
  endloop
endfacet
facet normal 0.916335 0.379558 0.127539
  outer loop
    vertex 14 -3.429011037612589e-15 70
    vertex 12.03663161784358 7.149790157503104 62.82837968098264
    vertex 9.899494936611655 9.899494936611676 70
  endloop
endfacet
facet normal 0.916405 -0.379587 -0.126945
  outer loop
    vertex 14 -3.429011037612589e-15 30
    vertex 12.02851657267701 -7.163434166713227 37.18791394303415
    vertex 9.899494936611681 -9.899494936611651 30
  endloop
endfacet
facet normal 0.916335 0.379558 -0.127539
  outer loop
    vertex 9.899494936611655 9.899494936611676 30
    vertex 12.03663161784358 7.149790157503104 37.17162031901735
    vertex 14 -3.429011037612589e-15 30
  endloop
endfacet
facet normal 0.964303 0.264802 -0
  outer loop
    vertex 14 -3.429011037612589e-15 59.99999999999999
    vertex 12.03663161784358 7.149790157503104 62.82837968098264
    vertex 14 -3.429011037612589e-15 70
  endloop
endfacet
facet normal 0.964303 -0.264802 0
  outer loop
    vertex 14 -3.429011037612589e-15 70
    vertex 12.03663161784359 -7.149790157503092 62.82837968098261
    vertex 14 -3.429011037612589e-15 59.99999999999999
  endloop
endfacet
facet normal 0.964152 -0.265349 0
  outer loop
    vertex 14 -3.429011037612589e-15 39.99999999999997
    vertex 12.02851657267701 -7.163434166713227 37.18791394303415
    vertex 14 -3.429011037612589e-15 30
  endloop
endfacet
facet normal 0.964303 0.264802 -0
  outer loop
    vertex 14 -3.429011037612589e-15 30
    vertex 12.03663161784358 7.149790157503104 37.17162031901735
    vertex 14 -3.429011037612589e-15 39.99999999999997
  endloop
endfacet
facet normal -0.915518 0.37922 -0.134234
  outer loop
    vertex -14 -7.289248173600423e-14 30
    vertex -12.93431345515804 5.357568053111201 37.86715760734355
    vertex -9.899494936611703 9.899494936611628 30
  endloop
endfacet
facet normal 0.626941 0.777425 0.0505535
  outer loop
    vertex 4.717927444831437 13.18109102560582 60.840697885861
    vertex 12.03663161784358 7.149790157503104 62.82837968098264
    vertex 11.32142857142857 8.235608969714436 54.99999999999999
  endloop
endfacet
facet normal -0.0433071 0.997526 0.0553747
  outer loop
    vertex -5.021872156504671 13.06831282315063 55.25505857530922
    vertex -6.158006775822081 12.5729452615101 63.2901271657949
    vertex 4.717927444831437 13.18109102560582 60.840697885861
  endloop
endfacet
facet normal -0.0849657 0.987593 -0.132064
  outer loop
    vertex 4.717927444831437 13.18109102560582 60.840697885861
    vertex -6.158006775822081 12.5729452615101 63.2901271657949
    vertex -2.71203674611508e-14 14 70
  endloop
endfacet
facet normal 0.652585 -0.751885 -0.093814
  outer loop
    vertex 4.908261534751602 -13.11140605375632 61.02247770613133
    vertex 12.03663161784359 -7.149790157503092 62.82837968098261
    vertex 9.899494936611681 -9.899494936611651 70
  endloop
endfacet
facet normal 0.652585 0.751885 0.093814
  outer loop
    vertex 4.908261534776269 13.11140605374708 38.9775222938587
    vertex 12.03663161784358 7.149790157503104 37.17162031901735
    vertex 9.899494936611655 9.899494936611676 30
  endloop
endfacet
facet normal 0.652514 -0.752049 0.0929944
  outer loop
    vertex 9.899494936611681 -9.899494936611651 30
    vertex 12.02851657267701 -7.163434166713227 37.18791394303415
    vertex 4.923661838717102 -13.10563062572576 38.98580520290751
  endloop
endfacet
facet normal -0.987346 -0.0317521 0.155369
  outer loop
    vertex -14 -7.289248173600423e-14 30
    vertex -12.94393318152803 -5.334284749817692 35.62098500475281
    vertex -12.93431345515804 5.357568053111201 37.86715760734355
  endloop
endfacet
facet normal -0.913259 -0.378284 0.151195
  outer loop
    vertex -14 -7.289248173600423e-14 70
    vertex -12.93431345515799 -5.357568053111324 63.03258305449832
    vertex -9.89949493661161 -9.89949493661172 70
  endloop
endfacet
facet normal 0.633387 -0.772266 0.0492492
  outer loop
    vertex 11.32142857142859 -8.235608969714411 54.99999999999999
    vertex 12.03663161784359 -7.149790157503092 62.82837968098261
    vertex 4.908261534751602 -13.11140605375632 61.02247770613133
  endloop
endfacet
facet normal 0.633387 0.772266 -0.0492492
  outer loop
    vertex 11.3214285714285 8.235608969714525 44.99999999999997
    vertex 12.03663161784358 7.149790157503104 37.17162031901735
    vertex 4.908261534776269 13.11140605374708 38.9775222938587
  endloop
endfacet
facet normal 0.633669 -0.772125 -0.04783
  outer loop
    vertex 4.923661838717102 -13.10563062572576 38.98580520290751
    vertex 12.02851657267701 -7.163434166713227 37.18791394303415
    vertex 11.33233030941497 -8.220601544796752 45.03055927343043
  endloop
endfacet
facet normal -0.378184 0.913016 0.152899
  outer loop
    vertex -2.71203674611508e-14 14 70
    vertex -6.158006775822081 12.5729452615101 63.2901271657949
    vertex -9.899494936611703 9.899494936611628 70
  endloop
endfacet
facet normal -0.907711 -0.375986 -0.186269
  outer loop
    vertex -9.89949493661161 -9.89949493661172 30
    vertex -12.94393318152803 -5.334284749817692 35.62098500475281
    vertex -14 -7.289248173600423e-14 30
  endloop
endfacet
facet normal 0.958121 0.282246 -0.0483859
  outer loop
    vertex 11.32142857142857 8.235608969714436 54.99999999999999
    vertex 12.03663161784358 7.149790157503104 62.82837968098264
    vertex 14 -3.429011037612589e-15 59.99999999999999
  endloop
endfacet
facet normal 0.958121 -0.282246 -0.0483859
  outer loop
    vertex 14 -3.429011037612589e-15 59.99999999999999
    vertex 12.03663161784359 -7.149790157503092 62.82837968098261
    vertex 11.32142857142859 -8.235608969714411 54.99999999999999
  endloop
endfacet
facet normal 0.95821 -0.282173 0.0470235
  outer loop
    vertex 11.33233030941497 -8.220601544796752 45.03055927343043
    vertex 12.02851657267701 -7.163434166713227 37.18791394303415
    vertex 14 -3.429011037612589e-15 39.99999999999997
  endloop
endfacet
facet normal 0.958121 0.282246 0.0483859
  outer loop
    vertex 14 -3.429011037612589e-15 39.99999999999997
    vertex 12.03663161784358 7.149790157503104 37.17162031901735
    vertex 11.3214285714285 8.235608969714525 44.99999999999997
  endloop
endfacet
facet normal -0.828123 0.551477 -0.100426
  outer loop
    vertex -13.48569864186275 3.759778203679182 47.4465363487043
    vertex -11.11443941600477 8.512886494483492 53.99402499162741
    vertex -8.596263472732444 11.05007938013868 47.16153403105344
  endloop
endfacet
facet normal -0.606647 0.791843 0.0704598
  outer loop
    vertex -8.596263472732444 11.05007938013868 47.16153403105344
    vertex -11.11443941600477 8.512886494483492 53.99402499162741
    vertex -5.021872156504671 13.06831282315063 55.25505857530922
  endloop
endfacet
facet normal 0 0 1
  outer loop
    vertex -14 -7.289248173600423e-14 70
    vertex -9.00968867902419 4.338837391175582 70
    vertex -9.899494936611703 9.899494936611628 70
  endloop
endfacet
facet normal 0 0 1
  outer loop
    vertex -14 -7.289248173600423e-14 70
    vertex -9.89949493661161 -9.89949493661172 70
    vertex -9.009688679024192 -4.33883739117558 70
  endloop
endfacet
facet normal 0 0 1
  outer loop
    vertex 9.899494936611655 9.899494936611676 70
    vertex 10 -2.449293598294707e-15 70
    vertex 14 -3.429011037612589e-15 70
  endloop
endfacet
facet normal 0 0 1
  outer loop
    vertex 14 -3.429011037612589e-15 70
    vertex 10 -2.449293598294707e-15 70
    vertex 9.899494936611681 -9.899494936611651 70
  endloop
endfacet
facet normal 0 0 1
  outer loop
    vertex 9.899494936611655 9.899494936611676 70
    vertex 6.234898018587335 7.818314824680296 70
    vertex 10 -2.449293598294707e-15 70
  endloop
endfacet
facet normal 0 -0 1
  outer loop
    vertex 9.899494936611681 -9.899494936611651 70
    vertex 10 -2.449293598294707e-15 70
    vertex 6.234898018587334 -7.818314824680299 70
  endloop
endfacet
facet normal 0 0 1
  outer loop
    vertex -2.71203674611508e-14 14 70
    vertex 6.234898018587335 7.818314824680296 70
    vertex 9.899494936611655 9.899494936611676 70
  endloop
endfacet
facet normal -0 0 1
  outer loop
    vertex -9.899494936611703 9.899494936611628 70
    vertex -2.225209339563141 9.749279121818237 70
    vertex -2.71203674611508e-14 14 70
  endloop
endfacet
facet normal 0 0 1
  outer loop
    vertex -2.71203674611508e-14 14 70
    vertex -2.225209339563141 9.749279121818237 70
    vertex 6.234898018587335 7.818314824680296 70
  endloop
endfacet
facet normal 0 0 1
  outer loop
    vertex -9.899494936611703 9.899494936611628 70
    vertex -9.00968867902419 4.338837391175582 70
    vertex -2.225209339563141 9.749279121818237 70
  endloop
endfacet
facet normal 0 -0 1
  outer loop
    vertex -9.009688679024192 -4.33883739117558 70
    vertex -9.00968867902419 4.338837391175582 70
    vertex -14 -7.289248173600423e-14 70
  endloop
endfacet
facet normal 0 0 1
  outer loop
    vertex -2.225209339563137 -9.749279121818237 70
    vertex -9.89949493661161 -9.89949493661172 70
    vertex 5.960073110079933e-14 -14 70
  endloop
endfacet
facet normal 0 0 1
  outer loop
    vertex -9.009688679024192 -4.33883739117558 70
    vertex -9.89949493661161 -9.89949493661172 70
    vertex -2.225209339563137 -9.749279121818237 70
  endloop
endfacet
facet normal 0 0 1
  outer loop
    vertex 5.960073110079933e-14 -14 70
    vertex 9.899494936611681 -9.899494936611651 70
    vertex 6.234898018587334 -7.818314824680299 70
  endloop
endfacet
facet normal -0 0 1
  outer loop
    vertex -2.225209339563137 -9.749279121818237 70
    vertex 5.960073110079933e-14 -14 70
    vertex 6.234898018587334 -7.818314824680299 70
  endloop
endfacet
facet normal 0.33453 -0.922261 -0.193712
  outer loop
    vertex 1.900498378259986 -9.817744441277291 87.70747647607558
    vertex -2.250922431251871 -9.743374580117873 80.18412596616592
    vertex 7.395833333333396 -6.730649991312475 82.5
  endloop
endfacet
facet normal 0.33453 0.922261 -0.193712
  outer loop
    vertex 7.395833333333344 6.730649991312534 82.5
    vertex -2.250922431210062 9.743374580127533 80.18412596617675
    vertex 1.900498378312408 9.817744441267145 87.70747647609475
  endloop
endfacet
facet normal 0.11381 0.993502 0.000863361
  outer loop
    vertex -2.250922431210062 9.743374580127533 80.18412596617675
    vertex 4.387247973401076 8.986214732571671 76.42144671173732
    vertex -2.225209339563141 9.749279121818237 70
  endloop
endfacet
facet normal 0.0892856 -0.996006 0.000802893
  outer loop
    vertex -2.225209339563137 -9.749279121818237 70
    vertex 3.940141172607088 -9.191043876509699 76.88607982691255
    vertex -2.250922431251871 -9.743374580117873 80.18412596616592
  endloop
endfacet
facet normal 0.227353 -0.935606 0.270096
  outer loop
    vertex -2.250922431251871 -9.743374580117873 80.18412596616592
    vertex 3.940141172607088 -9.191043876509699 76.88607982691255
    vertex 7.395833333333396 -6.730649991312475 82.5
  endloop
endfacet
facet normal 0.238885 0.943004 0.231684
  outer loop
    vertex 7.395833333333344 6.730649991312534 82.5
    vertex 4.387247973401076 8.986214732571671 76.42144671173732
    vertex -2.250922431210062 9.743374580127533 80.18412596617675
  endloop
endfacet
facet normal -0.55025 -0.834999 -0.000905169
  outer loop
    vertex -2.250922431251871 -9.743374580117873 80.18412596616592
    vertex -8.071015580820198 -5.904126310823439 76.58197720905861
    vertex -2.225209339563137 -9.749279121818237 70
  endloop
endfacet
facet normal -0.55027 0.834987 -0.000905225
  outer loop
    vertex -2.225209339563141 9.749279121818237 70
    vertex -8.071289593176335 5.903751714213885 76.58051301036086
    vertex -2.250922431210062 9.743374580127533 80.18412596617675
  endloop
endfacet
facet normal -0.893112 -0.4301 -0.131776
  outer loop
    vertex -9.009688679024192 -4.33883739117558 95
    vertex -10 9.249302032872776e-13 87.55044879145476
    vertex -6.234898018587337 -7.818314824680296 87.5504487914543
  endloop
endfacet
facet normal -0.618053 -0.775013 0.131776
  outer loop
    vertex -9.009688679024192 -4.33883739117558 95
    vertex -6.234898018587337 -7.818314824680296 87.5504487914543
    vertex -2.225209339563137 -9.749279121818237 95
  endloop
endfacet
facet normal -0.618053 0.775013 0.131776
  outer loop
    vertex -2.225209339563141 9.749279121818237 95
    vertex -6.234898018587335 7.818314824680299 87.5504487914543
    vertex -9.00968867902419 4.338837391175582 95
  endloop
endfacet
facet normal -0.991279 2.02919e-16 0.131776
  outer loop
    vertex -9.00968867902419 4.338837391175582 95
    vertex -10 9.249302032872776e-13 87.55044879145476
    vertex -9.009688679024192 -4.33883739117558 95
  endloop
endfacet
facet normal -0.989077 2.02468e-16 -0.147397
  outer loop
    vertex -9.009688679024192 -4.33883739117558 70
    vertex -9.999999999649242 -8.37566047518111e-05 76.64526393910273
    vertex -9.00968867902419 4.338837391175582 70
  endloop
endfacet
facet normal -0.893112 0.4301 -0.131776
  outer loop
    vertex -6.234898018587335 7.818314824680299 87.5504487914543
    vertex -10 9.249302032872776e-13 87.55044879145476
    vertex -9.00968867902419 4.338837391175582 95
  endloop
endfacet
facet normal 0.220519 -0.966158 0.133828
  outer loop
    vertex -2.225209339563137 -9.749279121818237 95
    vertex 1.900498378259986 -9.817744441277291 87.70747647607558
    vertex 6.234898018587334 -7.818314824680299 95
  endloop
endfacet
facet normal 0.220519 0.966158 0.133828
  outer loop
    vertex 6.234898018587335 7.818314824680296 95
    vertex 1.900498378312408 9.817744441267145 87.70747647609475
    vertex -2.225209339563141 9.749279121818237 95
  endloop
endfacet
facet normal 0.932626 0.360844 -0
  outer loop
    vertex 10 -2.449293598294707e-15 78.33333333333333
    vertex 7.395833333333344 6.730649991312534 82.5
    vertex 10 -2.449293598294707e-15 86.66666666666669
  endloop
endfacet
facet normal 0.932626 -0.360844 0
  outer loop
    vertex 10 -2.449293598294707e-15 86.66666666666669
    vertex 7.395833333333396 -6.730649991312475 82.5
    vertex 10 -2.449293598294707e-15 78.33333333333333
  endloop
endfacet
facet normal 0.221107 0.968731 -0.112569
  outer loop
    vertex -2.225209339563141 9.749279121818237 70
    vertex 4.387247973401076 8.986214732571671 76.42144671173732
    vertex 6.234898018587335 7.818314824680296 70
  endloop
endfacet
facet normal 0.220931 -0.967961 -0.119337
  outer loop
    vertex 6.234898018587334 -7.818314824680299 70
    vertex 3.940141172607088 -9.191043876509699 76.88607982691255
    vertex -2.225209339563137 -9.749279121818237 70
  endloop
endfacet
facet normal -0.239099 0.963248 0.122414
  outer loop
    vertex 1.900498378312408 9.817744441267145 87.70747647609475
    vertex -2.250922431210062 9.743374580127533 80.18412596617675
    vertex -6.234898018587335 7.818314824680299 87.5504487914543
  endloop
endfacet
facet normal -0.239099 -0.963248 0.122414
  outer loop
    vertex -6.234898018587337 -7.818314824680296 87.5504487914543
    vertex -2.250922431251871 -9.743374580117873 80.18412596616592
    vertex 1.900498378259986 -9.817744441277291 87.70747647607558
  endloop
endfacet
facet normal -0.234583 0.964198 -0.123662
  outer loop
    vertex -2.225209339563141 9.749279121818237 95
    vertex 1.900498378312408 9.817744441267145 87.70747647609475
    vertex -6.234898018587335 7.818314824680299 87.5504487914543
  endloop
endfacet
facet normal -0.234583 -0.964198 -0.123662
  outer loop
    vertex -6.234898018587337 -7.818314824680296 87.5504487914543
    vertex 1.900498378259986 -9.817744441277291 87.70747647607558
    vertex -2.225209339563137 -9.749279121818237 95
  endloop
endfacet
facet normal -0.620576 -0.778178 -0.0965599
  outer loop
    vertex -2.225209339563137 -9.749279121818237 70
    vertex -8.071015580820198 -5.904126310823439 76.58197720905861
    vertex -9.009688679024192 -4.33883739117558 70
  endloop
endfacet
facet normal -0.620576 0.778178 -0.0965629
  outer loop
    vertex -9.00968867902419 4.338837391175582 70
    vertex -8.071289593176335 5.903751714213885 76.58051301036086
    vertex -2.225209339563141 9.749279121818237 70
  endloop
endfacet
facet normal -0.652044 0.74134 -0.158913
  outer loop
    vertex -2.250922431210062 9.743374580127533 80.18412596617675
    vertex -9.02193841590435 4.31330815263984 82.635007351672
    vertex -6.234898018587335 7.818314824680299 87.5504487914543
  endloop
endfacet
facet normal 0.892452 0.429782 0.137173
  outer loop
    vertex 10 -2.449293598294707e-15 95
    vertex 8.108695490640157 5.852269426476533 88.96889717115674
    vertex 6.234898018587335 7.818314824680296 95
  endloop
endfacet
facet normal 0.892452 -0.429782 0.137173
  outer loop
    vertex 6.234898018587334 -7.818314824680299 95
    vertex 8.10869549064018 -5.852269426476503 88.96889717115674
    vertex 10 -2.449293598294707e-15 95
  endloop
endfacet
facet normal -0.652674 -0.740676 -0.159427
  outer loop
    vertex -6.234898018587337 -7.818314824680296 87.5504487914543
    vertex -9.009688679024503 -4.338837391174936 82.74492059384026
    vertex -2.250922431251871 -9.743374580117873 80.18412596616592
  endloop
endfacet
facet normal 0.951543 0.307515 -0
  outer loop
    vertex 10 -2.449293598294707e-15 86.66666666666669
    vertex 8.108695490640157 5.852269426476533 88.96889717115674
    vertex 10 -2.449293598294707e-15 95
  endloop
endfacet
facet normal 0.951543 -0.307515 0
  outer loop
    vertex 10 -2.449293598294707e-15 95
    vertex 8.10869549064018 -5.852269426476503 88.96889717115674
    vertex 10 -2.449293598294707e-15 86.66666666666669
  endloop
endfacet
facet normal 0.893158 -0.430122 -0.13139
  outer loop
    vertex 10 -2.449293598294707e-15 70
    vertex 8.0237137537246 -5.96825079887656 76.10349870655838
    vertex 6.234898018587334 -7.818314824680299 70
  endloop
endfacet
facet normal 0.949308 -0.314347 0
  outer loop
    vertex 10 -2.449293598294707e-15 78.33333333333333
    vertex 8.0237137537246 -5.96825079887656 76.10349870655838
    vertex 10 -2.449293598294707e-15 70
  endloop
endfacet
facet normal -0.594449 -0.796335 0.111716
  outer loop
    vertex -2.250922431251871 -9.743374580117873 80.18412596616592
    vertex -9.009688679024503 -4.338837391174936 82.74492059384026
    vertex -8.071015580820198 -5.904126310823439 76.58197720905861
  endloop
endfacet
facet normal -0.595731 0.794871 0.115264
  outer loop
    vertex -8.071289593176335 5.903751714213885 76.58051301036086
    vertex -9.02193841590435 4.31330815263984 82.635007351672
    vertex -2.250922431210062 9.743374580127533 80.18412596617675
  endloop
endfacet
facet normal 0.886801 0.427061 -0.176642
  outer loop
    vertex 6.234898018587335 7.818314824680296 70
    vertex 8.547863762388459 5.18980010208931 75.25700080670005
    vertex 10 -2.449293598294707e-15 70
  endloop
endfacet
facet normal 0.549912 -0.829277 -0.0994797
  outer loop
    vertex 1.900498378259986 -9.817744441277291 87.70747647607558
    vertex 8.10869549064018 -5.852269426476503 88.96889717115674
    vertex 6.234898018587334 -7.818314824680299 95
  endloop
endfacet
facet normal 0.549912 0.829277 -0.0994797
  outer loop
    vertex 6.234898018587335 7.818314824680296 95
    vertex 8.108695490640157 5.852269426476533 88.96889717115674
    vertex 1.900498378312408 9.817744441267145 87.70747647609475
  endloop
endfacet
facet normal -0.948568 0.310559 0.0614142
  outer loop
    vertex -9.999999999649242 -8.37566047518111e-05 76.64526393910273
    vertex -8.071289593176335 5.903751714213885 76.58051301036086
    vertex -9.00968867902419 4.338837391175582 70
  endloop
endfacet
facet normal -0.948563 -0.310575 0.0614177
  outer loop
    vertex -9.009688679024192 -4.33883739117558 70
    vertex -8.071015580820198 -5.904126310823439 76.58197720905861
    vertex -9.999999999649242 -8.37566047518111e-05 76.64526393910273
  endloop
endfacet
facet normal 0.963013 0.269457 -0
  outer loop
    vertex 10 -2.449293598294707e-15 70
    vertex 8.547863762388459 5.18980010208931 75.25700080670005
    vertex 10 -2.449293598294707e-15 78.33333333333333
  endloop
endfacet
facet normal 0.945686 0.314154 0.0835835
  outer loop
    vertex 10 -2.449293598294707e-15 78.33333333333333
    vertex 8.547863762388459 5.18980010208931 75.25700080670005
    vertex 7.395833333333344 6.730649991312534 82.5
  endloop
endfacet
facet normal -0.987003 0.000644105 0.160703
  outer loop
    vertex -9.999999999649242 -8.37566047518111e-05 76.64526393910273
    vertex -9.009688679024503 -4.338837391174936 82.74492059384026
    vertex -9.02193841590435 4.31330815263984 82.635007351672
  endloop
endfacet
facet normal -0.883224 0.425338 0.197493
  outer loop
    vertex -6.234898018587335 7.818314824680299 87.5504487914543
    vertex -9.02193841590435 4.31330815263984 82.635007351672
    vertex -10 9.249302032872776e-13 87.55044879145476
  endloop
endfacet
facet normal -0.882426 -0.424954 0.201836
  outer loop
    vertex -10 9.249302032872776e-13 87.55044879145476
    vertex -9.009688679024503 -4.338837391174936 82.74492059384026
    vertex -6.234898018587337 -7.818314824680296 87.5504487914543
  endloop
endfacet
facet normal -0.980104 -0.00390864 -0.198448
  outer loop
    vertex -9.02193841590435 4.31330815263984 82.635007351672
    vertex -9.009688679024503 -4.338837391174936 82.74492059384026
    vertex -10 9.249302032872776e-13 87.55044879145476
  endloop
endfacet
facet normal 0.529244 -0.846578 0.056631
  outer loop
    vertex 7.395833333333396 -6.730649991312475 82.5
    vertex 8.10869549064018 -5.852269426476503 88.96889717115674
    vertex 1.900498378259986 -9.817744441277291 87.70747647607558
  endloop
endfacet
facet normal 0.529244 0.846578 0.056631
  outer loop
    vertex 1.900498378312408 9.817744441267145 87.70747647609475
    vertex 8.108695490640157 5.852269426476533 88.96889717115674
    vertex 7.395833333333344 6.730649991312534 82.5
  endloop
endfacet
facet normal 0.942798 0.328037 -0.0593523
  outer loop
    vertex 7.395833333333344 6.730649991312534 82.5
    vertex 8.108695490640157 5.852269426476533 88.96889717115674
    vertex 10 -2.449293598294707e-15 86.66666666666669
  endloop
endfacet
facet normal 0.942798 -0.328037 -0.0593523
  outer loop
    vertex 10 -2.449293598294707e-15 86.66666666666669
    vertex 8.10869549064018 -5.852269426476503 88.96889717115674
    vertex 7.395833333333396 -6.730649991312475 82.5
  endloop
endfacet
facet normal 0.941909 -0.331671 0.0529259
  outer loop
    vertex 7.395833333333396 -6.730649991312475 82.5
    vertex 8.0237137537246 -5.96825079887656 76.10349870655838
    vertex 10 -2.449293598294707e-15 78.33333333333333
  endloop
endfacet
facet normal 0.665009 0.744973 -0.0527103
  outer loop
    vertex 7.395833333333344 6.730649991312534 82.5
    vertex 8.547863762388459 5.18980010208931 75.25700080670005
    vertex 4.387247973401076 8.986214732571671 76.42144671173732
  endloop
endfacet
facet normal -0.948691 -0.309252 -0.0659493
  outer loop
    vertex -8.071015580820198 -5.904126310823439 76.58197720905861
    vertex -9.009688679024503 -4.338837391174936 82.74492059384026
    vertex -9.999999999649242 -8.37566047518111e-05 76.64526393910273
  endloop
endfacet
facet normal -0.948597 0.309152 -0.0677338
  outer loop
    vertex -9.999999999649242 -8.37566047518111e-05 76.64526393910273
    vertex -9.02193841590435 4.31330815263984 82.635007351672
    vertex -8.071289593176335 5.903751714213885 76.58051301036086
  endloop
endfacet
facet normal 0.624881 -0.778921 0.0529624
  outer loop
    vertex 6.234898018587334 -7.818314824680299 70
    vertex 8.0237137537246 -5.96825079887656 76.10349870655838
    vertex 3.940141172607088 -9.191043876509699 76.88607982691255
  endloop
endfacet
facet normal 0.682357 0.728221 0.0638903
  outer loop
    vertex 4.387247973401076 8.986214732571671 76.42144671173732
    vertex 8.547863762388459 5.18980010208931 75.25700080670005
    vertex 6.234898018587335 7.818314824680296 70
  endloop
endfacet
facet normal 0.615206 -0.787655 -0.033492
  outer loop
    vertex 3.940141172607088 -9.191043876509699 76.88607982691255
    vertex 8.0237137537246 -5.96825079887656 76.10349870655838
    vertex 7.395833333333396 -6.730649991312475 82.5
  endloop
endfacet
facet normal -0 0 1
  outer loop
    vertex -9.00968867902419 4.338837391175582 95
    vertex 1.141943682471589e-15 -3.806478941571965e-16 95
    vertex -2.225209339563141 9.749279121818237 95
  endloop
endfacet
facet normal 0 0 1
  outer loop
    vertex -2.225209339563141 9.749279121818237 95
    vertex 1.141943682471589e-15 -3.806478941571965e-16 95
    vertex 6.234898018587335 7.818314824680296 95
  endloop
endfacet
facet normal 0 0 1
  outer loop
    vertex -9.009688679024192 -4.33883739117558 95
    vertex 1.141943682471589e-15 -3.806478941571965e-16 95
    vertex -9.00968867902419 4.338837391175582 95
  endloop
endfacet
facet normal 0 0 1
  outer loop
    vertex 6.234898018587335 7.818314824680296 95
    vertex 1.141943682471589e-15 -3.806478941571965e-16 95
    vertex 10 -2.449293598294707e-15 95
  endloop
endfacet
facet normal 0 -0 1
  outer loop
    vertex -2.225209339563137 -9.749279121818237 95
    vertex 1.141943682471589e-15 -3.806478941571965e-16 95
    vertex -9.009688679024192 -4.33883739117558 95
  endloop
endfacet
facet normal 0 0 1
  outer loop
    vertex 10 -2.449293598294707e-15 95
    vertex 1.141943682471589e-15 -3.806478941571965e-16 95
    vertex 6.234898018587334 -7.818314824680299 95
  endloop
endfacet
facet normal 0 0 1
  outer loop
    vertex 6.234898018587334 -7.818314824680299 95
    vertex 1.141943682471589e-15 -3.806478941571965e-16 95
    vertex -2.225209339563137 -9.749279121818237 95
  endloop
endfacet
endsolid Created by Gmsh
