solid Created by Gmsh
facet normal -0 0 -1
  outer loop
    vertex 13.33333333333333 2.666666666666667 0
    vertex 8.7112568306011 1.066666666666667 0
    vertex 6.666666666666668 5.333333333333333 0
  endloop
endfacet
facet normal 0 0 -1
  outer loop
    vertex -6.666666666666666 5.333333333333333 0
    vertex -8.293333333333329 1.199999999999999 0
    vertex -13.33333333333333 2.666666666666667 0
  endloop
endfacet
facet normal 0 0 -1
  outer loop
    vertex 6.666666666666684 -2.666666666666663 0
    vertex 8.7112568306011 1.066666666666667 0
    vertex 13.33333333333334 -1.333333333333331 0
  endloop
endfacet
facet normal 0 0 -1
  outer loop
    vertex -13.33333333333332 -1.333333333333337 0
    vertex -8.293333333333329 1.199999999999999 0
    vertex -6.666666666666658 -2.666666666666669 0
  endloop
endfacet
facet normal 0 0 -1
  outer loop
    vertex -8.293333333333329 1.199999999999999 0
    vertex -3.011730418943531 1.533333333333332 0
    vertex -6.666666666666658 -2.666666666666669 0
  endloop
endfacet
facet normal 0 -0 -1
  outer loop
    vertex -6.666666666666666 5.333333333333333 0
    vertex -3.011730418943531 1.533333333333332 0
    vertex -8.293333333333329 1.199999999999999 0
  endloop
endfacet
facet normal 0 0 -1
  outer loop
    vertex -6.666666666666658 -2.666666666666669 0
    vertex -3.011730418943531 1.533333333333332 0
    vertex 0 -4 0
  endloop
endfacet
facet normal -0 0 -1
  outer loop
    vertex 6.666666666666668 5.333333333333333 0
    vertex 3.17214329083182 1.544444444444445 0
    vertex 0 8 0
  endloop
endfacet
facet normal 0 -0 -1
  outer loop
    vertex 0 8 0
    vertex 3.17214329083182 1.544444444444445 0
    vertex -3.011730418943531 1.533333333333332 0
  endloop
endfacet
facet normal 0 0 -1
  outer loop
    vertex -13.33333333333333 2.666666666666667 0
    vertex -8.293333333333329 1.199999999999999 0
    vertex -13.33333333333332 -1.333333333333337 0
  endloop
endfacet
facet normal 0 0 -1
  outer loop
    vertex 13.33333333333334 -1.333333333333331 0
    vertex 8.7112568306011 1.066666666666667 0
    vertex 13.33333333333333 2.666666666666667 0
  endloop
endfacet
facet normal 0 0 -1
  outer loop
    vertex 0 8 0
    vertex -3.011730418943531 1.533333333333332 0
    vertex -6.666666666666666 5.333333333333333 0
  endloop
endfacet
facet normal 0 0 -1
  outer loop
    vertex 0 -4 0
    vertex 3.17214329083182 1.544444444444445 0
    vertex 6.666666666666684 -2.666666666666663 0
  endloop
endfacet
facet normal 0 0 -1
  outer loop
    vertex -3.011730418943531 1.533333333333332 0
    vertex 3.17214329083182 1.544444444444445 0
    vertex 0 -4 0
  endloop
endfacet
facet normal 0 0 -1
  outer loop
    vertex 8.7112568306011 1.066666666666667 0
    vertex 3.17214329083182 1.544444444444445 0
    vertex 6.666666666666668 5.333333333333333 0
  endloop
endfacet
facet normal 0 0 -1
  outer loop
    vertex 6.666666666666684 -2.666666666666663 0
    vertex 3.17214329083182 1.544444444444445 0
    vertex 8.7112568306011 1.066666666666667 0
  endloop
endfacet
facet normal 0 0 -1
  outer loop
    vertex -13.33333333333332 -1.333333333333337 0
    vertex -20 0 0
    vertex -13.33333333333333 2.666666666666667 0
  endloop
endfacet
facet normal 0 0 -1
  outer loop
    vertex 13.33333333333333 2.666666666666667 0
    vertex 20 0 0
    vertex 13.33333333333334 -1.333333333333331 0
  endloop
endfacet
facet normal -0.371391 0.928477 8.96903e-18
  outer loop
    vertex -6.66666666666667 5.333333333333331 38.51851851851846
    vertex -13.44220304913436 2.623118780346258 41.23607848685992
    vertex -7.147416898918646 5.141033240432541 48.88888888888884
  endloop
endfacet
facet normal -0.371391 0.928477 4.25826e-17
  outer loop
    vertex -13.44220304913436 2.623118780346258 41.23607848685992
    vertex -14.79411342084687 2.08235463166125 48.82204380300973
    vertex -7.147416898918646 5.141033240432541 48.88888888888884
  endloop
endfacet
facet normal -0.371391 0.928477 1.89229e-17
  outer loop
    vertex -14.64789339186714 2.140842643253143 12.20733137595759
    vertex -13.46254203027766 2.614983187888938 20.89345125828129
    vertex -6.905334934615915 5.237866026153633 13.79623096594457
  endloop
endfacet
facet normal -0.371391 0.928477 -4.41168e-17
  outer loop
    vertex -5.352106608132848 5.85915735674686 67.79266862404241
    vertex -6.495855954769487 5.401657618092204 59.10805932734408
    vertex -13.09466506538407 2.76213397384637 66.20376903405543
  endloop
endfacet
facet normal -0.371391 0.928477 3.05067e-17
  outer loop
    vertex -6.905334934615915 5.237866026153633 13.79623096594457
    vertex -13.46254203027766 2.614983187888938 20.89345125828129
    vertex -6.61905284381862 5.352378862472551 23.79252613847772
  endloop
endfacet
facet normal -0.371391 0.928477 -1.81922e-17
  outer loop
    vertex -13.09466506538407 2.76213397384637 66.20376903405543
    vertex -6.495855954769487 5.401657618092204 59.10805932734408
    vertex -13.38094715618137 2.64762113752745 56.20747386152222
  endloop
endfacet
facet normal -0.371391 0.928477 -3.90694e-17
  outer loop
    vertex -13.09466506538407 2.76213397384637 66.20376903405543
    vertex -15.26976067333073 1.892095730667707 74.24009123773976
    vertex -9.920804967936256 4.031678012825497 73.88557604353224
  endloop
endfacet
facet normal -0.371391 0.928477 -9.76734e-18
  outer loop
    vertex -6.905334934615915 5.237866026153633 13.79623096594457
    vertex -4.730239326669262 6.107904269332295 5.759908762260242
    vertex -10.07919503206374 3.968321987174505 6.114423956467763
  endloop
endfacet
facet normal -0.371391 0.928477 0
  outer loop
    vertex -6.61905284381862 5.352378862472551 23.79252613847772
    vertex -13.46254203027766 2.614983187888938 20.89345125828129
    vertex -12.60297101136426 2.958811595454297 31.1201746248635
  endloop
endfacet
facet normal -0.371391 0.928477 -7.51433e-18
  outer loop
    vertex -6.66666666666667 5.333333333333331 38.51851851851846
    vertex -5.177738104369906 5.928904758252036 31.13068830081636
    vertex -12.60297101136426 2.958811595454297 31.1201746248635
  endloop
endfacet
facet normal -0.371391 0.928477 0
  outer loop
    vertex -12.60297101136426 2.958811595454297 31.1201746248635
    vertex -5.177738104369906 5.928904758252036 31.13068830081636
    vertex -6.61905284381862 5.352378862472551 23.79252613847772
  endloop
endfacet
facet normal -0.371391 0.928477 -5.60057e-17
  outer loop
    vertex -12.60297101136426 2.958811595454297 31.1201746248635
    vertex -13.44220304913436 2.623118780346258 41.23607848685992
    vertex -6.66666666666667 5.333333333333331 38.51851851851846
  endloop
endfacet
facet normal -0.371391 0.928477 0
  outer loop
    vertex -13.38094715618137 2.64762113752745 56.20747386152222
    vertex -6.495855954769487 5.401657618092204 59.10805932734408
    vertex -7.147416898918646 5.141033240432541 48.88888888888884
  endloop
endfacet
facet normal -0.371391 0.928477 5.85071e-17
  outer loop
    vertex -7.147416898918646 5.141033240432541 48.88888888888884
    vertex -14.79411342084687 2.08235463166125 48.82204380300973
    vertex -13.38094715618137 2.64762113752745 56.20747386152222
  endloop
endfacet
facet normal -0.371391 0.928477 -7.35976e-17
  outer loop
    vertex -20 0 71.11111111111117
    vertex -15.26976067333073 1.892095730667707 74.24009123773976
    vertex -13.09466506538407 2.76213397384637 66.20376903405543
  endloop
endfacet
facet normal -0.371391 0.928477 -3.67988e-17
  outer loop
    vertex 0 8 8.888888888888872
    vertex -4.730239326669262 6.107904269332295 5.759908762260242
    vertex -6.905334934615915 5.237866026153633 13.79623096594457
  endloop
endfacet
facet normal -0.371391 0.928477 0
  outer loop
    vertex -10.07919503206374 3.968321987174505 6.114423956467763
    vertex -15.61208435145284 1.755166259418863 5.442128844262846
    vertex -14.64789339186714 2.140842643253143 12.20733137595759
  endloop
endfacet
facet normal -0.371391 0.928477 8.96779e-17
  outer loop
    vertex -9.920804967936256 4.031678012825497 73.88557604353224
    vertex -4.387915648547148 6.244833740581139 74.55787115573716
    vertex -5.352106608132848 5.85915735674686 67.79266862404241
  endloop
endfacet
facet normal -0.371391 0.928477 0
  outer loop
    vertex 0 8 35.55555555555548
    vertex -6.66666666666667 5.333333333333331 38.51851851851846
    vertex 0 8 44.44444444444439
  endloop
endfacet
facet normal -0.371391 0.928477 0
  outer loop
    vertex -20 0 62.22222222222226
    vertex -13.38094715618137 2.64762113752745 56.20747386152222
    vertex -20 0 53.33333333333333
  endloop
endfacet
facet normal -0.371391 0.928477 0
  outer loop
    vertex -20 0 35.55555555555548
    vertex -12.60297101136426 2.958811595454297 31.1201746248635
    vertex -20 0 26.66666666666661
  endloop
endfacet
facet normal -0.371391 0.928477 -2.86399e-18
  outer loop
    vertex -6.66666666666667 5.333333333333331 38.51851851851846
    vertex -7.147416898918646 5.141033240432541 48.88888888888884
    vertex 0 8 44.44444444444439
  endloop
endfacet
facet normal -0.371391 0.928477 0
  outer loop
    vertex 0 8 44.44444444444439
    vertex -7.147416898918646 5.141033240432541 48.88888888888884
    vertex 0 8 53.33333333333333
  endloop
endfacet
facet normal -0.371391 0.928477 0
  outer loop
    vertex 0 8 17.77777777777774
    vertex -6.61905284381862 5.352378862472551 23.79252613847772
    vertex 0 8 26.66666666666661
  endloop
endfacet
facet normal -0.371391 0.928477 0
  outer loop
    vertex -20 0 71.11111111111117
    vertex -13.09466506538407 2.76213397384637 66.20376903405543
    vertex -20 0 62.22222222222226
  endloop
endfacet
facet normal -0.371391 0.928477 0
  outer loop
    vertex 0 8 8.888888888888872
    vertex -6.905334934615915 5.237866026153633 13.79623096594457
    vertex 0 8 17.77777777777774
  endloop
endfacet
facet normal -0.371391 0.928477 0
  outer loop
    vertex 0 8 0
    vertex -4.730239326669262 6.107904269332295 5.759908762260242
    vertex 0 8 8.888888888888872
  endloop
endfacet
facet normal -0.371391 0.928477 0
  outer loop
    vertex -20 0 8.888888888888872
    vertex -15.61208435145284 1.755166259418863 5.442128844262846
    vertex -20 0 0
  endloop
endfacet
facet normal -0.371391 0.928477 0
  outer loop
    vertex 0 8 71.11111111111117
    vertex -4.387915648547148 6.244833740581139 74.55787115573716
    vertex 0 8 80
  endloop
endfacet
facet normal -0.371391 0.928477 0
  outer loop
    vertex -20 0 80
    vertex -15.26976067333073 1.892095730667707 74.24009123773976
    vertex -20 0 71.11111111111117
  endloop
endfacet
facet normal -0.371391 0.928477 0
  outer loop
    vertex 0 8 17.77777777777774
    vertex -6.905334934615915 5.237866026153633 13.79623096594457
    vertex -6.61905284381862 5.352378862472551 23.79252613847772
  endloop
endfacet
facet normal -0.371391 0.928477 0
  outer loop
    vertex -20 0 62.22222222222226
    vertex -13.09466506538407 2.76213397384637 66.20376903405543
    vertex -13.38094715618137 2.64762113752745 56.20747386152222
  endloop
endfacet
facet normal -0.371391 0.928477 -7.35631e-17
  outer loop
    vertex 0 8 35.55555555555548
    vertex -5.177738104369906 5.928904758252036 31.13068830081636
    vertex -6.66666666666667 5.333333333333331 38.51851851851846
  endloop
endfacet
facet normal -0.371391 0.928477 -4.63905e-17
  outer loop
    vertex -20 0 35.55555555555548
    vertex -13.44220304913436 2.623118780346258 41.23607848685992
    vertex -12.60297101136426 2.958811595454297 31.1201746248635
  endloop
endfacet
facet normal -0.371391 0.928477 2.87058e-17
  outer loop
    vertex -12.60297101136426 2.958811595454297 31.1201746248635
    vertex -13.46254203027766 2.614983187888938 20.89345125828129
    vertex -20 0 26.66666666666661
  endloop
endfacet
facet normal -0.371391 0.928477 5.56832e-17
  outer loop
    vertex -6.61905284381862 5.352378862472551 23.79252613847772
    vertex -5.177738104369906 5.928904758252036 31.13068830081636
    vertex 0 8 26.66666666666661
  endloop
endfacet
facet normal -0.371391 0.928477 5.87821e-18
  outer loop
    vertex -7.147416898918646 5.141033240432541 48.88888888888884
    vertex -6.495855954769487 5.401657618092204 59.10805932734408
    vertex 0 8 53.33333333333333
  endloop
endfacet
facet normal -0.371391 0.928477 3.6796e-17
  outer loop
    vertex -13.38094715618137 2.64762113752745 56.20747386152222
    vertex -14.79411342084687 2.08235463166125 48.82204380300973
    vertex -20 0 53.33333333333333
  endloop
endfacet
facet normal -0.371391 0.928477 -1.51496e-17
  outer loop
    vertex -9.920804967936256 4.031678012825497 73.88557604353224
    vertex -5.352106608132848 5.85915735674686 67.79266862404241
    vertex -13.09466506538407 2.76213397384637 66.20376903405543
  endloop
endfacet
facet normal -0.371391 0.928477 -1.51496e-17
  outer loop
    vertex -10.07919503206374 3.968321987174505 6.114423956467763
    vertex -14.64789339186714 2.140842643253143 12.20733137595759
    vertex -6.905334934615915 5.237866026153633 13.79623096594457
  endloop
endfacet
facet normal -0.371391 0.928477 4.0461e-17
  outer loop
    vertex -6.666666666666666 5.333333333333333 80
    vertex -9.920804967936256 4.031678012825497 73.88557604353224
    vertex -13.33333333333333 2.666666666666667 80
  endloop
endfacet
facet normal -0.371391 0.928477 0
  outer loop
    vertex -13.33333333333333 2.666666666666667 0
    vertex -10.07919503206374 3.968321987174505 6.114423956467763
    vertex -6.666666666666666 5.333333333333333 0
  endloop
endfacet
facet normal -0.371391 0.928477 3.74746e-17
  outer loop
    vertex -14.64789339186714 2.140842643253143 12.20733137595759
    vertex -15.61208435145284 1.755166259418863 5.442128844262846
    vertex -20 0 8.888888888888872
  endloop
endfacet
facet normal -0.371391 0.928477 1.37407e-16
  outer loop
    vertex -5.352106608132848 5.85915735674686 67.79266862404241
    vertex -4.387915648547148 6.244833740581139 74.55787115573716
    vertex 0 8 71.11111111111117
  endloop
endfacet
facet normal -0.371391 0.928477 0
  outer loop
    vertex -20 0 17.77777777777774
    vertex -14.64789339186714 2.140842643253143 12.20733137595759
    vertex -20 0 8.888888888888872
  endloop
endfacet
facet normal -0.371391 0.928477 0
  outer loop
    vertex 0 8 62.22222222222226
    vertex -5.352106608132848 5.85915735674686 67.79266862404241
    vertex 0 8 71.11111111111117
  endloop
endfacet
facet normal -0.371391 0.928477 0
  outer loop
    vertex -20 0 17.77777777777774
    vertex -13.46254203027766 2.614983187888938 20.89345125828129
    vertex -14.64789339186714 2.140842643253143 12.20733137595759
  endloop
endfacet
facet normal -0.371391 0.928477 -3.1206e-17
  outer loop
    vertex 0 8 62.22222222222226
    vertex -6.495855954769487 5.401657618092204 59.10805932734408
    vertex -5.352106608132848 5.85915735674686 67.79266862404241
  endloop
endfacet
facet normal -0.371391 0.928477 0
  outer loop
    vertex -20 0 26.66666666666661
    vertex -13.46254203027766 2.614983187888938 20.89345125828129
    vertex -20 0 17.77777777777774
  endloop
endfacet
facet normal -0.371391 0.928477 0
  outer loop
    vertex -20 0 44.44444444444439
    vertex -13.44220304913436 2.623118780346258 41.23607848685992
    vertex -20 0 35.55555555555548
  endloop
endfacet
facet normal -0.371391 0.928477 0
  outer loop
    vertex 0 8 26.66666666666661
    vertex -5.177738104369906 5.928904758252036 31.13068830081636
    vertex 0 8 35.55555555555548
  endloop
endfacet
facet normal -0.371391 0.928477 3.63205e-17
  outer loop
    vertex -20 0 44.44444444444439
    vertex -14.79411342084687 2.08235463166125 48.82204380300973
    vertex -13.44220304913436 2.623118780346258 41.23607848685992
  endloop
endfacet
facet normal -0.371391 0.928477 0
  outer loop
    vertex -20 0 53.33333333333333
    vertex -14.79411342084687 2.08235463166125 48.82204380300973
    vertex -20 0 44.44444444444439
  endloop
endfacet
facet normal -0.371391 0.928477 0
  outer loop
    vertex 0 8 53.33333333333333
    vertex -6.495855954769487 5.401657618092204 59.10805932734408
    vertex 0 8 62.22222222222226
  endloop
endfacet
facet normal -0.371391 0.928477 5.23656e-17
  outer loop
    vertex -9.920804967936256 4.031678012825497 73.88557604353224
    vertex -15.26976067333073 1.892095730667707 74.24009123773976
    vertex -13.33333333333333 2.666666666666667 80
  endloop
endfacet
facet normal -0.371391 0.928477 2.61828e-17
  outer loop
    vertex -10.07919503206374 3.968321987174505 6.114423956467763
    vertex -4.730239326669262 6.107904269332295 5.759908762260242
    vertex -6.666666666666666 5.333333333333333 0
  endloop
endfacet
facet normal -0.371391 0.928477 -2.60614e-17
  outer loop
    vertex -13.33333333333333 2.666666666666667 0
    vertex -15.61208435145284 1.755166259418863 5.442128844262846
    vertex -10.07919503206374 3.968321987174505 6.114423956467763
  endloop
endfacet
facet normal -0.371391 0.928477 -6.51535e-17
  outer loop
    vertex -6.666666666666666 5.333333333333333 80
    vertex -4.387915648547148 6.244833740581139 74.55787115573716
    vertex -9.920804967936256 4.031678012825497 73.88557604353224
  endloop
endfacet
facet normal -0.371391 0.928477 -9.09188e-17
  outer loop
    vertex -20 0 0
    vertex -15.61208435145284 1.755166259418863 5.442128844262846
    vertex -13.33333333333333 2.666666666666667 0
  endloop
endfacet
facet normal -0.371391 0.928477 -1.81838e-16
  outer loop
    vertex 0 8 80
    vertex -4.387915648547148 6.244833740581139 74.55787115573716
    vertex -6.666666666666666 5.333333333333333 80
  endloop
endfacet
facet normal -0.371391 0.928477 6.4427e-17
  outer loop
    vertex -6.666666666666666 5.333333333333333 0
    vertex -4.730239326669262 6.107904269332295 5.759908762260242
    vertex 0 8 0
  endloop
endfacet
facet normal -0.371391 0.928477 8.59027e-17
  outer loop
    vertex -13.33333333333333 2.666666666666667 80
    vertex -15.26976067333073 1.892095730667707 74.24009123773976
    vertex -20 0 80
  endloop
endfacet
facet normal 0.371391 0.928477 1.06958e-16
  outer loop
    vertex 13.33333333333333 2.666666666666671 38.51851851851846
    vertex 6.516194935912785 5.393522025634886 41.23456790123451
    vertex 12.85258310108135 2.858966759567462 48.88888888888886
  endloop
endfacet
facet normal 0.371391 0.928477 2.12655e-17
  outer loop
    vertex 6.516194935912785 5.393522025634886 41.23456790123451
    vertex 5.197566176162551 5.920973529534979 48.82174168588466
    vertex 12.85258310108135 2.858966759567462 48.88888888888886
  endloop
endfacet
facet normal 0.371391 0.928477 6.30239e-18
  outer loop
    vertex 14.64789339186715 2.14084264325314 67.79266862404241
    vertex 13.50414404523051 2.598342381907798 59.10805932734408
    vertex 6.905334934615923 5.237866026153631 66.20376903405543
  endloop
endfacet
facet normal 0.371391 0.928477 -4.41168e-17
  outer loop
    vertex 5.352106608132858 5.859157356746858 12.20733137595759
    vertex 6.49585595476949 5.401657618092205 20.89194067265587
    vertex 13.09466506538408 2.762133973846367 13.79623096594457
  endloop
endfacet
facet normal 0.371391 0.928477 -3.48684e-17
  outer loop
    vertex 13.09466506538408 2.762133973846367 13.79623096594457
    vertex 6.49585595476949 5.401657618092205 20.89194067265587
    vertex 13.38094715618138 2.647621137527449 23.79252613847772
  endloop
endfacet
facet normal 0.371391 0.928477 3.03203e-18
  outer loop
    vertex 6.905334934615923 5.237866026153631 66.20376903405543
    vertex 13.50414404523051 2.598342381907798 59.10805932734408
    vertex 6.619052843818625 5.35237886247255 56.20747386152223
  endloop
endfacet
facet normal 0.371391 0.928477 1.95347e-17
  outer loop
    vertex 6.905334934615923 5.237866026153631 66.20376903405543
    vertex 4.730239326669267 6.107904269332293 74.24009123773976
    vertex 10.07919503206374 3.968321987174503 73.88557604353224
  endloop
endfacet
facet normal 0.371391 0.928477 -9.76734e-18
  outer loop
    vertex 13.09466506538408 2.762133973846367 13.79623096594457
    vertex 15.26976067333074 1.892095730667705 5.759908762260242
    vertex 9.920804967936263 4.031678012825495 6.114423956467763
  endloop
endfacet
facet normal 0.371391 0.928477 5.8994e-17
  outer loop
    vertex 7.147416898918618 5.141033240432554 31.11111111111104
    vertex 14.77233947768667 2.091064208925334 31.12887559806586
    vertex 13.38094715618138 2.647621137527449 23.79252613847772
  endloop
endfacet
facet normal 0.371391 0.928477 0
  outer loop
    vertex 13.38094715618138 2.647621137527449 23.79252613847772
    vertex 6.49585595476949 5.401657618092205 20.89194067265587
    vertex 7.147416898918618 5.141033240432554 31.11111111111104
  endloop
endfacet
facet normal 0.371391 0.928477 7.35219e-17
  outer loop
    vertex 7.147416898918618 5.141033240432554 31.11111111111104
    vertex 6.516194935912785 5.393522025634886 41.23456790123451
    vertex 13.33333333333333 2.666666666666671 38.51851851851846
  endloop
endfacet
facet normal 0.371391 0.928477 -7.31451e-17
  outer loop
    vertex 13.33333333333333 2.666666666666671 38.51851851851846
    vertex 14.77233947768667 2.091064208925334 31.12887559806586
    vertex 7.147416898918618 5.141033240432554 31.11111111111104
  endloop
endfacet
facet normal 0.371391 0.928477 0
  outer loop
    vertex 12.85258310108135 2.858966759567462 48.88888888888886
    vertex 5.197566176162551 5.920973529534979 48.82174168588466
    vertex 6.619052843818625 5.35237886247255 56.20747386152223
  endloop
endfacet
facet normal 0.371391 0.928477 -4.8176e-17
  outer loop
    vertex 6.619052843818625 5.35237886247255 56.20747386152223
    vertex 13.50414404523051 2.598342381907798 59.10805932734408
    vertex 12.85258310108135 2.858966759567462 48.88888888888886
  endloop
endfacet
facet normal 0.371391 0.928477 7.35976e-17
  outer loop
    vertex 0 8 71.11111111111117
    vertex 4.730239326669267 6.107904269332293 74.24009123773976
    vertex 6.905334934615923 5.237866026153631 66.20376903405543
  endloop
endfacet
facet normal 0.371391 0.928477 3.67988e-17
  outer loop
    vertex 20 0 8.888888888888872
    vertex 15.26976067333074 1.892095730667705 5.759908762260242
    vertex 13.09466506538408 2.762133973846367 13.79623096594457
  endloop
endfacet
facet normal 0.371391 0.928477 -1.34517e-16
  outer loop
    vertex 9.920804967936263 4.031678012825495 6.114423956467763
    vertex 4.387915648547158 6.244833740581137 5.442128844262847
    vertex 5.352106608132858 5.859157356746858 12.20733137595759
  endloop
endfacet
facet normal 0.371391 0.928477 -4.48389e-17
  outer loop
    vertex 10.07919503206374 3.968321987174503 73.88557604353224
    vertex 15.61208435145285 1.755166259418862 74.55787115573716
    vertex 14.64789339186715 2.14084264325314 67.79266862404241
  endloop
endfacet
facet normal 0.371391 0.928477 -0
  outer loop
    vertex 20 0 35.55555555555548
    vertex 13.33333333333333 2.666666666666671 38.51851851851846
    vertex 20 0 44.44444444444439
  endloop
endfacet
facet normal 0.371391 0.928477 0
  outer loop
    vertex 0 8 62.22222222222226
    vertex 6.619052843818625 5.35237886247255 56.20747386152223
    vertex 0 8 53.33333333333333
  endloop
endfacet
facet normal 0.371391 0.928477 0
  outer loop
    vertex 0 8 35.55555555555548
    vertex 7.147416898918618 5.141033240432554 31.11111111111104
    vertex 0 8 26.66666666666661
  endloop
endfacet
facet normal 0.371391 0.928477 9.16476e-17
  outer loop
    vertex 20 0 44.44444444444439
    vertex 13.33333333333333 2.666666666666671 38.51851851851846
    vertex 12.85258310108135 2.858966759567462 48.88888888888886
  endloop
endfacet
facet normal 0.371391 0.928477 -0
  outer loop
    vertex 20 0 17.77777777777774
    vertex 13.38094715618138 2.647621137527449 23.79252613847772
    vertex 20 0 26.66666666666661
  endloop
endfacet
facet normal 0.371391 0.928477 -0
  outer loop
    vertex 20 0 44.44444444444439
    vertex 12.85258310108135 2.858966759567462 48.88888888888886
    vertex 20 0 53.33333333333333
  endloop
endfacet
facet normal 0.371391 0.928477 0
  outer loop
    vertex 0 8 71.11111111111117
    vertex 6.905334934615923 5.237866026153631 66.20376903405543
    vertex 0 8 62.22222222222226
  endloop
endfacet
facet normal 0.371391 0.928477 -0
  outer loop
    vertex 20 0 8.888888888888872
    vertex 13.09466506538408 2.762133973846367 13.79623096594457
    vertex 20 0 17.77777777777774
  endloop
endfacet
facet normal 0.371391 0.928477 -0
  outer loop
    vertex 20 0 0
    vertex 15.26976067333074 1.892095730667705 5.759908762260242
    vertex 20 0 8.888888888888872
  endloop
endfacet
facet normal 0.371391 0.928477 0
  outer loop
    vertex 0 8 8.888888888888872
    vertex 4.387915648547158 6.244833740581137 5.442128844262847
    vertex 0 8 0
  endloop
endfacet
facet normal 0.371391 0.928477 -0
  outer loop
    vertex 20 0 71.11111111111117
    vertex 15.61208435145285 1.755166259418862 74.55787115573716
    vertex 20 0 80
  endloop
endfacet
facet normal 0.371391 0.928477 0
  outer loop
    vertex 0 8 80
    vertex 4.730239326669267 6.107904269332293 74.24009123773976
    vertex 0 8 71.11111111111117
  endloop
endfacet
facet normal 0.371391 0.928477 0
  outer loop
    vertex 0 8 62.22222222222226
    vertex 6.905334934615923 5.237866026153631 66.20376903405543
    vertex 6.619052843818625 5.35237886247255 56.20747386152223
  endloop
endfacet
facet normal 0.371391 0.928477 0
  outer loop
    vertex 20 0 17.77777777777774
    vertex 13.09466506538408 2.762133973846367 13.79623096594457
    vertex 13.38094715618138 2.647621137527449 23.79252613847772
  endloop
endfacet
facet normal 0.371391 0.928477 -3.66508e-17
  outer loop
    vertex 20 0 35.55555555555548
    vertex 14.77233947768667 2.091064208925334 31.12887559806586
    vertex 13.33333333333333 2.666666666666671 38.51851851851846
  endloop
endfacet
facet normal 0.371391 0.928477 4.74271e-17
  outer loop
    vertex 0 8 35.55555555555548
    vertex 6.516194935912785 5.393522025634886 41.23456790123451
    vertex 7.147416898918618 5.141033240432554 31.11111111111104
  endloop
endfacet
facet normal 0.371391 0.928477 8.81732e-18
  outer loop
    vertex 7.147416898918618 5.141033240432554 31.11111111111104
    vertex 6.49585595476949 5.401657618092205 20.89194067265587
    vertex 0 8 26.66666666666661
  endloop
endfacet
facet normal 0.371391 0.928477 2.77595e-17
  outer loop
    vertex 13.38094715618138 2.647621137527449 23.79252613847772
    vertex 14.77233947768667 2.091064208925334 31.12887559806586
    vertex 20 0 26.66666666666661
  endloop
endfacet
facet normal 0.371391 0.928477 -4.99648e-17
  outer loop
    vertex 12.85258310108135 2.858966759567462 48.88888888888886
    vertex 13.50414404523051 2.598342381907798 59.10805932734408
    vertex 20 0 53.33333333333333
  endloop
endfacet
facet normal 0.371391 0.928477 0
  outer loop
    vertex 6.619052843818625 5.35237886247255 56.20747386152223
    vertex 5.197566176162551 5.920973529534979 48.82174168588466
    vertex 0 8 53.33333333333333
  endloop
endfacet
facet normal 0.371391 0.928477 -7.57481e-17
  outer loop
    vertex 9.920804967936263 4.031678012825495 6.114423956467763
    vertex 5.352106608132858 5.859157356746858 12.20733137595759
    vertex 13.09466506538408 2.762133973846367 13.79623096594457
  endloop
endfacet
facet normal 0.371391 0.928477 0
  outer loop
    vertex 10.07919503206374 3.968321987174503 73.88557604353224
    vertex 14.64789339186715 2.14084264325314 67.79266862404241
    vertex 6.905334934615923 5.237866026153631 66.20376903405543
  endloop
endfacet
facet normal 0.371391 0.928477 -4.0461e-17
  outer loop
    vertex 13.33333333333333 2.666666666666667 80
    vertex 10.07919503206374 3.968321987174503 73.88557604353224
    vertex 6.666666666666668 5.333333333333333 80
  endloop
endfacet
facet normal 0.371391 0.928477 4.0461e-17
  outer loop
    vertex 6.666666666666668 5.333333333333333 0
    vertex 9.920804967936263 4.031678012825495 6.114423956467763
    vertex 13.33333333333333 2.666666666666667 0
  endloop
endfacet
facet normal 0.371391 0.928477 -1.12424e-16
  outer loop
    vertex 5.352106608132858 5.859157356746858 12.20733137595759
    vertex 4.387915648547158 6.244833740581137 5.442128844262847
    vertex 0 8 8.888888888888872
  endloop
endfacet
facet normal 0.371391 0.928477 -6.24577e-17
  outer loop
    vertex 14.64789339186715 2.14084264325314 67.79266862404241
    vertex 15.61208435145285 1.755166259418862 74.55787115573716
    vertex 20 0 71.11111111111117
  endloop
endfacet
facet normal 0.371391 0.928477 -0
  outer loop
    vertex 20 0 62.22222222222226
    vertex 14.64789339186715 2.14084264325314 67.79266862404241
    vertex 20 0 71.11111111111117
  endloop
endfacet
facet normal 0.371391 0.928477 0
  outer loop
    vertex 0 8 17.77777777777774
    vertex 5.352106608132858 5.859157356746858 12.20733137595759
    vertex 0 8 8.888888888888872
  endloop
endfacet
facet normal 0.371391 0.928477 -3.1206e-17
  outer loop
    vertex 20 0 62.22222222222226
    vertex 13.50414404523051 2.598342381907798 59.10805932734408
    vertex 14.64789339186715 2.14084264325314 67.79266862404241
  endloop
endfacet
facet normal 0.371391 0.928477 0
  outer loop
    vertex 0 8 17.77777777777774
    vertex 6.49585595476949 5.401657618092205 20.89194067265587
    vertex 5.352106608132858 5.859157356746858 12.20733137595759
  endloop
endfacet
facet normal 0.371391 0.928477 0
  outer loop
    vertex 0 8 26.66666666666661
    vertex 6.49585595476949 5.401657618092205 20.89194067265587
    vertex 0 8 17.77777777777774
  endloop
endfacet
facet normal 0.371391 0.928477 0
  outer loop
    vertex 0 8 44.44444444444439
    vertex 6.516194935912785 5.393522025634886 41.23456790123451
    vertex 0 8 35.55555555555548
  endloop
endfacet
facet normal 0.371391 0.928477 -0
  outer loop
    vertex 20 0 26.66666666666661
    vertex 14.77233947768667 2.091064208925334 31.12887559806586
    vertex 20 0 35.55555555555548
  endloop
endfacet
facet normal 0.371391 0.928477 3.64835e-17
  outer loop
    vertex 0 8 44.44444444444439
    vertex 5.197566176162551 5.920973529534979 48.82174168588466
    vertex 6.516194935912785 5.393522025634886 41.23456790123451
  endloop
endfacet
facet normal 0.371391 0.928477 0
  outer loop
    vertex 0 8 53.33333333333333
    vertex 5.197566176162551 5.920973529534979 48.82174168588466
    vertex 0 8 44.44444444444439
  endloop
endfacet
facet normal 0.371391 0.928477 -0
  outer loop
    vertex 20 0 53.33333333333333
    vertex 13.50414404523051 2.598342381907798 59.10805932734408
    vertex 20 0 62.22222222222226
  endloop
endfacet
facet normal 0.371391 0.928477 -5.23656e-17
  outer loop
    vertex 10.07919503206374 3.968321987174503 73.88557604353224
    vertex 4.730239326669267 6.107904269332293 74.24009123773976
    vertex 6.666666666666668 5.333333333333333 80
  endloop
endfacet
facet normal 0.371391 0.928477 2.61828e-17
  outer loop
    vertex 9.920804967936263 4.031678012825495 6.114423956467763
    vertex 15.26976067333074 1.892095730667705 5.759908762260242
    vertex 13.33333333333333 2.666666666666667 0
  endloop
endfacet
facet normal 0.371391 0.928477 0
  outer loop
    vertex 13.33333333333333 2.666666666666667 80
    vertex 15.61208435145285 1.755166259418862 74.55787115573716
    vertex 10.07919503206374 3.968321987174503 73.88557604353224
  endloop
endfacet
facet normal 0.371391 0.928477 5.21228e-17
  outer loop
    vertex 6.666666666666668 5.333333333333333 0
    vertex 4.387915648547158 6.244833740581137 5.442128844262847
    vertex 9.920804967936263 4.031678012825495 6.114423956467763
  endloop
endfacet
facet normal 0.371391 0.928477 -6.4427e-17
  outer loop
    vertex 13.33333333333333 2.666666666666667 0
    vertex 15.26976067333074 1.892095730667705 5.759908762260242
    vertex 20 0 0
  endloop
endfacet
facet normal 0.371391 0.928477 4.54594e-17
  outer loop
    vertex 0 8 0
    vertex 4.387915648547158 6.244833740581137 5.442128844262847
    vertex 6.666666666666668 5.333333333333333 0
  endloop
endfacet
facet normal 0.371391 0.928477 -8.59027e-17
  outer loop
    vertex 6.666666666666668 5.333333333333333 80
    vertex 4.730239326669267 6.107904269332293 74.24009123773976
    vertex 0 8 80
  endloop
endfacet
facet normal 0.371391 0.928477 9.09188e-17
  outer loop
    vertex 20 0 80
    vertex 15.61208435145285 1.755166259418862 74.55787115573716
    vertex 13.33333333333333 2.666666666666667 80
  endloop
endfacet
facet normal 0.196116 -0.980581 -1.58041e-17
  outer loop
    vertex 14.74963414104901 -1.050073171790198 12.18671632723655
    vertex 13.80370729548507 -1.239258540902986 21.29328459614033
    vertex 7.019832509562722 -2.596033498087456 13.77981930051294
  endloop
endfacet
facet normal 0.196116 -0.980581 2.32081e-17
  outer loop
    vertex 5.268200795568939 -2.946359840886212 67.84817028230515
    vertex 7.199756499200287 -2.560048700159943 57.89875978082527
    vertex 13.08717711014499 -1.382564577971001 66.42950035673735
  endloop
endfacet
facet normal 0.196116 -0.980581 -2.13189e-17
  outer loop
    vertex 14.12838210402569 -1.174323579194861 57.68031449340109
    vertex 7.199756499200287 -2.560048700159943 57.89875978082527
    vertex 12.45148643903599 -1.509702712192803 48.88888888888888
  endloop
endfacet
facet normal 0.196116 -0.980581 -3.45355e-18
  outer loop
    vertex 7.199756499200287 -2.560048700159943 57.89875978082527
    vertex 5.439951299840047 -2.912009740031991 48.91308528949836
    vertex 12.45148643903599 -1.509702712192803 48.88888888888888
  endloop
endfacet
facet normal 0.196116 -0.980581 -9.21654e-18
  outer loop
    vertex 7.019832509562722 -2.596033498087456 13.77981930051294
    vertex 13.80370729548507 -1.239258540902986 21.29328459614033
    vertex 6.620685233928327 -2.675862953214335 23.78492310735088
  endloop
endfacet
facet normal 0.196116 -0.980581 3.24477e-17
  outer loop
    vertex 13.08717711014499 -1.382564577971001 66.42950035673735
    vertex 7.199756499200287 -2.560048700159943 57.89875978082527
    vertex 14.12838210402569 -1.174323579194861 57.68031449340109
  endloop
endfacet
facet normal 0.196116 -0.980581 -1.02029e-17
  outer loop
    vertex 13.08717711014499 -1.382564577971001 66.42950035673735
    vertex 15.22923114555745 -0.9541537708885108 74.30669322765509
    vertex 9.725645284308897 -2.054870943138221 73.99285467042685
  endloop
endfacet
facet normal 0.196116 -0.980581 -1.00115e-17
  outer loop
    vertex 7.019832509562722 -2.596033498087456 13.77981930051294
    vertex 4.792170778384099 -3.04156584432318 5.735170703794991
    vertex 10.27435471569111 -1.945129056861778 6.007145329573145
  endloop
endfacet
facet normal 0.196116 -0.980581 -1.96043e-17
  outer loop
    vertex 20 0 71.11111111111117
    vertex 15.22923114555745 -0.9541537708885108 74.30669322765509
    vertex 13.08717711014499 -1.382564577971001 66.42950035673735
  endloop
endfacet
facet normal 0.196116 -0.980581 0
  outer loop
    vertex 0 -4 8.888888888888872
    vertex 4.792170778384099 -3.04156584432318 5.735170703794991
    vertex 7.019832509562722 -2.596033498087456 13.77981930051294
  endloop
endfacet
facet normal 0.196116 -0.980581 2.51328e-17
  outer loop
    vertex 6.620685233928327 -2.675862953214335 23.78492310735088
    vertex 13.80370729548507 -1.239258540902986 21.29328459614033
    vertex 12.67230710703798 -1.465538578592404 31.33435409470086
  endloop
endfacet
facet normal 0.196116 -0.980581 -6.95547e-17
  outer loop
    vertex 7.548513560963974 -2.490297287807206 39.99999999999994
    vertex 5.368301180386053 -2.926339763922789 31.46829988485475
    vertex 12.67230710703798 -1.465538578592404 31.33435409470086
  endloop
endfacet
facet normal 0.196116 -0.980581 1.40749e-17
  outer loop
    vertex 7.548513560963974 -2.490297287807206 39.99999999999994
    vertex 14.53446142140759 -1.093107715718482 40.04464859671791
    vertex 12.45148643903599 -1.509702712192803 48.88888888888888
  endloop
endfacet
facet normal 0.196116 -0.980581 3.11315e-17
  outer loop
    vertex 12.67230710703798 -1.465538578592404 31.33435409470086
    vertex 5.368301180386053 -2.926339763922789 31.46829988485475
    vertex 6.620685233928327 -2.675862953214335 23.78492310735088
  endloop
endfacet
facet normal 0.196116 -0.980581 -1.07493e-17
  outer loop
    vertex 12.67230710703798 -1.465538578592404 31.33435409470086
    vertex 14.53446142140759 -1.093107715718482 40.04464859671791
    vertex 7.548513560963974 -2.490297287807206 39.99999999999994
  endloop
endfacet
facet normal 0.196116 -0.980581 4.18426e-17
  outer loop
    vertex 12.45148643903599 -1.509702712192803 48.88888888888888
    vertex 5.439951299840047 -2.912009740031991 48.91308528949836
    vertex 7.548513560963974 -2.490297287807206 39.99999999999994
  endloop
endfacet
facet normal 0.196116 -0.980581 0
  outer loop
    vertex 10.27435471569111 -1.945129056861778 6.007145329573145
    vertex 15.67146443801469 -0.8657071123970617 5.416550109139714
    vertex 14.74963414104901 -1.050073171790198 12.18671632723655
  endloop
endfacet
facet normal 0.196116 -0.980581 -4.86482e-17
  outer loop
    vertex 9.725645284308897 -2.054870943138221 73.99285467042685
    vertex 4.332102549308901 -3.13357949013822 74.59042721276863
    vertex 5.268200795568939 -2.946359840886212 67.84817028230515
  endloop
endfacet
facet normal 0.196116 -0.980581 0
  outer loop
    vertex 20 0 8.888888888888872
    vertex 15.67146443801469 -0.8657071123970617 5.416550109139714
    vertex 20 0 0
  endloop
endfacet
facet normal 0.196116 -0.980581 0
  outer loop
    vertex 0 -4 0
    vertex 4.792170778384099 -3.04156584432318 5.735170703794991
    vertex 0 -4 8.888888888888872
  endloop
endfacet
facet normal 0.196116 -0.980581 0
  outer loop
    vertex 20 0 80
    vertex 15.22923114555745 -0.9541537708885108 74.30669322765509
    vertex 20 0 71.11111111111117
  endloop
endfacet
facet normal 0.196116 -0.980581 0
  outer loop
    vertex 0 -4 71.11111111111117
    vertex 4.332102549308901 -3.13357949013822 74.59042721276863
    vertex 0 -4 80
  endloop
endfacet
facet normal 0.196116 -0.980581 0
  outer loop
    vertex 20 0 53.33333333333333
    vertex 12.45148643903599 -1.509702712192803 48.88888888888888
    vertex 20 0 44.44444444444439
  endloop
endfacet
facet normal 0.196116 -0.980581 0
  outer loop
    vertex 0 -4 35.55555555555548
    vertex 7.548513560963974 -2.490297287807206 39.99999999999994
    vertex 0 -4 44.44444444444439
  endloop
endfacet
facet normal 0.196116 -0.980581 0
  outer loop
    vertex 20 0 62.22222222222226
    vertex 14.12838210402569 -1.174323579194861 57.68031449340109
    vertex 20 0 53.33333333333333
  endloop
endfacet
facet normal 0.196116 -0.980581 -2.95685e-17
  outer loop
    vertex 14.12838210402569 -1.174323579194861 57.68031449340109
    vertex 12.45148643903599 -1.509702712192803 48.88888888888888
    vertex 20 0 53.33333333333333
  endloop
endfacet
facet normal 0.196116 -0.980581 0
  outer loop
    vertex 20 0 35.55555555555548
    vertex 12.67230710703798 -1.465538578592404 31.33435409470086
    vertex 20 0 26.66666666666661
  endloop
endfacet
facet normal 0.196116 -0.980581 0
  outer loop
    vertex 0 -4 17.77777777777774
    vertex 6.620685233928327 -2.675862953214335 23.78492310735088
    vertex 0 -4 26.66666666666661
  endloop
endfacet
facet normal 0.196116 -0.980581 0
  outer loop
    vertex 20 0 71.11111111111117
    vertex 13.08717711014499 -1.382564577971001 66.42950035673735
    vertex 20 0 62.22222222222226
  endloop
endfacet
facet normal 0.196116 -0.980581 0
  outer loop
    vertex 0 -4 8.888888888888872
    vertex 7.019832509562722 -2.596033498087456 13.77981930051294
    vertex 0 -4 17.77777777777774
  endloop
endfacet
facet normal 0.196116 -0.980581 -2.53774e-17
  outer loop
    vertex 0 -4 17.77777777777774
    vertex 7.019832509562722 -2.596033498087456 13.77981930051294
    vertex 6.620685233928327 -2.675862953214335 23.78492310735088
  endloop
endfacet
facet normal 0.196116 -0.980581 3.10487e-17
  outer loop
    vertex 20 0 62.22222222222226
    vertex 13.08717711014499 -1.382564577971001 66.42950035673735
    vertex 14.12838210402569 -1.174323579194861 57.68031449340109
  endloop
endfacet
facet normal 0.196116 -0.980581 -2.37975e-17
  outer loop
    vertex 10.27435471569111 -1.945129056861778 6.007145329573145
    vertex 14.74963414104901 -1.050073171790198 12.18671632723655
    vertex 7.019832509562722 -2.596033498087456 13.77981930051294
  endloop
endfacet
facet normal 0.196116 -0.980581 -1.60189e-17
  outer loop
    vertex 9.725645284308897 -2.054870943138221 73.99285467042685
    vertex 5.268200795568939 -2.946359840886212 67.84817028230515
    vertex 13.08717711014499 -1.382564577971001 66.42950035673735
  endloop
endfacet
facet normal 0.196116 -0.980581 -2.27187e-17
  outer loop
    vertex 12.45148643903599 -1.509702712192803 48.88888888888888
    vertex 14.53446142140759 -1.093107715718482 40.04464859671791
    vertex 20 0 44.44444444444439
  endloop
endfacet
facet normal 0.196116 -0.980581 -6.3674e-17
  outer loop
    vertex 0 -4 35.55555555555548
    vertex 5.368301180386053 -2.926339763922789 31.46829988485475
    vertex 7.548513560963974 -2.490297287807206 39.99999999999994
  endloop
endfacet
facet normal 0.196116 -0.980581 3.68569e-17
  outer loop
    vertex 6.620685233928327 -2.675862953214335 23.78492310735088
    vertex 5.368301180386053 -2.926339763922789 31.46829988485475
    vertex 0 -4 26.66666666666661
  endloop
endfacet
facet normal 0.196116 -0.980581 3.11237e-17
  outer loop
    vertex 20 0 35.55555555555548
    vertex 14.53446142140759 -1.093107715718482 40.04464859671791
    vertex 12.67230710703798 -1.465538578592404 31.33435409470086
  endloop
endfacet
facet normal 0.196116 -0.980581 3.00792e-17
  outer loop
    vertex 7.548513560963974 -2.490297287807206 39.99999999999994
    vertex 5.439951299840047 -2.912009740031991 48.91308528949836
    vertex 0 -4 44.44444444444439
  endloop
endfacet
facet normal 0.196116 -0.980581 2.55043e-17
  outer loop
    vertex 12.67230710703798 -1.465538578592404 31.33435409470086
    vertex 13.80370729548507 -1.239258540902986 21.29328459614033
    vertex 20 0 26.66666666666661
  endloop
endfacet
facet normal 0.196116 -0.980581 -3.34913e-18
  outer loop
    vertex 14.74963414104901 -1.050073171790198 12.18671632723655
    vertex 15.67146443801469 -0.8657071123970617 5.416550109139714
    vertex 20 0 8.888888888888872
  endloop
endfacet
facet normal 0.196116 -0.980581 -6.37133e-17
  outer loop
    vertex 5.268200795568939 -2.946359840886212 67.84817028230515
    vertex 4.332102549308901 -3.13357949013822 74.59042721276863
    vertex 0 -4 71.11111111111117
  endloop
endfacet
facet normal 0.196116 -0.980581 0
  outer loop
    vertex 6.666666666666684 -2.666666666666663 80
    vertex 9.725645284308897 -2.054870943138221 73.99285467042685
    vertex 13.33333333333334 -1.333333333333331 80
  endloop
endfacet
facet normal 0.196116 -0.980581 2.17474e-17
  outer loop
    vertex 13.33333333333334 -1.333333333333331 0
    vertex 10.27435471569111 -1.945129056861778 6.007145329573145
    vertex 6.666666666666684 -2.666666666666663 0
  endloop
endfacet
facet normal 0.196116 -0.980581 0
  outer loop
    vertex 0 -4 62.22222222222226
    vertex 5.268200795568939 -2.946359840886212 67.84817028230515
    vertex 0 -4 71.11111111111117
  endloop
endfacet
facet normal 0.196116 -0.980581 0
  outer loop
    vertex 20 0 17.77777777777774
    vertex 14.74963414104901 -1.050073171790198 12.18671632723655
    vertex 20 0 8.888888888888872
  endloop
endfacet
facet normal 0.196116 -0.980581 2.75252e-17
  outer loop
    vertex 0 -4 62.22222222222226
    vertex 7.199756499200287 -2.560048700159943 57.89875978082527
    vertex 5.268200795568939 -2.946359840886212 67.84817028230515
  endloop
endfacet
facet normal 0.196116 -0.980581 -1.64012e-17
  outer loop
    vertex 20 0 17.77777777777774
    vertex 13.80370729548507 -1.239258540902986 21.29328459614033
    vertex 14.74963414104901 -1.050073171790198 12.18671632723655
  endloop
endfacet
facet normal 0.196116 -0.980581 0
  outer loop
    vertex 20 0 26.66666666666661
    vertex 13.80370729548507 -1.239258540902986 21.29328459614033
    vertex 20 0 17.77777777777774
  endloop
endfacet
facet normal 0.196116 -0.980581 0
  outer loop
    vertex 20 0 44.44444444444439
    vertex 14.53446142140759 -1.093107715718482 40.04464859671791
    vertex 20 0 35.55555555555548
  endloop
endfacet
facet normal 0.196116 -0.980581 0
  outer loop
    vertex 0 -4 26.66666666666661
    vertex 5.368301180386053 -2.926339763922789 31.46829988485475
    vertex 0 -4 35.55555555555548
  endloop
endfacet
facet normal 0.196116 -0.980581 0
  outer loop
    vertex 0 -4 44.44444444444439
    vertex 5.439951299840047 -2.912009740031991 48.91308528949836
    vertex 0 -4 53.33333333333333
  endloop
endfacet
facet normal 0.196116 -0.980581 0
  outer loop
    vertex 0 -4 53.33333333333333
    vertex 5.439951299840047 -2.912009740031991 48.91308528949836
    vertex 7.199756499200287 -2.560048700159943 57.89875978082527
  endloop
endfacet
facet normal 0.196116 -0.980581 0
  outer loop
    vertex 0 -4 53.33333333333333
    vertex 7.199756499200287 -2.560048700159943 57.89875978082527
    vertex 0 -4 62.22222222222226
  endloop
endfacet
facet normal 0.196116 -0.980581 5.6976e-17
  outer loop
    vertex 6.666666666666684 -2.666666666666663 80
    vertex 4.332102549308901 -3.13357949013822 74.59042721276863
    vertex 9.725645284308897 -2.054870943138221 73.99285467042685
  endloop
endfacet
facet normal 0.196116 -0.980581 -1.36387e-17
  outer loop
    vertex 9.725645284308897 -2.054870943138221 73.99285467042685
    vertex 15.22923114555745 -0.9541537708885108 74.30669322765509
    vertex 13.33333333333334 -1.333333333333331 80
  endloop
endfacet
facet normal 0.196116 -0.980581 -1.36291e-17
  outer loop
    vertex 10.27435471569111 -1.945129056861778 6.007145329573145
    vertex 4.792170778384099 -3.04156584432318 5.735170703794991
    vertex 6.666666666666684 -2.666666666666663 0
  endloop
endfacet
facet normal 0.196116 -0.980581 3.55603e-17
  outer loop
    vertex 13.33333333333334 -1.333333333333331 0
    vertex 15.67146443801469 -0.8657071123970617 5.416550109139714
    vertex 10.27435471569111 -1.945129056861778 6.007145329573145
  endloop
endfacet
facet normal 0.196116 -0.980581 4.82994e-17
  outer loop
    vertex 0 -4 80
    vertex 4.332102549308901 -3.13357949013822 74.59042721276863
    vertex 6.666666666666684 -2.666666666666663 80
  endloop
endfacet
facet normal 0.196116 -0.980581 -1.13893e-17
  outer loop
    vertex 6.666666666666684 -2.666666666666663 0
    vertex 4.792170778384099 -3.04156584432318 5.735170703794991
    vertex 0 -4 0
  endloop
endfacet
facet normal 0.196116 -0.980581 -1.14731e-17
  outer loop
    vertex 13.33333333333334 -1.333333333333331 80
    vertex 15.22923114555745 -0.9541537708885108 74.30669322765509
    vertex 20 0 80
  endloop
endfacet
facet normal 0.196116 -0.980581 2.41186e-17
  outer loop
    vertex 20 0 0
    vertex 15.67146443801469 -0.8657071123970617 5.416550109139714
    vertex 13.33333333333334 -1.333333333333331 0
  endloop
endfacet
facet normal -0.196116 -0.980581 -1.5861e-17
  outer loop
    vertex -5.250365858950991 -2.949926828209802 12.18671632723655
    vertex -6.222580879277069 -2.755483824144586 21.26670805047488
    vertex -12.98016749043728 -1.403966501912544 13.77981930051294
  endloop
endfacet
facet normal -0.196116 -0.980581 0
  outer loop
    vertex -12.98016749043727 -1.403966501912545 66.22018069948705
    vertex -6.222580879277065 -2.755483824144587 58.73329194952508
    vertex -5.250365858950984 -2.949926828209803 67.81328367276343
  endloop
endfacet
facet normal -0.196116 -0.980581 1.85045e-17
  outer loop
    vertex -12.98016749043728 -1.403966501912544 13.77981930051294
    vertex -6.222580879277069 -2.755483824144586 21.26670805047488
    vertex -13.37931476607167 -1.324137046785665 23.78492310735088
  endloop
endfacet
facet normal -0.196116 -0.980581 -2.31307e-17
  outer loop
    vertex -13.37931476607168 -1.324137046785664 56.21507689264906
    vertex -6.222580879277065 -2.755483824144587 58.73329194952508
    vertex -12.98016749043727 -1.403966501912545 66.22018069948705
  endloop
endfacet
facet normal -0.196116 -0.980581 -1.00115e-17
  outer loop
    vertex -9.725645284308884 -2.054870943138223 73.99285467042684
    vertex -15.2078292216159 -0.9584341556768208 74.26482929620502
    vertex -12.98016749043727 -1.403966501912545 66.22018069948705
  endloop
endfacet
facet normal -0.196116 -0.980581 1.00115e-17
  outer loop
    vertex -12.98016749043728 -1.403966501912544 13.77981930051294
    vertex -15.2078292216159 -0.9584341556768203 5.735170703794991
    vertex -9.725645284308891 -2.054870943138222 6.007145329573146
  endloop
endfacet
facet normal -0.196116 -0.980581 9.55455e-18
  outer loop
    vertex -12.98016749043727 -1.403966501912545 66.22018069948705
    vertex -15.2078292216159 -0.9584341556768208 74.26482929620502
    vertex -20 0 71.11111111111117
  endloop
endfacet
facet normal -0.196116 -0.980581 1.91091e-17
  outer loop
    vertex -20 0 8.888888888888872
    vertex -15.2078292216159 -0.9584341556768203 5.735170703794991
    vertex -12.98016749043728 -1.403966501912544 13.77981930051294
  endloop
endfacet
facet normal -0.196116 -0.980581 -2.59535e-17
  outer loop
    vertex -13.37931476607167 -1.324137046785665 23.78492310735088
    vertex -6.222580879277069 -2.755483824144586 21.26670805047488
    vertex -7.548513560963955 -2.490297287807209 31.11111111111104
  endloop
endfacet
facet normal -0.196116 -0.980581 3.52194e-17
  outer loop
    vertex -12.45148643903603 -1.509702712192794 39.99999999999994
    vertex -14.67586295321433 -1.064827409357133 31.42365128813679
    vertex -7.548513560963955 -2.490297287807209 31.11111111111104
  endloop
endfacet
facet normal -0.196116 -0.980581 0
  outer loop
    vertex -7.548513560963955 -2.490297287807209 31.11111111111104
    vertex -14.67586295321433 -1.064827409357133 31.42365128813679
    vertex -13.37931476607167 -1.324137046785665 23.78492310735088
  endloop
endfacet
facet normal -0.196116 -0.980581 4.20608e-17
  outer loop
    vertex -7.548513560963955 -2.490297287807209 31.11111111111104
    vertex -5.463049045626435 -2.907390190874713 39.99999999999994
    vertex -12.45148643903603 -1.509702712192794 39.99999999999994
  endloop
endfacet
facet normal -0.196116 -0.980581 -2.80405e-17
  outer loop
    vertex -12.45148643903603 -1.509702712192794 39.99999999999994
    vertex -5.463049045626435 -2.907390190874713 39.99999999999994
    vertex -7.548513560963999 -2.4902972878072 48.88888888888887
  endloop
endfacet
facet normal -0.196116 -0.980581 -5.6351e-17
  outer loop
    vertex -7.548513560963999 -2.4902972878072 48.88888888888887
    vertex -14.67586295321435 -1.064827409357131 48.57634871186313
    vertex -12.45148643903603 -1.509702712192794 39.99999999999994
  endloop
endfacet
facet normal -0.196116 -0.980581 -9.73255e-18
  outer loop
    vertex -7.548513560963999 -2.4902972878072 48.88888888888887
    vertex -6.222580879277065 -2.755483824144587 58.73329194952508
    vertex -13.37931476607168 -1.324137046785664 56.21507689264906
  endloop
endfacet
facet normal -0.196116 -0.980581 5.64088e-17
  outer loop
    vertex -13.37931476607168 -1.324137046785664 56.21507689264906
    vertex -14.67586295321435 -1.064827409357131 48.57634871186313
    vertex -7.548513560963999 -2.4902972878072 48.88888888888887
  endloop
endfacet
facet normal -0.196116 -0.980581 2.41959e-17
  outer loop
    vertex -9.725645284308891 -2.054870943138222 6.007145329573146
    vertex -4.328535561985309 -3.134292887602938 5.416550109139713
    vertex -5.250365858950991 -2.949926828209802 12.18671632723655
  endloop
endfacet
facet normal -0.196116 -0.980581 3.02449e-18
  outer loop
    vertex -5.250365858950984 -2.949926828209803 67.81328367276343
    vertex -4.328535561985306 -3.134292887602939 74.58344989086029
    vertex -9.725645284308884 -2.054870943138223 73.99285467042684
  endloop
endfacet
facet normal -0.196116 -0.980581 -0
  outer loop
    vertex 0 -4 8.888888888888872
    vertex -4.328535561985309 -3.134292887602938 5.416550109139713
    vertex 0 -4 0
  endloop
endfacet
facet normal -0.196116 -0.980581 0
  outer loop
    vertex -20 0 0
    vertex -15.2078292216159 -0.9584341556768203 5.735170703794991
    vertex -20 0 8.888888888888872
  endloop
endfacet
facet normal -0.196116 -0.980581 -0
  outer loop
    vertex 0 -4 80
    vertex -4.328535561985306 -3.134292887602939 74.58344989086029
    vertex 0 -4 71.11111111111117
  endloop
endfacet
facet normal -0.196116 -0.980581 0
  outer loop
    vertex -20 0 71.11111111111117
    vertex -15.2078292216159 -0.9584341556768208 74.26482929620502
    vertex -20 0 80
  endloop
endfacet
facet normal -0.196116 -0.980581 -0
  outer loop
    vertex 0 -4 53.33333333333333
    vertex -7.548513560963999 -2.4902972878072 48.88888888888887
    vertex 0 -4 44.44444444444439
  endloop
endfacet
facet normal -0.196116 -0.980581 0
  outer loop
    vertex -20 0 35.55555555555548
    vertex -12.45148643903603 -1.509702712192794 39.99999999999994
    vertex -20 0 44.44444444444439
  endloop
endfacet
facet normal -0.196116 -0.980581 0
  outer loop
    vertex -20 0 53.33333333333333
    vertex -13.37931476607168 -1.324137046785664 56.21507689264906
    vertex -20 0 62.22222222222226
  endloop
endfacet
facet normal -0.196116 -0.980581 -0
  outer loop
    vertex 0 -4 35.55555555555548
    vertex -7.548513560963955 -2.490297287807209 31.11111111111104
    vertex 0 -4 26.66666666666661
  endloop
endfacet
facet normal -0.196116 -0.980581 0
  outer loop
    vertex -20 0 17.77777777777774
    vertex -13.37931476607167 -1.324137046785665 23.78492310735088
    vertex -20 0 26.66666666666661
  endloop
endfacet
facet normal -0.196116 -0.980581 0
  outer loop
    vertex -20 0 62.22222222222226
    vertex -12.98016749043727 -1.403966501912545 66.22018069948705
    vertex -20 0 71.11111111111117
  endloop
endfacet
facet normal -0.196116 -0.980581 0
  outer loop
    vertex -20 0 8.888888888888872
    vertex -12.98016749043728 -1.403966501912544 13.77981930051294
    vertex -20 0 17.77777777777774
  endloop
endfacet
facet normal -0.196116 -0.980581 0
  outer loop
    vertex -20 0 17.77777777777774
    vertex -12.98016749043728 -1.403966501912544 13.77981930051294
    vertex -13.37931476607167 -1.324137046785665 23.78492310735088
  endloop
endfacet
facet normal -0.196116 -0.980581 -2.69635e-17
  outer loop
    vertex -13.37931476607168 -1.324137046785664 56.21507689264906
    vertex -12.98016749043727 -1.403966501912545 66.22018069948705
    vertex -20 0 62.22222222222226
  endloop
endfacet
facet normal -0.196116 -0.980581 2.37975e-17
  outer loop
    vertex -9.725645284308891 -2.054870943138222 6.007145329573146
    vertex -5.250365858950991 -2.949926828209802 12.18671632723655
    vertex -12.98016749043728 -1.403966501912544 13.77981930051294
  endloop
endfacet
facet normal -0.196116 -0.980581 -1.5865e-17
  outer loop
    vertex -12.98016749043727 -1.403966501912545 66.22018069948705
    vertex -5.250365858950984 -2.949926828209803 67.81328367276343
    vertex -9.725645284308884 -2.054870943138223 73.99285467042684
  endloop
endfacet
facet normal -0.196116 -0.980581 0
  outer loop
    vertex -20 0 35.55555555555548
    vertex -14.67586295321433 -1.064827409357133 31.42365128813679
    vertex -12.45148643903603 -1.509702712192794 39.99999999999994
  endloop
endfacet
facet normal -0.196116 -0.980581 3.01208e-17
  outer loop
    vertex 0 -4 35.55555555555548
    vertex -5.463049045626435 -2.907390190874713 39.99999999999994
    vertex -7.548513560963955 -2.490297287807209 31.11111111111104
  endloop
endfacet
facet normal -0.196116 -0.980581 -2.25906e-17
  outer loop
    vertex -7.548513560963999 -2.4902972878072 48.88888888888887
    vertex -5.463049045626435 -2.907390190874713 39.99999999999994
    vertex 0 -4 44.44444444444439
  endloop
endfacet
facet normal -0.196116 -0.980581 -1.90944e-17
  outer loop
    vertex -7.548513560963955 -2.490297287807209 31.11111111111104
    vertex -6.222580879277069 -2.755483824144586 21.26670805047488
    vertex 0 -4 26.66666666666661
  endloop
endfacet
facet normal -0.196116 -0.980581 -3.96942e-17
  outer loop
    vertex -12.45148643903603 -1.509702712192794 39.99999999999994
    vertex -14.67586295321435 -1.064827409357131 48.57634871186313
    vertex -20 0 44.44444444444439
  endloop
endfacet
facet normal -0.196116 -0.980581 5.57844e-17
  outer loop
    vertex -20 0 53.33333333333333
    vertex -14.67586295321435 -1.064827409357131 48.57634871186313
    vertex -13.37931476607168 -1.324137046785664 56.21507689264906
  endloop
endfacet
facet normal -0.196116 -0.980581 1.85948e-17
  outer loop
    vertex -13.37931476607167 -1.324137046785665 23.78492310735088
    vertex -14.67586295321433 -1.064827409357133 31.42365128813679
    vertex -20 0 26.66666666666661
  endloop
endfacet
facet normal -0.196116 -0.980581 0
  outer loop
    vertex 0 -4 53.33333333333333
    vertex -6.222580879277065 -2.755483824144587 58.73329194952508
    vertex -7.548513560963999 -2.4902972878072 48.88888888888887
  endloop
endfacet
facet normal -0.196116 -0.980581 -3.34913e-18
  outer loop
    vertex -5.250365858950991 -2.949926828209802 12.18671632723655
    vertex -4.328535561985309 -3.134292887602938 5.416550109139713
    vertex 0 -4 8.888888888888872
  endloop
endfacet
facet normal -0.196116 -0.980581 0
  outer loop
    vertex 0 -4 71.11111111111117
    vertex -4.328535561985306 -3.134292887602939 74.58344989086029
    vertex -5.250365858950984 -2.949926828209803 67.81328367276343
  endloop
endfacet
facet normal -0.196116 -0.980581 -4.34947e-17
  outer loop
    vertex -13.33333333333332 -1.333333333333337 80
    vertex -9.725645284308884 -2.054870943138223 73.99285467042684
    vertex -6.666666666666658 -2.666666666666669 80
  endloop
endfacet
facet normal -0.196116 -0.980581 2.17474e-17
  outer loop
    vertex -6.666666666666658 -2.666666666666669 0
    vertex -9.725645284308891 -2.054870943138222 6.007145329573146
    vertex -13.33333333333332 -1.333333333333337 0
  endloop
endfacet
facet normal -0.196116 -0.980581 -0
  outer loop
    vertex 0 -4 71.11111111111117
    vertex -5.250365858950984 -2.949926828209803 67.81328367276343
    vertex 0 -4 62.22222222222226
  endloop
endfacet
facet normal -0.196116 -0.980581 -0
  outer loop
    vertex 0 -4 17.77777777777774
    vertex -5.250365858950991 -2.949926828209802 12.18671632723655
    vertex 0 -4 8.888888888888872
  endloop
endfacet
facet normal -0.196116 -0.980581 -4.09973e-18
  outer loop
    vertex -5.250365858950984 -2.949926828209803 67.81328367276343
    vertex -6.222580879277065 -2.755483824144587 58.73329194952508
    vertex 0 -4 62.22222222222226
  endloop
endfacet
facet normal -0.196116 -0.980581 -1.63989e-17
  outer loop
    vertex 0 -4 17.77777777777774
    vertex -6.222580879277069 -2.755483824144586 21.26670805047488
    vertex -5.250365858950991 -2.949926828209802 12.18671632723655
  endloop
endfacet
facet normal -0.196116 -0.980581 -0
  outer loop
    vertex 0 -4 44.44444444444439
    vertex -5.463049045626435 -2.907390190874713 39.99999999999994
    vertex 0 -4 35.55555555555548
  endloop
endfacet
facet normal -0.196116 -0.980581 -0
  outer loop
    vertex 0 -4 26.66666666666661
    vertex -6.222580879277069 -2.755483824144586 21.26670805047488
    vertex 0 -4 17.77777777777774
  endloop
endfacet
facet normal -0.196116 -0.980581 0
  outer loop
    vertex -20 0 26.66666666666661
    vertex -14.67586295321433 -1.064827409357133 31.42365128813679
    vertex -20 0 35.55555555555548
  endloop
endfacet
facet normal -0.196116 -0.980581 -0
  outer loop
    vertex 0 -4 62.22222222222226
    vertex -6.222580879277065 -2.755483824144587 58.73329194952508
    vertex 0 -4 53.33333333333333
  endloop
endfacet
facet normal -0.196116 -0.980581 0
  outer loop
    vertex -20 0 44.44444444444439
    vertex -14.67586295321435 -1.064827409357131 48.57634871186313
    vertex -20 0 53.33333333333333
  endloop
endfacet
facet normal -0.196116 -0.980581 -4.77019e-17
  outer loop
    vertex -13.33333333333332 -1.333333333333337 80
    vertex -15.2078292216159 -0.9584341556768208 74.26482929620502
    vertex -9.725645284308884 -2.054870943138223 73.99285467042684
  endloop
endfacet
facet normal -0.196116 -0.980581 2.72583e-17
  outer loop
    vertex -9.725645284308891 -2.054870943138222 6.007145329573146
    vertex -15.2078292216159 -0.9584341556768203 5.735170703794991
    vertex -13.33333333333332 -1.333333333333337 0
  endloop
endfacet
facet normal -0.196116 -0.980581 -2.84482e-17
  outer loop
    vertex -9.725645284308884 -2.054870943138223 73.99285467042684
    vertex -4.328535561985306 -3.134292887602939 74.58344989086029
    vertex -6.666666666666658 -2.666666666666669 80
  endloop
endfacet
facet normal -0.196116 -0.980581 6.40085e-17
  outer loop
    vertex -6.666666666666658 -2.666666666666669 0
    vertex -4.328535561985309 -3.134292887602938 5.416550109139713
    vertex -9.725645284308891 -2.054870943138222 6.007145329573146
  endloop
endfacet
facet normal -0.196116 -0.980581 -4.55573e-17
  outer loop
    vertex -20 0 80
    vertex -15.2078292216159 -0.9584341556768208 74.26482929620502
    vertex -13.33333333333332 -1.333333333333337 80
  endloop
endfacet
facet normal -0.196116 -0.980581 0
  outer loop
    vertex -13.33333333333332 -1.333333333333337 0
    vertex -15.2078292216159 -0.9584341556768203 5.735170703794991
    vertex -20 0 0
  endloop
endfacet
facet normal -0.196116 -0.980581 -1.20593e-17
  outer loop
    vertex -6.666666666666658 -2.666666666666669 80
    vertex -4.328535561985306 -3.134292887602939 74.58344989086029
    vertex 0 -4 80
  endloop
endfacet
facet normal -0.196116 -0.980581 7.23558e-17
  outer loop
    vertex 0 -4 0
    vertex -4.328535561985309 -3.134292887602938 5.416550109139713
    vertex -6.666666666666658 -2.666666666666669 0
  endloop
endfacet
facet normal 0 0 1
  outer loop
    vertex 13.33333333333333 2.666666666666667 80
    vertex 6.666666666666668 5.333333333333333 80
    vertex 8.7112568306011 1.066666666666667 80
  endloop
endfacet
facet normal 0 0 1
  outer loop
    vertex -6.666666666666666 5.333333333333333 80
    vertex -13.33333333333333 2.666666666666667 80
    vertex -8.293333333333328 1.199999999999999 80
  endloop
endfacet
facet normal 0 0 1
  outer loop
    vertex 6.666666666666684 -2.666666666666663 80
    vertex 13.33333333333334 -1.333333333333331 80
    vertex 8.7112568306011 1.066666666666667 80
  endloop
endfacet
facet normal -0 0 1
  outer loop
    vertex -13.33333333333332 -1.333333333333337 80
    vertex -6.666666666666658 -2.666666666666669 80
    vertex -8.293333333333328 1.199999999999999 80
  endloop
endfacet
facet normal -0 0 1
  outer loop
    vertex -8.293333333333328 1.199999999999999 80
    vertex -6.666666666666658 -2.666666666666669 80
    vertex -3.011730418943531 1.533333333333332 80
  endloop
endfacet
facet normal 0 0 1
  outer loop
    vertex -6.666666666666666 5.333333333333333 80
    vertex -8.293333333333328 1.199999999999999 80
    vertex -3.011730418943531 1.533333333333332 80
  endloop
endfacet
facet normal -0 0 1
  outer loop
    vertex -6.666666666666658 -2.666666666666669 80
    vertex 0 -4 80
    vertex -3.011730418943531 1.533333333333332 80
  endloop
endfacet
facet normal 0 0 1
  outer loop
    vertex 6.666666666666668 5.333333333333333 80
    vertex 0 8 80
    vertex 3.17214329083182 1.544444444444445 80
  endloop
endfacet
facet normal 0 0 1
  outer loop
    vertex 0 8 80
    vertex -3.011730418943531 1.533333333333332 80
    vertex 3.17214329083182 1.544444444444445 80
  endloop
endfacet
facet normal 0 0 1
  outer loop
    vertex -13.33333333333333 2.666666666666667 80
    vertex -13.33333333333332 -1.333333333333337 80
    vertex -8.293333333333328 1.199999999999999 80
  endloop
endfacet
facet normal 0 0 1
  outer loop
    vertex 13.33333333333334 -1.333333333333331 80
    vertex 13.33333333333333 2.666666666666667 80
    vertex 8.7112568306011 1.066666666666667 80
  endloop
endfacet
facet normal 0 0 1
  outer loop
    vertex 0 8 80
    vertex -6.666666666666666 5.333333333333333 80
    vertex -3.011730418943531 1.533333333333332 80
  endloop
endfacet
facet normal 0 0 1
  outer loop
    vertex 0 -4 80
    vertex 6.666666666666684 -2.666666666666663 80
    vertex 3.17214329083182 1.544444444444445 80
  endloop
endfacet
facet normal -0 0 1
  outer loop
    vertex -3.011730418943531 1.533333333333332 80
    vertex 0 -4 80
    vertex 3.17214329083182 1.544444444444445 80
  endloop
endfacet
facet normal 0 0 1
  outer loop
    vertex 8.7112568306011 1.066666666666667 80
    vertex 6.666666666666668 5.333333333333333 80
    vertex 3.17214329083182 1.544444444444445 80
  endloop
endfacet
facet normal 0 -0 1
  outer loop
    vertex 6.666666666666684 -2.666666666666663 80
    vertex 8.7112568306011 1.066666666666667 80
    vertex 3.17214329083182 1.544444444444445 80
  endloop
endfacet
facet normal 0 0 1
  outer loop
    vertex -13.33333333333332 -1.333333333333337 80
    vertex -13.33333333333333 2.666666666666667 80
    vertex -20 0 80
  endloop
endfacet
facet normal 0 -0 1
  outer loop
    vertex 13.33333333333334 -1.333333333333331 80
    vertex 20 0 80
    vertex 13.33333333333333 2.666666666666667 80
  endloop
endfacet
endsolid Created by Gmsh
